# Blender 5.0.1
# www.blender.org
mtllib AND.mtl
o Cube
v -0.111479 -0.951677 -0.951677
v -0.111479 -0.951677 0.951677
v -0.111479 0.951677 0.951677
v -0.111479 0.951677 -0.951677
v -0.078877 -0.951677 -0.951677
v -0.078877 -0.951677 0.951677
v -0.078877 0.951677 0.951677
v -0.078877 0.951677 -0.951677
v 0.111479 0.931578 -1.000000
v 0.111479 1.000000 -0.931578
v 0.111479 -1.000000 -0.931578
v 0.111479 -0.931578 -1.000000
v 0.111479 1.000000 0.931578
v 0.111479 0.931578 1.000000
v 0.111479 -0.931578 1.000000
v 0.111479 -1.000000 0.931578
v -0.111479 1.000000 -0.931578
v -0.111479 0.931578 -1.000000
v -0.111479 0.951713 -0.951713
v -0.111479 -0.931578 -1.000000
v -0.111479 -1.000000 -0.931578
v -0.111479 -0.951713 -0.951713
v -0.111479 0.931578 1.000000
v -0.111479 1.000000 0.931578
v -0.111479 0.951713 0.951713
v -0.111479 -1.000000 0.931578
v -0.111479 -0.931578 1.000000
v -0.111479 -0.951713 0.951713
v -0.129570 -0.945647 -0.945647
v -0.129570 -0.945647 0.945647
v -0.129570 0.945647 0.945647
v -0.129570 0.945647 -0.945647
v -0.090424 -0.940130 -0.940130
v -0.090424 -0.940130 0.940130
v -0.090424 0.940130 0.940130
v -0.090424 0.940130 -0.940130
v 0.124084 0.937521 -1.014346
v 0.124084 1.014346 -0.937521
v 0.124084 -1.014346 -0.937521
v 0.124084 -0.937521 -1.014346
v 0.124084 1.014346 0.937521
v 0.124084 0.937521 1.014346
v 0.124084 -0.937521 1.014346
v 0.124084 -1.014346 0.937521
v -0.124085 1.014346 -0.937521
v -0.124085 0.937521 -1.014346
v -0.131479 0.951713 -0.951713
v -0.124085 -0.937521 -1.014346
v -0.124085 -1.014346 -0.937521
v -0.131479 -0.951713 -0.951713
v -0.124085 0.937521 1.014346
v -0.124085 1.014346 0.937521
v -0.131479 0.951713 0.951713
v -0.124085 -1.014346 0.937521
v -0.124085 -0.937521 1.014346
v -0.131479 -0.951713 0.951713
vn -0.0000 -1.0000 -0.0000
vn -1.0000 -0.0000 -0.0000
vn -0.0000 -0.0000 -1.0000
vn -0.0000 -0.0000 1.0000
vn -0.0000 1.0000 -0.0000
vn -0.0000 -0.7071 -0.7071
vn -0.0000 0.7071 0.7071
vn -0.0000 -0.7071 0.7071
vn -0.0000 0.7071 -0.7071
vn 1.0000 -0.0000 -0.0000
vn 0.1395 0.9902 -0.0000
vn 0.1395 -0.0000 0.9902
vn 0.1395 -0.0000 -0.9902
vn 0.1395 -0.9902 -0.0000
vn 0.9775 -0.1492 0.1492
vn 0.9775 0.1492 0.1492
vn 0.9775 -0.1492 -0.1492
vn 0.9775 0.1492 -0.1492
vn 0.9968 -0.0000 0.0794
vn 0.9968 -0.0794 -0.0000
vn 0.9968 0.0794 -0.0000
vn 0.9968 -0.0000 -0.0794
vt 0.875000 0.750000
vt 0.875000 0.500000
vt 0.375000 0.000000
vt 0.625000 0.000000
vt 0.625000 0.250000
vt 0.375000 0.250000
vt 0.375000 1.000000
vt 0.625000 1.000000
vt 0.125000 0.500000
vt 0.125000 0.750000
vt 0.616447 0.250000
vt 0.125000 0.508553
vt 0.616447 1.000000
vt 0.125000 0.741447
vt 0.375000 0.508553
vt 0.380702 0.500000
vt 0.625000 0.744298
vt 0.616447 0.750000
vt 0.375000 0.741447
vt 0.380702 0.750000
vt 0.625000 0.505702
vt 0.616447 0.500000
vt 0.383553 0.250000
vt 0.875000 0.508553
vt 0.875000 0.741447
vt 0.383553 1.000000
s 0
usemtl Material
f 3/1/1 4/2/1 8/2/1 7/1/1
f 6/3/2 7/4/2 8/5/2 5/6/2
f 2/7/3 3/8/3 7/8/3 6/7/3
f 4/5/4 1/6/4 5/6/4 8/5/4
f 1/9/5 2/10/5 6/10/5 5/9/5
f 17/5/2 18/11/2 19/5/2
f 20/9/2 21/12/2 22/9/2
f 23/13/2 24/8/2 25/8/2
f 26/14/2 27/10/2 28/10/2
f 11/15/6 21/12/6 20/9/6 12/16/6
f 13/17/7 24/8/7 23/13/7 14/18/7
f 26/14/8 16/19/8 15/20/8 27/10/8
f 17/5/9 10/21/9 9/22/9 18/11/9
f 20/23/3 18/11/3 9/22/3 12/16/3
f 11/15/10 12/16/10 9/22/10 10/21/10 13/17/10 14/18/10 15/20/10 16/19/10
f 10/21/5 17/24/5 24/25/5 13/17/5
f 21/12/1 11/15/1 16/19/1 26/14/1
f 15/20/4 14/18/4 23/13/4 27/26/4
f 19/5/2 18/11/2 20/23/2 22/6/2 1/6/2 4/5/2
f 25/1/2 24/25/2 17/24/2 19/2/2 4/2/2 3/1/2
f 22/9/2 21/12/2 26/14/2 28/10/2 2/10/2 1/9/2
f 28/7/2 27/26/2 23/13/2 25/8/2 3/8/2 2/7/2
usemtl Material.001
f 31/1/11 35/1/11 36/2/11 32/2/11
f 34/3/10 33/6/10 36/5/10 35/4/10
f 30/7/12 34/7/12 35/8/12 31/8/12
f 32/5/13 36/5/13 33/6/13 29/6/13
f 29/9/14 33/9/14 34/10/14 30/10/14
f 45/5/15 47/5/15 46/11/15
f 48/9/16 50/9/16 49/12/16
f 51/13/17 53/8/17 52/8/17
f 54/14/18 56/10/18 55/10/18
f 39/15/7 40/16/7 48/9/7 49/12/7
f 41/17/6 42/18/6 51/13/6 52/8/6
f 54/14/9 55/10/9 43/20/9 44/19/9
f 45/5/8 46/11/8 37/22/8 38/21/8
f 48/23/4 40/16/4 37/22/4 46/11/4
f 39/15/2 44/19/2 43/20/2 42/18/2 41/17/2 38/21/2 37/22/2 40/16/2
f 38/21/1 41/17/1 52/25/1 45/24/1
f 49/12/5 54/14/5 44/19/5 39/15/5
f 43/20/3 55/26/3 51/13/3 42/18/3
f 47/5/19 32/5/19 29/6/19 50/6/19 48/23/19 46/11/19
f 53/1/20 31/1/20 32/2/20 47/2/20 45/24/20 52/25/20
f 50/9/21 29/9/21 30/10/21 56/10/21 54/14/21 49/12/21
f 56/7/22 30/7/22 31/8/22 53/8/22 51/13/22 55/26/22
o Cube.001
v -0.157274 -0.711611 0.000000
v -0.157274 -0.711611 -0.663616
v -0.078877 -0.711611 0.000000
v -0.078877 -0.711611 -0.663616
v -0.157274 0.097592 0.000000
v -0.157274 0.566383 0.000000
v -0.157274 0.331988 0.000000
v -0.157274 0.503577 0.000000
v -0.157274 0.566383 -0.194826
v -0.157274 0.097592 -0.663616
v -0.157274 0.503577 -0.429221
v -0.157274 0.331988 -0.600810
v -0.078877 0.566383 0.000000
v -0.078877 0.097592 0.000000
v -0.078877 0.503577 0.000000
v -0.078877 0.331988 0.000000
v -0.078877 0.097592 -0.663616
v -0.078877 0.566383 -0.194826
v -0.078877 0.331988 -0.600810
v -0.078877 0.503577 -0.429221
v -0.157274 0.566383 -0.097413
v -0.078877 0.566383 -0.097413
v -0.078877 0.894561 0.000000
v -0.157274 0.894561 0.000000
v -0.157274 0.894561 -0.097413
v -0.078877 0.894561 -0.097413
v -0.157274 -0.711611 -0.414248
v -0.157274 -0.711611 -0.249127
v -0.078877 -0.711611 -0.249127
v -0.078877 -0.711611 -0.414248
v -0.157274 -0.952635 -0.414248
v -0.157274 -0.952635 -0.249127
v -0.078877 -0.952635 -0.249127
v -0.078877 -0.952635 -0.414248
v -0.157274 -0.711611 0.663616
v -0.078877 -0.711611 0.663616
v -0.157274 0.566383 0.194826
v -0.157274 0.097592 0.663616
v -0.157274 0.503577 0.429221
v -0.157274 0.331988 0.600810
v -0.078877 0.097592 0.663616
v -0.078877 0.566383 0.194826
v -0.078877 0.331988 0.600810
v -0.078877 0.503577 0.429221
v -0.157274 0.566383 0.097413
v -0.078877 0.566383 0.097413
v -0.157274 0.894561 0.097413
v -0.078877 0.894561 0.097413
v -0.157274 -0.711611 0.414248
v -0.157274 -0.711611 0.249127
v -0.078877 -0.711611 0.249127
v -0.078877 -0.711611 0.414248
v -0.157274 -0.952635 0.414248
v -0.157274 -0.952635 0.249127
v -0.078877 -0.952635 0.249127
v -0.078877 -0.952635 0.414248
v -0.171416 -0.725753 0.000000
v -0.168821 -0.723158 -0.675163
v -0.064735 -0.725753 0.000000
v -0.067330 -0.723158 -0.675163
v -0.177274 0.097592 0.000000
v -0.177274 0.566383 0.000000
v -0.177274 0.331988 0.000000
v -0.177274 0.503577 0.000000
v -0.170851 0.580942 -0.196742
v -0.170851 0.099509 -0.678176
v -0.170338 0.516691 -0.436793
v -0.170338 0.339559 -0.613925
v -0.058877 0.566383 0.000000
v -0.058877 0.097592 0.000000
v -0.058877 0.503577 0.000000
v -0.058877 0.331988 0.000000
v -0.065299 0.099509 -0.678176
v -0.065299 0.580942 -0.196742
v -0.065812 0.339559 -0.613925
v -0.065812 0.516691 -0.436793
v -0.175364 0.572413 -0.103443
v -0.060786 0.572413 -0.103443
v -0.064735 0.908704 0.000000
v -0.171416 0.908704 0.000000
v -0.168821 0.906108 -0.108960
v -0.067330 0.906108 -0.108960
v -0.175364 -0.717641 -0.420279
v -0.175364 -0.717641 -0.243097
v -0.060786 -0.717641 -0.243097
v -0.060786 -0.717641 -0.420279
v -0.168821 -0.964182 -0.425795
v -0.168821 -0.964182 -0.237580
v -0.067330 -0.964182 -0.237580
v -0.067330 -0.964182 -0.425795
v -0.168821 -0.723158 0.675163
v -0.067330 -0.723158 0.675163
v -0.170851 0.580942 0.196742
v -0.170851 0.099509 0.678176
v -0.170338 0.516691 0.436793
v -0.170338 0.339559 0.613925
v -0.065299 0.099509 0.678176
v -0.065299 0.580942 0.196742
v -0.065812 0.339559 0.613925
v -0.065812 0.516691 0.436793
v -0.175364 0.572413 0.103443
v -0.060786 0.572413 0.103443
v -0.168821 0.906108 0.108960
v -0.067330 0.906108 0.108960
v -0.175364 -0.717641 0.420279
v -0.175364 -0.717641 0.243097
v -0.060786 -0.717641 0.243097
v -0.060786 -0.717641 0.420279
v -0.168821 -0.964182 0.425795
v -0.168821 -0.964182 0.237580
v -0.067330 -0.964182 0.237580
v -0.067330 -0.964182 0.425795
vn -0.0000 -1.0000 -0.0000
vn -0.0000 0.9659 -0.2588
vn -0.0000 0.7071 -0.7071
vn -0.0000 0.2588 -0.9659
vn -1.0000 -0.0000 -0.0000
vn -0.0000 -0.0000 -1.0000
vn 1.0000 -0.0000 -0.0000
vn -0.0000 1.0000 -0.0000
vn -0.0000 -0.0000 1.0000
vn -0.0000 0.9659 0.2588
vn -0.0000 0.7071 0.7071
vn -0.0000 0.2588 0.9659
vn -0.0000 0.9994 0.0334
vn -0.0000 -0.9660 0.2586
vn -0.0000 -0.7071 0.7071
vn -0.0000 -0.2586 0.9660
vn 1.0000 -0.0014 0.0084
vn 0.9996 -0.0182 0.0209
vn -0.0000 0.0037 1.0000
vn -1.0000 -0.0014 0.0084
vn -0.0000 -0.9958 -0.0910
vn -0.0000 -0.9997 0.0238
vn -0.9996 -0.0182 0.0209
vn -0.0000 0.0165 0.9999
vn -0.0000 0.9998 -0.0216
vn -0.0000 -0.0224 -0.9997
vn -0.9996 0.0265 -0.0000
vn 0.9996 0.0265 -0.0000
vn -0.0000 -0.0224 0.9997
vn -0.0000 0.9994 -0.0334
vn -0.0000 -0.9660 -0.2586
vn -0.0000 -0.7071 -0.7071
vn -0.0000 -0.2586 -0.9660
vn 1.0000 -0.0014 -0.0084
vn 0.9996 -0.0182 -0.0209
vn -0.0000 0.0037 -1.0000
vn -1.0000 -0.0014 -0.0084
vn -0.0000 -0.9958 0.0910
vn -0.0000 -0.9997 -0.0238
vn -0.9996 -0.0182 -0.0209
vn -0.0000 0.0165 -0.9999
vn -0.0000 0.9998 0.0216
vt 0.125000 0.666712
vt 0.375000 0.666712
vt 0.375000 0.750000
vt 0.125000 0.750000
vt 0.875000 0.591704
vt 0.625000 0.591704
vt 0.620905 0.515284
vt 0.875000 0.500000
vt 0.618857 0.227074
vt 0.579148 0.504095
vt 0.579148 0.245905
vt 0.533296 0.500000
vt 0.533296 0.250000
vt 0.375000 0.000000
vt 0.533296 0.000000
vt 0.579148 0.012286
vt 0.612714 0.045852
vt 0.625000 0.091704
vt 0.625000 0.125000
vt 0.625000 0.158296
vt 0.375000 0.250000
vt 0.375000 0.166621
vt 0.375000 0.083288
vt 0.375000 0.500000
vt 0.625000 0.625000
vt 0.625000 0.658296
vt 0.620905 0.734716
vt 0.579148 0.745905
vt 0.533296 0.750000
vt 0.375000 0.583379
vt 0.875000 0.625000
vt 0.875000 0.658296
vt 0.125000 0.500000
vt 0.125000 0.583379
s 0
usemtl Material.002
f 84/27/23 85/28/23 59/29/23 57/30/23
f 65/31/24 74/32/24 76/33/24 67/34/24
f 67/35/25 76/33/25 75/36/25 68/37/25
f 68/37/26 75/36/26 73/38/26 66/39/26
f 57/40/27 61/41/27 63/42/27 64/43/27 62/44/27 77/45/27 65/46/27 67/35/27 68/37/27 66/39/27 58/47/27 83/48/27 84/49/27
f 77/45/27 62/44/27 80/44/27 81/45/27
f 58/47/28 66/39/28 73/38/28 60/50/28
f 60/50/29 73/38/29 75/36/29 76/33/29 74/32/29 78/51/29 69/52/29 71/53/29 72/54/29 70/55/29 59/29/29 85/28/29 86/56/29
f 74/32/30 65/31/30 77/57/30 78/51/30
f 82/51/30 81/57/30 80/58/30 79/52/30
f 69/52/29 78/51/29 82/51/29 79/52/29
f 78/51/28 77/57/28 81/57/28 82/51/28
f 58/59/23 60/50/23 86/56/23 83/60/23
f 85/28/31 84/27/31 88/27/31 89/28/31
f 87/60/23 90/56/23 89/28/23 88/27/23
f 86/56/29 85/28/29 89/28/29 90/56/29
f 84/49/27 83/48/27 87/48/27 88/49/27
f 83/60/28 86/56/28 90/56/28 87/60/28
f 106/27/23 57/30/23 59/29/23 107/28/23
f 93/31/32 95/34/32 100/33/32 98/32/32
f 95/35/33 96/37/33 99/36/33 100/33/33
f 96/37/34 94/39/34 97/38/34 99/36/34
f 57/40/27 106/49/27 105/48/27 91/47/27 94/39/27 96/37/27 95/35/27 93/46/27 101/45/27 62/44/27 64/43/27 63/42/27 61/41/27
f 101/45/27 103/45/27 80/44/27 62/44/27
f 91/47/31 92/50/31 97/38/31 94/39/31
f 92/50/29 108/56/29 107/28/29 59/29/29 70/55/29 72/54/29 71/53/29 69/52/29 102/51/29 98/32/29 100/33/29 99/36/29 97/38/29
f 98/32/30 102/51/30 101/57/30 93/31/30
f 104/51/30 79/52/30 80/58/30 103/57/30
f 69/52/29 79/52/29 104/51/29 102/51/29
f 102/51/31 104/51/31 103/57/31 101/57/31
f 91/59/23 105/60/23 108/56/23 92/50/23
f 107/28/28 111/28/28 110/27/28 106/27/28
f 109/60/23 110/27/23 111/28/23 112/56/23
f 108/56/29 112/56/29 111/28/29 107/28/29
f 106/49/27 110/49/27 109/48/27 105/48/27
f 105/60/31 109/60/31 112/56/31 108/56/31
usemtl Material.001
f 140/27/35 113/30/35 115/29/35 141/28/35
f 121/31/36 123/34/36 132/33/36 130/32/36
f 123/35/37 124/37/37 131/36/37 132/33/37
f 124/37/38 122/39/38 129/38/38 131/36/38
f 113/40/39 140/49/39 139/48/39 114/47/39 122/39/39 124/37/39 123/35/39 121/46/39 133/45/39 118/44/39 120/43/39 119/42/39 117/41/39
f 133/45/40 137/45/40 136/44/40 118/44/40
f 114/47/41 116/50/41 129/38/41 122/39/41
f 116/50/42 142/56/42 141/28/42 115/29/42 126/55/42 128/54/42 127/53/42 125/52/42 134/51/42 130/32/42 132/33/42 131/36/42 129/38/42
f 130/32/43 134/51/43 133/57/43 121/31/43
f 138/51/44 135/52/44 136/58/44 137/57/44
f 125/52/45 135/52/45 138/51/45 134/51/45
f 134/51/46 138/51/46 137/57/46 133/57/46
f 114/59/47 139/60/47 142/56/47 116/50/47
f 141/28/48 145/28/48 144/27/48 140/27/48
f 143/60/30 144/27/30 145/28/30 146/56/30
f 142/56/49 146/56/49 145/28/49 141/28/49
f 140/49/50 144/49/50 143/48/50 139/48/50
f 139/60/51 143/60/51 146/56/51 142/56/51
f 162/27/52 163/28/52 115/29/52 113/30/52
f 149/31/53 154/32/53 156/33/53 151/34/53
f 151/35/54 156/33/54 155/36/54 152/37/54
f 152/37/55 155/36/55 153/38/55 150/39/55
f 113/40/56 117/41/56 119/42/56 120/43/56 118/44/56 157/45/56 149/46/56 151/35/56 152/37/56 150/39/56 147/47/56 161/48/56 162/49/56
f 157/45/57 118/44/57 136/44/57 159/45/57
f 147/47/58 150/39/58 153/38/58 148/50/58
f 148/50/59 153/38/59 155/36/59 156/33/59 154/32/59 158/51/59 125/52/59 127/53/59 128/54/59 126/55/59 115/29/59 163/28/59 164/56/59
f 154/32/60 149/31/60 157/57/60 158/51/60
f 160/51/61 159/57/61 136/58/61 135/52/61
f 125/52/62 158/51/62 160/51/62 135/52/62
f 158/51/63 157/57/63 159/57/63 160/51/63
f 147/59/64 148/50/64 164/56/64 161/60/64
f 163/28/51 162/27/51 166/27/51 167/28/51
f 165/60/30 168/56/30 167/28/30 166/27/30
f 164/56/49 163/28/49 167/28/49 168/56/49
f 162/49/50 161/48/50 165/48/50 166/49/50
f 161/60/48 164/56/48 168/56/48 165/60/48
