# Blender 5.0.1
# www.blender.org
mtllib andText.mtl
o Cube
v 0.017928 0.273324 -1.008988
v 0.017928 -0.273324 -1.052003
v 0.017928 0.273324 1.000000
v 0.017928 -0.273324 1.000000
v -0.017928 0.273324 -1.008988
v -0.017928 -0.273324 -1.052003
v -0.017928 0.273324 1.000000
v -0.017928 -0.273324 1.000000
v 0.017928 0.182216 -1.000000
v 0.017928 0.091108 -1.038910
v 0.017928 -0.000000 -1.000000
v 0.017928 -0.091108 -1.029830
v 0.017928 -0.182216 -1.000000
v -0.017928 -0.182216 1.000000
v -0.017928 -0.091108 1.000000
v -0.017928 0.000000 1.000000
v -0.017928 0.091108 1.000000
v -0.017928 0.182216 1.000000
v 0.017928 0.182216 1.000000
v 0.017928 0.091108 1.000000
v 0.017928 -0.000000 1.000000
v 0.017928 -0.091108 1.000000
v 0.017928 -0.182216 1.000000
v -0.017928 0.182216 -1.000000
v -0.017928 0.091108 -1.038910
v -0.017928 -0.000000 -1.000000
v -0.017928 -0.091108 -1.029830
v -0.017928 -0.182216 -1.000000
v 0.018134 0.276441 -1.020704
v 0.018132 -0.276246 -1.064490
v 0.018135 0.276481 1.011547
v 0.018135 -0.276481 1.011547
v -0.018134 0.276441 -1.020704
v -0.018132 -0.276246 -1.064490
v -0.018135 0.276481 1.011547
v -0.018135 -0.276481 1.011547
v 0.018187 0.182385 -1.013792
v 0.018172 0.091108 -1.053538
v 0.018190 -0.000050 -1.013648
v 0.018174 -0.091108 -1.044352
v 0.018192 -0.182095 -1.013542
v -0.018181 -0.182216 1.014142
v -0.018181 -0.091108 1.014142
v -0.018181 0.000000 1.014142
v -0.018181 0.091108 1.014142
v -0.018181 0.182216 1.014142
v 0.018181 0.182216 1.014142
v 0.018181 0.091108 1.014142
v 0.018181 -0.000000 1.014142
v 0.018181 -0.091108 1.014142
v 0.018181 -0.182216 1.014142
v -0.018187 0.182385 -1.013792
v -0.018172 0.091108 -1.053538
v -0.018190 -0.000050 -1.013648
v -0.018174 -0.091108 -1.044352
v -0.018192 -0.182095 -1.013542
vn -0.0000 1.0000 -0.0000
vn -0.0000 -0.0000 1.0000
vn -1.0000 -0.0000 -0.0000
vn -0.0000 -1.0000 -0.0000
vn 1.0000 -0.0000 -0.0000
vn -0.0000 -0.0982 -0.9952
vn -0.0000 0.4957 -0.8685
vn -0.0000 -0.3112 -0.9504
vn -0.0000 0.3112 -0.9504
vn -0.0000 -0.3928 -0.9196
vn -0.0000 0.3928 -0.9196
vn -0.0000 -0.0275 -0.9996
vn 1.0000 -0.0005 -0.0000
vn -0.0000 1.0000 0.0001
vn -1.0000 -0.0005 -0.0000
vn -0.0000 0.0733 0.9973
vn -0.0000 -0.4759 0.8795
vn -0.0000 0.3207 0.9472
vn -0.0000 -0.3195 0.9476
vn -0.0000 0.4009 0.9161
vn -0.0000 -0.3992 0.9168
vn -1.0000 0.0006 -0.0000
vn -1.0000 -0.0001 -0.0000
vn -1.0000 0.0001 -0.0000
vn 1.0000 0.0006 -0.0000
vn 1.0000 -0.0001 -0.0000
vn 1.0000 0.0001 -0.0000
vn -0.0000 0.0275 -0.9996
vn -0.0000 -0.0000 -1.0000
vt 0.625000 0.500000
vt 0.875000 0.500000
vt 0.875000 0.750000
vt 0.625000 0.750000
vt 0.583333 0.750000
vt 0.625000 1.000000
vt 0.583333 1.000000
vt 0.583333 0.000000
vt 0.625000 0.000000
vt 0.625000 0.250000
vt 0.583333 0.250000
vt 0.125000 0.500000
vt 0.375000 0.500000
vt 0.375000 0.750000
vt 0.125000 0.750000
vt 0.583333 0.500000
vt 0.375000 0.250000
vt 0.416667 0.250000
vt 0.416667 0.500000
vt 0.458333 0.250000
vt 0.458333 0.500000
vt 0.500000 0.250000
vt 0.500000 0.500000
vt 0.541667 0.250000
vt 0.541667 0.500000
vt 0.416667 0.750000
vt 0.458333 0.750000
vt 0.500000 0.750000
vt 0.541667 0.750000
vt 0.375000 0.000000
vt 0.416667 0.000000
vt 0.458333 0.000000
vt 0.500000 0.000000
vt 0.541667 0.000000
vt 0.416667 1.000000
vt 0.375000 1.000000
vt 0.458333 1.000000
vt 0.500000 1.000000
vt 0.541667 1.000000
s 0
usemtl Material
f 1/1/1 5/2/1 7/3/1 3/4/1
f 19/5/2 3/4/2 7/6/2 18/7/2
f 18/8/3 7/9/3 5/10/3 24/11/3
f 6/12/4 2/13/4 4/14/4 8/15/4
f 9/16/5 1/1/5 3/4/5 19/5/5
f 24/11/6 5/10/6 1/1/6 9/16/6
f 6/17/7 28/18/7 13/19/7 2/13/7
f 28/18/8 27/20/8 12/21/8 13/19/8
f 27/20/9 26/22/9 11/23/9 12/21/9
f 26/22/10 25/24/10 10/25/10 11/23/10
f 25/24/11 24/11/11 9/16/11 10/25/11
f 2/13/5 13/19/5 23/26/5 4/14/5
f 13/19/5 12/21/5 22/27/5 23/26/5
f 12/21/5 11/23/5 21/28/5 22/27/5
f 11/23/5 10/25/5 20/29/5 21/28/5
f 10/25/5 9/16/5 19/5/5 20/29/5
f 8/30/3 14/31/3 28/18/3 6/17/3
f 14/31/3 15/32/3 27/20/3 28/18/3
f 15/32/3 16/33/3 26/22/3 27/20/3
f 16/33/3 17/34/3 25/24/3 26/22/3
f 17/34/3 18/8/3 24/11/3 25/24/3
f 4/14/2 23/26/2 14/35/2 8/36/2
f 23/26/2 22/27/2 15/37/2 14/35/2
f 22/27/2 21/28/2 16/38/2 15/37/2
f 21/28/2 20/29/2 17/39/2 16/38/2
f 20/29/2 19/5/2 18/7/2 17/39/2
usemtl Material.002
f 29/1/4 31/4/4 35/3/4 33/2/4
f 47/5/12 46/7/12 35/6/12 31/4/12
f 46/8/13 52/11/13 33/10/13 35/9/13
f 34/12/14 36/15/14 32/14/14 30/13/14
f 37/16/15 47/5/15 31/4/15 29/1/15
f 52/11/16 37/16/16 29/1/16 33/10/16
f 34/17/17 30/13/17 41/19/17 56/18/17
f 56/18/18 41/19/18 40/21/18 55/20/18
f 55/20/19 40/21/19 39/23/19 54/22/19
f 54/22/20 39/23/20 38/25/20 53/24/20
f 53/24/21 38/25/21 37/16/21 52/11/21
f 30/13/22 32/14/22 51/26/22 41/19/22
f 41/19/23 51/26/23 50/27/23 40/21/23
f 40/21/24 50/27/24 49/28/24 39/23/24
f 39/23/23 49/28/23 48/29/23 38/25/23
f 38/25/24 48/29/24 47/5/24 37/16/24
f 36/30/25 34/17/25 56/18/25 42/31/25
f 42/31/26 56/18/26 55/20/26 43/32/26
f 43/32/27 55/20/27 54/22/27 44/33/27
f 44/33/26 54/22/26 53/24/26 45/34/26
f 45/34/27 53/24/27 52/11/27 46/8/27
f 32/14/28 36/36/28 42/35/28 51/26/28
f 51/26/29 42/35/29 43/37/29 50/27/29
f 50/27/29 43/37/29 44/38/29 49/28/29
f 49/28/29 44/38/29 45/39/29 48/29/29
f 48/29/29 45/39/29 46/7/29 47/5/29
o Text
v 0.023897 -0.194036 -0.288603
v 0.023897 -0.194036 -0.462769
v 0.023897 -0.191831 -0.498380
v 0.023897 -0.185454 -0.531480
v 0.023897 -0.175263 -0.561955
v 0.023897 -0.161613 -0.589696
v 0.023897 -0.144863 -0.614590
v 0.023897 -0.125368 -0.636526
v 0.023897 -0.103486 -0.655393
v 0.023897 -0.079574 -0.671080
v 0.023897 -0.053989 -0.683475
v 0.023897 -0.027087 -0.692466
v 0.023897 0.000774 -0.697942
v 0.023897 0.029238 -0.699793
v 0.023897 0.055776 -0.698267
v 0.023897 0.082379 -0.693645
v 0.023897 0.108597 -0.685859
v 0.023897 0.133975 -0.674839
v 0.023897 0.158062 -0.660518
v 0.023897 0.180406 -0.642828
v 0.023897 0.200553 -0.621701
v 0.023897 0.218051 -0.597068
v 0.023897 0.232449 -0.568861
v 0.023897 0.243293 -0.537012
v 0.023897 0.250131 -0.501452
v 0.023897 0.252511 -0.462114
v 0.023897 0.252511 -0.288603
v 0.023897 0.194892 -0.352769
v 0.023897 0.194892 -0.451638
v 0.023897 0.193346 -0.481491
v 0.023897 0.188851 -0.508545
v 0.023897 0.181623 -0.532839
v 0.023897 0.171879 -0.554411
v 0.023897 0.159833 -0.573301
v 0.023897 0.145703 -0.589547
v 0.023897 0.129705 -0.603188
v 0.023897 0.112053 -0.614262
v 0.023897 0.092964 -0.622807
v 0.023897 0.072655 -0.628863
v 0.023897 0.051341 -0.632469
v 0.023897 0.029238 -0.633662
v 0.023897 0.014424 -0.632921
v 0.023897 -0.002130 -0.630515
v 0.023897 -0.019849 -0.626173
v 0.023897 -0.038154 -0.619621
v 0.023897 -0.056469 -0.610586
v 0.023897 -0.074215 -0.598796
v 0.023897 -0.090815 -0.583977
v 0.023897 -0.105692 -0.565858
v 0.023897 -0.118268 -0.544164
v 0.023897 -0.127966 -0.518624
v 0.023897 -0.134208 -0.488964
v 0.023897 -0.136417 -0.454912
v 0.023897 -0.136417 -0.352769
v 0.023897 0.252511 -0.189734
v 0.023897 0.252511 -0.129496
v 0.023897 -0.093203 -0.129496
v 0.023897 0.252511 0.173004
v 0.023897 0.252511 0.224075
v 0.023897 -0.194036 0.224075
v 0.023897 -0.194036 0.163837
v 0.023897 0.149714 0.163837
v 0.023897 -0.194036 -0.134734
v 0.023897 -0.194036 -0.189734
v 0.023897 0.255130 0.472230
v 0.023897 0.255130 0.517409
v 0.023897 -0.194036 0.709254
v 0.023897 -0.194036 0.643778
v 0.023897 -0.062429 0.587468
v 0.023897 -0.062429 0.397587
v 0.023897 -0.194036 0.338004
v 0.023897 -0.194036 0.272528
v 0.023897 0.156916 0.495801
v 0.023897 -0.004810 0.423778
v 0.023897 -0.004810 0.562587
v 0.033897 -0.194036 -0.288603
v 0.033897 -0.194036 -0.462769
v 0.033897 -0.191831 -0.498380
v 0.033897 -0.185454 -0.531480
v 0.033897 -0.175263 -0.561955
v 0.033897 -0.161613 -0.589696
v 0.033897 -0.144863 -0.614590
v 0.033897 -0.125368 -0.636526
v 0.033897 -0.103486 -0.655393
v 0.033897 -0.079574 -0.671080
v 0.033897 -0.053989 -0.683475
v 0.033897 -0.027087 -0.692466
v 0.033897 0.000774 -0.697942
v 0.033897 0.029238 -0.699793
v 0.033897 0.055776 -0.698267
v 0.033897 0.082379 -0.693645
v 0.033897 0.108597 -0.685859
v 0.033897 0.133975 -0.674839
v 0.033897 0.158062 -0.660518
v 0.033897 0.180406 -0.642828
v 0.033897 0.200553 -0.621701
v 0.033897 0.218051 -0.597068
v 0.033897 0.232449 -0.568861
v 0.033897 0.243293 -0.537012
v 0.033897 0.250131 -0.501452
v 0.033897 0.252511 -0.462114
v 0.033897 0.252511 -0.288603
v 0.033897 0.194892 -0.352769
v 0.033897 0.194892 -0.451638
v 0.033897 0.193346 -0.481491
v 0.033897 0.188851 -0.508545
v 0.033897 0.181623 -0.532839
v 0.033897 0.171879 -0.554411
v 0.033897 0.159833 -0.573301
v 0.033897 0.145703 -0.589547
v 0.033897 0.129705 -0.603188
v 0.033897 0.112053 -0.614262
v 0.033897 0.092964 -0.622807
v 0.033897 0.072655 -0.628863
v 0.033897 0.051341 -0.632469
v 0.033897 0.029238 -0.633662
v 0.033897 0.014424 -0.632921
v 0.033897 -0.002130 -0.630515
v 0.033897 -0.019849 -0.626173
v 0.033897 -0.038154 -0.619621
v 0.033897 -0.056469 -0.610586
v 0.033897 -0.074215 -0.598796
v 0.033897 -0.090815 -0.583977
v 0.033897 -0.105692 -0.565858
v 0.033897 -0.118268 -0.544164
v 0.033897 -0.127966 -0.518624
v 0.033897 -0.134208 -0.488964
v 0.033897 -0.136417 -0.454912
v 0.033897 -0.136417 -0.352769
v 0.033897 0.252511 -0.189734
v 0.033897 0.252511 -0.129496
v 0.033897 -0.093203 -0.129496
v 0.033897 0.252511 0.173004
v 0.033897 0.252511 0.224075
v 0.033897 -0.194036 0.224075
v 0.033897 -0.194036 0.163837
v 0.033897 0.149714 0.163837
v 0.033897 -0.194036 -0.134734
v 0.033897 -0.194036 -0.189734
v 0.033897 0.255130 0.472230
v 0.033897 0.255130 0.517409
v 0.033897 -0.194036 0.709254
v 0.033897 -0.194036 0.643778
v 0.033897 -0.062429 0.587468
v 0.033897 -0.062429 0.397587
v 0.033897 -0.194036 0.338004
v 0.033897 -0.194036 0.272528
v 0.033897 0.156916 0.495801
v 0.033897 -0.004810 0.423778
v 0.033897 -0.004810 0.562587
vn 1.0000 -0.0000 -0.0000
vn -1.0000 -0.0000 -0.0000
vn -0.0000 -0.0000 -1.0000
vn -0.0000 -1.0000 -0.0000
vn -0.0000 -0.9982 0.0604
vn -0.0000 -0.9820 0.1888
vn -0.0000 -0.9466 0.3223
vn -0.0000 -0.8907 0.4546
vn -0.0000 -0.8152 0.5791
vn -0.0000 1.0000 -0.0000
vn -0.0000 0.9987 -0.0517
vn -0.0000 -0.7237 0.6901
vn -0.0000 -0.0000 1.0000
vn -0.0000 0.9865 -0.1639
vn -0.0000 0.9585 -0.2852
vn -0.0000 0.9113 -0.4117
vn -0.0000 -0.6207 0.7840
vn -0.0000 0.8432 -0.5377
vn -0.0000 0.7545 -0.6563
vn -0.0000 -0.5110 0.8596
vn -0.0000 0.6488 -0.7610
vn -0.0000 -0.3983 0.9173
vn -0.0000 0.5314 -0.8471
vn -0.0000 0.4086 -0.9127
vn -0.0000 -0.2847 0.9586
vn -0.0000 0.2858 -0.9583
vn -0.0000 -0.1712 0.9852
vn -0.0000 0.1668 -0.9860
vn -0.0000 -0.0574 0.9984
vn -0.0000 0.0539 -0.9985
vn -0.0000 -0.0500 -0.9988
vn -0.0000 0.0649 0.9979
vn -0.0000 -0.1438 -0.9896
vn -0.0000 0.1929 0.9812
vn -0.0000 -0.2380 -0.9713
vn -0.0000 -0.3370 -0.9415
vn -0.0000 0.3170 0.9484
vn -0.0000 -0.4424 -0.8968
vn -0.0000 0.4360 0.9000
vn -0.0000 -0.5534 -0.8329
vn -0.0000 -0.6659 -0.7460
vn -0.0000 0.5485 0.8361
vn -0.0000 -0.7729 -0.6346
vn -0.0000 0.6530 0.7574
vn -0.0000 -0.8651 -0.5015
vn -0.0000 -0.9349 -0.3550
vn -0.0000 0.7475 0.6643
vn -0.0000 -0.9786 -0.2059
vn -0.0000 -0.9979 -0.0647
vn -0.0000 0.8297 0.5583
vn -0.0000 0.8973 0.4415
vn -0.0000 0.9484 0.3172
vn -0.0000 0.9819 0.1892
vn -0.0000 0.9981 0.0618
vn -0.0000 -0.6585 0.7526
vn -0.0000 0.6558 -0.7550
vn -0.0000 -0.3928 -0.9196
vn -0.0000 -0.4063 0.9138
vn -0.0000 0.3817 0.9243
vn -0.0000 0.4068 -0.9135
vn -0.0000 0.3934 0.9194
vn -0.0000 0.4124 -0.9110
vt 0.000000 0.000000
vt 0.509434 0.000000
vt 0.490566 0.000000
vt 0.471698 0.000000
vt 0.452830 0.000000
vt 0.433962 0.000000
vt 0.415094 0.000000
vt 0.396226 0.000000
vt 0.377358 0.000000
vt 0.528302 0.000000
vt 0.547170 0.000000
vt 0.358491 0.000000
vt 1.000000 0.000000
vt 0.566038 0.000000
vt 0.584906 0.000000
vt 0.603774 0.000000
vt 0.339623 0.000000
vt 0.622642 0.000000
vt 0.641509 0.000000
vt 0.320755 0.000000
vt 0.660377 0.000000
vt 0.301887 0.000000
vt 0.679245 0.000000
vt 0.698113 0.000000
vt 0.283019 0.000000
vt 0.716981 0.000000
vt 0.264151 0.000000
vt 0.735849 0.000000
vt 0.245283 0.000000
vt 0.754717 0.000000
vt 0.773585 0.000000
vt 0.226415 0.000000
vt 0.792453 0.000000
vt 0.207547 0.000000
vt 0.811321 0.000000
vt 0.830189 0.000000
vt 0.188679 0.000000
vt 0.849057 0.000000
vt 0.169811 0.000000
vt 0.867925 0.000000
vt 0.886792 0.000000
vt 0.150943 0.000000
vt 0.905660 0.000000
vt 0.132075 0.000000
vt 0.924528 0.000000
vt 0.943396 0.000000
vt 0.113208 0.000000
vt 0.962264 0.000000
vt 0.981132 0.000000
vt 0.094340 0.000000
vt 0.075472 0.000000
vt 0.056604 0.000000
vt 0.037736 0.000000
vt 0.018868 0.000000
vt 0.555556 0.000000
vt 0.333333 0.000000
vt 0.444444 0.000000
vt 0.777778 0.000000
vt 0.222222 0.000000
vt 0.111111 0.000000
vt 0.666667 0.000000
vt 0.888889 0.000000
vt 0.200000 0.000000
vt 0.100000 0.000000
vt 0.800000 0.000000
vt 0.700000 0.000000
vt 0.900000 0.000000
vt 0.400000 0.000000
vt 0.500000 0.000000
vt 0.300000 0.000000
vt 0.600000 0.000000
s 0
usemtl Material.001
f 57/40/30 84/41/30 83/42/30
f 84/41/30 82/43/30 83/42/30
f 84/41/30 81/44/30 82/43/30
f 84/41/30 80/45/30 81/44/30
f 84/41/30 79/46/30 80/45/30
f 84/41/30 78/47/30 79/46/30
f 84/41/30 77/48/30 78/47/30
f 84/41/30 85/49/30 77/48/30
f 85/49/30 86/50/30 77/48/30
f 86/50/30 76/51/30 77/48/30
f 57/40/30 110/52/30 84/41/30
f 87/53/30 76/51/30 86/50/30
f 88/54/30 76/51/30 87/53/30
f 89/55/30 76/51/30 88/54/30
f 89/55/30 75/56/30 76/51/30
f 90/57/30 75/56/30 89/55/30
f 91/58/30 75/56/30 90/57/30
f 91/58/30 74/59/30 75/56/30
f 92/60/30 74/59/30 91/58/30
f 92/60/30 73/61/30 74/59/30
f 93/62/30 73/61/30 92/60/30
f 94/63/30 73/61/30 93/62/30
f 94/63/30 72/64/30 73/61/30
f 95/65/30 72/64/30 94/63/30
f 95/65/30 71/66/30 72/64/30
f 96/67/30 71/66/30 95/65/30
f 96/67/30 70/68/30 71/66/30
f 97/69/30 70/68/30 96/67/30
f 98/70/30 70/68/30 97/69/30
f 98/70/30 69/71/30 70/68/30
f 99/72/30 69/71/30 98/70/30
f 99/72/30 68/73/30 69/71/30
f 100/74/30 68/73/30 99/72/30
f 101/75/30 68/73/30 100/74/30
f 101/75/30 67/76/30 68/73/30
f 102/77/30 67/76/30 101/75/30
f 102/77/30 66/78/30 67/76/30
f 103/79/30 66/78/30 102/77/30
f 104/80/30 66/78/30 103/79/30
f 104/80/30 65/81/30 66/78/30
f 105/82/30 65/81/30 104/80/30
f 105/82/30 64/83/30 65/81/30
f 106/84/30 64/83/30 105/82/30
f 107/85/30 64/83/30 106/84/30
f 107/85/30 63/86/30 64/83/30
f 108/87/30 63/86/30 107/85/30
f 109/88/30 63/86/30 108/87/30
f 57/40/30 109/88/30 110/52/30
f 57/40/30 63/86/30 109/88/30
f 57/40/30 62/89/30 63/86/30
f 57/40/30 61/90/30 62/89/30
f 57/40/30 60/91/30 61/90/30
f 57/40/30 59/92/30 60/91/30
f 57/40/30 58/93/30 59/92/30
f 116/94/30 114/95/30 115/96/30
f 116/94/30 118/97/30 114/95/30
f 118/97/30 113/98/30 114/95/30
f 113/98/30 111/40/30 112/99/30
f 113/98/30 120/52/30 111/40/30
f 116/94/30 117/100/30 118/97/30
f 119/101/30 113/98/30 118/97/30
f 119/101/30 120/52/30 113/98/30
f 123/102/30 121/40/30 122/103/30
f 123/102/30 129/104/30 121/40/30
f 129/104/30 128/105/30 121/40/30
f 123/102/30 131/52/30 129/104/30
f 130/106/30 128/105/30 129/104/30
f 123/102/30 125/107/30 131/52/30
f 125/107/30 130/106/30 131/52/30
f 125/107/30 126/108/30 130/106/30
f 126/108/30 128/105/30 130/106/30
f 123/102/30 124/109/30 125/107/30
f 127/110/30 128/105/30 126/108/30
f 57/40/32 83/42/32 158/42/32 132/40/32
f 83/42/33 82/43/33 157/43/33 158/42/33
f 82/43/34 81/44/34 156/44/34 157/43/34
f 81/44/35 80/45/35 155/45/35 156/44/35
f 80/45/36 79/46/36 154/46/36 155/45/36
f 79/46/37 78/47/37 153/47/37 154/46/37
f 78/47/38 77/48/38 152/48/38 153/47/38
f 85/49/39 84/41/39 159/41/39 160/49/39
f 86/50/40 85/49/40 160/49/40 161/50/40
f 77/48/41 76/51/41 151/51/41 152/48/41
f 84/41/42 110/52/42 185/52/42 159/41/42
f 87/53/43 86/50/43 161/50/43 162/53/43
f 88/54/44 87/53/44 162/53/44 163/54/44
f 89/55/45 88/54/45 163/54/45 164/55/45
f 76/51/46 75/56/46 150/56/46 151/51/46
f 90/57/47 89/55/47 164/55/47 165/57/47
f 91/58/48 90/57/48 165/57/48 166/58/48
f 75/56/49 74/59/49 149/59/49 150/56/49
f 92/60/50 91/58/50 166/58/50 167/60/50
f 74/59/51 73/61/51 148/61/51 149/59/51
f 93/62/52 92/60/52 167/60/52 168/62/52
f 94/63/53 93/62/53 168/62/53 169/63/53
f 73/61/54 72/64/54 147/64/54 148/61/54
f 95/65/55 94/63/55 169/63/55 170/65/55
f 72/64/56 71/66/56 146/66/56 147/64/56
f 96/67/57 95/65/57 170/65/57 171/67/57
f 71/66/58 70/68/58 145/68/58 146/66/58
f 97/69/59 96/67/59 171/67/59 172/69/59
f 98/70/60 97/69/60 172/69/60 173/70/60
f 70/68/61 69/71/61 144/71/61 145/68/61
f 99/72/62 98/70/62 173/70/62 174/72/62
f 69/71/63 68/73/63 143/73/63 144/71/63
f 100/74/64 99/72/64 174/72/64 175/74/64
f 101/75/65 100/74/65 175/74/65 176/75/65
f 68/73/66 67/76/66 142/76/66 143/73/66
f 102/77/67 101/75/67 176/75/67 177/77/67
f 67/76/68 66/78/68 141/78/68 142/76/68
f 103/79/69 102/77/69 177/77/69 178/79/69
f 104/80/70 103/79/70 178/79/70 179/80/70
f 66/78/71 65/81/71 140/81/71 141/78/71
f 105/82/72 104/80/72 179/80/72 180/82/72
f 65/81/73 64/83/73 139/83/73 140/81/73
f 106/84/74 105/82/74 180/82/74 181/84/74
f 107/85/75 106/84/75 181/84/75 182/85/75
f 64/83/76 63/86/76 138/86/76 139/83/76
f 108/87/77 107/85/77 182/85/77 183/87/77
f 109/88/78 108/87/78 183/87/78 184/88/78
f 110/52/33 109/88/33 184/88/33 185/52/33
f 63/86/79 62/89/79 137/89/79 138/86/79
f 62/89/80 61/90/80 136/90/80 137/89/80
f 61/90/81 60/91/81 135/91/81 136/90/81
f 60/91/82 59/92/82 134/92/82 135/91/82
f 58/93/39 57/40/39 132/40/39 133/93/39
f 59/92/83 58/93/83 133/93/83 134/92/83
f 116/94/32 115/96/32 190/96/32 191/94/32
f 115/96/33 114/95/33 189/95/33 190/96/33
f 114/95/84 113/98/84 188/98/84 189/95/84
f 113/98/32 112/99/32 187/99/32 188/98/32
f 112/99/33 111/40/33 186/40/33 187/99/33
f 111/40/42 120/52/42 195/52/42 186/40/42
f 117/100/39 116/94/39 191/94/39 192/100/39
f 118/97/42 117/100/42 192/100/42 193/97/42
f 119/101/85 118/97/85 193/97/85 194/101/85
f 120/52/39 119/101/39 194/101/39 195/52/39
f 123/102/86 122/103/86 197/103/86 198/102/86
f 122/103/33 121/40/33 196/40/33 197/103/33
f 121/40/87 128/105/87 203/105/87 196/40/87
f 129/104/88 131/52/88 206/52/88 204/104/88
f 130/106/89 129/104/89 204/104/89 205/106/89
f 131/52/33 130/106/33 205/106/33 206/52/33
f 126/108/39 125/107/39 200/107/39 201/108/39
f 124/109/39 123/102/39 198/102/39 199/109/39
f 125/107/90 124/109/90 199/109/90 200/107/90
f 127/110/91 126/108/91 201/108/91 202/110/91
f 128/105/39 127/110/39 202/110/39 203/105/39
usemtl Material.002
f 132/40/31 158/42/31 159/41/31
f 159/41/31 158/42/31 157/43/31
f 159/41/31 157/43/31 156/44/31
f 159/41/31 156/44/31 155/45/31
f 159/41/31 155/45/31 154/46/31
f 159/41/31 154/46/31 153/47/31
f 159/41/31 153/47/31 152/48/31
f 159/41/31 152/48/31 160/49/31
f 160/49/31 152/48/31 161/50/31
f 161/50/31 152/48/31 151/51/31
f 132/40/31 159/41/31 185/52/31
f 162/53/31 161/50/31 151/51/31
f 163/54/31 162/53/31 151/51/31
f 164/55/31 163/54/31 151/51/31
f 164/55/31 151/51/31 150/56/31
f 165/57/31 164/55/31 150/56/31
f 166/58/31 165/57/31 150/56/31
f 166/58/31 150/56/31 149/59/31
f 167/60/31 166/58/31 149/59/31
f 167/60/31 149/59/31 148/61/31
f 168/62/31 167/60/31 148/61/31
f 169/63/31 168/62/31 148/61/31
f 169/63/31 148/61/31 147/64/31
f 170/65/31 169/63/31 147/64/31
f 170/65/31 147/64/31 146/66/31
f 171/67/31 170/65/31 146/66/31
f 171/67/31 146/66/31 145/68/31
f 172/69/31 171/67/31 145/68/31
f 173/70/31 172/69/31 145/68/31
f 173/70/31 145/68/31 144/71/31
f 174/72/31 173/70/31 144/71/31
f 174/72/31 144/71/31 143/73/31
f 175/74/31 174/72/31 143/73/31
f 176/75/31 175/74/31 143/73/31
f 176/75/31 143/73/31 142/76/31
f 177/77/31 176/75/31 142/76/31
f 177/77/31 142/76/31 141/78/31
f 178/79/31 177/77/31 141/78/31
f 179/80/31 178/79/31 141/78/31
f 179/80/31 141/78/31 140/81/31
f 180/82/31 179/80/31 140/81/31
f 180/82/31 140/81/31 139/83/31
f 181/84/31 180/82/31 139/83/31
f 182/85/31 181/84/31 139/83/31
f 182/85/31 139/83/31 138/86/31
f 183/87/31 182/85/31 138/86/31
f 184/88/31 183/87/31 138/86/31
f 132/40/31 185/52/31 184/88/31
f 132/40/31 184/88/31 138/86/31
f 132/40/31 138/86/31 137/89/31
f 132/40/31 137/89/31 136/90/31
f 132/40/31 136/90/31 135/91/31
f 132/40/31 135/91/31 134/92/31
f 132/40/31 134/92/31 133/93/31
f 191/94/31 190/96/31 189/95/31
f 191/94/31 189/95/31 193/97/31
f 193/97/31 189/95/31 188/98/31
f 188/98/31 187/99/31 186/40/31
f 188/98/31 186/40/31 195/52/31
f 191/94/31 193/97/31 192/100/31
f 194/101/31 193/97/31 188/98/31
f 194/101/31 188/98/31 195/52/31
f 198/102/31 197/103/31 196/40/31
f 198/102/31 196/40/31 204/104/31
f 204/104/31 196/40/31 203/105/31
f 198/102/31 204/104/31 206/52/31
f 205/106/31 204/104/31 203/105/31
f 198/102/31 206/52/31 200/107/31
f 200/107/31 206/52/31 205/106/31
f 200/107/31 205/106/31 201/108/31
f 201/108/31 205/106/31 203/105/31
f 198/102/31 200/107/31 199/109/31
f 202/110/31 201/108/31 203/105/31
