# Blender 5.0.1
# www.blender.org
mtllib arduino.mtl
o Cube
v -0.754359 0.181384 -0.422082
v -0.754359 0.181384 0.422082
v 0.009555 0.181384 -0.422082
v 0.009555 0.181384 0.422082
v -0.754359 0.273909 -0.422082
v -0.701168 0.283557 -0.387663
v -0.701168 0.283557 0.387663
v -0.754359 0.273909 0.422082
v 0.009555 0.273909 -0.422082
v -0.043636 0.283557 -0.387663
v -0.043636 0.283557 0.387663
v 0.009555 0.273909 0.422082
v 1.679026 -0.181384 -0.590760
v 1.766075 -0.165595 -0.647088
v 1.766075 0.165595 -0.647088
v 1.645464 0.181384 -0.631638
v 1.679026 -0.181384 0.590760
v 1.766075 -0.165595 0.647088
v 1.645464 0.181384 0.631638
v 1.766075 0.165595 0.647088
v -0.912952 -0.181384 -0.590760
v -1.000000 -0.165595 -0.647088
v -1.000000 0.165595 -0.647088
v -0.980127 0.181384 -0.628885
v -0.912952 -0.181384 0.590760
v -1.000000 -0.165595 0.647088
v -0.980127 0.181384 0.628885
v -1.000000 0.165595 0.647088
v -0.763405 0.186306 -0.427936
v -0.763405 0.186306 0.427936
v 0.018601 0.186306 -0.427935
v 0.018601 0.186306 0.427935
v -0.773880 0.276039 -0.434714
v -0.710174 0.288484 -0.393490
v -0.710174 0.288484 0.393490
v -0.773880 0.276039 0.434714
v 0.029077 0.276039 -0.434714
v -0.034630 0.288484 -0.393490
v -0.034630 0.288484 0.393490
v 0.029077 0.276039 0.434714
v 1.688032 -0.186311 -0.596588
v 1.785596 -0.167724 -0.659720
v 1.786584 0.167657 -0.659197
v 1.652184 0.185831 -0.641946
v 1.688032 -0.186311 0.596588
v 1.785596 -0.167724 0.659720
v 1.652184 0.185831 0.641946
v 1.786584 0.167657 0.659197
v -0.921958 -0.186311 -0.596588
v -1.019521 -0.167724 -0.659720
v -1.020682 0.166490 -0.660783
v -0.995644 0.185228 -0.638264
v -0.921958 -0.186311 0.596588
v -1.019521 -0.167724 0.659720
v -0.995644 0.185228 0.638264
v -1.020682 0.166490 0.660783
vn -0.1785 0.9839 -0.0000
vn -0.0000 0.9629 -0.2699
vn -0.0000 0.9629 0.2699
vn 0.1785 0.9839 -0.0000
vn -1.0000 -0.0000 -0.0000
vn -0.0000 1.0000 -0.0000
vn -0.0000 -0.0000 -1.0000
vn -0.0000 -0.0000 1.0000
vn 1.0000 -0.0000 -0.0000
vn -0.6221 0.7830 -0.0000
vn -0.0003 0.7287 -0.6848
vn -0.0000 -0.9629 0.2699
vn 0.1785 -0.9839 -0.0000
vn -0.0003 0.7287 0.6848
vn -0.1785 -0.9839 -0.0000
vn -0.0000 -0.9629 -0.2699
vn 0.1298 0.9915 -0.0000
vn -0.0000 -1.0000 -0.0000
vn 0.1917 -0.9814 -0.0000
vn -0.0000 -0.9573 0.2890
vn -0.0000 -0.9573 -0.2890
vn -0.1917 -0.9814 -0.0000
vn 0.9933 0.1160 -0.0000
vn -0.0000 0.0753 0.9972
vn -0.0000 0.0753 -0.9972
vn -0.9933 0.1160 -0.0000
vn 0.5992 -0.8006 -0.0000
vn 0.0005 -0.7323 0.6810
vn -0.0000 0.9593 -0.2824
vn -0.1871 0.9823 -0.0000
vn 0.0005 -0.7323 -0.6810
vn 0.1871 0.9823 -0.0000
vn -0.0000 0.9593 0.2824
vn -0.1340 -0.9910 -0.0000
vn -0.0003 0.0008 1.0000
vn -1.0000 0.0029 -0.0000
vn -0.0003 -1.0000 -0.0000
vn 0.0002 -1.0000 0.0043
vn -0.0003 0.0008 -1.0000
vn 0.0002 -1.0000 -0.0043
vn 1.0000 0.0035 -0.0000
vn 0.0046 -1.0000 -0.0000
vt 0.142408 0.510193
vt 0.142408 0.739807
vt 0.125000 0.750000
vt 0.125000 0.500000
vt 0.357593 0.510193
vt 0.375000 0.500000
vt 0.357592 0.739807
vt 0.375000 0.750000
vt 0.375000 0.000000
vt 0.375000 0.250000
vt 0.375000 1.000000
vt 0.385881 0.000000
vt 0.385881 0.250000
vt 0.385881 0.500000
vt 0.632867 0.739119
vt 0.867133 0.739119
vt 0.875000 0.750000
vt 0.616839 0.750000
vt 0.632868 0.510881
vt 0.616839 0.500000
vt 0.385881 0.750000
vt 0.385881 1.000000
vt 0.867133 0.510881
vt 0.875000 0.500000
vt 0.614119 0.250000
vt 0.614119 1.000000
vt 0.614119 0.000000
s 0
usemtl Material
f 24/10/10 23/13/10 28/12/10 27/9/10
f 16/6/11 15/14/11 23/13/11 24/10/11
f 17/15/12 18/18/12 26/17/12 25/16/12
f 13/19/13 14/20/13 18/18/13 17/15/13
f 27/11/14 28/22/14 20/21/14 19/8/14
f 25/16/15 26/17/15 22/24/15 21/23/15
f 21/23/16 22/24/16 14/20/16 13/19/16
f 19/8/17 20/21/17 15/14/17 16/6/17
f 23/13/7 15/14/7 14/20/7 22/25/7
f 15/14/9 20/21/9 18/18/9 14/20/9
f 13/19/18 17/15/18 25/16/18 21/23/18
f 16/6/6 3/6/6 4/8/6 19/8/6
f 24/10/6 1/10/6 3/6/6 16/6/6
f 20/21/8 28/22/8 26/26/8 18/18/8
f 19/8/6 4/8/6 2/11/6 27/11/6
f 28/12/5 23/13/5 22/25/5 26/27/5
f 27/9/6 2/9/6 1/10/6 24/10/6
usemtl Material.002
f 6/1/1 5/4/1 8/3/1 7/2/1
f 10/5/2 9/6/2 5/4/2 6/1/2
f 7/2/3 8/3/3 12/8/3 11/7/3
f 11/7/4 12/8/4 9/6/4 10/5/4
f 2/9/5 8/9/5 5/10/5 1/10/5
f 6/1/6 7/2/6 11/7/6 10/5/6
f 1/10/7 5/10/7 9/6/7 3/6/7
f 4/8/8 12/8/8 8/11/8 2/11/8
f 3/6/9 9/6/9 12/8/9 4/8/9
usemtl Material.001
f 34/1/19 35/2/19 36/3/19 33/4/19
f 38/5/20 34/1/20 33/4/20 37/6/20
f 35/2/21 39/7/21 40/8/21 36/3/21
f 39/7/22 38/5/22 37/6/22 40/8/22
f 30/9/23 29/10/23 33/10/23 36/9/23
f 34/1/18 38/5/18 39/7/18 35/2/18
f 29/10/24 31/6/24 37/6/24 33/10/24
f 32/8/25 30/11/25 36/11/25 40/8/25
f 31/6/26 32/8/26 40/8/26 37/6/26
f 52/10/27 55/9/27 56/12/27 51/13/27
f 44/6/28 52/10/28 51/13/28 43/14/28
f 45/15/29 53/16/29 54/17/29 46/18/29
f 41/19/30 45/15/30 46/18/30 42/20/30
f 55/11/31 47/8/31 48/21/31 56/22/31
f 53/16/32 49/23/32 50/24/32 54/17/32
f 49/23/33 41/19/33 42/20/33 50/24/33
f 47/8/34 44/6/34 43/14/34 48/21/34
f 51/13/35 50/25/35 42/20/35 43/14/35
f 43/14/36 42/20/36 46/18/36 48/21/36
f 41/19/6 49/23/6 53/16/6 45/15/6
f 44/6/37 47/8/37 32/8/37 31/6/37
f 52/10/38 44/6/38 31/6/38 29/10/38
f 48/21/39 46/18/39 54/26/39 56/22/39
f 47/8/40 55/11/40 30/11/40 32/8/40
f 56/12/41 54/27/41 50/25/41 51/13/41
f 55/9/42 52/10/42 29/10/42 30/9/42
o Cylinder
v -0.672404 -0.473354 0.455742
v -0.672404 0.254767 0.455742
v -0.624417 -0.473354 0.475618
v -0.624417 0.254767 0.475618
v -0.604541 -0.473354 0.523605
v -0.604541 0.254767 0.523605
v -0.624417 -0.473354 0.571592
v -0.624417 0.254767 0.571592
v -0.672404 -0.473354 0.591468
v -0.672404 0.254767 0.591468
v -0.720391 -0.473354 0.571592
v -0.720391 0.254767 0.571592
v -0.740267 -0.473354 0.523605
v -0.740267 0.254767 0.523605
v -0.720391 -0.473354 0.475618
v -0.720391 0.254767 0.475618
v -0.672404 -0.473354 -0.455742
v -0.672404 0.254768 -0.455742
v -0.624417 -0.473354 -0.475618
v -0.624417 0.254768 -0.475618
v -0.604541 -0.473354 -0.523605
v -0.604541 0.254768 -0.523605
v -0.624417 -0.473354 -0.571592
v -0.624417 0.254768 -0.571592
v -0.672404 -0.473354 -0.591468
v -0.672404 0.254768 -0.591468
v -0.720391 -0.473354 -0.571592
v -0.720391 0.254768 -0.571592
v -0.740267 -0.473354 -0.523605
v -0.740267 0.254768 -0.523605
v -0.720391 -0.473354 -0.475618
v -0.720391 0.254768 -0.475618
v -0.400951 -0.473354 0.455742
v -0.400951 0.254767 0.455742
v -0.352964 -0.473354 0.475618
v -0.352964 0.254767 0.475618
v -0.333088 -0.473354 0.523605
v -0.333088 0.254767 0.523605
v -0.352964 -0.473354 0.571592
v -0.352964 0.254767 0.571592
v -0.400951 -0.473354 0.591468
v -0.400951 0.254767 0.591468
v -0.448937 -0.473354 0.571592
v -0.448937 0.254767 0.571592
v -0.468814 -0.473354 0.523605
v -0.468814 0.254767 0.523605
v -0.448937 -0.473354 0.475618
v -0.448937 0.254767 0.475618
v -0.400951 -0.473354 -0.455742
v -0.400951 0.254768 -0.455742
v -0.352964 -0.473354 -0.475618
v -0.352964 0.254768 -0.475618
v -0.333088 -0.473354 -0.523605
v -0.333088 0.254768 -0.523605
v -0.352964 -0.473354 -0.571592
v -0.352964 0.254768 -0.571592
v -0.400951 -0.473354 -0.591468
v -0.400951 0.254768 -0.591468
v -0.448937 -0.473354 -0.571592
v -0.448937 0.254768 -0.571592
v -0.468814 -0.473354 -0.523605
v -0.468814 0.254768 -0.523605
v -0.448937 -0.473354 -0.475618
v -0.448937 0.254768 -0.475618
v -0.129498 -0.473354 0.455742
v -0.129498 0.254767 0.455742
v -0.081511 -0.473354 0.475618
v -0.081511 0.254767 0.475618
v -0.061634 -0.473354 0.523605
v -0.061634 0.254767 0.523605
v -0.081511 -0.473354 0.571592
v -0.081511 0.254767 0.571592
v -0.129498 -0.473354 0.591468
v -0.129498 0.254767 0.591468
v -0.177484 -0.473354 0.571592
v -0.177484 0.254767 0.571592
v -0.197361 -0.473354 0.523605
v -0.197361 0.254767 0.523605
v -0.177484 -0.473354 0.475618
v -0.177484 0.254767 0.475618
v -0.129498 -0.473354 -0.455742
v -0.129498 0.254768 -0.455742
v -0.081511 -0.473354 -0.475618
v -0.081511 0.254768 -0.475618
v -0.061634 -0.473354 -0.523605
v -0.061634 0.254768 -0.523605
v -0.081511 -0.473354 -0.571592
v -0.081511 0.254768 -0.571592
v -0.129498 -0.473354 -0.591468
v -0.129498 0.254768 -0.591468
v -0.177484 -0.473354 -0.571592
v -0.177484 0.254768 -0.571592
v -0.197361 -0.473354 -0.523605
v -0.197361 0.254768 -0.523605
v -0.177484 -0.473354 -0.475618
v -0.177484 0.254768 -0.475618
v 0.141955 -0.473354 0.455742
v 0.141955 0.254767 0.455742
v 0.189942 -0.473354 0.475618
v 0.189942 0.254767 0.475618
v 0.209819 -0.473354 0.523605
v 0.209819 0.254767 0.523605
v 0.189942 -0.473354 0.571592
v 0.189942 0.254767 0.571592
v 0.141955 -0.473354 0.591468
v 0.141955 0.254767 0.591468
v 0.093969 -0.473354 0.571592
v 0.093969 0.254767 0.571592
v 0.074092 -0.473354 0.523605
v 0.074092 0.254767 0.523605
v 0.093969 -0.473354 0.475618
v 0.093969 0.254767 0.475618
v 0.141955 -0.473354 -0.455742
v 0.141955 0.254768 -0.455742
v 0.189942 -0.473354 -0.475618
v 0.189942 0.254768 -0.475618
v 0.209819 -0.473354 -0.523605
v 0.209819 0.254768 -0.523605
v 0.189942 -0.473354 -0.571592
v 0.189942 0.254768 -0.571592
v 0.141955 -0.473354 -0.591468
v 0.141955 0.254768 -0.591468
v 0.093969 -0.473354 -0.571592
v 0.093969 0.254768 -0.571592
v 0.074092 -0.473354 -0.523605
v 0.074092 0.254768 -0.523605
v 0.093969 -0.473354 -0.475618
v 0.093969 0.254768 -0.475618
v 0.413408 -0.473354 0.455742
v 0.413408 0.254767 0.455742
v 0.461395 -0.473354 0.475618
v 0.461395 0.254767 0.475618
v 0.481272 -0.473354 0.523605
v 0.481272 0.254767 0.523605
v 0.461395 -0.473354 0.571592
v 0.461395 0.254767 0.571592
v 0.413408 -0.473354 0.591468
v 0.413408 0.254767 0.591468
v 0.365422 -0.473354 0.571592
v 0.365422 0.254767 0.571592
v 0.345545 -0.473354 0.523605
v 0.345545 0.254767 0.523605
v 0.365422 -0.473354 0.475618
v 0.365422 0.254767 0.475618
v 0.413408 -0.473354 -0.455742
v 0.413408 0.254768 -0.455742
v 0.461395 -0.473354 -0.475618
v 0.461395 0.254768 -0.475618
v 0.481272 -0.473354 -0.523605
v 0.481272 0.254768 -0.523605
v 0.461395 -0.473354 -0.571592
v 0.461395 0.254768 -0.571592
v 0.413408 -0.473354 -0.591468
v 0.413408 0.254768 -0.591468
v 0.365422 -0.473354 -0.571592
v 0.365422 0.254768 -0.571592
v 0.345545 -0.473354 -0.523605
v 0.345545 0.254768 -0.523605
v 0.365422 -0.473354 -0.475618
v 0.365422 0.254768 -0.475618
v 0.684862 -0.473354 0.455742
v 0.684862 0.254767 0.455742
v 0.732848 -0.473354 0.475618
v 0.732848 0.254767 0.475618
v 0.752725 -0.473354 0.523605
v 0.752725 0.254767 0.523605
v 0.732848 -0.473354 0.571592
v 0.732848 0.254767 0.571592
v 0.684862 -0.473354 0.591468
v 0.684862 0.254767 0.591468
v 0.636875 -0.473354 0.571592
v 0.636875 0.254767 0.571592
v 0.616998 -0.473354 0.523605
v 0.616998 0.254767 0.523605
v 0.636875 -0.473354 0.475618
v 0.636875 0.254767 0.475618
v 0.684862 -0.473354 -0.455742
v 0.684862 0.254768 -0.455742
v 0.732848 -0.473354 -0.475618
v 0.732848 0.254768 -0.475618
v 0.752725 -0.473354 -0.523605
v 0.752725 0.254768 -0.523605
v 0.732848 -0.473354 -0.571592
v 0.732848 0.254768 -0.571592
v 0.684862 -0.473354 -0.591468
v 0.684862 0.254768 -0.591468
v 0.636875 -0.473354 -0.571592
v 0.636875 0.254768 -0.571592
v 0.616998 -0.473354 -0.523605
v 0.616998 0.254768 -0.523605
v 0.636875 -0.473354 -0.475618
v 0.636875 0.254768 -0.475618
v 0.956315 -0.473354 0.455742
v 0.956315 0.254767 0.455742
v 1.004301 -0.473354 0.475618
v 1.004301 0.254767 0.475618
v 1.024178 -0.473354 0.523605
v 1.024178 0.254767 0.523605
v 1.004301 -0.473354 0.571592
v 1.004301 0.254767 0.571592
v 0.956315 -0.473354 0.591468
v 0.956315 0.254767 0.591468
v 0.908328 -0.473354 0.571592
v 0.908328 0.254767 0.571592
v 0.888452 -0.473354 0.523605
v 0.888452 0.254767 0.523605
v 0.908328 -0.473354 0.475618
v 0.908328 0.254767 0.475618
v 0.956315 -0.473354 -0.455742
v 0.956315 0.254768 -0.455742
v 1.004301 -0.473354 -0.475618
v 1.004301 0.254768 -0.475618
v 1.024178 -0.473354 -0.523605
v 1.024178 0.254768 -0.523605
v 1.004301 -0.473354 -0.571592
v 1.004301 0.254768 -0.571592
v 0.956315 -0.473354 -0.591468
v 0.956315 0.254768 -0.591468
v 0.908328 -0.473354 -0.571592
v 0.908328 0.254768 -0.571592
v 0.888452 -0.473354 -0.523605
v 0.888452 0.254768 -0.523605
v 0.908328 -0.473354 -0.475618
v 0.908328 0.254768 -0.475618
v 1.227768 -0.473354 0.455742
v 1.227768 0.254767 0.455742
v 1.275754 -0.473354 0.475618
v 1.275754 0.254767 0.475618
v 1.295631 -0.473354 0.523605
v 1.295631 0.254767 0.523605
v 1.275754 -0.473354 0.571592
v 1.275754 0.254767 0.571592
v 1.227768 -0.473354 0.591468
v 1.227768 0.254767 0.591468
v 1.179781 -0.473354 0.571592
v 1.179781 0.254767 0.571592
v 1.159904 -0.473354 0.523605
v 1.159904 0.254767 0.523605
v 1.179781 -0.473354 0.475618
v 1.179781 0.254767 0.475618
v 1.227768 -0.473354 -0.455742
v 1.227768 0.254768 -0.455742
v 1.275754 -0.473354 -0.475618
v 1.275754 0.254768 -0.475618
v 1.295631 -0.473354 -0.523605
v 1.295631 0.254768 -0.523605
v 1.275754 -0.473354 -0.571592
v 1.275754 0.254768 -0.571592
v 1.227768 -0.473354 -0.591468
v 1.227768 0.254768 -0.591468
v 1.179781 -0.473354 -0.571592
v 1.179781 0.254768 -0.571592
v 1.159904 -0.473354 -0.523605
v 1.159904 0.254768 -0.523605
v 1.179781 -0.473354 -0.475618
v 1.179781 0.254768 -0.475618
v 1.499221 -0.473354 0.455742
v 1.499221 0.254767 0.455742
v 1.547208 -0.473354 0.475618
v 1.547208 0.254767 0.475618
v 1.567084 -0.473354 0.523605
v 1.567084 0.254767 0.523605
v 1.547208 -0.473354 0.571592
v 1.547208 0.254767 0.571592
v 1.499221 -0.473354 0.591468
v 1.499221 0.254767 0.591468
v 1.451234 -0.473354 0.571592
v 1.451234 0.254767 0.571592
v 1.431358 -0.473354 0.523605
v 1.431358 0.254767 0.523605
v 1.451234 -0.473354 0.475618
v 1.451234 0.254767 0.475618
v 1.499221 -0.473354 -0.455742
v 1.499221 0.254768 -0.455742
v 1.547208 -0.473354 -0.475618
v 1.547208 0.254768 -0.475618
v 1.567084 -0.473354 -0.523605
v 1.567084 0.254768 -0.523605
v 1.547208 -0.473354 -0.571592
v 1.547208 0.254768 -0.571592
v 1.499221 -0.473354 -0.591468
v 1.499221 0.254768 -0.591468
v 1.451234 -0.473354 -0.571592
v 1.451234 0.254768 -0.571592
v 1.431358 -0.473354 -0.523605
v 1.431358 0.254768 -0.523605
v 1.451234 -0.473354 -0.475618
v 1.451234 0.254768 -0.475618
v -0.672404 -0.480237 0.454161
v -0.672404 0.261651 0.454161
v -0.623300 -0.480237 0.474501
v -0.623300 0.261651 0.474501
v -0.602960 -0.480237 0.523605
v -0.602960 0.261651 0.523605
v -0.623300 -0.480237 0.572709
v -0.623300 0.261651 0.572709
v -0.672404 -0.480237 0.593049
v -0.672404 0.261651 0.593049
v -0.721508 -0.480237 0.572709
v -0.721508 0.261651 0.572709
v -0.741848 -0.480237 0.523605
v -0.741848 0.261651 0.523605
v -0.721508 -0.480237 0.474501
v -0.721508 0.261651 0.474501
v -0.672404 -0.480237 -0.454161
v -0.672404 0.261651 -0.454161
v -0.623300 -0.480237 -0.474501
v -0.623300 0.261651 -0.474501
v -0.602960 -0.480237 -0.523605
v -0.602960 0.261651 -0.523605
v -0.623300 -0.480237 -0.572709
v -0.623300 0.261651 -0.572709
v -0.672404 -0.480237 -0.593049
v -0.672404 0.261651 -0.593049
v -0.721508 -0.480237 -0.572709
v -0.721508 0.261651 -0.572709
v -0.741848 -0.480237 -0.523605
v -0.741848 0.261651 -0.523605
v -0.721508 -0.480237 -0.474501
v -0.721508 0.261651 -0.474501
v -0.400951 -0.480237 0.454161
v -0.400951 0.261651 0.454161
v -0.351847 -0.480237 0.474501
v -0.351847 0.261651 0.474501
v -0.331507 -0.480237 0.523605
v -0.331507 0.261651 0.523605
v -0.351847 -0.480237 0.572709
v -0.351847 0.261651 0.572709
v -0.400951 -0.480237 0.593049
v -0.400951 0.261651 0.593049
v -0.450055 -0.480237 0.572709
v -0.450055 0.261651 0.572709
v -0.470395 -0.480237 0.523605
v -0.470395 0.261651 0.523605
v -0.450055 -0.480237 0.474501
v -0.450055 0.261651 0.474501
v -0.400951 -0.480237 -0.454161
v -0.400951 0.261651 -0.454161
v -0.351847 -0.480237 -0.474501
v -0.351847 0.261651 -0.474501
v -0.331507 -0.480237 -0.523605
v -0.331507 0.261651 -0.523605
v -0.351847 -0.480237 -0.572709
v -0.351847 0.261651 -0.572709
v -0.400951 -0.480237 -0.593049
v -0.400951 0.261651 -0.593049
v -0.450055 -0.480237 -0.572709
v -0.450055 0.261651 -0.572709
v -0.470395 -0.480237 -0.523605
v -0.470395 0.261651 -0.523605
v -0.450055 -0.480237 -0.474501
v -0.450055 0.261651 -0.474501
v -0.129498 -0.480237 0.454161
v -0.129498 0.261651 0.454161
v -0.080393 -0.480237 0.474501
v -0.080393 0.261651 0.474501
v -0.060054 -0.480237 0.523605
v -0.060054 0.261651 0.523605
v -0.080393 -0.480237 0.572709
v -0.080393 0.261651 0.572709
v -0.129498 -0.480237 0.593049
v -0.129498 0.261651 0.593049
v -0.178602 -0.480237 0.572709
v -0.178602 0.261651 0.572709
v -0.198942 -0.480237 0.523605
v -0.198942 0.261651 0.523605
v -0.178602 -0.480237 0.474501
v -0.178602 0.261651 0.474501
v -0.129498 -0.480237 -0.454161
v -0.129498 0.261651 -0.454161
v -0.080393 -0.480237 -0.474501
v -0.080393 0.261651 -0.474501
v -0.060054 -0.480237 -0.523605
v -0.060054 0.261651 -0.523605
v -0.080393 -0.480237 -0.572709
v -0.080393 0.261651 -0.572709
v -0.129498 -0.480237 -0.593049
v -0.129498 0.261651 -0.593049
v -0.178602 -0.480237 -0.572709
v -0.178602 0.261651 -0.572709
v -0.198942 -0.480237 -0.523605
v -0.198942 0.261651 -0.523605
v -0.178602 -0.480237 -0.474501
v -0.178602 0.261651 -0.474501
v 0.141955 -0.480237 0.454161
v 0.141955 0.261651 0.454161
v 0.191060 -0.480237 0.474501
v 0.191060 0.261651 0.474501
v 0.211399 -0.480237 0.523605
v 0.211399 0.261651 0.523605
v 0.191060 -0.480237 0.572709
v 0.191060 0.261651 0.572709
v 0.141955 -0.480237 0.593049
v 0.141955 0.261651 0.593049
v 0.092851 -0.480237 0.572709
v 0.092851 0.261651 0.572709
v 0.072511 -0.480237 0.523605
v 0.072511 0.261651 0.523605
v 0.092851 -0.480237 0.474501
v 0.092851 0.261651 0.474501
v 0.141955 -0.480237 -0.454161
v 0.141955 0.261651 -0.454161
v 0.191060 -0.480237 -0.474501
v 0.191060 0.261651 -0.474501
v 0.211399 -0.480237 -0.523605
v 0.211399 0.261651 -0.523605
v 0.191060 -0.480237 -0.572709
v 0.191060 0.261651 -0.572709
v 0.141955 -0.480237 -0.593049
v 0.141955 0.261651 -0.593049
v 0.092851 -0.480237 -0.572709
v 0.092851 0.261651 -0.572709
v 0.072511 -0.480237 -0.523605
v 0.072511 0.261651 -0.523605
v 0.092851 -0.480237 -0.474501
v 0.092851 0.261651 -0.474501
v 0.413408 -0.480237 0.454161
v 0.413408 0.261651 0.454161
v 0.462513 -0.480237 0.474501
v 0.462513 0.261651 0.474501
v 0.482852 -0.480237 0.523605
v 0.482852 0.261651 0.523605
v 0.462513 -0.480237 0.572709
v 0.462513 0.261651 0.572709
v 0.413408 -0.480237 0.593049
v 0.413408 0.261651 0.593049
v 0.364304 -0.480237 0.572709
v 0.364304 0.261651 0.572709
v 0.343965 -0.480237 0.523605
v 0.343965 0.261651 0.523605
v 0.364304 -0.480237 0.474501
v 0.364304 0.261651 0.474501
v 0.413408 -0.480237 -0.454161
v 0.413408 0.261651 -0.454161
v 0.462513 -0.480237 -0.474501
v 0.462513 0.261651 -0.474501
v 0.482852 -0.480237 -0.523605
v 0.482852 0.261651 -0.523605
v 0.462513 -0.480237 -0.572709
v 0.462513 0.261651 -0.572709
v 0.413408 -0.480237 -0.593049
v 0.413408 0.261651 -0.593049
v 0.364304 -0.480237 -0.572709
v 0.364304 0.261651 -0.572709
v 0.343965 -0.480237 -0.523605
v 0.343965 0.261651 -0.523605
v 0.364304 -0.480237 -0.474501
v 0.364304 0.261651 -0.474501
v 0.684862 -0.480237 0.454161
v 0.684862 0.261651 0.454161
v 0.733966 -0.480237 0.474501
v 0.733966 0.261651 0.474501
v 0.754306 -0.480237 0.523605
v 0.754306 0.261651 0.523605
v 0.733966 -0.480237 0.572709
v 0.733966 0.261651 0.572709
v 0.684862 -0.480237 0.593049
v 0.684862 0.261651 0.593049
v 0.635757 -0.480237 0.572709
v 0.635757 0.261651 0.572709
v 0.615418 -0.480237 0.523605
v 0.615418 0.261651 0.523605
v 0.635757 -0.480237 0.474501
v 0.635757 0.261651 0.474501
v 0.684862 -0.480237 -0.454161
v 0.684862 0.261651 -0.454161
v 0.733966 -0.480237 -0.474501
v 0.733966 0.261651 -0.474501
v 0.754306 -0.480237 -0.523605
v 0.754306 0.261651 -0.523605
v 0.733966 -0.480237 -0.572709
v 0.733966 0.261651 -0.572709
v 0.684862 -0.480237 -0.593049
v 0.684862 0.261651 -0.593049
v 0.635757 -0.480237 -0.572709
v 0.635757 0.261651 -0.572709
v 0.615418 -0.480237 -0.523605
v 0.615418 0.261651 -0.523605
v 0.635757 -0.480237 -0.474501
v 0.635757 0.261651 -0.474501
v 0.956315 -0.480237 0.454161
v 0.956315 0.261651 0.454161
v 1.005419 -0.480237 0.474501
v 1.005419 0.261651 0.474501
v 1.025759 -0.480237 0.523605
v 1.025759 0.261651 0.523605
v 1.005419 -0.480237 0.572709
v 1.005419 0.261651 0.572709
v 0.956315 -0.480237 0.593049
v 0.956315 0.261651 0.593049
v 0.907210 -0.480237 0.572709
v 0.907210 0.261651 0.572709
v 0.886871 -0.480237 0.523605
v 0.886871 0.261651 0.523605
v 0.907210 -0.480237 0.474501
v 0.907210 0.261651 0.474501
v 0.956315 -0.480237 -0.454161
v 0.956315 0.261651 -0.454161
v 1.005419 -0.480237 -0.474501
v 1.005419 0.261651 -0.474501
v 1.025759 -0.480237 -0.523605
v 1.025759 0.261651 -0.523605
v 1.005419 -0.480237 -0.572709
v 1.005419 0.261651 -0.572709
v 0.956315 -0.480237 -0.593049
v 0.956315 0.261651 -0.593049
v 0.907210 -0.480237 -0.572709
v 0.907210 0.261651 -0.572709
v 0.886871 -0.480237 -0.523605
v 0.886871 0.261651 -0.523605
v 0.907210 -0.480237 -0.474501
v 0.907210 0.261651 -0.474501
v 1.227768 -0.480237 0.454161
v 1.227768 0.261651 0.454161
v 1.276872 -0.480237 0.474501
v 1.276872 0.261651 0.474501
v 1.297212 -0.480237 0.523605
v 1.297212 0.261651 0.523605
v 1.276872 -0.480237 0.572709
v 1.276872 0.261651 0.572709
v 1.227768 -0.480237 0.593049
v 1.227768 0.261651 0.593049
v 1.178663 -0.480237 0.572709
v 1.178663 0.261651 0.572709
v 1.158324 -0.480237 0.523605
v 1.158324 0.261651 0.523605
v 1.178663 -0.480237 0.474501
v 1.178663 0.261651 0.474501
v 1.227768 -0.480237 -0.454161
v 1.227768 0.261651 -0.454161
v 1.276872 -0.480237 -0.474501
v 1.276872 0.261651 -0.474501
v 1.297212 -0.480237 -0.523605
v 1.297212 0.261651 -0.523605
v 1.276872 -0.480237 -0.572709
v 1.276872 0.261651 -0.572709
v 1.227768 -0.480237 -0.593049
v 1.227768 0.261651 -0.593049
v 1.178663 -0.480237 -0.572709
v 1.178663 0.261651 -0.572709
v 1.158324 -0.480237 -0.523605
v 1.158324 0.261651 -0.523605
v 1.178663 -0.480237 -0.474501
v 1.178663 0.261651 -0.474501
v 1.499221 -0.480237 0.454161
v 1.499221 0.261651 0.454161
v 1.548325 -0.480237 0.474501
v 1.548325 0.261651 0.474501
v 1.568665 -0.480237 0.523605
v 1.568665 0.261651 0.523605
v 1.548325 -0.480237 0.572709
v 1.548325 0.261651 0.572709
v 1.499221 -0.480237 0.593049
v 1.499221 0.261651 0.593049
v 1.450117 -0.480237 0.572709
v 1.450117 0.261651 0.572709
v 1.429777 -0.480237 0.523605
v 1.429777 0.261651 0.523605
v 1.450117 -0.480237 0.474501
v 1.450117 0.261651 0.474501
v 1.499221 -0.480237 -0.454161
v 1.499221 0.261651 -0.454161
v 1.548325 -0.480237 -0.474501
v 1.548325 0.261651 -0.474501
v 1.568665 -0.480237 -0.523605
v 1.568665 0.261651 -0.523605
v 1.548325 -0.480237 -0.572709
v 1.548325 0.261651 -0.572709
v 1.499221 -0.480237 -0.593049
v 1.499221 0.261651 -0.593049
v 1.450117 -0.480237 -0.572709
v 1.450117 0.261651 -0.572709
v 1.429777 -0.480237 -0.523605
v 1.429777 0.261651 -0.523605
v 1.450117 -0.480237 -0.474501
v 1.450117 0.261651 -0.474501
vn 0.3827 -0.0000 -0.9239
vn 0.9239 -0.0000 -0.3827
vn 0.9239 -0.0000 0.3827
vn 0.3827 -0.0000 0.9239
vn -0.3827 -0.0000 0.9239
vn -0.9239 -0.0000 0.3827
vn -0.0000 1.0000 -0.0000
vn -0.9239 -0.0000 -0.3827
vn -0.3827 -0.0000 -0.9239
vn -0.0000 -1.0000 -0.0000
vt 1.000000 0.500000
vt 1.000000 1.000000
vt 0.875000 1.000000
vt 0.875000 0.500000
vt 0.750000 1.000000
vt 0.750000 0.500000
vt 0.625000 1.000000
vt 0.625000 0.500000
vt 0.500000 1.000000
vt 0.500000 0.500000
vt 0.375000 1.000000
vt 0.375000 0.500000
vt 0.250000 1.000000
vt 0.250000 0.500000
vt 0.419706 0.419706
vt 0.250000 0.490000
vt 0.080294 0.419706
vt 0.010000 0.250000
vt 0.080294 0.080294
vt 0.250000 0.010000
vt 0.419706 0.080294
vt 0.490000 0.250000
vt 0.125000 1.000000
vt 0.125000 0.500000
vt 0.000000 1.000000
vt 0.000000 0.500000
vt 0.750000 0.490000
vt 0.919706 0.419706
vt 0.990000 0.250000
vt 0.919706 0.080294
vt 0.750000 0.010000
vt 0.580294 0.080294
vt 0.510000 0.250000
vt 0.580294 0.419706
s 0
usemtl Material.002
f 57/28/43 58/29/43 60/30/43 59/31/43
f 59/31/44 60/30/44 62/32/44 61/33/44
f 61/33/45 62/32/45 64/34/45 63/35/45
f 63/35/46 64/34/46 66/36/46 65/37/46
f 65/37/47 66/36/47 68/38/47 67/39/47
f 67/39/48 68/38/48 70/40/48 69/41/48
f 60/42/49 58/43/49 72/44/49 70/45/49 68/46/49 66/47/49 64/48/49 62/49/49
f 69/41/50 70/40/50 72/50/50 71/51/50
f 71/51/51 72/50/51 58/52/51 57/53/51
f 57/54/52 59/55/52 61/56/52 63/57/52 65/58/52 67/59/52 69/60/52 71/61/52
f 73/28/46 75/31/46 76/30/46 74/29/46
f 75/31/45 77/33/45 78/32/45 76/30/45
f 77/33/44 79/35/44 80/34/44 78/32/44
f 79/35/43 81/37/43 82/36/43 80/34/43
f 81/37/51 83/39/51 84/38/51 82/36/51
f 83/39/50 85/41/50 86/40/50 84/38/50
f 76/42/49 78/49/49 80/48/49 82/47/49 84/46/49 86/45/49 88/44/49 74/43/49
f 85/41/48 87/51/48 88/50/48 86/40/48
f 87/51/47 73/53/47 74/52/47 88/50/47
f 73/54/52 87/61/52 85/60/52 83/59/52 81/58/52 79/57/52 77/56/52 75/55/52
f 89/28/43 90/29/43 92/30/43 91/31/43
f 91/31/44 92/30/44 94/32/44 93/33/44
f 93/33/45 94/32/45 96/34/45 95/35/45
f 95/35/46 96/34/46 98/36/46 97/37/46
f 97/37/47 98/36/47 100/38/47 99/39/47
f 99/39/48 100/38/48 102/40/48 101/41/48
f 92/42/49 90/43/49 104/44/49 102/45/49 100/46/49 98/47/49 96/48/49 94/49/49
f 101/41/50 102/40/50 104/50/50 103/51/50
f 103/51/51 104/50/51 90/52/51 89/53/51
f 89/54/52 91/55/52 93/56/52 95/57/52 97/58/52 99/59/52 101/60/52 103/61/52
f 105/28/46 107/31/46 108/30/46 106/29/46
f 107/31/45 109/33/45 110/32/45 108/30/45
f 109/33/44 111/35/44 112/34/44 110/32/44
f 111/35/43 113/37/43 114/36/43 112/34/43
f 113/37/51 115/39/51 116/38/51 114/36/51
f 115/39/50 117/41/50 118/40/50 116/38/50
f 108/42/49 110/49/49 112/48/49 114/47/49 116/46/49 118/45/49 120/44/49 106/43/49
f 117/41/48 119/51/48 120/50/48 118/40/48
f 119/51/47 105/53/47 106/52/47 120/50/47
f 105/54/52 119/61/52 117/60/52 115/59/52 113/58/52 111/57/52 109/56/52 107/55/52
f 121/28/43 122/29/43 124/30/43 123/31/43
f 123/31/44 124/30/44 126/32/44 125/33/44
f 125/33/45 126/32/45 128/34/45 127/35/45
f 127/35/46 128/34/46 130/36/46 129/37/46
f 129/37/47 130/36/47 132/38/47 131/39/47
f 131/39/48 132/38/48 134/40/48 133/41/48
f 124/42/49 122/43/49 136/44/49 134/45/49 132/46/49 130/47/49 128/48/49 126/49/49
f 133/41/50 134/40/50 136/50/50 135/51/50
f 135/51/51 136/50/51 122/52/51 121/53/51
f 121/54/52 123/55/52 125/56/52 127/57/52 129/58/52 131/59/52 133/60/52 135/61/52
f 137/28/46 139/31/46 140/30/46 138/29/46
f 139/31/45 141/33/45 142/32/45 140/30/45
f 141/33/44 143/35/44 144/34/44 142/32/44
f 143/35/43 145/37/43 146/36/43 144/34/43
f 145/37/51 147/39/51 148/38/51 146/36/51
f 147/39/50 149/41/50 150/40/50 148/38/50
f 140/42/49 142/49/49 144/48/49 146/47/49 148/46/49 150/45/49 152/44/49 138/43/49
f 149/41/48 151/51/48 152/50/48 150/40/48
f 151/51/47 137/53/47 138/52/47 152/50/47
f 137/54/52 151/61/52 149/60/52 147/59/52 145/58/52 143/57/52 141/56/52 139/55/52
f 153/28/43 154/29/43 156/30/43 155/31/43
f 155/31/44 156/30/44 158/32/44 157/33/44
f 157/33/45 158/32/45 160/34/45 159/35/45
f 159/35/46 160/34/46 162/36/46 161/37/46
f 161/37/47 162/36/47 164/38/47 163/39/47
f 163/39/48 164/38/48 166/40/48 165/41/48
f 156/42/49 154/43/49 168/44/49 166/45/49 164/46/49 162/47/49 160/48/49 158/49/49
f 165/41/50 166/40/50 168/50/50 167/51/50
f 167/51/51 168/50/51 154/52/51 153/53/51
f 153/54/52 155/55/52 157/56/52 159/57/52 161/58/52 163/59/52 165/60/52 167/61/52
f 169/28/46 171/31/46 172/30/46 170/29/46
f 171/31/45 173/33/45 174/32/45 172/30/45
f 173/33/44 175/35/44 176/34/44 174/32/44
f 175/35/43 177/37/43 178/36/43 176/34/43
f 177/37/51 179/39/51 180/38/51 178/36/51
f 179/39/50 181/41/50 182/40/50 180/38/50
f 172/42/49 174/49/49 176/48/49 178/47/49 180/46/49 182/45/49 184/44/49 170/43/49
f 181/41/48 183/51/48 184/50/48 182/40/48
f 183/51/47 169/53/47 170/52/47 184/50/47
f 169/54/52 183/61/52 181/60/52 179/59/52 177/58/52 175/57/52 173/56/52 171/55/52
f 185/28/43 186/29/43 188/30/43 187/31/43
f 187/31/44 188/30/44 190/32/44 189/33/44
f 189/33/45 190/32/45 192/34/45 191/35/45
f 191/35/46 192/34/46 194/36/46 193/37/46
f 193/37/47 194/36/47 196/38/47 195/39/47
f 195/39/48 196/38/48 198/40/48 197/41/48
f 188/42/49 186/43/49 200/44/49 198/45/49 196/46/49 194/47/49 192/48/49 190/49/49
f 197/41/50 198/40/50 200/50/50 199/51/50
f 199/51/51 200/50/51 186/52/51 185/53/51
f 185/54/52 187/55/52 189/56/52 191/57/52 193/58/52 195/59/52 197/60/52 199/61/52
f 201/28/46 203/31/46 204/30/46 202/29/46
f 203/31/45 205/33/45 206/32/45 204/30/45
f 205/33/44 207/35/44 208/34/44 206/32/44
f 207/35/43 209/37/43 210/36/43 208/34/43
f 209/37/51 211/39/51 212/38/51 210/36/51
f 211/39/50 213/41/50 214/40/50 212/38/50
f 204/42/49 206/49/49 208/48/49 210/47/49 212/46/49 214/45/49 216/44/49 202/43/49
f 213/41/48 215/51/48 216/50/48 214/40/48
f 215/51/47 201/53/47 202/52/47 216/50/47
f 201/54/52 215/61/52 213/60/52 211/59/52 209/58/52 207/57/52 205/56/52 203/55/52
f 217/28/43 218/29/43 220/30/43 219/31/43
f 219/31/44 220/30/44 222/32/44 221/33/44
f 221/33/45 222/32/45 224/34/45 223/35/45
f 223/35/46 224/34/46 226/36/46 225/37/46
f 225/37/47 226/36/47 228/38/47 227/39/47
f 227/39/48 228/38/48 230/40/48 229/41/48
f 220/42/49 218/43/49 232/44/49 230/45/49 228/46/49 226/47/49 224/48/49 222/49/49
f 229/41/50 230/40/50 232/50/50 231/51/50
f 231/51/51 232/50/51 218/52/51 217/53/51
f 217/54/52 219/55/52 221/56/52 223/57/52 225/58/52 227/59/52 229/60/52 231/61/52
f 233/28/46 235/31/46 236/30/46 234/29/46
f 235/31/45 237/33/45 238/32/45 236/30/45
f 237/33/44 239/35/44 240/34/44 238/32/44
f 239/35/43 241/37/43 242/36/43 240/34/43
f 241/37/51 243/39/51 244/38/51 242/36/51
f 243/39/50 245/41/50 246/40/50 244/38/50
f 236/42/49 238/49/49 240/48/49 242/47/49 244/46/49 246/45/49 248/44/49 234/43/49
f 245/41/48 247/51/48 248/50/48 246/40/48
f 247/51/47 233/53/47 234/52/47 248/50/47
f 233/54/52 247/61/52 245/60/52 243/59/52 241/58/52 239/57/52 237/56/52 235/55/52
f 249/28/43 250/29/43 252/30/43 251/31/43
f 251/31/44 252/30/44 254/32/44 253/33/44
f 253/33/45 254/32/45 256/34/45 255/35/45
f 255/35/46 256/34/46 258/36/46 257/37/46
f 257/37/47 258/36/47 260/38/47 259/39/47
f 259/39/48 260/38/48 262/40/48 261/41/48
f 252/42/49 250/43/49 264/44/49 262/45/49 260/46/49 258/47/49 256/48/49 254/49/49
f 261/41/50 262/40/50 264/50/50 263/51/50
f 263/51/51 264/50/51 250/52/51 249/53/51
f 249/54/52 251/55/52 253/56/52 255/57/52 257/58/52 259/59/52 261/60/52 263/61/52
f 265/28/46 267/31/46 268/30/46 266/29/46
f 267/31/45 269/33/45 270/32/45 268/30/45
f 269/33/44 271/35/44 272/34/44 270/32/44
f 271/35/43 273/37/43 274/36/43 272/34/43
f 273/37/51 275/39/51 276/38/51 274/36/51
f 275/39/50 277/41/50 278/40/50 276/38/50
f 268/42/49 270/49/49 272/48/49 274/47/49 276/46/49 278/45/49 280/44/49 266/43/49
f 277/41/48 279/51/48 280/50/48 278/40/48
f 279/51/47 265/53/47 266/52/47 280/50/47
f 265/54/52 279/61/52 277/60/52 275/59/52 273/58/52 271/57/52 269/56/52 267/55/52
f 281/28/43 282/29/43 284/30/43 283/31/43
f 283/31/44 284/30/44 286/32/44 285/33/44
f 285/33/45 286/32/45 288/34/45 287/35/45
f 287/35/46 288/34/46 290/36/46 289/37/46
f 289/37/47 290/36/47 292/38/47 291/39/47
f 291/39/48 292/38/48 294/40/48 293/41/48
f 284/42/49 282/43/49 296/44/49 294/45/49 292/46/49 290/47/49 288/48/49 286/49/49
f 293/41/50 294/40/50 296/50/50 295/51/50
f 295/51/51 296/50/51 282/52/51 281/53/51
f 281/54/52 283/55/52 285/56/52 287/57/52 289/58/52 291/59/52 293/60/52 295/61/52
f 297/28/46 299/31/46 300/30/46 298/29/46
f 299/31/45 301/33/45 302/32/45 300/30/45
f 301/33/44 303/35/44 304/34/44 302/32/44
f 303/35/43 305/37/43 306/36/43 304/34/43
f 305/37/51 307/39/51 308/38/51 306/36/51
f 307/39/50 309/41/50 310/40/50 308/38/50
f 300/42/49 302/49/49 304/48/49 306/47/49 308/46/49 310/45/49 312/44/49 298/43/49
f 309/41/48 311/51/48 312/50/48 310/40/48
f 311/51/47 297/53/47 298/52/47 312/50/47
f 297/54/52 311/61/52 309/60/52 307/59/52 305/58/52 303/57/52 301/56/52 299/55/52
f 313/28/43 314/29/43 316/30/43 315/31/43
f 315/31/44 316/30/44 318/32/44 317/33/44
f 317/33/45 318/32/45 320/34/45 319/35/45
f 319/35/46 320/34/46 322/36/46 321/37/46
f 321/37/47 322/36/47 324/38/47 323/39/47
f 323/39/48 324/38/48 326/40/48 325/41/48
f 316/42/49 314/43/49 328/44/49 326/45/49 324/46/49 322/47/49 320/48/49 318/49/49
f 325/41/50 326/40/50 328/50/50 327/51/50
f 327/51/51 328/50/51 314/52/51 313/53/51
f 313/54/52 315/55/52 317/56/52 319/57/52 321/58/52 323/59/52 325/60/52 327/61/52
f 329/28/46 331/31/46 332/30/46 330/29/46
f 331/31/45 333/33/45 334/32/45 332/30/45
f 333/33/44 335/35/44 336/34/44 334/32/44
f 335/35/43 337/37/43 338/36/43 336/34/43
f 337/37/51 339/39/51 340/38/51 338/36/51
f 339/39/50 341/41/50 342/40/50 340/38/50
f 332/42/49 334/49/49 336/48/49 338/47/49 340/46/49 342/45/49 344/44/49 330/43/49
f 341/41/48 343/51/48 344/50/48 342/40/48
f 343/51/47 329/53/47 330/52/47 344/50/47
f 329/54/52 343/61/52 341/60/52 339/59/52 337/58/52 335/57/52 333/56/52 331/55/52
usemtl Material.001
f 345/28/47 347/31/47 348/30/47 346/29/47
f 347/31/48 349/33/48 350/32/48 348/30/48
f 349/33/50 351/35/50 352/34/50 350/32/50
f 351/35/51 353/37/51 354/36/51 352/34/51
f 353/37/43 355/39/43 356/38/43 354/36/43
f 355/39/44 357/41/44 358/40/44 356/38/44
f 348/42/52 350/49/52 352/48/52 354/47/52 356/46/52 358/45/52 360/44/52 346/43/52
f 357/41/45 359/51/45 360/50/45 358/40/45
f 359/51/46 345/53/46 346/52/46 360/50/46
f 345/54/49 359/61/49 357/60/49 355/59/49 353/58/49 351/57/49 349/56/49 347/55/49
f 361/28/51 362/29/51 364/30/51 363/31/51
f 363/31/50 364/30/50 366/32/50 365/33/50
f 365/33/48 366/32/48 368/34/48 367/35/48
f 367/35/47 368/34/47 370/36/47 369/37/47
f 369/37/46 370/36/46 372/38/46 371/39/46
f 371/39/45 372/38/45 374/40/45 373/41/45
f 364/42/52 362/43/52 376/44/52 374/45/52 372/46/52 370/47/52 368/48/52 366/49/52
f 373/41/44 374/40/44 376/50/44 375/51/44
f 375/51/43 376/50/43 362/52/43 361/53/43
f 361/54/49 363/55/49 365/56/49 367/57/49 369/58/49 371/59/49 373/60/49 375/61/49
f 377/28/47 379/31/47 380/30/47 378/29/47
f 379/31/48 381/33/48 382/32/48 380/30/48
f 381/33/50 383/35/50 384/34/50 382/32/50
f 383/35/51 385/37/51 386/36/51 384/34/51
f 385/37/43 387/39/43 388/38/43 386/36/43
f 387/39/44 389/41/44 390/40/44 388/38/44
f 380/42/52 382/49/52 384/48/52 386/47/52 388/46/52 390/45/52 392/44/52 378/43/52
f 389/41/45 391/51/45 392/50/45 390/40/45
f 391/51/46 377/53/46 378/52/46 392/50/46
f 377/54/49 391/61/49 389/60/49 387/59/49 385/58/49 383/57/49 381/56/49 379/55/49
f 393/28/51 394/29/51 396/30/51 395/31/51
f 395/31/50 396/30/50 398/32/50 397/33/50
f 397/33/48 398/32/48 400/34/48 399/35/48
f 399/35/47 400/34/47 402/36/47 401/37/47
f 401/37/46 402/36/46 404/38/46 403/39/46
f 403/39/45 404/38/45 406/40/45 405/41/45
f 396/42/52 394/43/52 408/44/52 406/45/52 404/46/52 402/47/52 400/48/52 398/49/52
f 405/41/44 406/40/44 408/50/44 407/51/44
f 407/51/43 408/50/43 394/52/43 393/53/43
f 393/54/49 395/55/49 397/56/49 399/57/49 401/58/49 403/59/49 405/60/49 407/61/49
f 409/28/47 411/31/47 412/30/47 410/29/47
f 411/31/48 413/33/48 414/32/48 412/30/48
f 413/33/50 415/35/50 416/34/50 414/32/50
f 415/35/51 417/37/51 418/36/51 416/34/51
f 417/37/43 419/39/43 420/38/43 418/36/43
f 419/39/44 421/41/44 422/40/44 420/38/44
f 412/42/52 414/49/52 416/48/52 418/47/52 420/46/52 422/45/52 424/44/52 410/43/52
f 421/41/45 423/51/45 424/50/45 422/40/45
f 423/51/46 409/53/46 410/52/46 424/50/46
f 409/54/49 423/61/49 421/60/49 419/59/49 417/58/49 415/57/49 413/56/49 411/55/49
f 425/28/51 426/29/51 428/30/51 427/31/51
f 427/31/50 428/30/50 430/32/50 429/33/50
f 429/33/48 430/32/48 432/34/48 431/35/48
f 431/35/47 432/34/47 434/36/47 433/37/47
f 433/37/46 434/36/46 436/38/46 435/39/46
f 435/39/45 436/38/45 438/40/45 437/41/45
f 428/42/52 426/43/52 440/44/52 438/45/52 436/46/52 434/47/52 432/48/52 430/49/52
f 437/41/44 438/40/44 440/50/44 439/51/44
f 439/51/43 440/50/43 426/52/43 425/53/43
f 425/54/49 427/55/49 429/56/49 431/57/49 433/58/49 435/59/49 437/60/49 439/61/49
f 441/28/47 443/31/47 444/30/47 442/29/47
f 443/31/48 445/33/48 446/32/48 444/30/48
f 445/33/50 447/35/50 448/34/50 446/32/50
f 447/35/51 449/37/51 450/36/51 448/34/51
f 449/37/43 451/39/43 452/38/43 450/36/43
f 451/39/44 453/41/44 454/40/44 452/38/44
f 444/42/52 446/49/52 448/48/52 450/47/52 452/46/52 454/45/52 456/44/52 442/43/52
f 453/41/45 455/51/45 456/50/45 454/40/45
f 455/51/46 441/53/46 442/52/46 456/50/46
f 441/54/49 455/61/49 453/60/49 451/59/49 449/58/49 447/57/49 445/56/49 443/55/49
f 457/28/51 458/29/51 460/30/51 459/31/51
f 459/31/50 460/30/50 462/32/50 461/33/50
f 461/33/48 462/32/48 464/34/48 463/35/48
f 463/35/47 464/34/47 466/36/47 465/37/47
f 465/37/46 466/36/46 468/38/46 467/39/46
f 467/39/45 468/38/45 470/40/45 469/41/45
f 460/42/52 458/43/52 472/44/52 470/45/52 468/46/52 466/47/52 464/48/52 462/49/52
f 469/41/44 470/40/44 472/50/44 471/51/44
f 471/51/43 472/50/43 458/52/43 457/53/43
f 457/54/49 459/55/49 461/56/49 463/57/49 465/58/49 467/59/49 469/60/49 471/61/49
f 473/28/47 475/31/47 476/30/47 474/29/47
f 475/31/48 477/33/48 478/32/48 476/30/48
f 477/33/50 479/35/50 480/34/50 478/32/50
f 479/35/51 481/37/51 482/36/51 480/34/51
f 481/37/43 483/39/43 484/38/43 482/36/43
f 483/39/44 485/41/44 486/40/44 484/38/44
f 476/42/52 478/49/52 480/48/52 482/47/52 484/46/52 486/45/52 488/44/52 474/43/52
f 485/41/45 487/51/45 488/50/45 486/40/45
f 487/51/46 473/53/46 474/52/46 488/50/46
f 473/54/49 487/61/49 485/60/49 483/59/49 481/58/49 479/57/49 477/56/49 475/55/49
f 489/28/51 490/29/51 492/30/51 491/31/51
f 491/31/50 492/30/50 494/32/50 493/33/50
f 493/33/48 494/32/48 496/34/48 495/35/48
f 495/35/47 496/34/47 498/36/47 497/37/47
f 497/37/46 498/36/46 500/38/46 499/39/46
f 499/39/45 500/38/45 502/40/45 501/41/45
f 492/42/52 490/43/52 504/44/52 502/45/52 500/46/52 498/47/52 496/48/52 494/49/52
f 501/41/44 502/40/44 504/50/44 503/51/44
f 503/51/43 504/50/43 490/52/43 489/53/43
f 489/54/49 491/55/49 493/56/49 495/57/49 497/58/49 499/59/49 501/60/49 503/61/49
f 505/28/47 507/31/47 508/30/47 506/29/47
f 507/31/48 509/33/48 510/32/48 508/30/48
f 509/33/50 511/35/50 512/34/50 510/32/50
f 511/35/51 513/37/51 514/36/51 512/34/51
f 513/37/43 515/39/43 516/38/43 514/36/43
f 515/39/44 517/41/44 518/40/44 516/38/44
f 508/42/52 510/49/52 512/48/52 514/47/52 516/46/52 518/45/52 520/44/52 506/43/52
f 517/41/45 519/51/45 520/50/45 518/40/45
f 519/51/46 505/53/46 506/52/46 520/50/46
f 505/54/49 519/61/49 517/60/49 515/59/49 513/58/49 511/57/49 509/56/49 507/55/49
f 521/28/51 522/29/51 524/30/51 523/31/51
f 523/31/50 524/30/50 526/32/50 525/33/50
f 525/33/48 526/32/48 528/34/48 527/35/48
f 527/35/47 528/34/47 530/36/47 529/37/47
f 529/37/46 530/36/46 532/38/46 531/39/46
f 531/39/45 532/38/45 534/40/45 533/41/45
f 524/42/52 522/43/52 536/44/52 534/45/52 532/46/52 530/47/52 528/48/52 526/49/52
f 533/41/44 534/40/44 536/50/44 535/51/44
f 535/51/43 536/50/43 522/52/43 521/53/43
f 521/54/49 523/55/49 525/56/49 527/57/49 529/58/49 531/59/49 533/60/49 535/61/49
f 537/28/47 539/31/47 540/30/47 538/29/47
f 539/31/48 541/33/48 542/32/48 540/30/48
f 541/33/50 543/35/50 544/34/50 542/32/50
f 543/35/51 545/37/51 546/36/51 544/34/51
f 545/37/43 547/39/43 548/38/43 546/36/43
f 547/39/44 549/41/44 550/40/44 548/38/44
f 540/42/52 542/49/52 544/48/52 546/47/52 548/46/52 550/45/52 552/44/52 538/43/52
f 549/41/45 551/51/45 552/50/45 550/40/45
f 551/51/46 537/53/46 538/52/46 552/50/46
f 537/54/49 551/61/49 549/60/49 547/59/49 545/58/49 543/57/49 541/56/49 539/55/49
f 553/28/51 554/29/51 556/30/51 555/31/51
f 555/31/50 556/30/50 558/32/50 557/33/50
f 557/33/48 558/32/48 560/34/48 559/35/48
f 559/35/47 560/34/47 562/36/47 561/37/47
f 561/37/46 562/36/46 564/38/46 563/39/46
f 563/39/45 564/38/45 566/40/45 565/41/45
f 556/42/52 554/43/52 568/44/52 566/45/52 564/46/52 562/47/52 560/48/52 558/49/52
f 565/41/44 566/40/44 568/50/44 567/51/44
f 567/51/43 568/50/43 554/52/43 553/53/43
f 553/54/49 555/55/49 557/56/49 559/57/49 561/58/49 563/59/49 565/60/49 567/61/49
f 569/28/47 571/31/47 572/30/47 570/29/47
f 571/31/48 573/33/48 574/32/48 572/30/48
f 573/33/50 575/35/50 576/34/50 574/32/50
f 575/35/51 577/37/51 578/36/51 576/34/51
f 577/37/43 579/39/43 580/38/43 578/36/43
f 579/39/44 581/41/44 582/40/44 580/38/44
f 572/42/52 574/49/52 576/48/52 578/47/52 580/46/52 582/45/52 584/44/52 570/43/52
f 581/41/45 583/51/45 584/50/45 582/40/45
f 583/51/46 569/53/46 570/52/46 584/50/46
f 569/54/49 583/61/49 581/60/49 579/59/49 577/58/49 575/57/49 573/56/49 571/55/49
f 585/28/51 586/29/51 588/30/51 587/31/51
f 587/31/50 588/30/50 590/32/50 589/33/50
f 589/33/48 590/32/48 592/34/48 591/35/48
f 591/35/47 592/34/47 594/36/47 593/37/47
f 593/37/46 594/36/46 596/38/46 595/39/46
f 595/39/45 596/38/45 598/40/45 597/41/45
f 588/42/52 586/43/52 600/44/52 598/45/52 596/46/52 594/47/52 592/48/52 590/49/52
f 597/41/44 598/40/44 600/50/44 599/51/44
f 599/51/43 600/50/43 586/52/43 585/53/43
f 585/54/49 587/55/49 589/56/49 591/57/49 593/58/49 595/59/49 597/60/49 599/61/49
f 601/28/47 603/31/47 604/30/47 602/29/47
f 603/31/48 605/33/48 606/32/48 604/30/48
f 605/33/50 607/35/50 608/34/50 606/32/50
f 607/35/51 609/37/51 610/36/51 608/34/51
f 609/37/43 611/39/43 612/38/43 610/36/43
f 611/39/44 613/41/44 614/40/44 612/38/44
f 604/42/52 606/49/52 608/48/52 610/47/52 612/46/52 614/45/52 616/44/52 602/43/52
f 613/41/45 615/51/45 616/50/45 614/40/45
f 615/51/46 601/53/46 602/52/46 616/50/46
f 601/54/49 615/61/49 613/60/49 611/59/49 609/58/49 607/57/49 605/56/49 603/55/49
f 617/28/51 618/29/51 620/30/51 619/31/51
f 619/31/50 620/30/50 622/32/50 621/33/50
f 621/33/48 622/32/48 624/34/48 623/35/48
f 623/35/47 624/34/47 626/36/47 625/37/47
f 625/37/46 626/36/46 628/38/46 627/39/46
f 627/39/45 628/38/45 630/40/45 629/41/45
f 620/42/52 618/43/52 632/44/52 630/45/52 628/46/52 626/47/52 624/48/52 622/49/52
f 629/41/44 630/40/44 632/50/44 631/51/44
f 631/51/43 632/50/43 618/52/43 617/53/43
f 617/54/49 619/55/49 621/56/49 623/57/49 625/58/49 627/59/49 629/60/49 631/61/49
