# Blender 5.0.1
# www.blender.org
mtllib caixaComponentes.mtl
o Cube
v -0.970427 -1.057758 1.000000
v -0.970427 1.057758 1.000000
v 0.970427 1.057758 1.000000
v 0.970427 -1.057758 1.000000
v -0.970427 -1.057758 -0.760346
v -0.970427 1.057758 -0.760346
v 0.970427 1.057758 -0.760346
v 0.970427 -1.057758 -0.760346
v 0.978665 1.179060 -1.000000
v 1.081714 1.066737 -1.000000
v 1.081714 -1.066737 -1.000000
v 0.978665 -1.179060 -1.000000
v 1.081714 1.066737 1.000000
v 0.978665 1.179060 1.000000
v 1.008847 1.099635 1.000000
v 0.978665 -1.179060 1.000000
v 1.081714 -1.066737 1.000000
v 1.008847 -1.099635 1.000000
v -1.081714 1.066737 -1.000000
v -0.978665 1.179060 -1.000000
v -0.978665 -1.179060 -1.000000
v -1.081714 -1.066737 -1.000000
v -0.978665 1.179060 1.000000
v -1.081714 1.066737 1.000000
v -1.008847 1.099635 1.000000
v -1.081714 -1.066737 1.000000
v -0.978665 -1.179060 1.000000
v -1.008847 -1.099635 1.000000
v -0.960643 -1.047093 1.027136
v -0.960643 1.047093 1.027136
v 0.960643 1.047093 1.027136
v 0.960643 -1.047093 1.027136
v -0.951691 -1.037336 -0.743026
v -0.951691 1.037336 -0.743026
v 0.951691 1.037336 -0.743026
v 0.951691 -1.037336 -0.743026
v 0.988306 1.204431 -1.018908
v 1.104991 1.077246 -1.018908
v 1.104991 -1.077246 -1.018908
v 0.988306 -1.204431 -1.018908
v 1.104991 1.077246 1.018908
v 0.988306 1.204431 1.018908
v 1.008847 1.099635 1.030000
v 0.988306 -1.204431 1.018908
v 1.104991 -1.077246 1.018908
v 1.008847 -1.099635 1.030000
v -1.104991 1.077246 -1.018908
v -0.988306 1.204431 -1.018908
v -0.988306 -1.204431 -1.018908
v -1.104991 -1.077246 -1.018908
v -0.988306 1.204431 1.018908
v -1.104991 1.077246 1.018908
v -1.008847 1.099635 1.030000
v -1.104991 -1.077246 1.018908
v -0.988306 -1.204431 1.018908
v -1.008847 -1.099635 1.030000
vn 1.0000 -0.0000 -0.0000
vn -0.0000 -0.0000 1.0000
vn -0.0000 1.0000 -0.0000
vn -1.0000 -0.0000 -0.0000
vn -0.0000 -1.0000 -0.0000
vn -0.7369 -0.6760 -0.0000
vn 0.7369 0.6760 -0.0000
vn -0.7369 0.6760 -0.0000
vn 0.7369 -0.6760 -0.0000
vn -0.0000 -0.0000 -1.0000
vn -1.0000 -0.0000 -0.0051
vn -0.0000 -1.0000 -0.0055
vn 1.0000 -0.0000 -0.0051
vn -0.0000 1.0000 -0.0055
vn -0.1439 -0.1320 -0.9807
vn -0.1439 0.1320 -0.9807
vn 0.1439 -0.1320 -0.9807
vn 0.1439 0.1320 -0.9807
vn -0.0574 -0.0000 -0.9983
vn -0.0000 -0.0527 -0.9986
vn -0.0000 0.0527 -0.9986
vn 0.0574 -0.0000 -0.9983
vt 0.625000 0.000000
vt 0.375000 0.000000
vt 0.375000 0.750000
vt 0.625000 0.750000
vt 0.625000 1.000000
vt 0.375000 1.000000
vt 0.125000 0.750000
vt 0.875000 0.750000
vt 0.613092 0.750000
vt 0.633931 0.750000
vt 0.363092 0.750000
vt 0.383931 0.750000
vt 0.613092 0.000000
vt 0.136908 0.750000
vt 0.136908 0.500000
vt 0.125000 0.500000
vt 0.632939 0.496031
vt 0.613092 0.500000
vt 0.625000 0.255954
vt 0.613092 0.250000
vt 0.367061 0.496031
vt 0.386908 0.500000
vt 0.375000 0.261908
vt 0.386908 0.250000
vt 0.863092 0.500000
vt 0.863092 0.750000
vt 0.386908 0.000000
s 0
usemtl Material
f 2/1/1 1/2/1 5/2/1 6/1/1
f 8/3/2 7/4/2 6/5/2 5/6/2
f 1/7/3 4/3/3 8/3/3 5/7/3
f 4/3/4 3/4/4 7/4/4 8/3/4
f 3/4/5 2/8/5 6/8/5 7/4/5
f 13/9/2 14/10/2 15/4/2
f 16/11/2 17/12/2 18/3/2
f 23/1/2 24/13/2 25/1/2
f 26/7/2 27/14/2 28/7/2
f 21/15/6 27/14/6 26/7/6 22/16/6
f 9/17/7 14/10/7 13/9/7 10/18/7
f 23/1/8 20/19/8 19/20/8 24/13/8
f 16/11/9 12/21/9 11/22/9 17/12/9
f 21/23/10 22/24/10 19/20/10 20/19/10 9/17/10 10/18/10 11/22/10 12/21/10
f 11/22/1 10/18/1 13/9/1 17/12/1
f 9/17/3 20/25/3 23/26/3 14/10/3
f 21/15/5 12/21/5 16/11/5 27/14/5
f 18/3/2 17/12/2 13/9/2 15/4/2 3/4/2 4/3/2
f 15/4/2 14/10/2 23/26/2 25/8/2 2/8/2 3/4/2
f 28/7/2 27/14/2 16/11/2 18/3/2 4/3/2 1/7/2
f 26/27/4 24/13/4 19/20/4 22/24/4
f 25/1/2 24/13/2 26/27/2 28/2/2 1/2/2 2/1/2
usemtl Material.001
f 30/1/11 34/1/11 33/2/11 29/2/11
f 36/3/10 33/6/10 34/5/10 35/4/10
f 29/7/12 33/7/12 36/3/12 32/3/12
f 32/3/13 36/3/13 35/4/13 31/4/13
f 31/4/14 35/4/14 34/8/14 30/8/14
f 41/9/15 43/4/15 42/10/15
f 44/11/16 46/3/16 45/12/16
f 51/1/17 53/1/17 52/13/17
f 54/7/18 56/7/18 55/14/18
f 49/15/7 50/16/7 54/7/7 55/14/7
f 37/17/6 38/18/6 41/9/6 42/10/6
f 51/1/9 52/13/9 47/20/9 48/19/9
f 44/11/8 45/12/8 39/22/8 40/21/8
f 49/23/2 40/21/2 39/22/2 38/18/2 37/17/2 48/19/2 47/20/2 50/24/2
f 39/22/4 45/12/4 41/9/4 38/18/4
f 37/17/5 42/10/5 51/26/5 48/25/5
f 49/15/3 55/14/3 44/11/3 40/21/3
f 46/3/19 32/3/19 31/4/19 43/4/19 41/9/19 45/12/19
f 43/4/20 31/4/20 30/8/20 53/8/20 51/26/20 42/10/20
f 56/7/21 29/7/21 32/3/21 46/3/21 44/11/21 55/14/21
f 54/27/1 50/24/1 47/20/1 52/13/1
f 53/1/22 30/1/22 29/2/22 56/2/22 54/27/22 52/13/22
