# Blender 5.0.1
# www.blender.org
mtllib caixaComponentesPorta.mtl
o Cube.001
v -0.826441 -0.900814 1.122184
v -0.826441 0.900814 1.122184
v -0.960643 -1.047093 0.924910
v -0.960643 1.047093 0.924910
v 0.826441 -0.900814 1.122184
v 0.826441 0.900814 1.122184
v 0.960643 -1.047093 0.924910
v 0.960643 1.047093 0.924910
vn -0.8268 -0.0000 0.5625
vn -0.0000 -0.0000 -1.0000
vn 0.8268 -0.0000 0.5625
vn -0.0000 -0.0000 1.0000
vn -0.0000 -0.8033 0.5956
vn -0.0000 0.8033 0.5956
vt 0.375000 0.000000
vt 0.625000 0.000000
vt 0.625000 0.250000
vt 0.375000 0.250000
vt 0.625000 0.500000
vt 0.375000 0.500000
vt 0.625000 0.750000
vt 0.375000 0.750000
vt 0.625000 1.000000
vt 0.375000 1.000000
vt 0.125000 0.500000
vt 0.125000 0.750000
vt 0.875000 0.500000
vt 0.875000 0.750000
s 0
usemtl Material.002
f 1/1/1 2/2/1 4/3/1 3/4/1
f 3/4/2 4/3/2 8/5/2 7/6/2
f 7/6/3 8/5/3 6/7/3 5/8/3
f 5/8/4 6/7/4 2/9/4 1/10/4
f 3/11/5 7/6/5 5/8/5 1/12/5
f 8/5/6 4/13/6 2/14/6 6/7/6
