# Blender 5.0.1
# www.blender.org
mtllib capacitor.mtl
o Cylinder
v 0.000000 0.666004 -0.482610
v 0.000000 0.610298 -0.528362
v 0.241305 0.666004 -0.417953
v 0.264181 0.610298 -0.457575
v 0.417953 0.666004 -0.241305
v 0.457575 0.610298 -0.264181
v 0.482610 0.666004 0.000000
v 0.528362 0.610298 0.000000
v 0.417953 0.666004 0.241305
v 0.457575 0.610298 0.264181
v 0.241305 0.666004 0.417953
v 0.264181 0.610298 0.457575
v 0.000000 0.666004 0.482610
v 0.000000 0.610298 0.528362
v -0.241305 0.666004 0.417953
v -0.264181 0.610298 0.457575
v -0.417953 0.666004 0.241305
v -0.457575 0.610298 0.264181
v -0.482610 0.666004 0.000000
v -0.528362 0.610298 0.000000
v -0.417953 0.666004 -0.241305
v -0.457575 0.610298 -0.264181
v -0.241305 0.666004 -0.417953
v -0.264181 0.610298 -0.457575
v -0.000000 -1.478687 0.143151
v -0.000000 -1.179440 0.143151
v 0.032057 -1.478687 0.151741
v 0.032057 -1.179440 0.151741
v 0.055525 -1.478687 0.175209
v 0.055525 -1.179440 0.175209
v 0.064115 -1.478687 0.207266
v 0.064115 -1.179440 0.207266
v 0.055525 -1.478687 0.239323
v 0.055525 -1.179440 0.239323
v 0.032057 -1.478687 0.262791
v 0.032057 -1.179440 0.262791
v -0.000000 -1.478687 0.271381
v -0.000000 -1.179440 0.271381
v -0.032057 -1.478687 0.262791
v -0.032057 -1.179440 0.262791
v -0.055525 -1.478687 0.239323
v -0.055525 -1.179440 0.239323
v -0.064115 -1.478687 0.207266
v -0.064115 -1.179440 0.207266
v -0.055525 -1.478687 0.175209
v -0.055525 -1.179440 0.175209
v -0.032057 -1.478687 0.151741
v -0.032057 -1.179440 0.151741
v -0.000000 -1.179440 -0.493117
v 0.000000 -1.136527 -0.528362
v 0.264181 -1.136527 -0.457575
v 0.246559 -1.179440 -0.427052
v 0.457575 -1.136527 -0.264181
v 0.427052 -1.179440 -0.246559
v 0.528362 -1.136527 0.000000
v 0.493117 -1.179440 0.000000
v 0.457575 -1.136527 0.264181
v 0.427052 -1.179440 0.246559
v 0.264181 -1.136527 0.457575
v 0.246559 -1.179440 0.427052
v 0.000000 -1.136527 0.528362
v 0.000000 -1.179440 0.493117
v -0.264181 -1.136527 0.457575
v -0.246559 -1.179440 0.427052
v -0.457575 -1.136527 0.264181
v -0.427052 -1.179440 0.246559
v -0.528362 -1.136527 0.000000
v -0.493117 -1.179440 0.000000
v -0.457575 -1.136527 -0.264181
v -0.427052 -1.179440 -0.246559
v -0.264181 -1.136527 -0.457575
v -0.246559 -1.179440 -0.427052
v 0.000000 0.666004 0.482610
v 0.000000 0.610298 0.528362
v 0.241305 0.666004 0.417953
v 0.264181 0.610298 0.457575
v 0.417953 0.666004 0.241305
v 0.457575 0.610298 0.264181
v 0.417953 0.666004 -0.241305
v 0.457575 0.610298 -0.264181
v 0.241305 0.666004 -0.417953
v 0.264181 0.610298 -0.457575
v 0.000000 0.666004 -0.482610
v 0.000000 0.610298 -0.528362
v -0.241305 0.666004 -0.417953
v -0.264181 0.610298 -0.457575
v -0.417953 0.666004 -0.241305
v -0.457575 0.610298 -0.264181
v -0.417953 0.666004 0.241305
v -0.457575 0.610298 0.264181
v -0.241305 0.666004 0.417953
v -0.264181 0.610298 0.457575
v -0.000000 -1.478687 -0.143151
v -0.000000 -1.179440 -0.143151
v 0.032057 -1.478687 -0.151741
v 0.032057 -1.179440 -0.151741
v 0.055525 -1.478687 -0.175209
v 0.055525 -1.179440 -0.175209
v 0.064115 -1.478687 -0.207266
v 0.064115 -1.179440 -0.207266
v 0.055525 -1.478687 -0.239323
v 0.055525 -1.179440 -0.239323
v 0.032057 -1.478687 -0.262791
v 0.032057 -1.179440 -0.262791
v -0.000000 -1.478687 -0.271381
v -0.000000 -1.179440 -0.271381
v -0.032057 -1.478687 -0.262791
v -0.032057 -1.179440 -0.262791
v -0.055525 -1.478687 -0.239323
v -0.055525 -1.179440 -0.239323
v -0.064115 -1.478687 -0.207266
v -0.064115 -1.179440 -0.207266
v -0.055525 -1.478687 -0.175209
v -0.055525 -1.179440 -0.175209
v -0.032057 -1.478687 -0.151741
v -0.032057 -1.179440 -0.151741
v -0.000000 -1.179440 0.493117
v 0.000000 -1.136527 0.528362
v 0.264181 -1.136527 0.457575
v 0.246559 -1.179440 0.427052
v 0.457575 -1.136527 0.264181
v 0.427052 -1.179440 0.246559
v 0.457575 -1.136527 -0.264181
v 0.427052 -1.179440 -0.246559
v 0.264181 -1.136527 -0.457575
v 0.246559 -1.179440 -0.427052
v 0.000000 -1.136527 -0.528362
v 0.000000 -1.179440 -0.493117
v -0.264181 -1.136527 -0.457575
v -0.246559 -1.179440 -0.427052
v -0.457575 -1.136527 -0.264181
v -0.427052 -1.179440 -0.246559
v -0.457575 -1.136527 0.264181
v -0.427052 -1.179440 0.246559
v -0.264181 -1.136527 0.457575
v -0.246559 -1.179440 0.427052
v 0.000000 0.684083 -0.489358
v 0.000000 0.617676 -0.543093
v 0.244679 0.684083 -0.423797
v 0.271546 0.617676 -0.470332
v 0.423797 0.684083 -0.244679
v 0.470332 0.617676 -0.271546
v 0.489358 0.684083 -0.000000
v 0.543093 0.617676 -0.000000
v 0.423797 0.684083 0.244679
v 0.470332 0.617676 0.271546
v 0.244679 0.684083 0.423797
v 0.271546 0.617676 0.470332
v -0.000000 0.684083 0.489358
v -0.000000 0.617676 0.543093
v -0.244679 0.684083 0.423797
v -0.271546 0.617676 0.470332
v -0.423797 0.684083 0.244679
v -0.470332 0.617676 0.271546
v -0.489358 0.684083 0.000000
v -0.543093 0.617676 0.000000
v -0.423797 0.684083 -0.244679
v -0.470332 0.617676 -0.271546
v -0.244679 0.684083 -0.423797
v -0.271546 0.617676 -0.470332
v -0.000000 -1.491739 0.131149
v -0.000000 -1.166388 0.131149
v 0.038058 -1.491739 0.141347
v 0.038058 -1.166388 0.141347
v 0.065919 -1.491739 0.169208
v 0.065919 -1.166388 0.169208
v 0.076116 -1.491739 0.207266
v 0.076116 -1.166388 0.207266
v 0.065919 -1.491739 0.245324
v 0.065919 -1.166388 0.245324
v 0.038058 -1.491739 0.273185
v 0.038058 -1.166388 0.273185
v -0.000000 -1.491739 0.283382
v -0.000000 -1.166388 0.283382
v -0.038058 -1.491739 0.273185
v -0.038058 -1.166388 0.273185
v -0.065919 -1.491739 0.245324
v -0.065919 -1.166388 0.245324
v -0.076116 -1.491739 0.207266
v -0.076116 -1.166388 0.207266
v -0.065919 -1.491739 0.169208
v -0.065919 -1.166388 0.169208
v -0.038058 -1.491739 0.141347
v -0.038058 -1.166388 0.141347
v -0.000000 -1.197519 -0.499865
v -0.000000 -1.143905 -0.543093
v 0.271546 -1.143905 -0.470332
v 0.249933 -1.197519 -0.432896
v 0.470332 -1.143905 -0.271546
v 0.432896 -1.197519 -0.249933
v 0.543093 -1.143905 -0.000000
v 0.499865 -1.197519 -0.000000
v 0.470332 -1.143905 0.271546
v 0.432896 -1.197519 0.249933
v 0.271546 -1.143905 0.470332
v 0.249933 -1.197519 0.432896
v 0.000000 -1.143905 0.543093
v 0.000000 -1.197519 0.499865
v -0.271546 -1.143905 0.470332
v -0.249933 -1.197519 0.432896
v -0.470332 -1.143905 0.271546
v -0.432896 -1.197519 0.249933
v -0.543093 -1.143905 0.000000
v -0.499865 -1.197519 0.000000
v -0.470332 -1.143905 -0.271546
v -0.432896 -1.197519 -0.249933
v -0.271546 -1.143905 -0.470332
v -0.249933 -1.197519 -0.432896
v 0.000000 0.684083 0.489358
v 0.000000 0.617676 0.543093
v 0.244679 0.684083 0.423797
v 0.271546 0.617676 0.470332
v 0.423797 0.684083 0.244679
v 0.470332 0.617676 0.271546
v 0.423797 0.684083 -0.244679
v 0.470332 0.617676 -0.271546
v 0.244679 0.684083 -0.423797
v 0.271546 0.617676 -0.470332
v -0.000000 0.684083 -0.489358
v -0.000000 0.617676 -0.543093
v -0.244679 0.684083 -0.423797
v -0.271546 0.617676 -0.470332
v -0.423797 0.684083 -0.244679
v -0.470332 0.617676 -0.271546
v -0.423797 0.684083 0.244679
v -0.470332 0.617676 0.271546
v -0.244679 0.684083 0.423797
v -0.271546 0.617676 0.470332
v -0.000000 -1.491739 -0.131149
v -0.000000 -1.166388 -0.131149
v 0.038058 -1.491739 -0.141347
v 0.038058 -1.166388 -0.141347
v 0.065919 -1.491739 -0.169208
v 0.065919 -1.166388 -0.169208
v 0.076116 -1.491739 -0.207266
v 0.076116 -1.166388 -0.207266
v 0.065919 -1.491739 -0.245324
v 0.065919 -1.166388 -0.245324
v 0.038058 -1.491739 -0.273185
v 0.038058 -1.166388 -0.273185
v -0.000000 -1.491739 -0.283382
v -0.000000 -1.166388 -0.283382
v -0.038058 -1.491739 -0.273185
v -0.038058 -1.166388 -0.273185
v -0.065919 -1.491739 -0.245324
v -0.065919 -1.166388 -0.245324
v -0.076116 -1.491739 -0.207266
v -0.076116 -1.166388 -0.207266
v -0.065919 -1.491739 -0.169208
v -0.065919 -1.166388 -0.169208
v -0.038058 -1.491739 -0.141347
v -0.038058 -1.166388 -0.141347
v -0.000000 -1.197519 0.499865
v -0.000000 -1.143905 0.543093
v 0.271546 -1.143905 0.470332
v 0.249933 -1.197519 0.432896
v 0.470332 -1.143905 0.271546
v 0.432896 -1.197519 0.249933
v 0.470332 -1.143905 -0.271546
v 0.432896 -1.197519 -0.249933
v 0.271546 -1.143905 -0.470332
v 0.249933 -1.197519 -0.432896
v 0.000000 -1.143905 -0.543093
v 0.000000 -1.197519 -0.499865
v -0.271546 -1.143905 -0.470332
v -0.249933 -1.197519 -0.432896
v -0.470332 -1.143905 -0.271546
v -0.432896 -1.197519 -0.249933
v -0.470332 -1.143905 0.271546
v -0.432896 -1.197519 0.249933
v -0.271546 -1.143905 0.470332
v -0.249933 -1.197519 0.432896
vn 0.2028 0.6215 -0.7567
vn 0.5540 0.6215 -0.5540
vn 0.7567 0.6215 -0.2028
vn 0.7567 0.6215 0.2028
vn 0.5540 0.6215 0.5540
vn 0.2028 0.6215 0.7567
vn -0.2028 0.6215 0.7567
vn -0.5540 0.6215 0.5540
vn -0.7567 0.6215 0.2028
vn -0.7567 0.6215 -0.2028
vn -0.5540 0.6215 -0.5540
vn -0.2028 0.6215 -0.7567
vn -0.0000 1.0000 -0.0000
vn 0.2588 -0.0000 -0.9659
vn 0.7071 -0.0000 -0.7071
vn 0.9659 -0.0000 -0.2588
vn 0.9659 -0.0000 0.2588
vn 0.7071 -0.0000 0.7071
vn 0.2588 -0.0000 0.9659
vn -0.2588 -0.0000 0.9659
vn -0.7071 -0.0000 0.7071
vn -0.9659 -0.0000 0.2588
vn -0.9659 -0.0000 -0.2588
vn -0.7071 -0.0000 -0.7071
vn -0.2588 -0.0000 -0.9659
vn -0.0000 -1.0000 -0.0000
vn 0.2028 -0.6215 -0.7567
vn 0.5540 -0.6215 -0.5540
vn 0.7567 -0.6215 -0.2028
vn 0.7567 -0.6215 0.2028
vn 0.5540 -0.6215 0.5540
vn 0.2028 -0.6215 0.7567
vn -0.2028 -0.6215 0.7567
vn -0.5540 -0.6215 0.5540
vn -0.7567 -0.6215 0.2028
vn -0.7567 -0.6215 -0.2028
vn -0.5540 -0.6215 -0.5540
vn -0.2028 -0.6215 -0.7567
vn -0.2039 -0.6158 0.7610
vn -0.5571 -0.6158 0.5571
vn -0.7610 -0.6158 0.2039
vn -0.7610 -0.6158 -0.2039
vn -0.5571 -0.6158 -0.5571
vn -0.2039 -0.6158 -0.7610
vn 0.2039 -0.6158 -0.7610
vn 0.5571 -0.6158 -0.5571
vn 0.7610 -0.6158 -0.2039
vn 0.7610 -0.6158 0.2039
vn 0.5571 -0.6158 0.5571
vn 0.2039 -0.6158 0.7610
vn -0.2042 0.6144 0.7621
vn -0.5579 0.6144 0.5579
vn -0.7621 0.6144 0.2042
vn -0.7621 0.6144 -0.2042
vn -0.5579 0.6144 -0.5579
vn -0.2042 0.6144 -0.7621
vn 0.2042 0.6144 -0.7621
vn 0.5579 0.6144 -0.5579
vn 0.7621 0.6144 -0.2042
vn 0.7621 0.6144 0.2042
vn 0.5579 0.6144 0.5579
vn 0.2042 0.6144 0.7621
vt 0.370000 0.457846
vt 0.250000 0.490000
vt 0.250000 0.469218
vt 0.359609 0.439848
vt 0.457846 0.370000
vt 0.439848 0.359609
vt 0.490000 0.250000
vt 0.469218 0.250000
vt 0.457846 0.130000
vt 0.439848 0.140391
vt 0.370000 0.042154
vt 0.359609 0.060152
vt 0.250000 0.010000
vt 0.250000 0.030782
vt 0.130000 0.042154
vt 0.140391 0.060152
vt 0.042154 0.130000
vt 0.060152 0.140391
vt 0.010000 0.250000
vt 0.030782 0.250000
vt 0.042154 0.370000
vt 0.060152 0.359609
vt 0.130000 0.457846
vt 0.140391 0.439848
vt 1.000000 0.500000
vt 1.000000 1.000000
vt 0.916667 1.000000
vt 0.916667 0.500000
vt 0.833333 1.000000
vt 0.833333 0.500000
vt 0.750000 1.000000
vt 0.750000 0.500000
vt 0.666667 1.000000
vt 0.666667 0.500000
vt 0.583333 1.000000
vt 0.583333 0.500000
vt 0.500000 1.000000
vt 0.500000 0.500000
vt 0.416667 1.000000
vt 0.416667 0.500000
vt 0.333333 1.000000
vt 0.333333 0.500000
vt 0.250000 1.000000
vt 0.250000 0.500000
vt 0.166667 1.000000
vt 0.166667 0.500000
vt 0.042154 0.370000
vt 0.042154 0.130000
vt 0.130000 0.042154
vt 0.370000 0.042154
vt 0.083333 1.000000
vt 0.083333 0.500000
vt 0.000000 1.000000
vt 0.000000 0.500000
vt 0.750000 0.490000
vt 0.870000 0.457846
vt 0.957846 0.370000
vt 0.990000 0.250000
vt 0.957846 0.130000
vt 0.870000 0.042154
vt 0.750000 0.010000
vt 0.630000 0.042154
vt 0.542154 0.130000
vt 0.510000 0.250000
vt 0.542154 0.370000
vt 0.630000 0.457846
vt 0.861995 0.443982
vt 0.750000 0.473991
vt 0.943981 0.361995
vt 0.973991 0.250000
vt 0.943982 0.138005
vt 0.870000 0.042154
vt 0.861995 0.056018
vt 0.750000 0.026009
vt 0.630000 0.042154
vt 0.638005 0.056018
vt 0.556018 0.138005
vt 0.526009 0.250000
vt 0.556018 0.361995
vt 0.638005 0.443982
vt 1.000000 0.511487
vt 1.000000 0.979090
vt 0.916667 0.979090
vt 0.916667 0.511487
vt 0.083333 0.511487
vt 0.083333 0.979090
vt 0.000000 0.979090
vt 0.000000 0.511487
vt 0.833333 0.979090
vt 0.833333 0.511487
vt 0.750000 0.979090
vt 0.750000 0.511487
vt 0.666667 0.979090
vt 0.666667 0.511487
vt 0.583333 0.979090
vt 0.583333 0.511487
vt 0.500000 0.979090
vt 0.500000 0.511487
vt 0.416667 0.979090
vt 0.416667 0.511487
vt 0.333333 0.979090
vt 0.333333 0.511487
vt 0.250000 0.979090
vt 0.250000 0.511487
vt 0.166667 0.979090
vt 0.166667 0.511487
s 0
usemtl Material.001
f 50/55/27 51/56/27 52/67/27 49/68/27
f 51/56/28 53/57/28 54/69/28 52/67/28
f 53/57/29 55/58/29 56/70/29 54/69/29
f 55/58/30 57/59/30 58/71/30 56/70/30
f 57/59/31 59/72/31 60/73/31 58/71/31
f 59/72/32 61/61/32 62/74/32 60/73/32
f 61/61/33 63/75/33 64/76/33 62/74/33
f 63/75/34 65/63/34 66/77/34 64/76/34
f 65/63/35 67/64/35 68/78/35 66/77/35
f 67/64/36 69/65/36 70/79/36 68/78/36
f 69/65/37 71/66/37 72/80/37 70/79/37
f 71/66/38 50/55/38 49/68/38 72/80/38
f 50/81/14 2/82/14 4/83/14 51/84/14
f 49/68/26 52/67/26 54/69/26 56/70/26 58/71/26 60/73/26 62/74/26 64/76/26 66/77/26 68/78/26 70/79/26 72/80/26
f 71/85/25 24/86/25 2/87/25 50/88/25
f 51/84/15 4/83/15 6/89/15 53/90/15
f 53/90/16 6/89/16 8/91/16 55/92/16
f 55/92/17 8/91/17 10/93/17 57/94/17
f 57/94/18 10/93/18 12/95/18 59/96/18
f 59/96/19 12/95/19 14/97/19 61/98/19
f 61/98/20 14/97/20 16/99/20 63/100/20
f 63/100/21 16/99/21 18/101/21 65/102/21
f 65/102/22 18/101/22 20/103/22 67/104/22
f 67/104/23 20/103/23 22/105/23 69/106/23
f 69/106/24 22/105/24 24/86/24 71/85/24
f 118/55/32 117/68/32 120/67/32 119/56/32
f 119/56/31 120/67/31 122/69/31 121/57/31
f 121/57/30 122/69/30 56/70/30 55/58/30
f 55/58/29 56/70/29 124/71/29 123/59/29
f 123/59/28 124/71/28 126/73/28 125/72/28
f 125/72/27 126/73/27 128/74/27 127/61/27
f 127/61/38 128/74/38 130/76/38 129/75/38
f 129/75/37 130/76/37 132/77/37 131/63/37
f 131/63/36 132/77/36 68/78/36 67/64/36
f 67/64/35 68/78/35 134/79/35 133/65/35
f 133/65/34 134/79/34 136/80/34 135/66/34
f 135/66/33 136/80/33 117/68/33 118/55/33
f 118/81/19 119/84/19 76/83/19 74/82/19
f 117/68/26 136/80/26 134/79/26 68/78/26 132/77/26 130/76/26 128/74/26 126/73/26 124/71/26 56/70/26 122/69/26 120/67/26
f 135/85/20 118/88/20 74/87/20 92/86/20
f 119/84/18 121/90/18 78/89/18 76/83/18
f 121/90/17 55/92/17 8/91/17 78/89/17
f 55/92/16 123/94/16 80/93/16 8/91/16
f 123/94/15 125/96/15 82/95/15 80/93/15
f 125/96/14 127/98/14 84/97/14 82/95/14
f 127/98/25 129/100/25 86/99/25 84/97/25
f 129/100/24 131/102/24 88/101/24 86/99/24
f 131/102/23 67/104/23 20/103/23 88/101/23
f 67/104/22 133/106/22 90/105/22 20/103/22
f 133/106/21 135/85/21 92/86/21 90/105/21
usemtl Material.003
f 4/1/1 2/2/1 1/3/1 3/4/1
f 6/5/2 4/1/2 3/4/2 5/6/2
f 8/7/3 6/5/3 5/6/3 7/8/3
f 10/9/4 8/7/4 7/8/4 9/10/4
f 12/11/5 10/9/5 9/10/5 11/12/5
f 14/13/6 12/11/6 11/12/6 13/14/6
f 16/15/7 14/13/7 13/14/7 15/16/7
f 18/17/8 16/15/8 15/16/8 17/18/8
f 20/19/9 18/17/9 17/18/9 19/20/9
f 22/21/10 20/19/10 19/20/10 21/22/10
f 24/23/11 22/21/11 21/22/11 23/24/11
f 2/2/12 24/23/12 23/24/12 1/3/12
f 3/4/13 1/3/13 23/24/13 21/22/13 19/20/13 17/18/13 15/16/13 13/14/13 11/12/13 9/10/13 7/8/13 5/6/13
f 25/25/14 26/26/14 28/27/14 27/28/14
f 27/28/15 28/27/15 30/29/15 29/30/15
f 29/30/16 30/29/16 32/31/16 31/32/16
f 31/32/17 32/31/17 34/33/17 33/34/17
f 33/34/18 34/33/18 36/35/18 35/36/18
f 35/36/19 36/35/19 38/37/19 37/38/19
f 37/38/20 38/37/20 40/39/20 39/40/20
f 39/40/21 40/39/21 42/41/21 41/42/21
f 41/42/22 42/41/22 44/43/22 43/44/22
f 43/44/23 44/43/23 46/45/23 45/46/23
f 28/1/13 26/2/13 48/23/13 46/47/13 44/19/13 42/48/13 40/49/13 38/13/13 36/50/13 34/9/13 32/7/13 30/5/13
f 45/46/24 46/45/24 48/51/24 47/52/24
f 47/52/25 48/51/25 26/53/25 25/54/25
f 25/55/26 27/56/26 29/57/26 31/58/26 33/59/26 35/60/26 37/61/26 39/62/26 41/63/26 43/64/26 45/65/26 47/66/26
f 76/1/6 75/4/6 73/3/6 74/2/6
f 78/5/5 77/6/5 75/4/5 76/1/5
f 8/7/4 7/8/4 77/6/4 78/5/4
f 80/9/3 79/10/3 7/8/3 8/7/3
f 82/11/2 81/12/2 79/10/2 80/9/2
f 84/13/1 83/14/1 81/12/1 82/11/1
f 86/15/12 85/16/12 83/14/12 84/13/12
f 88/17/11 87/18/11 85/16/11 86/15/11
f 20/19/10 19/20/10 87/18/10 88/17/10
f 90/21/9 89/22/9 19/20/9 20/19/9
f 92/23/8 91/24/8 89/22/8 90/21/8
f 74/2/7 73/3/7 91/24/7 92/23/7
f 75/4/13 77/6/13 7/8/13 79/10/13 81/12/13 83/14/13 85/16/13 87/18/13 19/20/13 89/22/13 91/24/13 73/3/13
f 93/25/19 95/28/19 96/27/19 94/26/19
f 95/28/18 97/30/18 98/29/18 96/27/18
f 97/30/17 99/32/17 100/31/17 98/29/17
f 99/32/16 101/34/16 102/33/16 100/31/16
f 101/34/15 103/36/15 104/35/15 102/33/15
f 103/36/14 105/38/14 106/37/14 104/35/14
f 105/38/25 107/40/25 108/39/25 106/37/25
f 107/40/24 109/42/24 110/41/24 108/39/24
f 109/42/23 111/44/23 112/43/23 110/41/23
f 111/44/22 113/46/22 114/45/22 112/43/22
f 96/1/13 98/5/13 100/7/13 102/9/13 104/50/13 106/13/13 108/49/13 110/48/13 112/19/13 114/47/13 116/23/13 94/2/13
f 113/46/21 115/52/21 116/51/21 114/45/21
f 115/52/20 93/54/20 94/53/20 116/51/20
f 93/55/26 115/66/26 113/65/26 111/64/26 109/63/26 107/62/26 105/61/26 103/60/26 101/59/26 99/58/26 97/57/26 95/56/26
usemtl Material.002
f 140/1/39 139/4/39 137/3/39 138/2/39
f 142/5/40 141/6/40 139/4/40 140/1/40
f 144/7/41 143/8/41 141/6/41 142/5/41
f 146/9/42 145/10/42 143/8/42 144/7/42
f 148/11/43 147/12/43 145/10/43 146/9/43
f 150/13/44 149/14/44 147/12/44 148/11/44
f 152/15/45 151/16/45 149/14/45 150/13/45
f 154/17/46 153/18/46 151/16/46 152/15/46
f 156/19/47 155/20/47 153/18/47 154/17/47
f 158/21/48 157/22/48 155/20/48 156/19/48
f 160/23/49 159/24/49 157/22/49 158/21/49
f 138/2/50 137/3/50 159/24/50 160/23/50
f 139/4/26 141/6/26 143/8/26 145/10/26 147/12/26 149/14/26 151/16/26 153/18/26 155/20/26 157/22/26 159/24/26 137/3/26
f 161/25/20 163/28/20 164/27/20 162/26/20
f 163/28/21 165/30/21 166/29/21 164/27/21
f 165/30/22 167/32/22 168/31/22 166/29/22
f 167/32/23 169/34/23 170/33/23 168/31/23
f 169/34/24 171/36/24 172/35/24 170/33/24
f 171/36/25 173/38/25 174/37/25 172/35/25
f 173/38/14 175/40/14 176/39/14 174/37/14
f 175/40/15 177/42/15 178/41/15 176/39/15
f 177/42/16 179/44/16 180/43/16 178/41/16
f 179/44/17 181/46/17 182/45/17 180/43/17
f 164/1/26 166/5/26 168/7/26 170/9/26 172/50/26 174/13/26 176/49/26 178/48/26 180/19/26 182/47/26 184/23/26 162/2/26
f 181/46/18 183/52/18 184/51/18 182/45/18
f 183/52/19 161/54/19 162/53/19 184/51/19
f 161/55/13 183/66/13 181/65/13 179/64/13 177/63/13 175/62/13 173/61/13 171/60/13 169/59/13 167/58/13 165/57/13 163/56/13
f 186/55/51 185/68/51 188/67/51 187/56/51
f 187/56/52 188/67/52 190/69/52 189/57/52
f 189/57/53 190/69/53 192/70/53 191/58/53
f 191/58/54 192/70/54 194/71/54 193/59/54
f 193/59/55 194/71/55 196/73/55 195/72/55
f 195/72/56 196/73/56 198/74/56 197/61/56
f 197/61/57 198/74/57 200/76/57 199/75/57
f 199/75/58 200/76/58 202/77/58 201/63/58
f 201/63/59 202/77/59 204/78/59 203/64/59
f 203/64/60 204/78/60 206/79/60 205/65/60
f 205/65/61 206/79/61 208/80/61 207/66/61
f 207/66/62 208/80/62 185/68/62 186/55/62
f 186/81/20 187/84/20 140/83/20 138/82/20
f 185/68/13 208/80/13 206/79/13 204/78/13 202/77/13 200/76/13 198/74/13 196/73/13 194/71/13 192/70/13 190/69/13 188/67/13
f 207/85/19 186/88/19 138/87/19 160/86/19
f 187/84/21 189/90/21 142/89/21 140/83/21
f 189/90/22 191/92/22 144/91/22 142/89/22
f 191/92/23 193/94/23 146/93/23 144/91/23
f 193/94/24 195/96/24 148/95/24 146/93/24
f 195/96/25 197/98/25 150/97/25 148/95/25
f 197/98/14 199/100/14 152/99/14 150/97/14
f 199/100/15 201/102/15 154/101/15 152/99/15
f 201/102/16 203/104/16 156/103/16 154/101/16
f 203/104/17 205/106/17 158/105/17 156/103/17
f 205/106/18 207/85/18 160/86/18 158/105/18
f 212/1/44 210/2/44 209/3/44 211/4/44
f 214/5/43 212/1/43 211/4/43 213/6/43
f 144/7/42 214/5/42 213/6/42 143/8/42
f 216/9/41 144/7/41 143/8/41 215/10/41
f 218/11/40 216/9/40 215/10/40 217/12/40
f 220/13/39 218/11/39 217/12/39 219/14/39
f 222/15/50 220/13/50 219/14/50 221/16/50
f 224/17/49 222/15/49 221/16/49 223/18/49
f 156/19/48 224/17/48 223/18/48 155/20/48
f 226/21/47 156/19/47 155/20/47 225/22/47
f 228/23/46 226/21/46 225/22/46 227/24/46
f 210/2/45 228/23/45 227/24/45 209/3/45
f 211/4/26 209/3/26 227/24/26 225/22/26 155/20/26 223/18/26 221/16/26 219/14/26 217/12/26 215/10/26 143/8/26 213/6/26
f 229/25/25 230/26/25 232/27/25 231/28/25
f 231/28/24 232/27/24 234/29/24 233/30/24
f 233/30/23 234/29/23 236/31/23 235/32/23
f 235/32/22 236/31/22 238/33/22 237/34/22
f 237/34/21 238/33/21 240/35/21 239/36/21
f 239/36/20 240/35/20 242/37/20 241/38/20
f 241/38/19 242/37/19 244/39/19 243/40/19
f 243/40/18 244/39/18 246/41/18 245/42/18
f 245/42/17 246/41/17 248/43/17 247/44/17
f 247/44/16 248/43/16 250/45/16 249/46/16
f 232/1/26 230/2/26 252/23/26 250/47/26 248/19/26 246/48/26 244/49/26 242/13/26 240/50/26 238/9/26 236/7/26 234/5/26
f 249/46/15 250/45/15 252/51/15 251/52/15
f 251/52/14 252/51/14 230/53/14 229/54/14
f 229/55/13 231/56/13 233/57/13 235/58/13 237/59/13 239/60/13 241/61/13 243/62/13 245/63/13 247/64/13 249/65/13 251/66/13
f 254/55/56 255/56/56 256/67/56 253/68/56
f 255/56/55 257/57/55 258/69/55 256/67/55
f 257/57/54 191/58/54 192/70/54 258/69/54
f 191/58/53 259/59/53 260/71/53 192/70/53
f 259/59/52 261/72/52 262/73/52 260/71/52
f 261/72/51 263/61/51 264/74/51 262/73/51
f 263/61/62 265/75/62 266/76/62 264/74/62
f 265/75/61 267/63/61 268/77/61 266/76/61
f 267/63/60 203/64/60 204/78/60 268/77/60
f 203/64/59 269/65/59 270/79/59 204/78/59
f 269/65/58 271/66/58 272/80/58 270/79/58
f 271/66/57 254/55/57 253/68/57 272/80/57
f 254/81/25 210/82/25 212/83/25 255/84/25
f 253/68/13 256/67/13 258/69/13 192/70/13 260/71/13 262/73/13 264/74/13 266/76/13 268/77/13 204/78/13 270/79/13 272/80/13
f 271/85/14 228/86/14 210/87/14 254/88/14
f 255/84/24 212/83/24 214/89/24 257/90/24
f 257/90/23 214/89/23 144/91/23 191/92/23
f 191/92/22 144/91/22 216/93/22 259/94/22
f 259/94/21 216/93/21 218/95/21 261/96/21
f 261/96/20 218/95/20 220/97/20 263/98/20
f 263/98/19 220/97/19 222/99/19 265/100/19
f 265/100/18 222/99/18 224/101/18 267/102/18
f 267/102/17 224/101/17 156/103/17 203/104/17
f 203/104/16 156/103/16 226/105/16 269/106/16
f 269/106/15 226/105/15 228/86/15 271/85/15
