# Blender 5.1.0
# www.blender.org
mtllib capacitorRep.mtl
o Cube
v -0.264684 -0.176542 2.434357
v -0.264684 0.176542 2.434357
v -0.264684 -0.176542 0.434357
v -0.264684 0.176542 0.434357
v 0.264684 -0.176542 2.434357
v 0.264684 0.176542 2.434357
v 0.264684 -0.176542 0.434357
v 0.264684 0.176542 0.434357
v -0.264684 1.020598 0.434357
v -0.264684 -1.020598 0.434357
v 0.264684 -1.020598 0.434357
v 0.264684 1.020598 0.434357
v -0.264684 1.020598 0.243278
v -0.264684 -1.020598 0.243278
v 0.264684 -1.020598 0.243278
v 0.264684 1.020598 0.243278
v -0.264684 -0.176542 -2.434357
v -0.264684 0.176542 -2.434357
v -0.264684 -0.176542 -0.434357
v -0.264684 0.176542 -0.434357
v 0.264684 -0.176542 -2.434357
v 0.264684 0.176542 -2.434357
v 0.264684 -0.176542 -0.434357
v 0.264684 0.176542 -0.434357
v -0.264684 1.020598 -0.434357
v -0.264684 -1.020598 -0.434357
v 0.264684 -1.020598 -0.434357
v 0.264684 1.020598 -0.434357
v -0.264684 1.020598 -0.243278
v -0.264684 -1.020598 -0.243278
v 0.264684 -1.020598 -0.243278
v 0.264684 1.020598 -0.243278
v -0.270797 -0.180620 2.457451
v -0.270797 0.180620 2.457451
v -0.270797 -0.172465 0.457451
v -0.267876 0.182930 0.446418
v 0.270797 -0.180620 2.457451
v 0.270797 0.180620 2.457451
v 0.270797 -0.172465 0.457451
v 0.267876 0.182930 0.446418
v -0.270797 1.024675 0.457451
v -0.270797 -1.024675 0.457451
v 0.270797 -1.024675 0.457451
v 0.270797 1.024675 0.457451
v -0.270797 1.024675 0.220184
v -0.270797 -1.024675 0.220184
v 0.270797 -1.024675 0.220184
v 0.270797 1.024675 0.220184
v -0.270797 -0.180620 -2.457451
v -0.270797 0.180620 -2.457451
v -0.270797 -0.172465 -0.457451
v -0.267876 0.182930 -0.446418
v 0.270797 -0.180620 -2.457451
v 0.270797 0.180620 -2.457451
v 0.270797 -0.172465 -0.457451
v 0.267876 0.182930 -0.446418
v -0.270797 1.024675 -0.457451
v -0.270797 -1.024675 -0.457451
v 0.270797 -1.024675 -0.457451
v 0.270797 1.024675 -0.457451
v -0.270797 1.024675 -0.220184
v -0.270797 -1.024675 -0.220184
v 0.270797 -1.024675 -0.220184
v 0.270797 1.024675 -0.220184
vn -1.0000 -0.0000 -0.0000
vn -0.0000 1.0000 -0.0000
vn 1.0000 -0.0000 -0.0000
vn -0.0000 -0.0000 1.0000
vn -0.0000 -1.0000 -0.0000
vn -0.0000 -0.0000 -1.0000
vn 1.0000 -0.0041 0.0007
vn 0.9667 -0.0000 -0.2559
vn -1.0000 -0.0041 0.0007
vn -0.0000 1.0000 0.0041
vn -0.0000 -1.0000 -0.0011
vn -0.0000 0.0131 -0.9999
vn -0.9667 -0.0000 -0.2559
vn 1.0000 -0.0041 -0.0007
vn 0.9667 -0.0000 0.2559
vn -1.0000 -0.0041 -0.0007
vn -0.0000 1.0000 -0.0041
vn -0.0000 -1.0000 0.0011
vn -0.0000 0.0131 0.9999
vn -0.9667 -0.0000 0.2559
vt 0.375000 0.000000
vt 0.625000 0.000000
vt 0.625000 0.250000
vt 0.375000 0.250000
vt 0.625000 0.500000
vt 0.375000 0.500000
vt 0.625000 0.750000
vt 0.375000 0.750000
vt 0.625000 1.000000
vt 0.375000 1.000000
vt 0.125000 0.500000
vt 0.125000 0.750000
vt 0.875000 0.500000
vt 0.875000 0.750000
s 0
usemtl Material.002
f 1/1/1 2/2/1 4/3/1 3/4/1
f 8/5/2 7/6/2 11/6/2 12/5/2
f 7/6/3 8/5/3 6/7/3 5/8/3
f 5/8/4 6/7/4 2/9/4 1/10/4
f 3/11/5 7/6/5 5/8/5 1/12/5
f 8/5/2 4/13/2 2/14/2 6/7/2
f 12/5/3 11/6/3 15/6/3 16/5/3
f 7/6/4 3/11/4 10/11/4 11/6/4
f 4/13/4 8/5/4 12/5/4 9/13/4
f 3/4/2 4/3/2 9/3/2 10/4/2
f 14/4/6 13/3/6 16/5/6 15/6/6
f 11/6/5 10/11/5 14/11/5 15/6/5
f 9/13/2 12/5/2 16/5/2 13/13/2
f 10/4/1 9/3/1 13/3/1 14/4/1
f 17/1/1 19/4/1 20/3/1 18/2/1
f 24/5/2 28/5/2 27/6/2 23/6/2
f 23/6/3 21/8/3 22/7/3 24/5/3
f 21/8/6 17/10/6 18/9/6 22/7/6
f 19/11/5 17/12/5 21/8/5 23/6/5
f 24/5/2 22/7/2 18/14/2 20/13/2
f 28/5/3 32/5/3 31/6/3 27/6/3
f 23/6/6 27/6/6 26/11/6 19/11/6
f 20/13/6 25/13/6 28/5/6 24/5/6
f 19/4/2 26/4/2 25/3/2 20/3/2
f 30/4/4 31/6/4 32/5/4 29/3/4
f 27/6/5 31/6/5 30/11/5 26/11/5
f 25/13/2 29/13/2 32/5/2 28/5/2
f 26/4/1 30/4/1 29/3/1 25/3/1
usemtl Material.003
f 33/1/7 35/4/7 36/3/7 34/2/7
f 40/5/8 44/5/8 43/6/8 39/6/8
f 39/6/9 37/8/9 38/7/9 40/5/9
f 37/8/6 33/10/6 34/9/6 38/7/6
f 35/11/10 33/12/10 37/8/10 39/6/10
f 40/5/11 38/7/11 34/14/11 36/13/11
f 44/5/1 48/5/1 47/6/1 43/6/1
f 39/6/6 43/6/6 42/11/6 35/11/6
f 36/13/12 41/13/12 44/5/12 40/5/12
f 35/4/13 42/4/13 41/3/13 36/3/13
f 46/4/4 47/6/4 48/5/4 45/3/4
f 43/6/2 47/6/2 46/11/2 42/11/2
f 41/13/5 45/13/5 48/5/5 44/5/5
f 42/4/3 46/4/3 45/3/3 41/3/3
f 49/1/14 50/2/14 52/3/14 51/4/14
f 56/5/15 55/6/15 59/6/15 60/5/15
f 55/6/16 56/5/16 54/7/16 53/8/16
f 53/8/4 54/7/4 50/9/4 49/10/4
f 51/11/17 55/6/17 53/8/17 49/12/17
f 56/5/18 52/13/18 50/14/18 54/7/18
f 60/5/1 59/6/1 63/6/1 64/5/1
f 55/6/4 51/11/4 58/11/4 59/6/4
f 52/13/19 56/5/19 60/5/19 57/13/19
f 51/4/20 52/3/20 57/3/20 58/4/20
f 62/4/6 61/3/6 64/5/6 63/6/6
f 59/6/2 58/11/2 62/11/2 63/6/2
f 57/13/5 60/5/5 64/5/5 61/13/5
f 58/4/3 57/3/3 61/3/3 62/4/3
