# Blender 5.0.1
# www.blender.org
mtllib casebre.mtl
o Cube
v -9.871726 -3.255762 5.918294
v -9.871726 3.255762 5.918294
v -9.871726 -3.255762 5.373867
v -9.871726 3.255762 5.373867
v 9.871726 -3.255762 5.918294
v 9.871726 3.255762 5.918294
v 9.871726 -3.255762 5.373867
v 9.871726 3.255762 5.373867
v 9.467155 -3.255762 5.373867
v -9.467155 -3.255762 5.373867
v -9.467155 3.255762 5.373867
v 9.467155 3.255762 5.373867
v -9.467155 -3.255762 5.918294
v 9.467155 -3.255762 5.918294
v 9.467155 3.255762 5.918294
v -9.467155 3.255762 5.918294
v -9.871725 3.255762 2.454067
v -9.871725 -3.255762 2.454067
v 9.467155 3.255762 2.454067
v 9.871725 3.255762 2.454067
v 9.871725 -3.255762 2.454067
v -9.467155 3.255762 2.454067
v -9.871726 1.220093 5.918294
v -9.871726 1.220093 5.373867
v 9.871726 1.220093 5.373867
v 9.871726 1.220093 5.918294
v 9.467155 1.220093 5.918294
v -9.467155 1.220093 5.918294
v -9.467155 1.220093 5.373867
v 9.467155 1.220093 5.373867
v -9.871725 1.220093 2.454067
v 9.871725 1.220093 2.454067
v 9.467155 3.255762 0.000000
v 9.871725 3.255762 0.000000
v -9.871725 3.255762 0.000000
v -9.467155 3.255762 0.000000
v -9.871725 1.220093 0.000000
v 9.871725 1.220093 0.000000
v -9.467155 -3.255762 0.000000
v 9.467155 -3.255762 0.000000
v -9.871726 -3.519877 5.373867
v -9.871726 -3.519877 5.918294
v -9.467155 -3.519877 5.373867
v 9.871726 -3.519877 5.918294
v 9.871726 -3.519877 5.373867
v 9.467155 -3.519877 5.918294
v 9.467155 -3.519877 5.373867
v -9.467155 -3.519877 5.918294
v -9.467155 -3.519877 2.454067
v -9.871725 -3.519877 2.454067
v 9.871725 -3.519877 2.454067
v 9.467155 -3.519877 2.454067
v -9.467155 -3.519877 0.000000
v 9.467155 -3.519877 0.000000
v -9.758533 -3.255762 2.454067
v -9.467155 -3.255762 2.462102
v -9.467155 -3.255762 2.446032
v -9.467155 -3.351861 2.454067
v 9.467155 -3.255762 2.462102
v 9.758533 -3.255762 2.454067
v 9.467155 -3.351861 2.454067
v 9.467155 -3.255762 2.446032
v -9.758533 1.220093 2.454067
v -9.467155 1.316191 2.462102
v 9.467155 1.316191 2.462102
v 9.758533 1.220093 2.454067
v -9.467155 1.316191 0.000000
v -9.758533 1.220093 0.000000
v 9.758533 1.220093 0.000000
v 9.467155 1.316191 0.000000
v -9.871726 3.572272 5.918294
v -9.871726 3.572272 5.373867
v 9.467155 3.572272 5.373867
v 9.871726 3.572272 5.373867
v 9.871726 3.572272 5.918294
v -9.467155 3.572272 5.918294
v -9.467155 3.572272 5.373867
v 9.467155 3.572272 5.918294
v 9.467155 3.572272 2.454067
v 9.871725 3.572272 2.454067
v -9.871725 3.572272 2.454067
v -9.467155 3.572272 2.454067
v 9.467155 3.572272 0.000000
v 9.871725 3.572272 0.000000
v -9.871725 3.572272 0.000000
v -9.467155 3.572272 0.000000
v 9.467155 6.607233 0.000000
v -9.467155 6.607233 0.000000
v -9.871726 -3.255762 -5.918294
v -9.871726 3.255762 -5.918294
v -9.871726 -3.255762 -5.373867
v -9.871726 3.255762 -5.373867
v 9.871726 -3.255762 -5.918294
v 9.871726 3.255762 -5.918294
v 9.871726 -3.255762 -5.373867
v 9.871726 3.255762 -5.373867
v 9.467155 -3.255762 -5.373867
v -9.467155 -3.255762 -5.373867
v -9.467155 3.255762 -5.373867
v 9.467155 3.255762 -5.373867
v -9.467155 -3.255762 -5.918294
v 9.467155 -3.255762 -5.918294
v 9.467155 3.255762 -5.918294
v -9.467155 3.255762 -5.918294
v -9.871725 3.255762 -2.454067
v -9.871725 -3.255762 -2.454067
v 9.467155 3.255762 -2.454067
v 9.871725 3.255762 -2.454067
v 9.871725 -3.255762 -2.454067
v -9.467155 3.255762 -2.454067
v -9.871726 1.220093 -5.918294
v -9.871726 1.220093 -5.373867
v 9.871726 1.220093 -5.373867
v 9.871726 1.220093 -5.918294
v 9.467155 1.220093 -5.918294
v -9.467155 1.220093 -5.918294
v -9.467155 1.220093 -5.373867
v 9.467155 1.220093 -5.373867
v -9.871725 1.220093 -2.454067
v 9.871725 1.220093 -2.454067
v -9.871726 -3.519877 -5.373867
v -9.871726 -3.519877 -5.918294
v -9.467155 -3.519877 -5.373867
v 9.871726 -3.519877 -5.918294
v 9.871726 -3.519877 -5.373867
v 9.467155 -3.519877 -5.918294
v 9.467155 -3.519877 -5.373867
v -9.467155 -3.519877 -5.918294
v -9.467155 -3.519877 -2.454067
v -9.871725 -3.519877 -2.454067
v 9.871725 -3.519877 -2.454067
v 9.467155 -3.519877 -2.454067
v -9.758533 -3.255762 -2.454067
v -9.467155 -3.255762 -2.462102
v -9.467155 -3.255762 -2.446032
v -9.467155 -3.351861 -2.454067
v 9.467155 -3.255762 -2.462102
v 9.758533 -3.255762 -2.454067
v 9.467155 -3.351861 -2.454067
v 9.467155 -3.255762 -2.446032
v -9.758533 1.220093 -2.454067
v -9.467155 1.316191 -2.462102
v 9.467155 1.316191 -2.462102
v 9.758533 1.220093 -2.454067
v -9.871726 3.572272 -5.918294
v -9.871726 3.572272 -5.373867
v 9.467155 3.572272 -5.373867
v 9.871726 3.572272 -5.373867
v 9.871726 3.572272 -5.918294
v -9.467155 3.572272 -5.918294
v -9.467155 3.572272 -5.373867
v 9.467155 3.572272 -5.918294
v 9.467155 3.572272 -2.454067
v 9.871725 3.572272 -2.454067
v -9.871725 3.572272 -2.454067
v -9.467155 3.572272 -2.454067
v -6.946557 -2.212795 5.373867
v -6.946557 0.484005 5.373867
v -4.946557 0.484005 5.373867
v 1.053443 0.484005 5.373867
v -0.946557 0.484005 5.373867
v 3.053442 0.484005 5.373867
v 5.053442 0.484005 5.373867
v -2.946557 0.484005 5.373867
v -4.946557 -2.212795 5.373867
v -2.946557 -2.212795 5.373867
v -0.946557 -2.212795 5.373867
v 1.053443 -2.212795 5.373867
v 3.053442 -2.212795 5.373867
v 5.053442 -2.212795 5.373867
v 7.053442 0.484005 5.373867
v 7.053442 -2.212795 5.373867
v -2.946557 0.484005 5.918294
v -4.946557 0.484005 5.918294
v 1.053443 0.484005 5.918294
v -0.946557 0.484005 5.918294
v 3.053442 0.484005 5.918294
v 5.053442 0.484005 5.918294
v 7.053442 0.484005 5.918294
v 7.053442 -2.212795 5.918294
v -6.946557 0.484005 5.918294
v -6.946557 -2.212795 5.918294
v -4.946557 -2.212795 5.918294
v -2.946557 -2.212795 5.918294
v -0.946557 -2.212795 5.918294
v 1.053443 -2.212795 5.918294
v 3.053442 -2.212795 5.918294
v 5.053442 -2.212795 5.918294
v -4.946557 -2.212795 -5.373867
v -2.946557 -2.212795 -5.373867
v -0.946557 -2.212795 -5.373867
v 1.053443 -2.212795 -5.373867
v 3.053442 -2.212795 -5.373867
v 5.053442 -2.212795 -5.373867
v 7.053442 0.484005 -5.373867
v 7.053442 -2.212795 -5.373867
v -6.946557 -2.212795 -5.373867
v -6.946557 0.484005 -5.373867
v -4.946557 0.484005 -5.373867
v 1.053443 0.484005 -5.373867
v -0.946557 0.484005 -5.373867
v 3.053442 0.484005 -5.373867
v 5.053442 0.484005 -5.373867
v -2.946557 0.484005 -5.373867
v -6.946557 0.484005 -5.918294
v -6.946557 -2.212795 -5.918294
v -4.946557 -2.212795 -5.918294
v -2.946557 -2.212795 -5.918294
v -0.946557 -2.212795 -5.918294
v 1.053443 -2.212795 -5.918294
v 3.053442 -2.212795 -5.918294
v 5.053442 -2.212795 -5.918294
v -2.946557 0.484005 -5.918294
v -4.946557 0.484005 -5.918294
v 1.053443 0.484005 -5.918294
v -0.946557 0.484005 -5.918294
v 3.053442 0.484005 -5.918294
v 5.053442 0.484005 -5.918294
v 7.053442 0.484005 -5.918294
v 7.053442 -2.212795 -5.918294
vn -1.0000 -0.0000 -0.0000
vn -0.0000 -0.0000 1.0000
vn 1.0000 -0.0000 -0.0000
vn -0.0000 -0.0000 -1.0000
vn -0.0000 -1.0000 -0.0000
vn -0.0000 1.0000 -0.0000
vn 0.0275 0.0833 -0.9961
vn 0.0275 -0.0833 -0.9961
vn 0.0276 -0.0000 -0.9996
vn -0.0276 -0.0000 -0.9996
vn 0.3132 -0.9497 -0.0000
vn -0.3132 -0.9497 -0.0000
vn -0.0000 -0.8898 -0.4563
vn 0.0275 0.0833 0.9961
vn 0.0275 -0.0833 0.9961
vn 0.0276 -0.0000 0.9996
vn -0.0276 -0.0000 0.9996
vn -0.0000 -0.8898 0.4563
vt 0.500000 0.000000
vt 0.625000 0.000000
vt 0.625000 0.250000
vt 0.500000 0.250000
vt 0.625000 0.916667
vt 0.625000 0.833333
vt 0.500000 0.500000
vt 0.625000 0.500000
vt 0.625000 0.750000
vt 0.500000 0.750000
vt 0.500000 0.916667
vt 0.625000 1.000000
vt 0.500000 1.000000
vt 0.375000 0.833333
vt 0.375000 0.916667
vt 0.625000 0.416667
vt 0.375000 0.000000
vt 0.375000 0.250000
vt 0.375000 0.750000
vt 0.500000 0.833333
vt 0.500000 0.333333
vt 0.625000 0.333333
vt 0.500000 0.416667
vt 0.375000 0.500000
vt 0.375000 1.000000
vt 0.479443 0.406043
vt 0.375000 0.416667
vt 0.375000 0.333333
vt 0.479443 0.344427
vt 0.404128 0.344427
vt 0.404128 0.353229
vt 0.479443 0.353229
vt 0.479443 0.362032
vt 0.404128 0.362032
vt 0.404128 0.370834
vt 0.404128 0.379636
vt 0.404128 0.388439
vt 0.479443 0.388439
vt 0.479443 0.397241
vt 0.404128 0.397241
vt 0.404128 0.406043
vt 0.479443 0.379636
vt 0.479443 0.370834
vt 0.404128 0.870363
vt 0.479443 0.870364
vt 0.479443 0.879166
vt 0.404128 0.879166
vt 0.404128 0.887968
vt 0.404128 0.896771
vt 0.404128 0.905573
vt 0.479443 0.905573
vt 0.479443 0.843957
vt 0.404128 0.843957
vt 0.404128 0.852759
vt 0.479443 0.852759
vt 0.479443 0.861561
vt 0.404128 0.861561
vt 0.479443 0.887968
vt 0.479443 0.896771
vt 0.291667 0.500000
vt 0.291667 0.750000
vt 0.125000 0.500000
vt 0.208333 0.500000
vt 0.208333 0.750000
vt 0.125000 0.750000
vt 0.000000 0.000000
vt 0.375000 0.273315
vt 0.375000 0.476685
vt 0.375000 0.416667
vt 0.504614 0.333333
vt 0.500000 0.273315
vt 0.500000 0.476685
vt 0.504614 0.416667
vt 0.505901 0.333333
vt 0.505901 0.416667
vt 0.708333 0.500000
vt 0.791667 0.500000
vt 0.875000 0.500000
vt 0.875000 0.750000
vt 0.791667 0.750000
vt 0.708333 0.750000
vt 0.404128 0.379636
vt 0.479443 0.379636
vt 0.479443 0.370834
vt 0.404128 0.370834
vt 0.404128 0.362032
vt 0.479443 0.353229
vt 0.404128 0.353229
vt 0.479443 0.344427
vt 0.404128 0.406043
vt 0.479443 0.397241
vt 0.479443 0.905573
vt 0.404128 0.905573
vt 0.404128 0.896771
vt 0.479443 0.896771
vt 0.479443 0.887968
vt 0.404128 0.887968
vt 0.404128 0.879166
vt 0.404128 0.870364
vt 0.404128 0.861561
vt 0.404128 0.852759
vt 0.404128 0.843956
vt 0.479443 0.861561
vt 0.479443 0.852759
vt 0.375000 0.138863
vt 0.375000 0.200276
vt 0.625000 0.200276
vt 0.625000 0.138863
vt 0.625000 0.611137
vt 0.625000 0.549724
vt 0.375000 0.549724
vt 0.375000 0.611137
vt 0.125000 0.549724
vt 0.125000 0.611137
vt 0.875000 0.549724
vt 0.875000 0.611137
vt 0.625000 0.200276
vt 0.375000 0.200276
vt 0.375000 0.138863
vt 0.625000 0.138863
vt 0.375000 0.611137
vt 0.375000 0.549724
vt 0.125000 0.611137
vt 0.125000 0.549724
vt 0.625000 0.549724
vt 0.625000 0.611137
s 0
usemtl Material.001
f 23/1/1 2/2/1 4/3/1 24/4/1
f 16/5/2 15/6/2 78/6/2 76/5/2
f 25/7/3 8/8/3 6/9/3 26/10/3
f 28/11/2 16/5/2 2/12/2 23/13/2
f 14/14/2 13/15/2 48/15/2 46/14/2
f 4/3/1 2/2/1 71/2/1 72/3/1
f 34/8/4 33/16/4 83/16/4 84/8/4
f 6/9/3 8/8/3 74/8/3 75/9/3
f 1/17/1 3/18/1 41/18/1 42/17/1
f 5/19/2 14/14/2 46/14/2 44/19/2
f 26/10/2 6/9/2 15/6/2 27/20/2
f 27/20/2 15/6/2 16/5/2 28/11/2
f 29/21/4 11/22/4 12/16/4 30/23/4
f 31/4/1 17/3/1 35/3/1 37/4/1
f 17/3/1 4/3/1 72/3/1 81/3/1
f 15/6/2 6/9/2 75/9/2 78/6/2
f 24/4/1 4/3/1 17/3/1 31/4/1
f 25/7/3 7/24/3 21/24/3 32/7/3
f 13/15/2 1/25/2 42/25/2 48/15/2
f 8/8/3 25/7/3 32/7/3 20/8/3
f 3/18/1 24/4/1 31/4/1 18/18/1
f 171/26/4 30/23/4 9/27/4 10/28/4 29/21/4 158/29/4 157/30/4 165/31/4 159/32/4 164/33/4 166/34/4 167/35/4 168/36/4 169/37/4 162/38/4 163/39/4 170/40/4 172/41/4
f 29/21/4 30/23/4 171/26/4 163/39/4 162/38/4 160/42/4 168/36/4 167/35/4 161/43/4 164/33/4 159/32/4 158/29/4
f 186/44/2 175/45/2 176/46/2 185/47/2 184/48/2 183/49/2 182/50/2 181/51/2 28/11/2 13/15/2 14/14/2 27/20/2 179/52/2 180/53/2 188/54/2 178/55/2 177/56/2 187/57/2
f 173/58/2 176/46/2 175/45/2 177/56/2 178/55/2 179/52/2 27/20/2 28/11/2 181/51/2 174/59/2 183/49/2 184/48/2
f 5/19/2 26/10/2 27/20/2 14/14/2
f 13/15/2 28/11/2 23/13/2 1/25/2
f 7/24/3 25/7/3 26/10/3 5/19/3
f 1/17/1 23/1/1 24/4/1 3/18/1
f 2/12/2 16/5/2 76/5/2 71/12/2
f 20/8/3 32/7/3 38/7/3 34/8/3
f 35/3/1 17/3/1 81/3/1 85/3/1
f 47/60/5 45/24/5 44/19/5 46/61/5
f 41/62/5 43/63/5 48/64/5 42/65/5
f 43/63/5 47/60/5 46/61/5 48/64/5
f 45/24/5 47/60/5 52/60/5 51/24/5
f 43/63/5 41/62/5 50/62/5 49/63/5
f 47/66/6 52/66/6 49/66/6 43/66/6
f 49/66/6 52/66/6 54/66/6 53/66/6
f 7/24/3 5/19/3 44/19/3 45/24/3
f 3/18/1 18/18/1 50/18/1 41/18/1
f 21/24/3 7/24/3 45/24/3 51/24/3
f 56/28/1 57/28/1 58/28/1
f 55/67/7 56/28/7 58/28/7
f 60/68/8 61/27/8 62/27/8
f 59/69/6 60/68/6 62/27/6
f 64/70/9 56/28/9 55/67/9 63/71/9
f 66/72/10 60/68/10 59/69/10 65/73/10
f 67/74/11 64/70/11 63/71/11 68/71/11
f 69/72/12 66/72/12 65/73/12 70/75/12
f 55/67/4 58/28/4 49/28/4 50/18/4 18/18/4
f 57/66/3 58/66/3 49/66/3 53/66/3 39/66/3
f 18/18/4 31/4/4 63/71/4 55/67/4
f 29/21/3 10/28/3 56/28/3 64/70/3
f 60/68/4 21/24/4 51/24/4 52/27/4 61/27/4
f 60/68/4 66/72/4 32/7/4 21/24/4
f 9/27/1 30/23/1 65/73/1 59/69/1
f 62/66/1 40/66/1 54/66/1 52/66/1 61/66/1
f 11/22/3 29/21/3 64/70/3 22/22/3
f 63/71/5 31/4/5 37/4/5 68/71/5
f 22/22/3 64/70/3 67/74/3 36/22/3
f 65/73/1 19/16/1 33/16/1 70/75/1
f 30/23/1 12/16/1 19/16/1 65/73/1
f 32/7/5 66/72/5 69/72/5 38/7/5
f 68/71/4 37/4/4 35/3/4 36/22/4 67/74/4
f 70/75/4 33/16/4 34/8/4 38/7/4 69/72/4
f 10/28/4 9/27/4 47/60/4 43/63/4
f 43/63/3 49/63/3 56/28/3 10/28/3
f 52/60/1 47/60/1 9/27/1 59/69/1
f 59/66/5 9/66/5 10/66/5 56/66/5 57/66/5 39/66/5 40/66/5 62/66/5
f 73/76/6 74/8/6 80/8/6 79/76/6
f 77/77/6 72/78/6 71/79/6 76/80/6
f 74/8/6 73/76/6 78/81/6 75/9/6
f 73/76/6 77/77/6 76/80/6 78/81/6
f 79/76/6 80/8/6 84/8/6 83/76/6
f 72/78/6 77/77/6 82/77/6 81/78/6
f 81/78/6 82/77/6 86/77/6 85/78/6
f 82/66/5 86/66/5 83/66/5 79/66/5 73/66/5 77/66/5
f 20/8/3 34/8/3 84/8/3 80/8/3
f 8/8/3 20/8/3 80/8/3 74/8/3
f 36/22/4 35/3/4 85/3/4 86/22/4
f 22/22/5 36/22/5 33/16/5 19/16/5 12/16/5 11/22/5
f 87/66/1 83/66/1 79/66/1 73/66/1 78/66/1
f 78/6/13 76/5/13 88/66/13 87/66/13
f 88/66/1 86/66/1 82/66/1 77/66/1 76/66/1
f 111/1/1 112/4/1 92/3/1 90/2/1
f 104/5/4 150/5/4 152/6/4 103/6/4
f 113/7/3 114/10/3 94/9/3 96/8/3
f 116/11/4 111/13/4 90/12/4 104/5/4
f 102/14/4 126/14/4 128/15/4 101/15/4
f 92/3/1 146/3/1 145/2/1 90/2/1
f 94/9/3 149/9/3 148/8/3 96/8/3
f 89/17/1 122/17/1 121/18/1 91/18/1
f 93/19/4 124/19/4 126/14/4 102/14/4
f 114/10/4 115/20/4 103/6/4 94/9/4
f 115/20/4 116/11/4 104/5/4 103/6/4
f 117/21/2 118/23/2 100/16/2 99/22/2
f 119/4/1 37/4/1 35/3/1 105/3/1
f 105/3/1 155/3/1 146/3/1 92/3/1
f 103/6/4 152/6/4 149/9/4 94/9/4
f 112/4/1 119/4/1 105/3/1 92/3/1
f 113/7/3 120/7/3 109/24/3 95/24/3
f 101/15/4 128/15/4 122/25/4 89/25/4
f 96/8/3 108/8/3 120/7/3 113/7/3
f 91/18/1 106/18/1 119/4/1 112/4/1
f 202/38/2 193/37/2 192/82/2 200/83/2 201/84/2 191/85/2 190/86/2 204/33/2 199/87/2 189/88/2 197/30/2 198/89/2 117/21/2 98/28/2 97/27/2 118/23/2 195/26/2 196/90/2 194/40/2 203/91/2
f 195/26/2 118/23/2 117/21/2 198/89/2 199/87/2 204/33/2 201/84/2 200/83/2 202/38/2 203/91/2
f 219/52/4 115/20/4 102/14/4 101/15/4 116/11/4 205/92/4 206/93/4 207/94/4 214/95/4 213/96/4 208/97/4 209/98/4 216/46/4 215/45/4 210/99/4 211/100/4 212/101/4 220/102/4
f 212/101/4 211/100/4 217/103/4 215/45/4 216/46/4 213/96/4 214/95/4 205/92/4 116/11/4 115/20/4 219/52/4 218/104/4
f 93/19/4 102/14/4 115/20/4 114/10/4
f 101/15/4 89/25/4 111/13/4 116/11/4
f 95/24/3 93/19/3 114/10/3 113/7/3
f 89/17/1 91/18/1 112/4/1 111/1/1
f 90/12/4 145/12/4 150/5/4 104/5/4
f 108/8/3 34/8/3 38/7/3 120/7/3
f 35/3/1 85/3/1 155/3/1 105/3/1
f 127/60/5 126/61/5 124/19/5 125/24/5
f 121/62/5 122/65/5 128/64/5 123/63/5
f 123/63/5 128/64/5 126/61/5 127/60/5
f 125/24/5 131/24/5 132/60/5 127/60/5
f 123/63/5 129/63/5 130/62/5 121/62/5
f 127/66/6 123/66/6 129/66/6 132/66/6
f 129/66/6 53/66/6 54/66/6 132/66/6
f 95/24/3 125/24/3 124/19/3 93/19/3
f 91/18/1 121/18/1 130/18/1 106/18/1
f 109/24/3 131/24/3 125/24/3 95/24/3
f 136/28/1 135/28/1 134/28/1
f 133/67/14 136/28/14 134/28/14
f 137/69/6 140/27/6 138/68/6
f 140/27/15 139/27/15 138/68/15
f 142/70/16 141/71/16 133/67/16 134/28/16
f 144/72/17 143/73/17 137/69/17 138/68/17
f 67/74/11 68/71/11 141/71/11 142/70/11
f 69/72/12 70/75/12 143/73/12 144/72/12
f 133/67/2 106/18/2 130/18/2 129/28/2 136/28/2
f 135/66/3 39/66/3 53/66/3 129/66/3 136/66/3
f 106/18/2 133/67/2 141/71/2 119/4/2
f 117/21/3 142/70/3 134/28/3 98/28/3
f 138/68/2 139/27/2 132/27/2 131/24/2 109/24/2
f 138/68/2 109/24/2 120/7/2 144/72/2
f 97/27/1 137/69/1 143/73/1 118/23/1
f 140/66/1 139/66/1 132/66/1 54/66/1 40/66/1
f 99/22/3 110/22/3 142/70/3 117/21/3
f 141/71/5 68/71/5 37/4/5 119/4/5
f 110/22/3 36/22/3 67/74/3 142/70/3
f 143/73/1 70/75/1 33/16/1 107/16/1
f 118/23/1 143/73/1 107/16/1 100/16/1
f 120/7/5 38/7/5 69/72/5 144/72/5
f 98/28/2 123/63/2 127/60/2 97/27/2
f 123/63/3 98/28/3 134/28/3 129/63/3
f 132/60/1 137/69/1 97/27/1 127/60/1
f 140/66/5 40/66/5 39/66/5 135/66/5 134/66/5 98/66/5 97/66/5 137/66/5
f 147/76/6 153/76/6 154/8/6 148/8/6
f 151/77/6 150/80/6 145/79/6 146/78/6
f 148/8/6 149/9/6 152/81/6 147/76/6
f 147/76/6 152/81/6 150/80/6 151/77/6
f 153/76/6 83/76/6 84/8/6 154/8/6
f 146/78/6 155/78/6 156/77/6 151/77/6
f 155/78/6 85/78/6 86/77/6 156/77/6
f 156/66/5 151/66/5 147/66/5 153/66/5 83/66/5 86/66/5
f 108/8/3 154/8/3 84/8/3 34/8/3
f 96/8/3 148/8/3 154/8/3 108/8/3
f 110/22/5 99/22/5 100/16/5 107/16/5 33/16/5 36/22/5
f 153/66/1 83/66/1 87/66/1 152/66/1 147/66/1
f 152/6/18 87/66/18 88/66/18 150/5/18
f 156/66/1 86/66/1 88/66/1 150/66/1 151/66/1
f 182/105/3 157/106/3 158/107/3 181/108/3
f 174/109/1 159/110/1 165/111/1 183/112/1
f 183/112/6 165/111/6 157/113/6 182/114/6
f 158/115/5 159/110/5 174/109/5 181/116/5
f 198/117/3 197/118/3 206/119/3 205/120/3
f 199/110/1 214/109/1 207/121/1 189/122/1
f 206/123/6 197/124/6 189/111/6 207/112/6
f 199/125/5 198/115/5 205/116/5 214/126/5
f 184/105/3 166/106/3 164/107/3 173/108/3
f 176/109/1 161/110/1 167/111/1 185/112/1
f 185/112/6 167/111/6 166/113/6 184/114/6
f 164/115/5 161/110/5 176/109/5 173/116/5
f 204/117/3 190/118/3 208/119/3 213/120/3
f 201/110/1 216/109/1 209/121/1 191/122/1
f 208/123/6 190/124/6 191/111/6 209/112/6
f 201/125/5 204/115/5 213/116/5 216/126/5
f 186/105/3 168/106/3 160/107/3 175/108/3
f 169/111/1 187/112/1 177/109/1 162/110/1
f 187/112/6 169/111/6 168/113/6 186/114/6
f 160/115/5 162/110/5 177/109/5 175/116/5
f 200/117/3 192/118/3 210/119/3 215/120/3
f 193/122/1 202/110/1 217/109/1 211/121/1
f 210/123/6 192/124/6 193/111/6 211/112/6
f 202/125/5 200/115/5 215/116/5 217/126/5
f 188/105/3 170/106/3 163/107/3 178/108/3
f 179/109/1 171/110/1 172/111/1 180/112/1
f 180/112/6 172/111/6 170/113/6 188/114/6
f 163/115/5 171/110/5 179/109/5 178/116/5
f 203/117/3 194/118/3 212/119/3 218/120/3
f 195/110/1 219/109/1 220/121/1 196/122/1
f 212/123/6 194/124/6 196/111/6 220/112/6
f 195/125/5 203/115/5 218/116/5 219/126/5
