# Blender 5.1.0
# www.blender.org
mtllib fioCurva.mtl
o Cube
v 0.318149 1.346035 -0.659921
v 0.318149 -1.920834 -0.659921
v 0.318149 1.346035 0.659921
v 0.318149 -1.920834 0.659921
v -0.318149 1.346035 -0.659921
v -0.318149 -1.920834 -0.659921
v -0.318149 1.346035 0.659921
v -0.318149 -1.920834 0.659921
v 0.327333 1.401484 -0.678971
v 0.327333 -1.976283 -0.678971
v 0.327333 1.401484 0.678971
v 0.327333 -1.976283 0.678971
v -0.327333 1.401484 -0.678971
v -0.327333 -1.976283 -0.678971
v -0.327333 1.401484 0.678971
v -0.327333 -1.976283 0.678971
vn -0.0000 1.0000 -0.0000
vn -0.0000 -0.0000 1.0000
vn -1.0000 -0.0000 -0.0000
vn -0.0000 -1.0000 -0.0000
vn 1.0000 -0.0000 -0.0000
vn -0.0000 -0.0000 -1.0000
vt 0.625000 0.500000
vt 0.875000 0.500000
vt 0.875000 0.750000
vt 0.625000 0.750000
vt 0.375000 0.750000
vt 0.625000 1.000000
vt 0.375000 1.000000
vt 0.375000 0.000000
vt 0.625000 0.000000
vt 0.625000 0.250000
vt 0.375000 0.250000
vt 0.125000 0.500000
vt 0.375000 0.500000
vt 0.125000 0.750000
s 0
usemtl Material.002
f 1/1/1 5/2/1 7/3/1 3/4/1
f 4/5/2 3/4/2 7/6/2 8/7/2
f 8/8/3 7/9/3 5/10/3 6/11/3
f 6/12/4 2/13/4 4/5/4 8/14/4
f 2/13/5 1/1/5 3/4/5 4/5/5
f 6/11/6 5/10/6 1/1/6 2/13/6
usemtl Material.003
f 9/1/4 11/4/4 15/3/4 13/2/4
f 12/5/6 16/7/6 15/6/6 11/4/6
f 16/8/5 14/11/5 13/10/5 15/9/5
f 14/12/1 16/14/1 12/5/1 10/13/1
f 10/13/3 12/5/3 11/4/3 9/1/3
f 14/11/2 10/13/2 9/1/2 13/10/2
o Cube.001
v 0.318149 4.285460 -0.659921
v 0.318149 3.493292 -0.659921
v 0.318149 4.285460 0.659921
v 0.318149 3.493292 0.659921
v -0.318149 4.285460 -0.659921
v -0.318149 3.493292 -0.659921
v -0.318149 4.285460 0.659921
v -0.318149 3.493292 0.659921
v 0.318149 5.309784 0.659921
v -0.318149 5.309784 0.659921
v 0.318149 4.285460 4.763007
v -0.318149 4.285460 4.763007
v 0.318149 5.309784 4.763007
v -0.318149 5.309784 4.763007
v 0.318149 4.714314 -0.659921
v 0.318149 5.309784 -0.455342
v -0.318149 5.309784 -0.455342
v -0.318149 4.714314 -0.659921
v 0.329397 4.285460 -0.683253
v 0.327333 3.437842 -0.678971
v 0.332537 4.256503 0.669870
v 0.327333 3.437842 0.678971
v -0.329397 4.285460 -0.683253
v -0.327333 3.437842 -0.678971
v -0.332537 4.256503 0.669870
v -0.327333 3.437842 0.678971
v 0.329397 5.377696 0.659921
v -0.329397 5.377696 0.659921
v 0.327333 4.230011 4.782057
v -0.327333 4.230011 4.782057
v 0.327333 5.365234 4.782057
v -0.327333 5.365234 4.782057
v 0.328174 4.742850 -0.683589
v 0.328174 5.378674 -0.465145
v -0.328174 5.378674 -0.465145
v -0.328174 4.742850 -0.683589
vn -0.0000 -0.0000 1.0000
vn -1.0000 -0.0000 -0.0000
vn -0.0000 -1.0000 -0.0000
vn 1.0000 -0.0000 -0.0000
vn -0.0000 -0.0000 -1.0000
vn -0.0000 1.0000 -0.0000
vn -0.0000 0.3249 -0.9457
vn -0.0000 -0.0111 -0.9999
vn 1.0000 0.0044 0.0012
vn -1.0000 0.0044 0.0012
vn -0.0000 0.0051 1.0000
vn -0.0000 -1.0000 -0.0030
vn 1.0000 -0.0014 -0.0009
vn -0.0000 1.0000 0.0064
vn -1.0000 -0.0014 -0.0009
vn -0.0000 -0.3249 0.9457
vn -1.0000 -0.0022 0.0019
vn -0.0000 -1.0000 -0.0009
vn -0.0000 0.0007 1.0000
vn 1.0000 -0.0022 0.0019
vt 0.375000 0.750000
vt 0.625000 0.750000
vt 0.625000 1.000000
vt 0.375000 1.000000
vt 0.375000 0.000000
vt 0.625000 0.000000
vt 0.625000 0.250000
vt 0.375000 0.250000
vt 0.125000 0.500000
vt 0.375000 0.500000
vt 0.125000 0.750000
vt 0.625000 0.500000
vt 0.875000 0.750000
vt 0.625000 0.230625
vt 0.625000 0.525834
vt 0.875000 0.538751
s 0
usemtl Material.002
f 20/15/7 19/16/7 23/17/7 24/18/7
f 24/19/8 23/20/8 21/21/8 22/22/8
f 22/23/9 18/24/9 20/15/9 24/25/9
f 18/24/10 17/26/10 19/16/10 20/15/10
f 22/22/11 21/21/11 17/26/11 18/24/11
f 25/16/12 26/27/12 30/27/12 29/16/12
f 28/17/7 27/16/7 29/16/7 30/17/7
f 26/20/8 23/20/8 28/20/8 30/20/8
f 23/17/9 19/16/9 27/16/9 28/17/9
f 19/16/10 25/16/10 29/16/10 27/16/10
f 33/28/13 32/29/13 31/26/13 34/21/13
f 19/16/10 17/26/10 31/26/10 32/29/10 25/16/10
f 32/29/12 33/30/12 26/27/12 25/16/12
f 17/26/11 21/21/11 34/21/11 31/26/11
f 21/21/8 23/20/8 26/20/8 33/28/8 34/21/8
usemtl Material.003
f 38/15/14 42/18/14 41/17/14 37/16/14
f 42/19/15 40/22/15 39/21/15 41/20/15
f 40/23/12 42/25/12 38/15/12 36/24/12
f 36/24/16 38/15/16 37/16/16 35/26/16
f 40/22/17 36/24/17 35/26/17 39/21/17
f 43/16/18 47/16/18 48/27/18 44/27/18
f 46/17/11 48/17/11 47/16/11 45/16/11
f 44/20/19 48/20/19 46/20/19 41/20/19
f 41/17/20 46/17/20 45/16/20 37/16/20
f 37/16/21 45/16/21 47/16/21 43/16/21
f 51/28/22 52/21/22 49/26/22 50/29/22
f 37/16/23 43/16/23 50/29/23 49/26/23 35/26/23
f 50/29/24 43/16/24 44/27/24 51/30/24
f 35/26/25 49/26/25 52/21/25 39/21/25
f 39/21/26 52/21/26 51/28/26 44/20/26 41/20/26
