# Blender 5.0.1
# www.blender.org
mtllib led.mtl
o Cylinder
v 0.000000 -1.000000 -1.000000
v 0.000000 1.000000 -1.000000
v 0.500000 -1.000000 -0.866025
v 0.500000 1.000000 -0.866025
v 0.866025 -1.000000 -0.500000
v 0.866025 1.000000 -0.500000
v 1.000000 -1.000000 0.000000
v 1.000000 1.000000 0.000000
v 0.866025 -1.000000 0.500000
v 0.866025 1.000000 0.500000
v 0.500000 -1.000000 0.866025
v 0.500000 1.000000 0.866025
v 0.000000 -1.000000 1.000000
v 0.000000 1.000000 1.000000
v -0.500000 -1.000000 0.866025
v -0.500000 1.000000 0.866025
v -0.866025 -1.000000 0.500000
v -0.866025 1.000000 0.500000
v -1.000000 -1.000000 0.000000
v -1.000000 1.000000 0.000000
v -0.866025 -1.000000 -0.500000
v -0.866025 1.000000 -0.500000
v -0.500000 -1.000000 -0.866025
v -0.500000 1.000000 -0.866025
v 0.414290 1.371495 -0.717571
v 0.000000 1.371495 -0.828580
v 0.717571 1.371495 -0.414290
v 0.828580 1.371495 0.000000
v 0.717571 1.371495 0.414290
v 0.414290 1.371495 0.717571
v 0.000000 1.371495 0.828580
v -0.414290 1.371495 0.717571
v -0.717571 1.371495 0.414290
v -0.828580 1.371495 0.000000
v -0.717571 1.371495 -0.414290
v -0.414290 1.371495 -0.717571
v 0.183483 1.766449 -0.317802
v -0.000000 1.766449 -0.366966
v 0.317802 1.766449 -0.183483
v 0.366966 1.766449 -0.000000
v 0.317802 1.766449 0.183483
v 0.183483 1.766449 0.317802
v -0.000000 1.766449 0.366966
v -0.183483 1.766449 0.317802
v -0.317802 1.766449 0.183483
v -0.366966 1.766449 -0.000000
v -0.317802 1.766449 -0.183483
v -0.183483 1.766449 -0.317802
v -0.000000 -1.000000 -1.080844
v 0.540422 -1.000000 -0.936038
v 0.936038 -1.000000 -0.540422
v 1.080844 -1.000000 -0.000000
v 0.936038 -1.000000 0.540422
v 0.540422 -1.000000 0.936038
v -0.000000 -1.000000 1.080844
v -0.540422 -1.000000 0.936038
v -0.936038 -1.000000 0.540422
v -1.080844 -1.000000 -0.000000
v -0.936038 -1.000000 -0.540422
v -0.540422 -1.000000 -0.936038
v 0.000000 -1.106845 -1.080844
v 0.540422 -1.106845 -0.936038
v 0.936038 -1.106845 -0.540422
v 1.080844 -1.106845 -0.000000
v 0.936038 -1.106845 0.540422
v 0.540422 -1.106845 0.936038
v 0.000000 -1.106845 1.080844
v -0.540422 -1.106845 0.936038
v -0.936038 -1.106845 0.540422
v -1.080844 -1.106845 -0.000000
v -0.936038 -1.106845 -0.540422
v -0.540422 -1.106845 -0.936038
v 0.000000 -0.976892 -1.019132
v 0.000000 1.006223 -1.029348
v 0.509566 -0.976892 -0.882594
v 0.514674 1.006223 -0.891441
v 0.882594 -0.976892 -0.509566
v 0.891441 1.006223 -0.514674
v 1.019132 -0.976892 0.000000
v 1.029348 1.006223 0.000000
v 0.882594 -0.976892 0.509566
v 0.891441 1.006223 0.514674
v 0.509566 -0.976892 0.882594
v 0.514674 1.006223 0.891441
v 0.000000 -0.976892 1.019132
v 0.000000 1.006223 1.029348
v -0.509566 -0.976892 0.882594
v -0.514674 1.006223 0.891441
v -0.882594 -0.976892 0.509566
v -0.891441 1.006223 0.514674
v -1.019132 -0.976892 0.000000
v -1.029348 1.006223 0.000000
v -0.882594 -0.976892 -0.509566
v -0.891441 1.006223 -0.514674
v -0.509566 -0.976892 -0.882594
v -0.514674 1.006223 -0.891441
v 0.426435 1.389102 -0.738607
v 0.000000 1.389102 -0.852870
v 0.738607 1.389102 -0.426435
v 0.852870 1.389102 0.000000
v 0.738607 1.389102 0.426435
v 0.426435 1.389102 0.738607
v 0.000000 1.389102 0.852870
v -0.426435 1.389102 0.738607
v -0.738607 1.389102 0.426435
v -0.852870 1.389102 0.000000
v -0.738607 1.389102 -0.426435
v -0.426435 1.389102 -0.738607
v 0.189411 1.794006 -0.328069
v -0.000000 1.794006 -0.378822
v 0.328069 1.794006 -0.189411
v 0.378822 1.794006 -0.000000
v 0.328069 1.794006 0.189411
v 0.189411 1.794006 0.328069
v -0.000000 1.794006 0.378822
v -0.189411 1.794006 0.328069
v -0.328069 1.794006 0.189411
v -0.378822 1.794006 -0.000000
v -0.328069 1.794006 -0.189411
v -0.189411 1.794006 -0.328069
v -0.000000 -0.980403 -1.103559
v 0.551779 -0.980403 -0.955710
v 0.955710 -0.980403 -0.551779
v 1.103559 -0.980403 -0.000000
v 0.955710 -0.980403 0.551779
v 0.551779 -0.980403 0.955710
v -0.000000 -0.980403 1.103559
v -0.551779 -0.980403 0.955710
v -0.955710 -0.980403 0.551779
v -1.103559 -0.980403 -0.000000
v -0.955710 -0.980403 -0.551779
v -0.551779 -0.980403 -0.955710
v 0.000000 -1.126442 -1.103558
v 0.551779 -1.126442 -0.955710
v 0.955710 -1.126442 -0.551779
v 1.103558 -1.126442 -0.000000
v 0.955710 -1.126442 0.551779
v 0.551779 -1.126442 0.955710
v 0.000000 -1.126442 1.103558
v -0.551779 -1.126442 0.955710
v -0.955710 -1.126442 0.551779
v -1.103558 -1.126442 -0.000000
v -0.955710 -1.126442 -0.551779
v -0.551779 -1.126442 -0.955710
vn 0.2588 -0.0000 -0.9659
vn 0.7071 -0.0000 -0.7071
vn 0.9659 -0.0000 -0.2588
vn 0.9659 -0.0000 0.2588
vn 0.7071 -0.0000 0.7071
vn 0.2588 -0.0000 0.9659
vn -0.2588 -0.0000 0.9659
vn -0.7071 -0.0000 0.7071
vn -0.9659 -0.0000 0.2588
vn -0.9659 -0.0000 -0.2588
vn 0.8823 0.4071 0.2364
vn -0.7071 -0.0000 -0.7071
vn -0.2588 -0.0000 -0.9659
vn -0.0000 1.0000 -0.0000
vn -0.6405 0.7486 -0.1716
vn -0.2364 0.4071 -0.8823
vn 0.2364 0.4071 -0.8823
vn 0.8823 0.4071 -0.2364
vn -0.6459 0.4071 -0.6459
vn 0.6459 0.4071 -0.6459
vn -0.8823 0.4071 -0.2364
vn -0.8823 0.4071 0.2364
vn -0.6459 0.4071 0.6459
vn -0.2364 0.4071 0.8823
vn 0.2364 0.4071 0.8823
vn 0.6459 0.4071 0.6459
vn -0.1716 0.7486 0.6405
vn 0.6405 0.7486 0.1716
vn -0.4689 0.7486 -0.4689
vn 0.1716 0.7486 -0.6405
vn -0.4689 0.7486 0.4689
vn 0.4689 0.7486 0.4689
vn -0.1716 0.7486 -0.6405
vn 0.4689 0.7486 -0.4689
vn -0.6405 0.7486 0.1716
vn 0.1716 0.7486 0.6405
vn 0.6405 0.7486 -0.1716
vn -0.0000 -1.0000 -0.0000
vn -0.2588 0.0050 0.9659
vn -0.7071 0.0050 0.7071
vn -0.9659 0.0050 0.2588
vn -0.9659 0.0050 -0.2588
vn -0.7071 0.0050 -0.7071
vn -0.2588 0.0050 -0.9659
vn 0.2588 0.0050 -0.9659
vn 0.7071 0.0050 -0.7071
vn 0.9659 0.0050 -0.2588
vn 0.9659 0.0050 0.2588
vn -0.8824 -0.4067 -0.2364
vn 0.7071 0.0050 0.7071
vn 0.2588 0.0050 0.9659
vn -0.0416 -0.9991 0.0111
vn 0.6399 -0.7491 0.1714
vn 0.2364 -0.4067 0.8824
vn -0.2364 -0.4067 0.8824
vn -0.8824 -0.4067 0.2364
vn 0.6460 -0.4067 0.6460
vn -0.6460 -0.4067 0.6460
vn 0.8824 -0.4067 0.2364
vn 0.8824 -0.4067 -0.2364
vn 0.6460 -0.4067 -0.6460
vn 0.2364 -0.4067 -0.8824
vn -0.2364 -0.4067 -0.8824
vn -0.6460 -0.4067 -0.6460
vn 0.1714 -0.7491 -0.6399
vn -0.6399 -0.7491 -0.1714
vn 0.4684 -0.7491 0.4684
vn -0.1714 -0.7491 0.6399
vn 0.4684 -0.7491 -0.4684
vn -0.4684 -0.7491 -0.4684
vn 0.1714 -0.7491 0.6399
vn -0.4684 -0.7491 0.4684
vn 0.6399 -0.7491 -0.1714
vn -0.1714 -0.7491 -0.6399
vn -0.6399 -0.7491 0.1714
vn 0.0304 -0.9991 0.0304
vn -0.0304 -0.9991 0.0304
vn 0.0416 -0.9991 0.0111
vn 0.0416 -0.9991 -0.0111
vn 0.0304 -0.9991 -0.0304
vn 0.0111 -0.9991 -0.0416
vn -0.0111 -0.9991 -0.0416
vn -0.0304 -0.9991 -0.0304
vn -0.0416 -0.9991 -0.0111
vn 0.0111 -0.9991 0.0416
vn -0.0111 -0.9991 0.0416
vt 1.000000 0.500000
vt 1.000000 1.000000
vt 0.916667 1.000000
vt 0.916667 0.500000
vt 0.833333 1.000000
vt 0.833333 0.500000
vt 0.750000 1.000000
vt 0.750000 0.500000
vt 0.666667 1.000000
vt 0.666667 0.500000
vt 0.583333 1.000000
vt 0.583333 0.500000
vt 0.500000 1.000000
vt 0.500000 0.500000
vt 0.416667 1.000000
vt 0.416667 0.500000
vt 0.333333 1.000000
vt 0.333333 0.500000
vt 0.250000 1.000000
vt 0.250000 0.500000
vt 0.166667 1.000000
vt 0.166667 0.500000
vt 0.083333 1.000000
vt 0.083333 0.500000
vt 0.000000 1.000000
vt 0.000000 0.500000
vt 0.370000 0.457846
vt 0.250000 0.490000
vt 0.130000 0.457846
vt 0.042154 0.370000
vt 0.010000 0.250000
vt 0.042154 0.130000
vt 0.130000 0.042154
vt 0.250000 0.010000
vt 0.370000 0.042154
vt 0.457846 0.130000
vt 0.490000 0.250000
vt 0.457846 0.370000
vt 0.750000 0.490000
vt 0.870000 0.457846
vt 0.957846 0.370000
vt 0.990000 0.250000
vt 0.957846 0.130000
vt 0.870000 0.042154
vt 0.750000 0.010000
vt 0.630000 0.042154
vt 0.542154 0.130000
vt 0.510000 0.250000
vt 0.542154 0.370000
vt 0.630000 0.457846
s 0
usemtl Material.002
f 1/1/1 2/2/1 4/3/1 3/4/1
f 3/4/2 4/3/2 6/5/2 5/6/2
f 5/6/3 6/5/3 8/7/3 7/8/3
f 7/8/4 8/7/4 10/9/4 9/10/4
f 9/10/5 10/9/5 12/11/5 11/12/5
f 11/12/6 12/11/6 14/13/6 13/14/6
f 13/14/7 14/13/7 16/15/7 15/16/7
f 15/16/8 16/15/8 18/17/8 17/18/8
f 17/18/9 18/17/9 20/19/9 19/20/9
f 19/20/10 20/19/10 22/21/10 21/22/10
f 10/9/11 8/7/11 28/7/11 29/9/11
f 21/22/12 22/21/12 24/23/12 23/24/12
f 23/24/13 24/23/13 2/25/13 1/26/13
f 5/6/14 7/8/14 52/8/14 51/6/14
f 35/21/15 34/19/15 46/19/15 47/21/15
f 2/25/16 24/23/16 36/23/16 26/25/16
f 4/3/17 2/2/17 26/2/17 25/3/17
f 8/7/18 6/5/18 27/5/18 28/7/18
f 24/23/19 22/21/19 35/21/19 36/23/19
f 6/5/20 4/3/20 25/3/20 27/5/20
f 22/21/21 20/19/21 34/19/21 35/21/21
f 20/19/22 18/17/22 33/17/22 34/19/22
f 18/17/23 16/15/23 32/15/23 33/17/23
f 16/15/24 14/13/24 31/13/24 32/15/24
f 14/13/25 12/11/25 30/11/25 31/13/25
f 12/11/26 10/9/26 29/9/26 30/11/26
f 37/27/14 38/28/14 48/29/14 47/30/14 46/31/14 45/32/14 44/33/14 43/34/14 42/35/14 41/36/14 40/37/14 39/38/14
f 32/15/27 31/13/27 43/13/27 44/15/27
f 29/9/28 28/7/28 40/7/28 41/9/28
f 36/23/29 35/21/29 47/21/29 48/23/29
f 25/3/30 26/2/30 38/2/30 37/3/30
f 33/17/31 32/15/31 44/15/31 45/17/31
f 30/11/32 29/9/32 41/9/32 42/11/32
f 26/25/33 36/23/33 48/23/33 38/25/33
f 27/5/34 25/3/34 37/3/34 39/5/34
f 34/19/35 33/17/35 45/17/35 46/19/35
f 31/13/36 30/11/36 42/11/36 43/13/36
f 28/7/37 27/5/37 39/5/37 40/7/37
f 57/18/9 58/20/9 70/20/9 69/18/9
f 21/22/14 23/24/14 60/24/14 59/22/14
f 3/4/14 5/6/14 51/6/14 50/4/14
f 19/20/14 21/22/14 59/22/14 58/20/14
f 17/18/14 19/20/14 58/20/14 57/18/14
f 15/16/14 17/18/14 57/18/14 56/16/14
f 13/14/14 15/16/14 56/16/14 55/14/14
f 11/12/14 13/14/14 55/14/14 54/12/14
f 9/10/14 11/12/14 54/12/14 53/10/14
f 7/8/14 9/10/14 53/10/14 52/8/14
f 23/24/14 1/26/14 49/26/14 60/24/14
f 1/1/14 3/4/14 50/4/14 49/1/14
f 61/39/38 62/40/38 63/41/38 64/42/38 65/43/38 66/44/38 67/45/38 68/46/38 69/47/38 70/48/38 71/49/38 72/50/38
f 54/12/6 55/14/6 67/14/6 66/12/6
f 51/6/3 52/8/3 64/8/3 63/6/3
f 58/20/10 59/22/10 71/22/10 70/20/10
f 55/14/7 56/16/7 68/16/7 67/14/7
f 52/8/4 53/10/4 65/10/4 64/8/4
f 59/22/12 60/24/12 72/24/12 71/22/12
f 49/1/1 50/4/1 62/4/1 61/1/1
f 56/16/8 57/18/8 69/18/8 68/16/8
f 53/10/5 54/12/5 66/12/5 65/10/5
f 60/24/13 49/26/13 61/26/13 72/24/13
f 50/4/2 51/6/2 63/6/2 62/4/2
usemtl Material.001
f 73/1/39 75/4/39 76/3/39 74/2/39
f 75/4/40 77/6/40 78/5/40 76/3/40
f 77/6/41 79/8/41 80/7/41 78/5/41
f 79/8/42 81/10/42 82/9/42 80/7/42
f 81/10/43 83/12/43 84/11/43 82/9/43
f 83/12/44 85/14/44 86/13/44 84/11/44
f 85/14/45 87/16/45 88/15/45 86/13/45
f 87/16/46 89/18/46 90/17/46 88/15/46
f 89/18/47 91/20/47 92/19/47 90/17/47
f 91/20/48 93/22/48 94/21/48 92/19/48
f 82/9/49 101/9/49 100/7/49 80/7/49
f 93/22/50 95/24/50 96/23/50 94/21/50
f 95/24/51 73/26/51 74/25/51 96/23/51
f 77/6/52 123/6/52 124/8/52 79/8/52
f 107/21/53 119/21/53 118/19/53 106/19/53
f 74/25/54 98/25/54 108/23/54 96/23/54
f 76/3/55 97/3/55 98/2/55 74/2/55
f 80/7/56 100/7/56 99/5/56 78/5/56
f 96/23/57 108/23/57 107/21/57 94/21/57
f 78/5/58 99/5/58 97/3/58 76/3/58
f 94/21/59 107/21/59 106/19/59 92/19/59
f 92/19/60 106/19/60 105/17/60 90/17/60
f 90/17/61 105/17/61 104/15/61 88/15/61
f 88/15/62 104/15/62 103/13/62 86/13/62
f 86/13/63 103/13/63 102/11/63 84/11/63
f 84/11/64 102/11/64 101/9/64 82/9/64
f 109/27/38 111/38/38 112/37/38 113/36/38 114/35/38 115/34/38 116/33/38 117/32/38 118/31/38 119/30/38 120/29/38 110/28/38
f 104/15/65 116/15/65 115/13/65 103/13/65
f 101/9/66 113/9/66 112/7/66 100/7/66
f 108/23/67 120/23/67 119/21/67 107/21/67
f 97/3/68 109/3/68 110/2/68 98/2/68
f 105/17/69 117/17/69 116/15/69 104/15/69
f 102/11/70 114/11/70 113/9/70 101/9/70
f 98/25/71 110/25/71 120/23/71 108/23/71
f 99/5/72 111/5/72 109/3/72 97/3/72
f 106/19/73 118/19/73 117/17/73 105/17/73
f 103/13/74 115/13/74 114/11/74 102/11/74
f 100/7/75 112/7/75 111/5/75 99/5/75
f 129/18/3 141/18/3 142/20/3 130/20/3
f 93/22/76 131/22/76 132/24/76 95/24/76
f 75/4/77 122/4/77 123/6/77 77/6/77
f 91/20/78 130/20/78 131/22/78 93/22/78
f 89/18/79 129/18/79 130/20/79 91/20/79
f 87/16/80 128/16/80 129/18/80 89/18/80
f 85/14/81 127/14/81 128/16/81 87/16/81
f 83/12/82 126/12/82 127/14/82 85/14/82
f 81/10/83 125/10/83 126/12/83 83/12/83
f 79/8/84 124/8/84 125/10/84 81/10/84
f 95/24/85 132/24/85 121/26/85 73/26/85
f 73/1/86 121/1/86 122/4/86 75/4/86
f 133/39/14 144/50/14 143/49/14 142/48/14 141/47/14 140/46/14 139/45/14 138/44/14 137/43/14 136/42/14 135/41/14 134/40/14
f 126/12/13 138/12/13 139/14/13 127/14/13
f 123/6/9 135/6/9 136/8/9 124/8/9
f 130/20/4 142/20/4 143/22/4 131/22/4
f 127/14/1 139/14/1 140/16/1 128/16/1
f 124/8/10 136/8/10 137/10/10 125/10/10
f 131/22/5 143/22/5 144/24/5 132/24/5
f 121/1/7 133/1/7 134/4/7 122/4/7
f 128/16/2 140/16/2 141/18/2 129/18/2
f 125/10/12 137/10/12 138/12/12 126/12/12
f 132/24/6 144/24/6 133/26/6 121/26/6
f 122/4/8 134/4/8 135/6/8 123/6/8
o Cylinder.001
v -0.421153 -2.098264 -0.159337
v -0.421153 -1.106845 -0.159337
v -0.341485 -2.098264 -0.137990
v -0.341485 -1.106845 -0.137990
v -0.283164 -2.098264 -0.079668
v -0.283164 -1.106845 -0.079668
v -0.261817 -2.098264 0.000000
v -0.261817 -1.106845 0.000000
v -0.283164 -2.098264 0.079668
v -0.283164 -1.106845 0.079668
v -0.341485 -2.098264 0.137990
v -0.341485 -1.106845 0.137990
v -0.421153 -2.098264 0.159337
v -0.421153 -1.106845 0.159337
v -0.500822 -2.098264 0.137990
v -0.500822 -1.106845 0.137990
v -0.559143 -2.098264 0.079668
v -0.559143 -1.106845 0.079668
v -0.580490 -2.098264 0.000000
v -0.580490 -1.106845 0.000000
v -0.559143 -2.098264 -0.079668
v -0.559143 -1.106845 -0.079668
v -0.500822 -2.098264 -0.137990
v -0.500822 -1.106845 -0.137990
v 0.421153 -2.098264 -0.159337
v 0.421153 -1.106845 -0.159337
v 0.341485 -2.098264 -0.137990
v 0.341485 -1.106845 -0.137990
v 0.283164 -2.098264 -0.079668
v 0.283164 -1.106845 -0.079668
v 0.261817 -2.098264 0.000000
v 0.261817 -1.106845 0.000000
v 0.283164 -2.098264 0.079668
v 0.283164 -1.106845 0.079668
v 0.341485 -2.098264 0.137990
v 0.341485 -1.106845 0.137990
v 0.421153 -2.098264 0.159337
v 0.421153 -1.106845 0.159337
v 0.500822 -2.098264 0.137990
v 0.500822 -1.106845 0.137990
v 0.559143 -2.098264 0.079668
v 0.559143 -1.106845 0.079668
v 0.580490 -2.098264 0.000000
v 0.580490 -1.106845 0.000000
v 0.559143 -2.098264 -0.079668
v 0.559143 -1.106845 -0.079668
v 0.500822 -2.098264 -0.137990
v 0.500822 -1.106845 -0.137990
v -0.421153 -2.114917 -0.178640
v -0.421153 -1.090192 -0.178640
v -0.331834 -2.114917 -0.154706
v -0.331834 -1.090192 -0.154706
v -0.266447 -2.114917 -0.089320
v -0.266447 -1.090192 -0.089320
v -0.242514 -2.114917 0.000000
v -0.242514 -1.090192 0.000000
v -0.266447 -2.114917 0.089320
v -0.266447 -1.090192 0.089320
v -0.331834 -2.114917 0.154706
v -0.331834 -1.090192 0.154706
v -0.421153 -2.114917 0.178640
v -0.421153 -1.090192 0.178640
v -0.510473 -2.114917 0.154706
v -0.510473 -1.090192 0.154706
v -0.575860 -2.114917 0.089320
v -0.575860 -1.090192 0.089320
v -0.599793 -2.114917 0.000000
v -0.599793 -1.090192 0.000000
v -0.575860 -2.114917 -0.089320
v -0.575860 -1.090192 -0.089320
v -0.510473 -2.114917 -0.154706
v -0.510473 -1.090192 -0.154706
v 0.421153 -2.114917 -0.178640
v 0.421153 -1.090192 -0.178640
v 0.331834 -2.114917 -0.154706
v 0.331834 -1.090192 -0.154706
v 0.266447 -2.114917 -0.089320
v 0.266447 -1.090192 -0.089320
v 0.242514 -2.114917 0.000000
v 0.242514 -1.090192 0.000000
v 0.266447 -2.114917 0.089320
v 0.266447 -1.090192 0.089320
v 0.331834 -2.114917 0.154706
v 0.331834 -1.090192 0.154706
v 0.421153 -2.114917 0.178640
v 0.421153 -1.090192 0.178640
v 0.510473 -2.114917 0.154706
v 0.510473 -1.090192 0.154706
v 0.575860 -2.114917 0.089320
v 0.575860 -1.090192 0.089320
v 0.599793 -2.114917 0.000000
v 0.599793 -1.090192 0.000000
v 0.575860 -2.114917 -0.089320
v 0.575860 -1.090192 -0.089320
v 0.510473 -2.114917 -0.154706
v 0.510473 -1.090192 -0.154706
vn 0.2588 -0.0000 -0.9659
vn 0.7071 -0.0000 -0.7071
vn 0.9659 -0.0000 -0.2588
vn 0.9659 -0.0000 0.2588
vn 0.7071 -0.0000 0.7071
vn 0.2588 -0.0000 0.9659
vn -0.2588 -0.0000 0.9659
vn -0.7071 -0.0000 0.7071
vn -0.9659 -0.0000 0.2588
vn -0.9659 -0.0000 -0.2588
vn -0.0000 1.0000 -0.0000
vn -0.7071 -0.0000 -0.7071
vn -0.2588 -0.0000 -0.9659
vn -0.0000 -1.0000 -0.0000
vt 1.000000 0.500000
vt 1.000000 1.000000
vt 0.916667 1.000000
vt 0.916667 0.500000
vt 0.833333 1.000000
vt 0.833333 0.500000
vt 0.750000 1.000000
vt 0.750000 0.500000
vt 0.666667 1.000000
vt 0.666667 0.500000
vt 0.583333 1.000000
vt 0.583333 0.500000
vt 0.500000 1.000000
vt 0.500000 0.500000
vt 0.416667 1.000000
vt 0.416667 0.500000
vt 0.333333 1.000000
vt 0.333333 0.500000
vt 0.250000 1.000000
vt 0.250000 0.500000
vt 0.166667 1.000000
vt 0.166667 0.500000
vt 0.370000 0.457846
vt 0.250000 0.490000
vt 0.130000 0.457846
vt 0.042154 0.370000
vt 0.010000 0.250000
vt 0.042154 0.130000
vt 0.130000 0.042154
vt 0.250000 0.010000
vt 0.370000 0.042154
vt 0.457846 0.130000
vt 0.490000 0.250000
vt 0.457846 0.370000
vt 0.083333 1.000000
vt 0.083333 0.500000
vt 0.000000 1.000000
vt 0.000000 0.500000
vt 0.750000 0.490000
vt 0.870000 0.457846
vt 0.957846 0.370000
vt 0.990000 0.250000
vt 0.957846 0.130000
vt 0.870000 0.042154
vt 0.750000 0.010000
vt 0.630000 0.042154
vt 0.542154 0.130000
vt 0.510000 0.250000
vt 0.542154 0.370000
vt 0.630000 0.457846
s 0
usemtl Material.003
f 145/51/87 146/52/87 148/53/87 147/54/87
f 147/54/88 148/53/88 150/55/88 149/56/88
f 149/56/89 150/55/89 152/57/89 151/58/89
f 151/58/90 152/57/90 154/59/90 153/60/90
f 153/60/91 154/59/91 156/61/91 155/62/91
f 155/62/92 156/61/92 158/63/92 157/64/92
f 157/64/93 158/63/93 160/65/93 159/66/93
f 159/66/94 160/65/94 162/67/94 161/68/94
f 161/68/95 162/67/95 164/69/95 163/70/95
f 163/70/96 164/69/96 166/71/96 165/72/96
f 148/73/97 146/74/97 168/75/97 166/76/97 164/77/97 162/78/97 160/79/97 158/80/97 156/81/97 154/82/97 152/83/97 150/84/97
f 165/72/98 166/71/98 168/85/98 167/86/98
f 167/86/99 168/85/99 146/87/99 145/88/99
f 145/89/100 147/90/100 149/91/100 151/92/100 153/93/100 155/94/100 157/95/100 159/96/100 161/97/100 163/98/100 165/99/100 167/100/100
f 169/51/99 171/54/99 172/53/99 170/52/99
f 171/54/98 173/56/98 174/55/98 172/53/98
f 173/56/96 175/58/96 176/57/96 174/55/96
f 175/58/95 177/60/95 178/59/95 176/57/95
f 177/60/94 179/62/94 180/61/94 178/59/94
f 179/62/93 181/64/93 182/63/93 180/61/93
f 181/64/92 183/66/92 184/65/92 182/63/92
f 183/66/91 185/68/91 186/67/91 184/65/91
f 185/68/90 187/70/90 188/69/90 186/67/90
f 187/70/89 189/72/89 190/71/89 188/69/89
f 172/73/97 174/84/97 176/83/97 178/82/97 180/81/97 182/80/97 184/79/97 186/78/97 188/77/97 190/76/97 192/75/97 170/74/97
f 189/72/88 191/86/88 192/85/88 190/71/88
f 191/86/87 169/88/87 170/87/87 192/85/87
f 169/89/100 191/100/100 189/99/100 187/98/100 185/97/100 183/96/100 181/95/100 179/94/100 177/93/100 175/92/100 173/91/100 171/90/100
usemtl Material.001
f 193/51/93 195/54/93 196/53/93 194/52/93
f 195/54/94 197/56/94 198/55/94 196/53/94
f 197/56/95 199/58/95 200/57/95 198/55/95
f 199/58/96 201/60/96 202/59/96 200/57/96
f 201/60/98 203/62/98 204/61/98 202/59/98
f 203/62/99 205/64/99 206/63/99 204/61/99
f 205/64/87 207/66/87 208/65/87 206/63/87
f 207/66/88 209/68/88 210/67/88 208/65/88
f 209/68/89 211/70/89 212/69/89 210/67/89
f 211/70/90 213/72/90 214/71/90 212/69/90
f 196/73/100 198/84/100 200/83/100 202/82/100 204/81/100 206/80/100 208/79/100 210/78/100 212/77/100 214/76/100 216/75/100 194/74/100
f 213/72/91 215/86/91 216/85/91 214/71/91
f 215/86/92 193/88/92 194/87/92 216/85/92
f 193/89/97 215/100/97 213/99/97 211/98/97 209/97/97 207/96/97 205/95/97 203/94/97 201/93/97 199/92/97 197/91/97 195/90/97
f 217/51/92 218/52/92 220/53/92 219/54/92
f 219/54/91 220/53/91 222/55/91 221/56/91
f 221/56/90 222/55/90 224/57/90 223/58/90
f 223/58/89 224/57/89 226/59/89 225/60/89
f 225/60/88 226/59/88 228/61/88 227/62/88
f 227/62/87 228/61/87 230/63/87 229/64/87
f 229/64/99 230/63/99 232/65/99 231/66/99
f 231/66/98 232/65/98 234/67/98 233/68/98
f 233/68/96 234/67/96 236/69/96 235/70/96
f 235/70/95 236/69/95 238/71/95 237/72/95
f 220/73/100 218/74/100 240/75/100 238/76/100 236/77/100 234/78/100 232/79/100 230/80/100 228/81/100 226/82/100 224/83/100 222/84/100
f 237/72/94 238/71/94 240/85/94 239/86/94
f 239/86/93 240/85/93 218/87/93 217/88/93
f 217/89/97 219/90/97 221/91/97 223/92/97 225/93/97 227/94/97 229/95/97 231/96/97 233/97/97 235/98/97 237/99/97 239/100/97
