# Blender 5.1.0
# www.blender.org
mtllib ledRep.mtl
o Cube
v 0.161209 0.286369 -1.000000
v 0.161209 -0.286369 -1.000000
v 0.161209 1.000000 1.000000
v 0.161209 -1.000000 1.000000
v -0.161209 0.286369 -1.000000
v -0.161209 -0.286369 -1.000000
v -0.161209 1.000000 1.000000
v -0.161209 -1.000000 1.000000
v -0.161209 -0.186812 1.000000
v -0.161209 0.186812 1.000000
v 0.161209 0.186812 1.000000
v 0.161209 -0.186812 1.000000
v -0.161209 -0.186812 2.181659
v -0.161209 0.186812 2.181659
v 0.161209 0.186812 2.181659
v 0.161209 -0.186812 2.181659
v 0.161209 -0.206546 -1.000000
v -0.161209 -0.206546 -1.000000
v 0.161209 0.206546 -1.000000
v -0.161209 0.206546 -1.000000
v 0.161209 -0.206546 -2.381919
v -0.161209 -0.206546 -2.381919
v 0.161209 0.206546 -2.381919
v -0.161209 0.206546 -2.381919
v 0.161209 1.213196 -1.000000
v 0.161209 -1.213196 -1.000000
v -0.161209 1.213196 -1.000000
v -0.161209 -1.213196 -1.000000
v -0.052258 0.845190 -0.213491
v -0.052258 1.023158 -0.099294
v -0.052258 1.465046 -1.179494
v -0.052258 1.643013 -1.065298
v 0.052258 0.845190 -0.213491
v 0.052258 1.023158 -0.099294
v 0.052258 1.465046 -1.179494
v 0.052258 1.643013 -1.065298
v -0.052258 1.738782 -1.003846
v -0.052258 1.369277 -1.240946
v 0.052258 1.369277 -1.240946
v 0.052258 1.738782 -1.003846
v -0.052258 1.755675 -1.358147
v -0.052258 1.684315 -1.403936
v 0.052258 1.684315 -1.403936
v 0.052258 1.755675 -1.358147
v -0.052258 1.128491 0.201731
v -0.052258 1.306459 0.315927
v -0.052258 1.748347 -0.764273
v -0.052258 1.926315 -0.650076
v 0.052258 1.128491 0.201731
v 0.052258 1.306459 0.315927
v 0.052258 1.748347 -0.764273
v 0.052258 1.926315 -0.650076
v -0.052258 2.022083 -0.588624
v -0.052258 1.652579 -0.825725
v 0.052258 1.652579 -0.825725
v 0.052258 2.022083 -0.588624
v -0.052258 2.038976 -0.942925
v -0.052258 1.967616 -0.988715
v 0.052258 1.967616 -0.988715
v 0.052258 2.038976 -0.942925
v 0.163315 0.296468 -1.025048
v 0.163315 -0.296468 -1.025048
v 0.163925 1.020291 1.014304
v 0.163925 -1.020291 1.014304
v -0.163315 0.296468 -1.025048
v -0.163315 -0.296468 -1.025048
v -0.163925 1.020291 1.014304
v -0.163925 -1.020291 1.014304
v -0.164002 -0.169491 1.017321
v -0.162668 0.213948 1.009045
v 0.162668 0.213948 1.009045
v 0.164002 -0.169491 1.017321
v -0.164002 -0.204132 2.198979
v -0.164002 0.204132 2.198979
v 0.164002 0.204132 2.198979
v 0.164002 -0.204132 2.198979
v 0.164002 -0.189225 -1.017321
v -0.164002 -0.189225 -1.017321
v 0.162668 0.233682 -1.009045
v -0.162668 0.233682 -1.009045
v 0.164002 -0.223866 -2.399239
v -0.164002 -0.223866 -2.399239
v 0.164002 0.223866 -2.399239
v -0.164002 0.223866 -2.399239
v 0.161209 1.213196 -1.030000
v 0.161209 -1.213196 -1.030000
v -0.161209 1.213196 -1.030000
v -0.161209 -1.213196 -1.030000
v -0.055050 0.821259 -0.208267
v -0.055050 1.028381 -0.075363
v -0.054267 1.447825 -1.200663
v -0.056243 1.650467 -1.080580
v 0.055050 0.821259 -0.208267
v 0.055050 1.028381 -0.075363
v 0.056243 1.480328 -1.172040
v 0.053946 1.667116 -1.050828
v -0.054941 1.750227 -0.981663
v -0.054941 1.344343 -1.242107
v 0.054941 1.344343 -1.242107
v 0.054941 1.750227 -0.981663
v -0.055208 1.776802 -1.369047
v -0.055208 1.685421 -1.427684
v 0.055208 1.685421 -1.427684
v 0.055208 1.776802 -1.369047
v -0.055050 1.104560 0.206954
v -0.055050 1.311682 0.339859
v -0.054267 1.731126 -0.785441
v -0.056243 1.933769 -0.665359
v 0.055050 1.104560 0.206954
v 0.055050 1.311682 0.339859
v 0.049553 1.723694 -0.767547
v 0.048849 1.933098 -0.629909
v -0.054941 2.033530 -0.566444
v -0.054941 1.627645 -0.826891
v 0.054940 1.627642 -0.826887
v 0.054940 2.033530 -0.566440
v -0.055208 2.060103 -0.953826
v -0.055208 1.968722 -1.012462
v 0.055208 1.968722 -1.012462
v 0.055208 2.060103 -0.953826
vn -0.0000 0.9418 -0.3361
vn -0.0000 -0.0000 1.0000
vn -1.0000 -0.0000 -0.0000
vn -0.0000 -0.9418 -0.3361
vn 1.0000 -0.0000 -0.0000
vn -0.0000 -0.0000 -1.0000
vn -0.0000 -1.0000 -0.0000
vn -0.0000 1.0000 -0.0000
vn -0.0000 -0.5401 0.8416
vn -0.0000 -0.8416 -0.5401
vn -0.0000 0.8416 0.5401
vn -0.0000 -0.4595 -0.8882
vn -0.0000 0.5400 -0.8416
vn -0.0000 0.9989 0.0476
vn -0.9992 -0.0000 -0.0403
vn -0.0000 0.5401 -0.8416
vn -0.0000 -0.9424 0.3345
vn -0.0000 0.0035 -1.0000
vn 1.0000 -0.0000 0.0003
vn -0.0000 0.9424 0.3345
vn -1.0000 -0.0000 0.0003
vn -0.0000 0.2470 0.9690
vn -0.0000 0.9996 0.0293
vn -0.0000 0.0065 -1.0000
vn 0.8751 -0.0012 -0.4839
vn -0.8751 -0.0012 -0.4839
vn -1.0000 -0.0017 0.0005
vn -0.0000 -1.0000 -0.0082
vn 1.0000 -0.0017 0.0005
vn -1.0000 -0.0015 -0.0005
vn 1.0000 0.0013 -0.0042
vn -1.0000 0.0013 -0.0042
vn -0.0000 -0.0719 0.9974
vn 1.0000 -0.0015 -0.0005
vn -0.0000 0.9997 -0.0251
vn -0.0000 -1.0000 0.0071
vn -0.0000 0.0054 1.0000
vn -0.0000 -0.0054 1.0000
vn 1.0000 0.0036 0.0020
vn 0.0483 0.6756 -0.7357
vn -1.0000 -0.0041 -0.0028
vn -0.1908 0.8204 0.5390
vn 0.1350 -0.8358 -0.5322
vn -0.0000 0.4779 0.8784
vn -0.9999 -0.0097 0.0103
vn 0.9999 -0.0061 0.0154
vn 0.0555 0.4211 -0.9053
vn -0.0000 -0.5400 0.8416
vn -0.0000 -0.9977 -0.0684
vn 1.0000 0.0004 -0.0007
vn -1.0000 0.0004 -0.0007
vn 0.1293 0.6218 -0.7724
vn -1.0000 -0.0040 0.0035
vn -0.0154 0.8447 0.5350
vn 0.0849 -0.8430 -0.5311
vn 0.0943 0.5409 -0.8358
vn 0.0901 0.4507 -0.8881
vn -0.9993 -0.0012 -0.0385
vn 0.9993 -0.0012 -0.0385
vn 0.9993 0.0012 -0.0385
vn -0.9993 0.0012 -0.0385
vt 0.625000 0.500000
vt 0.875000 0.500000
vt 0.875000 0.750000
vt 0.625000 0.750000
vt 0.125000 0.750000
vt 0.375000 0.750000
vt 0.375000 0.000000
vt 0.625000 0.000000
vt 0.625000 0.250000
vt 0.375000 0.250000
vt 0.125000 0.500000
vt 0.375000 0.500000
vt 0.625000 1.000000
vt 0.375000 1.000000
s 0
usemtl Material
f 1/1/1 5/2/1 7/3/1 3/4/1
f 8/5/2 4/6/2 12/6/2 9/5/2
f 8/7/3 7/8/3 5/9/3 6/10/3
f 6/11/4 2/12/4 4/6/4 8/5/4
f 2/12/5 1/1/5 3/4/5 4/6/5
f 5/2/6 1/1/6 19/1/6 20/2/6
f 9/5/7 12/6/7 16/6/7 13/5/7
f 3/4/2 7/3/2 10/3/2 11/4/2
f 4/6/8 3/4/8 11/4/8 12/6/8
f 7/8/8 8/7/8 9/7/8 10/8/8
f 16/6/2 15/4/2 14/13/2 13/14/2
f 12/6/5 11/4/5 15/4/5 16/6/5
f 11/4/8 10/3/8 14/3/8 15/4/8
f 10/8/3 9/7/3 13/7/3 14/8/3
f 19/1/5 17/12/5 21/12/5 23/1/5
f 1/1/8 2/12/8 17/12/8 19/1/8
f 6/10/8 5/9/8 20/9/8 18/10/8
f 2/12/6 6/11/6 18/11/6 17/12/6
f 22/10/6 24/9/6 23/1/6 21/12/6
f 18/10/3 20/9/3 24/9/3 22/10/3
f 17/12/7 18/11/7 22/11/7 21/12/7
f 20/2/8 19/1/8 23/1/8 24/2/8
f 1/1/6 5/2/6 27/2/6 25/1/6
f 6/11/6 2/12/6 26/12/6 28/11/6
f 29/7/3 30/8/3 32/9/3 31/10/3
f 32/2/9 36/1/9 40/1/9 37/2/9
f 35/12/5 36/1/5 34/4/5 33/6/5
f 33/6/9 34/4/9 30/13/9 29/14/9
f 31/11/10 35/12/10 33/6/10 29/5/10
f 36/1/11 32/2/11 30/3/11 34/4/11
f 39/12/12 38/11/12 42/11/12 43/12/12
f 31/10/6 32/9/6 37/9/6 38/10/6
f 36/1/8 35/12/8 39/12/8 40/1/8
f 35/12/9 31/11/9 38/11/9 39/12/9
f 42/10/13 41/9/13 44/1/13 43/12/13
f 37/2/14 40/1/14 44/1/14 41/2/14
f 38/10/3 37/9/3 41/9/3 42/10/3
f 40/1/5 39/12/5 43/12/5 44/1/5
f 45/7/3 46/8/3 48/9/3 47/10/3
f 48/2/9 52/1/9 56/1/9 53/2/9
f 51/12/5 52/1/5 50/4/5 49/6/5
f 49/6/9 50/4/9 46/13/9 45/14/9
f 47/11/10 51/12/10 49/6/10 45/5/10
f 52/1/11 48/2/11 46/3/11 50/4/11
f 55/12/12 54/11/12 58/11/12 59/12/12
f 47/10/6 48/9/6 53/9/6 54/10/6
f 52/1/15 51/12/15 55/12/15 56/1/15
f 51/12/9 47/11/9 54/11/9 55/12/9
f 58/10/16 57/9/16 60/1/16 59/12/16
f 53/2/14 56/1/14 60/1/14 57/2/14
f 54/10/3 53/9/3 57/9/3 58/10/3
f 56/1/5 55/12/5 59/12/5 60/1/5
f 28/11/8 26/12/8 86/12/8 88/11/8
f 25/1/7 27/2/7 87/2/7 85/1/7
f 1/1/58 25/1/58 85/1/58 61/1/58
f 27/2/59 5/2/59 65/2/59 87/2/59
f 6/11/60 28/11/60 88/11/60 66/11/60
f 26/12/61 2/12/61 62/12/61 86/12/61
usemtl Material.001
f 61/1/17 63/4/17 67/3/17 65/2/17
f 68/5/18 69/5/18 72/6/18 64/6/18
f 68/7/19 66/10/19 65/9/19 67/8/19
f 66/11/20 68/5/20 64/6/20 62/12/20
f 62/12/21 64/6/21 63/4/21 61/1/21
f 65/2/22 80/2/22 79/1/22 61/1/22
f 69/5/23 73/5/23 76/6/23 72/6/23
f 63/4/24 71/4/24 70/3/24 67/3/24
f 64/6/25 72/6/25 71/4/25 63/4/25
f 67/8/26 70/8/26 69/7/26 68/7/26
f 76/6/6 73/14/6 74/13/6 75/4/6
f 72/6/27 76/6/27 75/4/27 71/4/27
f 71/4/28 75/4/28 74/3/28 70/3/28
f 70/8/29 74/8/29 73/7/29 69/7/29
f 79/1/30 83/1/30 81/12/30 77/12/30
f 61/1/31 79/1/31 77/12/31 62/12/31
f 66/10/32 78/10/32 80/9/32 65/9/32
f 62/12/33 77/12/33 78/11/33 66/11/33
f 82/10/2 81/12/2 83/1/2 84/9/2
f 78/10/34 82/10/34 84/9/34 80/9/34
f 77/12/35 81/12/35 82/11/35 78/11/35
f 80/2/36 84/2/36 83/1/36 79/1/36
f 61/1/37 85/1/37 87/2/37 65/2/37
f 66/11/38 88/11/38 86/12/38 62/12/38
f 89/7/39 91/10/39 92/9/39 90/8/39
f 92/2/40 97/2/40 100/1/40 96/1/40
f 95/12/41 93/6/41 94/4/41 96/1/41
f 93/6/16 89/14/16 90/13/16 94/4/16
f 91/11/42 89/5/42 93/6/42 95/12/42
f 96/1/43 94/4/43 90/3/43 92/2/43
f 99/12/44 103/12/44 102/11/44 98/11/44
f 91/10/45 98/10/45 97/9/45 92/9/45
f 96/1/46 100/1/46 99/12/46 95/12/46
f 95/12/47 99/12/47 98/11/47 91/11/47
f 102/10/48 103/12/48 104/1/48 101/9/48
f 97/2/49 101/2/49 104/1/49 100/1/49
f 98/10/50 102/10/50 101/9/50 97/9/50
f 100/1/51 104/1/51 103/12/51 99/12/51
f 105/7/39 107/10/39 108/9/39 106/8/39
f 108/2/52 113/2/52 116/1/52 112/1/52
f 111/12/53 109/6/53 110/4/53 112/1/53
f 109/6/16 105/14/16 106/13/16 110/4/16
f 107/11/54 105/5/54 109/6/54 111/12/54
f 112/1/55 110/4/55 106/3/55 108/2/55
f 115/12/44 119/12/44 118/11/44 114/11/44
f 107/10/45 114/10/45 113/9/45 108/9/45
f 112/1/56 116/1/56 115/12/56 111/12/56
f 111/12/57 115/12/57 114/11/57 107/11/57
f 118/10/9 119/12/9 120/1/9 117/9/9
f 113/2/49 117/2/49 120/1/49 116/1/49
f 114/10/50 118/10/50 117/9/50 113/9/50
f 116/1/51 120/1/51 119/12/51 115/12/51
