# Blender 5.0.1
# www.blender.org
mtllib molduraLogica.mtl
o Cube.002
v -0.111479 -1.045624 -1.045624
v -0.111479 -1.045624 1.045624
v -0.111479 1.045624 1.045624
v -0.111479 1.045624 -1.045624
v -0.078877 -1.045624 -1.045624
v -0.078877 -1.045624 1.045624
v -0.078877 1.045624 1.045624
v -0.078877 1.045624 -1.045624
v 0.111479 1.023541 -1.098717
v 0.111479 1.098717 -1.023541
v 0.111479 -1.098717 -1.023541
v 0.111479 -1.023541 -1.098717
v 0.111479 1.098717 1.023541
v 0.111479 1.023541 1.098717
v 0.111479 -1.023541 1.098717
v 0.111479 -1.098717 1.023541
v -0.111479 1.098717 -1.023541
v -0.111479 1.023541 -1.098717
v -0.111479 1.045663 -1.045663
v -0.111479 -1.023541 -1.098717
v -0.111479 -1.098717 -1.023541
v -0.111479 -1.045663 -1.045663
v -0.111479 1.023541 1.098717
v -0.111479 1.098717 1.023541
v -0.111479 1.045663 1.045663
v -0.111479 -1.098717 1.023541
v -0.111479 -1.023541 1.098717
v -0.111479 -1.045663 1.045663
v -0.129570 -1.038998 -1.038998
v -0.129570 -1.038998 1.038998
v -0.129570 1.038998 1.038998
v -0.129570 1.038998 -1.038998
v -0.090424 -1.032937 -1.032937
v -0.090424 -1.032937 1.032937
v -0.090424 1.032937 1.032937
v -0.090424 1.032937 -1.032937
v 0.124084 1.030070 -1.114479
v 0.124084 1.114479 -1.030070
v 0.124084 -1.114479 -1.030070
v 0.124084 -1.030070 -1.114479
v 0.124084 1.114479 1.030070
v 0.124084 1.030070 1.114479
v 0.124084 -1.030070 1.114479
v 0.124084 -1.114479 1.030070
v -0.124085 1.114479 -1.030070
v -0.124085 1.030070 -1.114479
v -0.131479 1.045663 -1.045663
v -0.124085 -1.030070 -1.114479
v -0.124085 -1.114479 -1.030070
v -0.131479 -1.045663 -1.045663
v -0.124085 1.030070 1.114479
v -0.124085 1.114479 1.030070
v -0.131479 1.045663 1.045663
v -0.124085 -1.114479 1.030070
v -0.124085 -1.030070 1.114479
v -0.131479 -1.045663 1.045663
vn -0.0000 -1.0000 -0.0000
vn -1.0000 -0.0000 -0.0000
vn -0.0000 -0.0000 -1.0000
vn -0.0000 -0.0000 1.0000
vn -0.0000 1.0000 -0.0000
vn -0.0000 -0.7071 -0.7071
vn -0.0000 0.7071 0.7071
vn -0.0000 -0.7071 0.7071
vn -0.0000 0.7071 -0.7071
vn 1.0000 -0.0000 -0.0000
vn 0.1530 0.9882 -0.0000
vn 0.1530 -0.0000 0.9882
vn 0.1530 -0.0000 -0.9882
vn 0.1530 -0.9882 -0.0000
vn 0.9812 -0.1363 0.1363
vn 0.9812 0.1363 0.1363
vn 0.9812 -0.1363 -0.1363
vn 0.9812 0.1363 -0.1363
vn 0.9974 -0.0000 0.0723
vn 0.9974 -0.0723 -0.0000
vn 0.9974 0.0723 -0.0000
vn 0.9974 -0.0000 -0.0723
vt 0.875000 0.750000
vt 0.875000 0.500000
vt 0.375000 0.000000
vt 0.625000 0.000000
vt 0.625000 0.250000
vt 0.375000 0.250000
vt 0.375000 1.000000
vt 0.625000 1.000000
vt 0.125000 0.500000
vt 0.125000 0.750000
vt 0.616447 0.250000
vt 0.125000 0.508553
vt 0.616447 1.000000
vt 0.125000 0.741447
vt 0.375000 0.508553
vt 0.380702 0.500000
vt 0.625000 0.744298
vt 0.616447 0.750000
vt 0.375000 0.741447
vt 0.380702 0.750000
vt 0.625000 0.505702
vt 0.616447 0.500000
vt 0.383553 0.250000
vt 0.875000 0.508553
vt 0.875000 0.741447
vt 0.383553 1.000000
s 0
usemtl Material.003
f 3/1/1 4/2/1 8/2/1 7/1/1
f 6/3/2 7/4/2 8/5/2 5/6/2
f 2/7/3 3/8/3 7/8/3 6/7/3
f 4/5/4 1/6/4 5/6/4 8/5/4
f 1/9/5 2/10/5 6/10/5 5/9/5
f 17/5/2 18/11/2 19/5/2
f 20/9/2 21/12/2 22/9/2
f 23/13/2 24/8/2 25/8/2
f 26/14/2 27/10/2 28/10/2
f 11/15/6 21/12/6 20/9/6 12/16/6
f 13/17/7 24/8/7 23/13/7 14/18/7
f 26/14/8 16/19/8 15/20/8 27/10/8
f 17/5/9 10/21/9 9/22/9 18/11/9
f 20/23/3 18/11/3 9/22/3 12/16/3
f 11/15/10 12/16/10 9/22/10 10/21/10 13/17/10 14/18/10 15/20/10 16/19/10
f 10/21/5 17/24/5 24/25/5 13/17/5
f 21/12/1 11/15/1 16/19/1 26/14/1
f 15/20/4 14/18/4 23/13/4 27/26/4
f 19/5/2 18/11/2 20/23/2 22/6/2 1/6/2 4/5/2
f 25/1/2 24/25/2 17/24/2 19/2/2 4/2/2 3/1/2
f 22/9/2 21/12/2 26/14/2 28/10/2 2/10/2 1/9/2
f 28/7/2 27/26/2 23/13/2 25/8/2 3/8/2 2/7/2
usemtl Material.004
f 31/1/11 35/1/11 36/2/11 32/2/11
f 34/3/10 33/6/10 36/5/10 35/4/10
f 30/7/12 34/7/12 35/8/12 31/8/12
f 32/5/13 36/5/13 33/6/13 29/6/13
f 29/9/14 33/9/14 34/10/14 30/10/14
f 45/5/15 47/5/15 46/11/15
f 48/9/16 50/9/16 49/12/16
f 51/13/17 53/8/17 52/8/17
f 54/14/18 56/10/18 55/10/18
f 39/15/7 40/16/7 48/9/7 49/12/7
f 41/17/6 42/18/6 51/13/6 52/8/6
f 54/14/9 55/10/9 43/20/9 44/19/9
f 45/5/8 46/11/8 37/22/8 38/21/8
f 48/23/4 40/16/4 37/22/4 46/11/4
f 39/15/2 44/19/2 43/20/2 42/18/2 41/17/2 38/21/2 37/22/2 40/16/2
f 38/21/1 41/17/1 52/25/1 45/24/1
f 49/12/5 54/14/5 44/19/5 39/15/5
f 43/20/3 55/26/3 51/13/3 42/18/3
f 47/5/19 32/5/19 29/6/19 50/6/19 48/23/19 46/11/19
f 53/1/20 31/1/20 32/2/20 47/2/20 45/24/20 52/25/20
f 50/9/21 29/9/21 30/10/21 56/10/21 54/14/21 49/12/21
f 56/7/22 30/7/22 31/8/22 53/8/22 51/13/22 55/26/22
