# Blender 5.0.1
# www.blender.org
mtllib morro.mtl
o Cube
v 5.458274 1.898672 -1.898672
v 5.458274 -1.898672 -1.898672
v 5.458274 -1.898672 1.898672
v -5.458274 1.898672 -1.898672
v -5.458274 -1.898672 -1.898672
v -5.458274 -1.898672 1.898672
v 5.458274 1.139203 -1.898672
v 5.458274 0.379734 -1.898672
v 5.458274 -0.379734 -1.898672
v 5.458274 -1.139203 -1.898672
v -5.458274 -1.139203 1.639306
v 5.458274 -1.139203 1.639306
v -5.458274 1.139203 -1.898672
v -5.458274 0.379734 -1.898672
v -5.458274 -0.379734 -1.898672
v -5.458274 -1.139203 -1.898672
v 5.458274 1.898672 -0.078405
v 5.458274 1.583015 0.496201
v -5.458274 1.583015 0.496201
v -5.458274 1.898672 -0.078405
v -5.458274 -0.016860 1.448965
v -5.458274 0.672039 1.209317
v -5.458274 0.379734 1.081306
v 5.458274 0.672039 1.209317
v 5.458274 -0.016860 1.448965
v 5.458274 0.379734 1.081306
v -5.458274 -0.587266 1.480980
v -5.458274 -0.164451 1.437774
v -5.458274 -0.379734 1.205548
v -5.458274 0.980532 0.924658
v -5.458274 1.321421 0.662445
v -5.458274 1.139203 0.562344
v 5.458274 1.321421 0.662445
v 5.458274 0.980532 0.924658
v 5.458274 1.139203 0.562344
v 5.458274 -0.164451 1.437774
v 5.458274 -0.587266 1.480980
v 5.458274 -0.379734 1.205548
v 0.000000 -1.898672 -1.677592
v 0.000000 1.898672 -1.677592
v 0.000000 -1.139203 -1.677592
v 0.000000 -0.379734 -1.677592
v 0.000000 0.379734 -1.677592
v 0.000000 1.139203 -1.677592
v 0.497830 -1.898672 2.099587
v -0.497830 -1.898672 2.099587
v 0.000000 -1.898672 1.945589
v -0.497837 -1.139203 1.840221
v 0.497837 -1.139203 1.840221
v -0.498551 1.898672 0.122481
v 0.498551 1.898672 0.122481
v 0.000000 1.898672 -0.031488
v 0.498498 1.583015 0.697090
v -0.498498 1.583015 0.697090
v -0.498161 0.672039 1.410220
v 0.498161 0.672039 1.410220
v 0.498018 -0.016860 1.649873
v -0.498018 -0.016860 1.649873
v -0.497917 -0.164451 1.638686
v 0.497917 -0.164451 1.638686
v 0.497861 -0.587266 1.681895
v -0.497861 -0.587266 1.681895
v -0.498398 1.321421 0.863338
v 0.498398 1.321421 0.863338
v 0.498296 0.980532 1.125555
v -0.498296 0.980532 1.125555
v 5.517842 1.920374 -1.921945
v 5.517842 -1.920374 -1.921945
v 5.523288 -1.917336 1.922801
v -5.517842 1.920374 -1.921945
v -5.517842 -1.920374 -1.921945
v -5.523288 -1.917336 1.922801
v 5.530865 1.139203 -1.927033
v 5.530865 0.379734 -1.927033
v 5.530865 -0.379734 -1.927033
v 5.530865 -1.139203 -1.927033
v -5.540193 -1.131698 1.663257
v 5.540193 -1.131698 1.663257
v -5.530865 1.139203 -1.927033
v -5.530865 0.379734 -1.927033
v -5.530865 -0.379734 -1.927033
v -5.530865 -1.139203 -1.927033
v 5.530886 1.926259 -0.071850
v 5.532943 1.603473 0.514878
v -5.532943 1.603473 0.514878
v -5.530886 1.926259 -0.071850
v -5.535309 -0.013331 1.475639
v -5.534694 0.686163 1.232466
v -5.567440 0.379734 1.081306
v 5.534694 0.686163 1.232466
v 5.535309 -0.013331 1.475639
v 5.567440 0.379734 1.081306
v -5.541813 -0.582664 1.504988
v -5.541884 -0.164134 1.462187
v -5.567440 -0.379734 1.205548
v -5.539880 0.996749 0.943976
v -5.540105 1.335800 0.683060
v -5.567440 1.139203 0.562344
v 5.540105 1.335800 0.683060
v 5.539880 0.996749 0.943976
v 5.567440 1.139203 0.562344
v 5.541884 -0.164134 1.462187
v 5.541813 -0.582664 1.504988
v 5.567440 -0.379734 1.205548
v -0.000000 -1.926547 -1.703378
v 0.000000 1.926547 -1.703378
v -0.000000 -1.139203 -1.715566
v 0.000000 -0.379734 -1.715566
v 0.000000 0.379734 -1.715566
v -0.000000 1.139203 -1.715566
v 0.502973 -1.920246 2.130786
v -0.502973 -1.920246 2.130786
v -0.000000 -1.936645 1.945589
v -0.503877 -1.127836 1.876392
v 0.503877 -1.127836 1.876392
v -0.500235 1.935365 0.132241
v 0.500235 1.935365 0.132241
v 0.000000 1.936645 -0.031488
v 0.502868 1.610517 0.723230
v -0.502868 1.610517 0.723230
v -0.503581 0.691416 1.442822
v 0.503581 0.691416 1.442822
v 0.504245 -0.011997 1.687472
v -0.504245 -0.011997 1.687472
v -0.504260 -0.163954 1.676592
v 0.504260 -0.163954 1.676592
v 0.504090 -0.580060 1.719115
v -0.504090 -0.580060 1.719115
v -0.503586 1.343208 0.894387
v 0.503586 1.343208 0.894387
v 0.503138 1.005015 1.154532
v -0.503138 1.005015 1.154532
vn -0.0405 -0.0000 -0.9992
vn 1.0000 -0.0000 -0.0000
vn -1.0000 -0.0000 -0.0000
vn 0.0405 -0.0000 -0.9992
vn -0.0000 -1.0000 -0.0000
vn -0.0000 1.0000 -0.0000
vn -0.0000 0.6782 0.7349
vn -0.0000 0.5364 0.8440
vn -0.0000 -0.0756 0.9971
vn -0.0000 0.2757 0.9612
vn -0.0000 0.6097 0.7926
vn -0.0000 0.1017 0.9948
vn -0.0000 0.3286 0.9445
vn -0.0000 0.8765 0.4815
vn -0.0000 0.3232 0.9463
vn 0.0383 0.3229 0.9456
vn -0.0383 0.3229 0.9456
vn -0.0389 0.2755 0.9605
vn 0.0389 0.2755 0.9605
vn 0.0195 0.8763 0.4814
vn -0.0195 0.8763 0.4814
vn -0.0342 0.5360 0.8435
vn 0.0342 0.5360 0.8435
vn -0.0298 0.6778 0.7346
vn 0.0382 0.3283 0.9438
vn -0.0382 0.3283 0.9438
vn 0.0298 0.6778 0.7346
vn -0.0404 -0.0755 0.9963
vn 0.0404 -0.0755 0.9963
vn 0.0403 0.1016 0.9940
vn -0.0403 0.1016 0.9940
vn 0.0321 0.6094 0.7922
vn -0.0321 0.6094 0.7922
vn 0.0389 -0.0107 0.9992
vn 0.0389 0.0107 0.9992
vn 0.0382 -0.0000 0.9993
vn -0.9998 0.0194 0.0020
vn 0.9998 0.0194 0.0020
vn 0.9912 -0.0443 -0.1249
vn -0.9912 -0.0443 -0.1249
vn 0.9958 -0.0092 -0.0914
vn 0.9920 -0.0764 -0.1002
vn -0.9920 -0.0764 -0.1002
vn -0.9958 -0.0092 -0.0914
vn 0.9998 0.0189 0.0040
vn 1.0000 -0.0002 0.0058
vn 1.0000 -0.0009 0.0051
vn 0.9995 -0.0315 0.0062
vn -1.0000 -0.0009 0.0051
vn -0.9995 -0.0315 0.0062
vn -0.9998 0.0189 0.0040
vn -1.0000 -0.0002 0.0058
vn -0.0382 -0.0000 0.9993
vn -0.0389 0.0107 0.9992
vn -0.0389 -0.0107 0.9992
vn -0.0000 0.9961 -0.0882
vn -0.0000 -1.0000 -0.0078
vn -0.0000 -0.6768 -0.7362
vn -0.0000 -0.5392 -0.8422
vn -0.0000 0.0714 -0.9974
vn -0.0000 -0.2760 -0.9612
vn -0.0000 -0.6097 -0.7926
vn -0.0000 -0.1017 -0.9948
vn -0.0000 -0.3285 -0.9445
vn -0.0000 -0.8763 -0.4817
vn -0.0000 -0.3057 -0.9521
vn -0.0398 -0.3090 -0.9502
vn 0.0023 1.0000 -0.0010
vn 0.0398 -0.3090 -0.9502
vn -0.0023 1.0000 -0.0010
vn 0.0409 -0.2762 -0.9602
vn -0.0409 -0.2762 -0.9602
vn 0.0014 -1.0000 0.0042
vn -0.0212 -0.8761 -0.4817
vn 0.0212 -0.8761 -0.4817
vn -0.0014 -1.0000 0.0042
vn 0.0359 -0.5357 -0.8437
vn -0.0359 -0.5357 -0.8437
vn 0.0316 -0.6782 -0.7342
vn -0.0398 -0.3282 -0.9438
vn 0.0398 -0.3282 -0.9438
vn -0.0316 -0.6782 -0.7342
vn 0.0422 0.0791 -0.9960
vn -0.0422 0.0791 -0.9960
vn -0.0423 -0.1016 -0.9939
vn 0.0423 -0.1016 -0.9939
vn -0.0341 -0.6094 -0.7921
vn 0.0341 -0.6094 -0.7921
vt 0.575000 0.375000
vt 0.625000 0.375000
vt 0.625000 0.500000
vt 0.575000 0.500000
vt 0.375000 0.375000
vt 0.425000 0.375000
vt 0.425000 0.500000
vt 0.375000 0.500000
vt 0.475000 0.375000
vt 0.475000 0.500000
vt 0.525000 0.375000
vt 0.525000 0.500000
vt 0.425000 0.750000
vt 0.375000 0.750000
vt 0.375000 0.000000
vt 0.425000 0.000000
vt 0.425000 0.250000
vt 0.375000 0.250000
vt 0.498890 0.000000
vt 0.534622 0.009982
vt 0.525000 0.029438
vt 0.544244 0.750000
vt 0.502139 0.750000
vt 0.525000 0.720562
vt 0.461337 0.000000
vt 0.482087 0.000000
vt 0.475000 0.016257
vt 0.561286 0.003390
vt 0.580998 0.005407
vt 0.575000 0.020163
vt 0.586996 0.750000
vt 0.564214 0.750000
vt 0.575000 0.729837
vt 0.491100 0.750000
vt 0.461040 0.750000
vt 0.475000 0.733743
vt 0.475000 0.250000
vt 0.525000 0.250000
vt 0.575000 0.250000
vt 0.604219 0.000000
vt 0.625000 0.042612
vt 0.625000 0.250000
vt 0.625000 0.721592
vt 0.604219 0.750000
vt 0.255700 0.749336
vt 0.238599 0.750000
vt 0.250000 0.738534
vt 0.761417 0.713842
vt 0.744291 0.713625
vt 0.750000 0.693968
vt 0.564399 0.886411
vt 0.544244 0.886408
vt 0.544244 0.863592
vt 0.564368 0.863589
vt 0.604219 0.886416
vt 0.586996 0.886414
vt 0.586996 0.863586
vt 0.604219 0.863584
vt 0.500366 0.886405
vt 0.490049 0.886403
vt 0.490225 0.863597
vt 0.500663 0.863595
vt 0.461202 0.886402
vt 0.425000 0.886401
vt 0.425000 0.863599
vt 0.461175 0.863598
vt 0.625000 0.873511
vt 0.625000 0.848081
vt 0.375000 0.886401
vt 0.375000 0.863599
vt 0.125000 0.500000
vt 0.250000 0.500000
vt 0.125000 0.750000
vt 0.425000 1.000000
vt 0.375000 1.000000
vt 0.461337 1.000000
vt 0.750000 0.500000
vt 0.875000 0.500000
vt 0.875000 0.707388
vt 0.625000 1.000000
vt 0.604219 1.000000
vt 0.586996 1.000000
vt 0.564554 1.000000
vt 0.544244 1.000000
vt 0.498890 1.000000
vt 0.489173 1.000000
s 0
usemtl Material
f 44/1/1 40/2/1 1/3/1 7/4/1
f 39/5/1 41/6/1 10/7/1 2/8/1
f 41/6/1 42/9/1 9/10/1 10/7/1
f 42/9/1 43/11/1 8/12/1 9/10/1
f 43/11/1 44/1/1 7/4/1 8/12/1
f 2/8/2 10/7/2 12/13/2 3/14/2
f 6/15/3 11/16/3 16/17/3 5/18/3
f 21/19/3 22/20/3 23/21/3
f 24/22/2 25/23/2 26/24/2
f 27/25/3 28/26/3 29/27/3
f 30/28/3 31/29/3 32/30/3
f 33/31/2 34/32/2 35/33/2
f 36/34/2 37/35/2 38/36/2
f 11/16/3 27/25/3 29/27/3 15/37/3 16/17/3
f 29/27/3 28/26/3 21/19/3 23/21/3 14/38/3 15/37/3
f 23/21/3 22/20/3 30/28/3 32/30/3 13/39/3 14/38/3
f 32/30/3 31/29/3 19/40/3 20/41/3 4/42/3 13/39/3
f 8/12/2 7/4/2 35/33/2 34/32/2 24/22/2 26/24/2
f 7/4/2 1/3/2 17/43/2 18/44/2 33/31/2 35/33/2
f 10/7/2 9/10/2 38/36/2 37/35/2 12/13/2
f 9/10/2 8/12/2 26/24/2 25/23/2 36/34/2 38/36/2
f 14/38/4 13/39/4 44/1/4 43/11/4
f 15/37/4 14/38/4 43/11/4 42/9/4
f 16/17/4 15/37/4 42/9/4 41/6/4
f 5/18/4 16/17/4 41/6/4 39/5/4
f 13/39/4 4/42/4 40/2/4 44/1/4
f 45/45/5 46/46/5 47/47/5
f 50/48/6 51/49/6 52/50/6
f 66/51/7 55/52/7 56/53/7 65/54/7
f 54/55/8 63/56/8 64/57/8 53/58/8
f 58/59/9 59/60/9 60/61/9 57/62/9
f 62/63/10 48/64/10 49/65/10 61/66/10
f 63/56/11 66/51/11 65/54/11 64/57/11
f 59/60/12 62/63/12 61/66/12 60/61/12
f 55/52/13 58/59/13 57/62/13 56/53/13
f 50/67/14 54/55/14 53/58/14 51/68/14
f 48/64/15 46/69/15 45/70/15 49/65/15
f 3/14/16 12/13/16 49/65/16 45/70/16
f 5/71/5 39/72/5 47/47/5 46/46/5 6/73/5
f 46/69/17 48/64/17 11/74/17 6/75/17
f 39/72/5 2/8/5 3/14/5 45/45/5 47/47/5
f 48/64/18 62/63/18 27/76/18 11/74/18
f 12/13/19 37/35/19 61/66/19 49/65/19
f 40/77/6 4/78/6 20/79/6 50/48/6 52/50/6
f 17/43/20 51/68/20 53/58/20 18/44/20
f 50/67/21 20/80/21 19/81/21 54/55/21
f 1/3/6 40/77/6 52/50/6 51/49/6 17/43/6
f 63/56/22 54/55/22 19/81/22 31/82/22
f 33/31/23 18/44/23 53/58/23 64/57/23
f 55/52/24 66/51/24 30/83/24 22/84/24
f 24/22/25 56/53/25 57/62/25 25/23/25
f 55/52/26 22/84/26 21/85/26 58/59/26
f 24/22/27 34/32/27 65/54/27 56/53/27
f 59/60/28 58/59/28 21/85/28 28/86/28
f 36/34/29 25/23/29 57/62/29 60/61/29
f 36/34/30 60/61/30 61/66/30 37/35/30
f 59/60/31 28/86/31 27/76/31 62/63/31
f 33/31/32 64/57/32 65/54/32 34/32/32
f 63/56/33 31/82/33 30/83/33 66/51/33
usemtl Material.001
f 110/1/34 73/4/34 67/3/34 106/2/34
f 105/5/35 68/8/35 76/7/35 107/6/35
f 107/6/36 76/7/36 75/10/36 108/9/36
f 108/9/36 75/10/36 74/12/36 109/11/36
f 109/11/36 74/12/36 73/4/36 110/1/36
f 68/8/37 69/14/37 78/13/37 76/7/37
f 72/15/38 71/18/38 82/17/38 77/16/38
f 87/19/39 89/21/39 88/20/39
f 90/22/40 92/24/40 91/23/40
f 93/25/41 95/27/41 94/26/41
f 96/28/42 98/30/42 97/29/42
f 99/31/43 101/33/43 100/32/43
f 102/34/44 104/36/44 103/35/44
f 77/16/45 82/17/45 81/37/45 95/27/45 93/25/45
f 95/27/46 81/37/46 80/38/46 89/21/46 87/19/46 94/26/46
f 89/21/47 80/38/47 79/39/47 98/30/47 96/28/47 88/20/47
f 98/30/48 79/39/48 70/42/48 86/41/48 85/40/48 97/29/48
f 74/12/49 92/24/49 90/22/49 100/32/49 101/33/49 73/4/49
f 73/4/50 101/33/50 99/31/50 84/44/50 83/43/50 67/3/50
f 76/7/51 78/13/51 103/35/51 104/36/51 75/10/51
f 75/10/52 104/36/52 102/34/52 91/23/52 92/24/52 74/12/52
f 80/38/53 109/11/53 110/1/53 79/39/53
f 81/37/53 108/9/53 109/11/53 80/38/53
f 82/17/53 107/6/53 108/9/53 81/37/53
f 71/18/54 105/5/54 107/6/54 82/17/54
f 79/39/55 110/1/55 106/2/55 70/42/55
f 111/45/56 113/47/56 112/46/56
f 116/48/57 118/50/57 117/49/57
f 132/51/58 131/54/58 122/53/58 121/52/58
f 120/55/59 119/58/59 130/57/59 129/56/59
f 124/59/60 123/62/60 126/61/60 125/60/60
f 128/63/61 127/66/61 115/65/61 114/64/61
f 129/56/62 130/57/62 131/54/62 132/51/62
f 125/60/63 126/61/63 127/66/63 128/63/63
f 121/52/64 122/53/64 123/62/64 124/59/64
f 116/67/65 117/68/65 119/58/65 120/55/65
f 114/64/66 115/65/66 111/70/66 112/69/66
f 69/14/67 111/70/67 115/65/67 78/13/67
f 71/71/68 72/73/68 112/46/68 113/47/68 105/72/68
f 112/69/69 72/75/69 77/74/69 114/64/69
f 105/72/70 113/47/70 111/45/70 69/14/70 68/8/70
f 114/64/71 77/74/71 93/76/71 128/63/71
f 78/13/72 115/65/72 127/66/72 103/35/72
f 106/77/73 118/50/73 116/48/73 86/79/73 70/78/73
f 83/43/74 84/44/74 119/58/74 117/68/74
f 116/67/75 120/55/75 85/81/75 86/80/75
f 67/3/76 83/43/76 117/49/76 118/50/76 106/77/76
f 129/56/77 97/82/77 85/81/77 120/55/77
f 99/31/78 130/57/78 119/58/78 84/44/78
f 121/52/79 88/84/79 96/83/79 132/51/79
f 90/22/80 91/23/80 123/62/80 122/53/80
f 121/52/81 124/59/81 87/85/81 88/84/81
f 90/22/82 122/53/82 131/54/82 100/32/82
f 125/60/83 94/86/83 87/85/83 124/59/83
f 102/34/84 126/61/84 123/62/84 91/23/84
f 102/34/85 103/35/85 127/66/85 126/61/85
f 125/60/86 128/63/86 93/76/86 94/86/86
f 99/31/87 100/32/87 131/54/87 130/57/87
f 129/56/88 132/51/88 96/83/88 97/82/88
