# Blender 5.0.1
# www.blender.org
mtllib OR.mtl
o Cube
v -0.111479 -0.951677 -0.951677
v -0.111479 -0.951677 0.951677
v -0.111479 0.951677 0.951677
v -0.111479 0.951677 -0.951677
v -0.078877 -0.951677 -0.951677
v -0.078877 -0.951677 0.951677
v -0.078877 0.951677 0.951677
v -0.078877 0.951677 -0.951677
v 0.111479 0.931578 -1.000000
v 0.111479 1.000000 -0.931578
v 0.111479 -1.000000 -0.931578
v 0.111479 -0.931578 -1.000000
v 0.111479 1.000000 0.931578
v 0.111479 0.931578 1.000000
v 0.111479 -0.931578 1.000000
v 0.111479 -1.000000 0.931578
v -0.111479 1.000000 -0.931578
v -0.111479 0.931578 -1.000000
v -0.111479 0.951713 -0.951713
v -0.111479 -0.931578 -1.000000
v -0.111479 -1.000000 -0.931578
v -0.111479 -0.951713 -0.951713
v -0.111479 0.931578 1.000000
v -0.111479 1.000000 0.931578
v -0.111479 0.951713 0.951713
v -0.111479 -1.000000 0.931578
v -0.111479 -0.931578 1.000000
v -0.111479 -0.951713 0.951713
v -0.129570 -0.945647 -0.945647
v -0.129570 -0.945647 0.945647
v -0.129570 0.945647 0.945647
v -0.129570 0.945647 -0.945647
v -0.090424 -0.940130 -0.940130
v -0.090424 -0.940130 0.940130
v -0.090424 0.940130 0.940130
v -0.090424 0.940130 -0.940130
v 0.124084 0.937521 -1.014346
v 0.124084 1.014346 -0.937521
v 0.124084 -1.014346 -0.937521
v 0.124084 -0.937521 -1.014346
v 0.124084 1.014346 0.937521
v 0.124084 0.937521 1.014346
v 0.124084 -0.937521 1.014346
v 0.124084 -1.014346 0.937521
v -0.124085 1.014346 -0.937521
v -0.124085 0.937521 -1.014346
v -0.131479 0.951713 -0.951713
v -0.124085 -0.937521 -1.014346
v -0.124085 -1.014346 -0.937521
v -0.131479 -0.951713 -0.951713
v -0.124085 0.937521 1.014346
v -0.124085 1.014346 0.937521
v -0.131479 0.951713 0.951713
v -0.124085 -1.014346 0.937521
v -0.124085 -0.937521 1.014346
v -0.131479 -0.951713 0.951713
vn -0.0000 -1.0000 -0.0000
vn -1.0000 -0.0000 -0.0000
vn -0.0000 -0.0000 -1.0000
vn -0.0000 -0.0000 1.0000
vn -0.0000 1.0000 -0.0000
vn -0.0000 -0.7071 -0.7071
vn -0.0000 0.7071 0.7071
vn -0.0000 -0.7071 0.7071
vn -0.0000 0.7071 -0.7071
vn 1.0000 -0.0000 -0.0000
vn 0.1395 0.9902 -0.0000
vn 0.1395 -0.0000 0.9902
vn 0.1395 -0.0000 -0.9902
vn 0.1395 -0.9902 -0.0000
vn 0.9775 -0.1492 0.1492
vn 0.9775 0.1492 0.1492
vn 0.9775 -0.1492 -0.1492
vn 0.9775 0.1492 -0.1492
vn 0.9968 -0.0000 0.0794
vn 0.9968 -0.0794 -0.0000
vn 0.9968 0.0794 -0.0000
vn 0.9968 -0.0000 -0.0794
vt 0.875000 0.750000
vt 0.875000 0.500000
vt 0.375000 0.000000
vt 0.625000 0.000000
vt 0.625000 0.250000
vt 0.375000 0.250000
vt 0.375000 1.000000
vt 0.625000 1.000000
vt 0.125000 0.500000
vt 0.125000 0.750000
vt 0.616447 0.250000
vt 0.125000 0.508553
vt 0.616447 1.000000
vt 0.125000 0.741447
vt 0.375000 0.508553
vt 0.380702 0.500000
vt 0.625000 0.744298
vt 0.616447 0.750000
vt 0.375000 0.741447
vt 0.380702 0.750000
vt 0.625000 0.505702
vt 0.616447 0.500000
vt 0.383553 0.250000
vt 0.875000 0.508553
vt 0.875000 0.741447
vt 0.383553 1.000000
s 0
usemtl Material
f 3/1/1 4/2/1 8/2/1 7/1/1
f 6/3/2 7/4/2 8/5/2 5/6/2
f 2/7/3 3/8/3 7/8/3 6/7/3
f 4/5/4 1/6/4 5/6/4 8/5/4
f 1/9/5 2/10/5 6/10/5 5/9/5
f 17/5/2 18/11/2 19/5/2
f 20/9/2 21/12/2 22/9/2
f 23/13/2 24/8/2 25/8/2
f 26/14/2 27/10/2 28/10/2
f 11/15/6 21/12/6 20/9/6 12/16/6
f 13/17/7 24/8/7 23/13/7 14/18/7
f 26/14/8 16/19/8 15/20/8 27/10/8
f 17/5/9 10/21/9 9/22/9 18/11/9
f 20/23/3 18/11/3 9/22/3 12/16/3
f 11/15/10 12/16/10 9/22/10 10/21/10 13/17/10 14/18/10 15/20/10 16/19/10
f 10/21/5 17/24/5 24/25/5 13/17/5
f 21/12/1 11/15/1 16/19/1 26/14/1
f 15/20/4 14/18/4 23/13/4 27/26/4
f 19/5/2 18/11/2 20/23/2 22/6/2 1/6/2 4/5/2
f 25/1/2 24/25/2 17/24/2 19/2/2 4/2/2 3/1/2
f 22/9/2 21/12/2 26/14/2 28/10/2 2/10/2 1/9/2
f 28/7/2 27/26/2 23/13/2 25/8/2 3/8/2 2/7/2
usemtl Material.001
f 31/1/11 35/1/11 36/2/11 32/2/11
f 34/3/10 33/6/10 36/5/10 35/4/10
f 30/7/12 34/7/12 35/8/12 31/8/12
f 32/5/13 36/5/13 33/6/13 29/6/13
f 29/9/14 33/9/14 34/10/14 30/10/14
f 45/5/15 47/5/15 46/11/15
f 48/9/16 50/9/16 49/12/16
f 51/13/17 53/8/17 52/8/17
f 54/14/18 56/10/18 55/10/18
f 39/15/7 40/16/7 48/9/7 49/12/7
f 41/17/6 42/18/6 51/13/6 52/8/6
f 54/14/9 55/10/9 43/20/9 44/19/9
f 45/5/8 46/11/8 37/22/8 38/21/8
f 48/23/4 40/16/4 37/22/4 46/11/4
f 39/15/2 44/19/2 43/20/2 42/18/2 41/17/2 38/21/2 37/22/2 40/16/2
f 38/21/1 41/17/1 52/25/1 45/24/1
f 49/12/5 54/14/5 44/19/5 39/15/5
f 43/20/3 55/26/3 51/13/3 42/18/3
f 47/5/19 32/5/19 29/6/19 50/6/19 48/23/19 46/11/19
f 53/1/20 31/1/20 32/2/20 47/2/20 45/24/20 52/25/20
f 50/9/21 29/9/21 30/10/21 56/10/21 54/14/21 49/12/21
f 56/7/22 30/7/22 31/8/22 53/8/22 51/13/22 55/26/22
o Cube.001
v -0.223408 -0.503872 0.000000
v -0.223408 0.627441 0.000000
v -0.090424 -0.503872 0.000000
v -0.090424 0.627441 0.000000
v -0.223408 0.627441 -0.217817
v -0.223408 0.126927 -0.718331
v -0.223408 0.560385 -0.468074
v -0.223408 0.377184 -0.651274
v -0.090424 0.126927 -0.718331
v -0.090424 0.627441 -0.217817
v -0.090424 0.377184 -0.651274
v -0.090424 0.560385 -0.468074
v -0.223408 -0.587651 -0.538748
v -0.223408 -0.530865 -0.359165
v -0.223408 -0.519258 -0.179583
v -0.090424 -0.519258 -0.179583
v -0.090424 -0.530865 -0.359165
v -0.090424 -0.587651 -0.538748
v -0.223408 -0.646990 -0.718331
v -0.223408 -0.668944 -0.680423
v -0.090424 -0.668944 -0.680423
v -0.090424 -0.646990 -0.718331
v -0.090424 0.627441 -0.081622
v -0.223408 0.627441 -0.081622
v -0.090424 0.795961 0.000000
v -0.223408 0.795961 0.000000
v -0.223408 0.795961 -0.081622
v -0.090424 0.795961 -0.081622
v -0.223408 -0.786903 -0.342617
v -0.223408 -0.775297 -0.163035
v -0.090424 -0.775297 -0.163035
v -0.090424 -0.786903 -0.342617
v -0.223408 0.627441 0.217817
v -0.223408 0.126927 0.718331
v -0.223408 0.560385 0.468074
v -0.223408 0.377184 0.651274
v -0.090424 0.126927 0.718331
v -0.090424 0.627441 0.217817
v -0.090424 0.377184 0.651274
v -0.090424 0.560385 0.468074
v -0.223408 -0.587651 0.538748
v -0.223408 -0.530865 0.359165
v -0.223408 -0.519258 0.179583
v -0.090424 -0.519258 0.179583
v -0.090424 -0.530865 0.359165
v -0.090424 -0.587651 0.538748
v -0.223408 -0.646990 0.718331
v -0.223408 -0.668944 0.680423
v -0.090424 -0.668944 0.680423
v -0.090424 -0.646990 0.718331
v -0.090424 0.627441 0.081622
v -0.223408 0.627441 0.081622
v -0.223408 0.795961 0.081622
v -0.090424 0.795961 0.081622
v -0.223408 -0.786903 0.342617
v -0.223408 -0.775297 0.163035
v -0.090424 -0.775297 0.163035
v -0.090424 -0.786903 0.342617
v -0.224778 -0.518550 0.007366
v -0.225192 0.627441 0.010109
v -0.089053 -0.518550 0.007366
v -0.088640 0.627441 0.010109
v -0.224762 0.643896 -0.219983
v -0.224762 0.129094 -0.734786
v -0.224711 0.575207 -0.476631
v -0.224711 0.385742 -0.666097
v -0.089070 0.129094 -0.734786
v -0.089070 0.643896 -0.219983
v -0.089121 0.385742 -0.666097
v -0.089121 0.575207 -0.476631
v -0.224772 -0.602755 -0.532119
v -0.225238 -0.538283 -0.364240
v -0.225207 -0.525620 -0.172187
v -0.088625 -0.525620 -0.172187
v -0.088594 -0.538283 -0.364240
v -0.089060 -0.602755 -0.532119
v -0.224625 -0.655935 -0.733847
v -0.224625 -0.686854 -0.680459
v -0.089207 -0.686854 -0.680459
v -0.089207 -0.655935 -0.733847
v -0.088620 0.634256 -0.088437
v -0.225212 0.634256 -0.088437
v -0.089094 0.811031 0.007535
v -0.224737 0.811031 0.007535
v -0.224559 0.809012 -0.094673
v -0.089272 0.809012 -0.094673
v -0.224559 -0.800768 -0.354799
v -0.224559 -0.787478 -0.149170
v -0.089272 -0.787478 -0.149170
v -0.089272 -0.800768 -0.354799
v -0.224762 0.643896 0.219983
v -0.224762 0.129094 0.734786
v -0.224711 0.575207 0.476631
v -0.224711 0.385742 0.666097
v -0.089070 0.129094 0.734786
v -0.089070 0.643896 0.219983
v -0.089121 0.385742 0.666097
v -0.089121 0.575207 0.476631
v -0.224772 -0.602755 0.532119
v -0.225238 -0.538283 0.364240
v -0.225207 -0.525620 0.172187
v -0.088625 -0.525620 0.172187
v -0.088594 -0.538283 0.364240
v -0.089060 -0.602755 0.532119
v -0.224625 -0.655935 0.733847
v -0.224625 -0.686854 0.680459
v -0.089207 -0.686854 0.680459
v -0.089207 -0.655935 0.733847
v -0.088620 0.634256 0.088437
v -0.225212 0.634256 0.088437
v -0.224559 0.809012 0.094673
v -0.089272 0.809012 0.094673
v -0.224559 -0.800768 0.354799
v -0.224559 -0.787478 0.149170
v -0.089272 -0.787478 0.149170
v -0.089272 -0.800768 0.354799
vn -0.0000 -0.0000 1.0000
vn -0.0000 -0.9963 0.0854
vn -0.0000 0.9659 -0.2588
vn -0.0000 0.7071 -0.7071
vn -0.0000 0.2588 -0.9659
vn -0.0000 -0.9535 0.3015
vn -0.0000 -0.0645 -0.9979
vn -0.0000 -0.8654 -0.5012
vn -0.0000 -0.8674 0.4977
vn -0.0000 -0.0000 -1.0000
vn -1.0000 -0.0000 -0.0000
vn 1.0000 -0.0000 -0.0000
vn -0.0000 1.0000 -0.0000
vn -0.0000 -0.9979 0.0645
vn -0.0000 0.0645 0.9979
vn -0.0000 -0.9963 -0.0854
vn -0.0000 0.9659 0.2588
vn -0.0000 0.7071 0.7071
vn -0.0000 0.2588 0.9659
vn -0.0000 -0.9535 -0.3015
vn -0.0000 -0.0645 0.9979
vn -0.0000 -0.8654 0.5012
vn -0.0000 -0.8674 -0.4977
vn -0.0000 -0.9979 -0.0645
vn -0.0000 0.0645 -0.9979
vn -0.0000 0.0024 -1.0000
vn -0.0000 0.9992 -0.0393
vn -0.0000 -0.9660 0.2585
vn -0.0000 -0.7071 0.7071
vn -0.0000 -0.2585 0.9660
vn -0.0000 -0.0140 -0.9999
vn -0.0000 0.9335 -0.3585
vn -0.0000 0.0359 0.9994
vn -0.0000 0.8654 0.5012
vn -0.0000 0.8699 -0.4932
vn -0.0000 0.0012 1.0000
vn 1.0000 -0.0001 0.0004
vn -1.0000 -0.0001 0.0004
vn -0.0000 -0.9973 -0.0731
vn -0.0000 -0.9998 0.0197
vn -0.0000 0.0357 0.9994
vn -1.0000 -0.0031 0.0007
vn 1.0000 -0.0031 0.0007
vn -0.0000 0.9979 -0.0645
vn -0.0000 -0.0876 -0.9962
vn -1.0000 0.0025 -0.0002
vn 1.0000 0.0025 -0.0002
vn -0.0000 0.9991 0.0429
vn -0.0000 -0.9660 -0.2585
vn -0.0000 -0.7071 -0.7071
vn -0.0000 -0.2585 -0.9660
vn -0.0000 0.9335 0.3585
vn -0.0000 0.0359 -0.9994
vn -0.0000 0.8654 -0.5012
vn -0.0000 0.8699 0.4932
vn -0.0000 0.0012 -1.0000
vn 1.0000 -0.0001 -0.0004
vn -1.0000 -0.0001 -0.0004
vn -0.0000 -0.9973 0.0731
vn -0.0000 -0.9997 -0.0232
vn -0.0000 0.0357 -0.9994
vn -1.0000 -0.0031 -0.0009
vn 1.0000 -0.0031 -0.0009
vn -0.0000 0.9979 0.0645
vn -0.0000 -0.0876 0.9962
vn -1.0000 0.0025 0.0002
vn 1.0000 0.0025 0.0002
vt 0.375000 0.750000
vt 0.625000 0.750000
vt 0.625000 1.000000
vt 0.375000 1.000000
vt 0.125000 0.687500
vt 0.375000 0.687500
vt 0.125000 0.750000
vt 0.875000 0.674193
vt 0.625000 0.674193
vt 0.620547 0.529032
vt 0.875000 0.500000
vt 0.618320 0.206452
vt 0.575143 0.507779
vt 0.575143 0.242221
vt 0.525287 0.500000
vt 0.525287 0.250000
vt 0.125000 0.562500
vt 0.375000 0.562500
vt 0.375000 0.625000
vt 0.125000 0.625000
vt 0.375000 0.513193
vt 0.125000 0.513193
vt 0.125000 0.500000
vt 0.380356 0.500000
vt 0.383033 0.250000
vt 0.375000 0.000000
vt 0.625000 0.000000
vt 0.625000 0.028407
vt 0.625000 0.075807
vt 0.375000 0.236807
vt 0.375000 0.187500
vt 0.375000 0.125000
vt 0.375000 0.062500
vt 0.625000 0.721593
vt 0.875000 0.721593
vt 0.875000 0.750000
s 0
usemtl Material.002
f 59/27/23 60/28/23 58/29/23 57/30/23
f 71/31/24 72/32/24 59/27/24 57/33/24
f 61/34/25 66/35/25 68/36/25 63/37/25
f 63/38/26 68/36/26 67/39/26 64/40/26
f 64/40/27 67/39/27 65/41/27 62/42/27
f 58/29/23 60/28/23 81/28/23 82/29/23
f 69/43/28 74/44/28 73/45/28 70/46/28
f 70/46/29 73/45/29 88/45/29 85/46/29
f 77/47/30 76/48/30 75/49/30 78/50/30
f 76/48/31 77/47/31 74/44/31 69/43/31
f 75/51/32 62/42/32 65/41/32 78/50/32
f 57/52/33 58/53/33 80/54/33 61/55/33 63/38/33 64/40/33 62/42/33 75/51/33 76/56/33 69/57/33 70/58/33 71/59/33
f 77/47/34 78/50/34 65/41/34 67/39/34 68/36/34 66/35/34 79/60/34 60/28/34 59/27/34 72/32/34 73/45/34 74/44/34
f 66/35/35 61/34/35 80/61/35 79/60/35
f 84/60/35 83/61/35 82/62/35 81/28/35
f 79/60/32 80/61/32 83/61/32 84/60/32
f 60/28/34 79/60/34 84/60/34 81/28/34
f 80/54/33 58/53/33 82/53/33 83/54/33
f 85/46/36 88/45/36 87/32/36 86/31/36
f 72/32/37 71/31/37 86/31/37 87/32/37
f 73/45/34 72/32/34 87/32/34 88/45/34
f 71/59/33 70/58/33 85/58/33 86/59/33
f 99/31/38 57/33/38 59/27/38 100/32/38
f 89/34/39 91/37/39 96/36/39 94/35/39
f 91/38/40 92/40/40 95/39/40 96/36/40
f 92/40/41 90/42/41 93/41/41 95/39/41
f 97/43/42 98/46/42 101/45/42 102/44/42
f 98/46/43 111/46/43 114/45/43 101/45/43
f 105/47/44 106/50/44 103/49/44 104/48/44
f 104/48/45 97/43/45 102/44/45 105/47/45
f 103/51/23 106/50/23 93/41/23 90/42/23
f 57/52/33 99/59/33 98/58/33 97/57/33 104/56/33 103/51/33 90/42/33 92/40/33 91/38/33 89/55/33 108/54/33 58/53/33
f 105/47/34 102/44/34 101/45/34 100/32/34 59/27/34 60/28/34 107/60/34 94/35/34 96/36/34 95/39/34 93/41/34 106/50/34
f 94/35/35 107/60/35 108/61/35 89/34/35
f 110/60/35 81/28/35 82/62/35 109/61/35
f 107/60/23 110/60/23 109/61/23 108/61/23
f 60/28/34 81/28/34 110/60/34 107/60/34
f 108/54/33 109/54/33 82/53/33 58/53/33
f 111/46/46 112/31/46 113/32/46 114/45/46
f 100/32/47 113/32/47 112/31/47 99/31/47
f 101/45/34 114/45/34 113/32/34 100/32/34
f 99/59/33 112/59/33 111/58/33 98/58/33
usemtl Material.001
f 117/27/48 115/30/48 116/29/48 118/28/48
f 129/31/49 115/33/49 117/27/49 130/32/49
f 119/34/50 121/37/50 126/36/50 124/35/50
f 121/38/51 122/40/51 125/39/51 126/36/51
f 122/40/52 120/42/52 123/41/52 125/39/52
f 116/29/53 140/29/53 139/28/53 118/28/53
f 127/43/54 128/46/54 131/45/54 132/44/54
f 128/46/55 143/46/55 146/45/55 131/45/55
f 135/47/56 136/50/56 133/49/56 134/48/56
f 134/48/57 127/43/57 132/44/57 135/47/57
f 133/51/58 136/50/58 123/41/58 120/42/58
f 115/52/59 129/59/59 128/58/59 127/57/59 134/56/59 133/51/59 120/42/59 122/40/59 121/38/59 119/55/59 138/54/59 116/53/59
f 135/47/60 132/44/60 131/45/60 130/32/60 117/27/60 118/28/60 137/60/60 124/35/60 126/36/60 125/39/60 123/41/60 136/50/60
f 124/35/61 137/60/61 138/61/61 119/34/61
f 142/60/62 139/28/62 140/62/62 141/61/62
f 137/60/63 142/60/63 141/61/63 138/61/63
f 118/28/64 139/28/64 142/60/64 137/60/64
f 138/54/65 141/54/65 140/53/65 116/53/65
f 143/46/66 144/31/66 145/32/66 146/45/66
f 130/32/67 145/32/67 144/31/67 129/31/67
f 131/45/68 146/45/68 145/32/68 130/32/68
f 129/59/69 144/59/69 143/58/69 128/58/69
f 157/31/70 158/32/70 117/27/70 115/33/70
f 147/34/71 152/35/71 154/36/71 149/37/71
f 149/38/72 154/36/72 153/39/72 150/40/72
f 150/40/73 153/39/73 151/41/73 148/42/73
f 155/43/74 160/44/74 159/45/74 156/46/74
f 156/46/75 159/45/75 172/45/75 169/46/75
f 163/47/76 162/48/76 161/49/76 164/50/76
f 162/48/77 163/47/77 160/44/77 155/43/77
f 161/51/78 148/42/78 151/41/78 164/50/78
f 115/52/79 116/53/79 166/54/79 147/55/79 149/38/79 150/40/79 148/42/79 161/51/79 162/56/79 155/57/79 156/58/79 157/59/79
f 163/47/80 164/50/80 151/41/80 153/39/80 154/36/80 152/35/80 165/60/80 118/28/80 117/27/80 158/32/80 159/45/80 160/44/80
f 152/35/81 147/34/81 166/61/81 165/60/81
f 168/60/82 167/61/82 140/62/82 139/28/82
f 165/60/83 166/61/83 167/61/83 168/60/83
f 118/28/84 165/60/84 168/60/84 139/28/84
f 166/54/85 116/53/85 140/53/85 167/54/85
f 169/46/86 172/45/86 171/32/86 170/31/86
f 158/32/87 157/31/87 170/31/87 171/32/87
f 159/45/88 158/32/88 171/32/88 172/45/88
f 157/59/89 156/58/89 169/58/89 170/59/89
