# Blender 5.0.1
# www.blender.org
mtllib pinheiro.mtl
o Cylinder
v 0.000000 -1.372437 -1.000000
v 0.000000 1.372437 -1.000000
v 0.500000 -1.372437 -0.866025
v 0.500000 1.372437 -0.866025
v 0.866025 -1.372437 -0.500000
v 0.866025 1.372437 -0.500000
v 1.000000 -1.372437 0.000000
v 1.000000 1.372437 0.000000
v 0.866025 -1.372437 0.500000
v 0.866025 1.372437 0.500000
v 0.500000 -1.372437 0.866025
v 0.500000 1.372437 0.866025
v 0.000000 -1.372437 1.000000
v 0.000000 1.372437 1.000000
v -0.500000 -1.372437 0.866025
v -0.500000 1.372437 0.866025
v -0.866025 -1.372437 0.500000
v -0.866025 1.372437 0.500000
v -1.000000 -1.372437 0.000000
v -1.000000 1.372437 0.000000
v -0.866025 -1.372437 -0.500000
v -0.866025 1.372437 -0.500000
v -0.500000 -1.372437 -0.866025
v -0.500000 1.372437 -0.866025
v -0.000000 -1.444292 -1.083288
v 0.000000 1.444292 -1.083288
v 0.541644 -1.444292 -0.938155
v 0.541644 1.444292 -0.938155
v 0.938155 -1.444292 -0.541644
v 0.938155 1.444292 -0.541644
v 1.083288 -1.444292 0.000000
v 1.083288 1.444292 0.000000
v 0.938155 -1.444292 0.541644
v 0.938155 1.444292 0.541644
v 0.541644 -1.444292 0.938155
v 0.541644 1.444292 0.938155
v -0.000000 -1.444292 1.083288
v 0.000000 1.444292 1.083288
v -0.541644 -1.444292 0.938155
v -0.541644 1.444292 0.938155
v -0.938155 -1.444292 0.541644
v -0.938155 1.444292 0.541644
v -1.083288 -1.444292 0.000000
v -1.083288 1.444292 0.000000
v -0.938155 -1.444292 -0.541644
v -0.938155 1.444292 -0.541644
v -0.541644 -1.444292 -0.938155
v -0.541644 1.444292 -0.938155
vn 0.2588 -0.0000 -0.9659
vn 0.7071 -0.0000 -0.7071
vn 0.9659 -0.0000 -0.2588
vn 0.9659 -0.0000 0.2588
vn 0.7071 -0.0000 0.7071
vn 0.2588 -0.0000 0.9659
vn -0.2588 -0.0000 0.9659
vn -0.7071 -0.0000 0.7071
vn -0.9659 -0.0000 0.2588
vn -0.9659 -0.0000 -0.2588
vn -0.0000 1.0000 -0.0000
vn -0.7071 -0.0000 -0.7071
vn -0.2588 -0.0000 -0.9659
vn -0.0000 -1.0000 -0.0000
vt 1.000000 0.500000
vt 1.000000 1.000000
vt 0.916667 1.000000
vt 0.916667 0.500000
vt 0.833333 1.000000
vt 0.833333 0.500000
vt 0.750000 1.000000
vt 0.750000 0.500000
vt 0.666667 1.000000
vt 0.666667 0.500000
vt 0.583333 1.000000
vt 0.583333 0.500000
vt 0.500000 1.000000
vt 0.500000 0.500000
vt 0.416667 1.000000
vt 0.416667 0.500000
vt 0.333333 1.000000
vt 0.333333 0.500000
vt 0.250000 1.000000
vt 0.250000 0.500000
vt 0.166667 1.000000
vt 0.166667 0.500000
vt 0.370000 0.457846
vt 0.250000 0.490000
vt 0.130000 0.457846
vt 0.042154 0.370000
vt 0.010000 0.250000
vt 0.042154 0.130000
vt 0.130000 0.042154
vt 0.250000 0.010000
vt 0.370000 0.042154
vt 0.457846 0.130000
vt 0.490000 0.250000
vt 0.457846 0.370000
vt 0.083333 1.000000
vt 0.083333 0.500000
vt 0.000000 1.000000
vt 0.000000 0.500000
vt 0.750000 0.490000
vt 0.870000 0.457846
vt 0.957846 0.370000
vt 0.990000 0.250000
vt 0.957846 0.130000
vt 0.870000 0.042154
vt 0.750000 0.010000
vt 0.630000 0.042154
vt 0.542154 0.130000
vt 0.510000 0.250000
vt 0.542154 0.370000
vt 0.630000 0.457846
s 0
usemtl Material.003
f 1/1/1 2/2/1 4/3/1 3/4/1
f 3/4/2 4/3/2 6/5/2 5/6/2
f 5/6/3 6/5/3 8/7/3 7/8/3
f 7/8/4 8/7/4 10/9/4 9/10/4
f 9/10/5 10/9/5 12/11/5 11/12/5
f 11/12/6 12/11/6 14/13/6 13/14/6
f 13/14/7 14/13/7 16/15/7 15/16/7
f 15/16/8 16/15/8 18/17/8 17/18/8
f 17/18/9 18/17/9 20/19/9 19/20/9
f 19/20/10 20/19/10 22/21/10 21/22/10
f 4/23/11 2/24/11 24/25/11 22/26/11 20/27/11 18/28/11 16/29/11 14/30/11 12/31/11 10/32/11 8/33/11 6/34/11
f 21/22/12 22/21/12 24/35/12 23/36/12
f 23/36/13 24/35/13 2/37/13 1/38/13
f 1/39/14 3/40/14 5/41/14 7/42/14 9/43/14 11/44/14 13/45/14 15/46/14 17/47/14 19/48/14 21/49/14 23/50/14
usemtl Material.002
f 25/1/7 27/4/7 28/3/7 26/2/7
f 27/4/8 29/6/8 30/5/8 28/3/8
f 29/6/9 31/8/9 32/7/9 30/5/9
f 31/8/10 33/10/10 34/9/10 32/7/10
f 33/10/12 35/12/12 36/11/12 34/9/12
f 35/12/13 37/14/13 38/13/13 36/11/13
f 37/14/1 39/16/1 40/15/1 38/13/1
f 39/16/2 41/18/2 42/17/2 40/15/2
f 41/18/3 43/20/3 44/19/3 42/17/3
f 43/20/4 45/22/4 46/21/4 44/19/4
f 28/23/14 30/34/14 32/33/14 34/32/14 36/31/14 38/30/14 40/29/14 42/28/14 44/27/14 46/26/14 48/25/14 26/24/14
f 45/22/5 47/36/5 48/35/5 46/21/5
f 47/36/6 25/38/6 26/37/6 48/35/6
f 25/39/11 47/50/11 45/49/11 43/48/11 41/47/11 39/46/11 37/45/11 35/44/11 33/43/11 31/42/11 29/41/11 27/40/11
o Cone
v -0.617751 1.447914 -2.476979
v 0.581604 1.139038 -2.145127
v 1.459593 0.912925 -1.238490
v 1.780959 0.830163 0.000000
v 1.459593 0.912925 1.238490
v 0.581604 1.139038 2.145127
v -0.617751 1.447914 2.476979
v -1.817106 1.756789 2.145127
v -2.695095 1.982902 1.238490
v -3.016461 2.065665 0.000000
v -2.695095 1.982902 -1.238490
v -1.817106 1.756789 -2.145127
v 0.617751 6.245334 0.000000
v -0.629398 1.402688 -2.564362
v 0.612267 1.082916 -2.220802
v 1.521230 0.848827 -1.282181
v 1.853933 0.763144 0.000000
v 1.521230 0.848827 1.282181
v 0.612267 1.082916 2.220802
v -0.629398 1.402688 2.564362
v -1.871064 1.722460 2.220802
v -2.780026 1.956549 1.282181
v -3.112730 2.042232 0.000000
v -2.780026 1.956549 -1.282181
v -1.871064 1.722460 -2.220802
v 0.642461 6.341282 0.000000
vn 0.3342 0.3630 -0.8698
vn 0.7251 0.2624 -0.6367
vn 0.9508 0.2042 -0.2331
vn 0.9508 0.2042 0.2331
vn 0.7251 0.2624 0.6367
vn 0.3342 0.3630 0.8698
vn -0.1172 0.4793 0.8698
vn -0.5082 0.5800 0.6367
vn -0.7338 0.6381 0.2331
vn -0.7338 0.6381 -0.2331
vn -0.2494 -0.9684 -0.0000
vn -0.5082 0.5800 -0.6367
vn -0.1172 0.4793 -0.8698
vn -0.3344 -0.3650 0.8689
vn -0.7249 -0.2645 0.6360
vn -0.9504 -0.2064 0.2328
vn -0.9504 -0.2064 -0.2328
vn -0.7249 -0.2645 -0.6361
vn -0.3344 -0.3650 -0.8689
vn 0.1165 -0.4812 -0.8689
vn 0.5070 -0.5817 -0.6361
vn 0.7324 -0.6398 -0.2328
vn 0.7324 -0.6398 0.2328
vn 0.2494 0.9684 -0.0000
vn 0.5070 -0.5817 0.6360
vn 0.1165 -0.4812 0.8689
vt 0.250000 0.490000
vt 0.250000 0.250000
vt 0.370000 0.457846
vt 0.457846 0.370000
vt 0.490000 0.250000
vt 0.457846 0.130000
vt 0.370000 0.042154
vt 0.250000 0.010000
vt 0.130000 0.042154
vt 0.042154 0.130000
vt 0.010000 0.250000
vt 0.042154 0.370000
vt 0.750000 0.490000
vt 0.870000 0.457846
vt 0.957846 0.370000
vt 0.990000 0.250000
vt 0.957846 0.130000
vt 0.870000 0.042154
vt 0.750000 0.010000
vt 0.630000 0.042154
vt 0.542154 0.130000
vt 0.510000 0.250000
vt 0.542154 0.370000
vt 0.630000 0.457846
vt 0.130000 0.457846
s 0
usemtl Material.001
f 49/51/15 61/52/15 50/53/15
f 50/53/16 61/52/16 51/54/16
f 51/54/17 61/52/17 52/55/17
f 52/55/18 61/52/18 53/56/18
f 53/56/19 61/52/19 54/57/19
f 54/57/20 61/52/20 55/58/20
f 55/58/21 61/52/21 56/59/21
f 56/59/22 61/52/22 57/60/22
f 57/60/23 61/52/23 58/61/23
f 58/61/24 61/52/24 59/62/24
f 49/63/25 50/64/25 51/65/25 52/66/25 53/67/25 54/68/25 55/69/25 56/70/25 57/71/25 58/72/25 59/73/25 60/74/25
f 59/62/26 61/52/26 60/75/26
f 60/75/27 61/52/27 49/51/27
usemtl Material.002
f 62/51/28 63/53/28 74/52/28
f 63/53/29 64/54/29 74/52/29
f 64/54/30 65/55/30 74/52/30
f 65/55/31 66/56/31 74/52/31
f 66/56/32 67/57/32 74/52/32
f 67/57/33 68/58/33 74/52/33
f 68/58/34 69/59/34 74/52/34
f 69/59/35 70/60/35 74/52/35
f 70/60/36 71/61/36 74/52/36
f 71/61/37 72/62/37 74/52/37
f 62/63/38 73/74/38 72/73/38 71/72/38 70/71/38 69/70/38 68/69/38 67/68/38 66/67/38 65/66/38 64/65/38 63/64/38
f 72/62/39 73/75/39 74/52/39
f 73/75/40 62/51/40 74/52/40
o Cone.001
v 0.459143 2.858576 -2.168166
v 1.602359 2.891837 -1.588568
v 2.302444 2.982706 -0.518238
v 2.371809 3.106835 0.756032
v 1.791869 3.230965 1.892801
v 0.718018 3.321834 2.587473
v -0.562007 3.355094 2.653912
v -1.705223 3.321834 2.074315
v -2.405308 3.230965 1.003984
v -2.474673 3.106835 -0.270286
v -1.894733 2.982706 -1.407055
v -0.820882 2.891837 -2.101727
v 0.051432 8.035850 -0.242873
v 0.476185 2.803352 -2.248643
v 1.659731 2.837786 -1.648599
v 2.384513 2.931861 -0.540509
v 2.456326 3.060369 0.778714
v 1.855927 3.188878 1.955586
v 0.744192 3.282953 2.674765
v -0.580988 3.317386 2.743547
v -1.764535 3.282953 2.143503
v -2.489317 3.188878 1.035414
v -2.561129 3.060369 -0.283809
v -1.960730 2.931861 -1.460681
v -0.848996 2.837786 -2.179860
v 0.053489 8.134430 -0.252588
vn 0.4163 0.3455 -0.8410
vn 0.7632 0.3689 -0.5305
vn 0.9080 0.4093 -0.0893
vn 0.8119 0.4561 0.3644
vn 0.5007 0.4965 0.7091
vn 0.0577 0.5199 0.8523
vn -0.3983 0.5199 0.7557
vn -0.7451 0.4965 0.4452
vn -0.8899 0.4561 0.0040
vn -0.7939 0.4093 -0.4497
vn -0.0208 -0.9950 0.0981
vn -0.4826 0.3689 -0.7943
vn -0.0397 0.3455 -0.9376
vn -0.4159 -0.3476 0.8403
vn -0.7624 -0.3710 0.5302
vn -0.9071 -0.4114 0.0894
vn -0.8111 -0.4580 -0.3638
vn -0.5002 -0.4984 -0.7080
vn -0.0577 -0.5218 -0.8511
vn 0.3978 -0.5218 -0.7547
vn 0.7443 -0.4984 -0.4445
vn 0.8889 -0.4580 -0.0038
vn 0.7929 -0.4114 0.4495
vn 0.0208 0.9950 -0.0981
vn 0.4821 -0.3710 0.7937
vn 0.0396 -0.3476 0.9368
vt 0.250000 0.490000
vt 0.250000 0.250000
vt 0.370000 0.457846
vt 0.457846 0.370000
vt 0.490000 0.250000
vt 0.457846 0.130000
vt 0.370000 0.042154
vt 0.250000 0.010000
vt 0.130000 0.042154
vt 0.042154 0.130000
vt 0.010000 0.250000
vt 0.042154 0.370000
vt 0.750000 0.490000
vt 0.870000 0.457846
vt 0.957846 0.370000
vt 0.990000 0.250000
vt 0.957846 0.130000
vt 0.870000 0.042154
vt 0.750000 0.010000
vt 0.630000 0.042154
vt 0.542154 0.130000
vt 0.510000 0.250000
vt 0.542154 0.370000
vt 0.630000 0.457846
vt 0.130000 0.457846
s 0
usemtl Material.001
f 75/76/41 87/77/41 76/78/41
f 76/78/42 87/77/42 77/79/42
f 77/79/43 87/77/43 78/80/43
f 78/80/44 87/77/44 79/81/44
f 79/81/45 87/77/45 80/82/45
f 80/82/46 87/77/46 81/83/46
f 81/83/47 87/77/47 82/84/47
f 82/84/48 87/77/48 83/85/48
f 83/85/49 87/77/49 84/86/49
f 84/86/50 87/77/50 85/87/50
f 75/88/51 76/89/51 77/90/51 78/91/51 79/92/51 80/93/51 81/94/51 82/95/51 83/96/51 84/97/51 85/98/51 86/99/51
f 85/87/52 87/77/52 86/100/52
f 86/100/53 87/77/53 75/76/53
usemtl Material.002
f 88/76/54 89/78/54 100/77/54
f 89/78/55 90/79/55 100/77/55
f 90/79/56 91/80/56 100/77/56
f 91/80/57 92/81/57 100/77/57
f 92/81/58 93/82/58 100/77/58
f 93/82/59 94/83/59 100/77/59
f 94/83/60 95/84/60 100/77/60
f 95/84/61 96/85/61 100/77/61
f 96/85/62 97/86/62 100/77/62
f 97/86/63 98/87/63 100/77/63
f 88/88/64 99/99/64 98/98/64 97/97/64 96/96/64 95/95/64 94/94/64 93/93/64 92/92/64 91/91/64 90/90/64 89/89/64
f 98/87/65 99/100/65 100/77/65
f 99/100/66 88/76/66 100/77/66
o Cone.002
v 0.277648 5.055778 -1.839467
v 1.271186 5.215843 -1.582744
v 1.998507 5.376407 -0.858955
v 2.264725 5.494447 0.137961
v 1.998507 5.538333 1.140881
v 1.271186 5.496308 1.881073
v 0.277648 5.379631 2.160204
v -0.715891 5.219566 1.903481
v -1.443211 5.059002 1.179692
v -1.709429 4.940962 0.182776
v -1.443211 4.897076 -0.820143
v -0.715891 4.939101 -1.560336
v -0.277648 9.178894 -0.160369
v 0.284191 5.001959 -1.923874
v 1.321542 5.169083 -1.655831
v 2.080935 5.336727 -0.900125
v 2.358893 5.459972 0.140752
v 2.080935 5.505795 1.187898
v 1.321542 5.461916 1.960731
v 0.284191 5.340094 2.252171
v -0.753159 5.172970 1.984127
v -1.512553 5.005326 1.228421
v -1.790510 4.882081 0.187544
v -1.512553 4.836259 -0.859602
v -0.753159 4.880137 -1.632434
v -0.291530 9.277924 -0.168387
vn 0.1706 0.3913 -0.9043
vn 0.5704 0.4657 -0.6765
vn 0.8012 0.5305 -0.2768
vn 0.8012 0.5681 0.1878
vn 0.5704 0.5685 0.5928
vn 0.1706 0.5317 0.8296
vn -0.2910 0.4674 0.8348
vn -0.6908 0.3929 0.6070
vn -0.9216 0.3281 0.2073
vn -0.9216 0.2905 -0.2573
vn 0.1384 -0.9871 0.0799
vn -0.6908 0.2901 -0.6623
vn -0.2910 0.3270 -0.8991
vn -0.1700 -0.3938 0.9034
vn -0.5692 -0.4681 0.6759
vn -0.7998 -0.5328 0.2767
vn -0.7998 -0.5704 -0.1873
vn -0.5692 -0.5708 -0.5917
vn -0.1700 -0.5340 -0.8282
vn 0.2910 -0.4698 -0.8334
vn 0.6903 -0.3954 -0.6060
vn 0.9208 -0.3307 -0.2067
vn 0.9208 -0.2932 0.2572
vn -0.1384 0.9871 -0.0799
vn 0.6903 -0.2927 0.6617
vn 0.2910 -0.3296 0.8982
vt 0.250000 0.490000
vt 0.250000 0.250000
vt 0.370000 0.457846
vt 0.457846 0.370000
vt 0.490000 0.250000
vt 0.457846 0.130000
vt 0.370000 0.042154
vt 0.250000 0.010000
vt 0.130000 0.042154
vt 0.042154 0.130000
vt 0.010000 0.250000
vt 0.042154 0.370000
vt 0.750000 0.490000
vt 0.870000 0.457846
vt 0.957846 0.370000
vt 0.990000 0.250000
vt 0.957846 0.130000
vt 0.870000 0.042154
vt 0.750000 0.010000
vt 0.630000 0.042154
vt 0.542154 0.130000
vt 0.510000 0.250000
vt 0.542154 0.370000
vt 0.630000 0.457846
vt 0.130000 0.457846
s 0
usemtl Material.001
f 101/101/67 113/102/67 102/103/67
f 102/103/68 113/102/68 103/104/68
f 103/104/69 113/102/69 104/105/69
f 104/105/70 113/102/70 105/106/70
f 105/106/71 113/102/71 106/107/71
f 106/107/72 113/102/72 107/108/72
f 107/108/73 113/102/73 108/109/73
f 108/109/74 113/102/74 109/110/74
f 109/110/75 113/102/75 110/111/75
f 110/111/76 113/102/76 111/112/76
f 101/113/77 102/114/77 103/115/77 104/116/77 105/117/77 106/118/77 107/119/77 108/120/77 109/121/77 110/122/77 111/123/77 112/124/77
f 111/112/78 113/102/78 112/125/78
f 112/125/79 113/102/79 101/101/79
usemtl Material.002
f 114/101/80 115/103/80 126/102/80
f 115/103/81 116/104/81 126/102/81
f 116/104/82 117/105/82 126/102/82
f 117/105/83 118/106/83 126/102/83
f 118/106/84 119/107/84 126/102/84
f 119/107/85 120/108/85 126/102/85
f 120/108/86 121/109/86 126/102/86
f 121/109/87 122/110/87 126/102/87
f 122/110/88 123/111/88 126/102/88
f 123/111/89 124/112/89 126/102/89
f 114/113/90 125/124/90 124/123/90 123/122/90 122/121/90 121/120/90 120/119/90 119/118/90 118/117/90 117/116/90 116/115/90 115/114/90
f 124/112/91 125/125/91 126/102/91
f 125/125/92 114/101/92 126/102/92
