# Blender 5.0.1
# www.blender.org
mtllib porta.mtl
o Cube
v -0.113932 2.106492 -1.239141
v -0.113932 -2.106492 -1.239141
v -0.113932 2.106492 1.239141
v -0.113932 -2.106492 1.239141
v 0.113932 0.212066 -1.120311
v 0.113932 -0.212066 -1.120311
v 0.113932 0.212066 -0.986368
v 0.113932 -0.212066 -0.986368
v 0.163586 0.212066 -1.120311
v 0.194102 0.162620 -1.091224
v 0.194102 -0.162620 -1.091224
v 0.163586 -0.212066 -1.120311
v 0.194102 0.162620 -1.015455
v 0.163586 0.212066 -0.986368
v 0.163586 -0.212066 -0.986368
v 0.194102 -0.162620 -1.015455
v 0.043444 2.106492 -1.239141
v 0.050621 2.013964 -1.233337
v 0.050621 -2.013964 -1.233337
v 0.043444 -2.106492 -1.239141
v 0.113932 2.016094 1.132945
v 0.043444 2.106492 1.239141
v 0.043444 -2.106492 1.239141
v 0.113932 -2.016094 1.132945
v 0.148604 0.213163 -1.121190
v 0.148604 0.213163 -0.987247
v 0.148604 2.017192 1.132066
v 0.085293 2.015062 -1.234216
v 0.137116 -0.212800 -0.986956
v 0.137116 -0.212800 -1.120898
v 0.073805 -2.014698 -1.233925
v 0.137116 -2.016828 1.132357
vn -1.0000 -0.0000 -0.0000
vn 0.6900 -0.0000 -0.7239
vn 0.6900 -0.0000 0.7239
vn 0.8510 0.5252 -0.0000
vn 0.8510 -0.5252 -0.0000
vn -0.0000 -0.0000 -1.0000
vn 1.0000 -0.0000 -0.0000
vn -0.0000 1.0000 -0.0000
vn -0.0000 -1.0000 -0.0000
vn -0.0000 -0.0000 1.0000
vn 0.6288 -0.0000 -0.7775
vn 0.8332 -0.0000 0.5530
vn 0.9180 0.3964 -0.0122
vn 0.9180 -0.3964 -0.0122
vn 0.8725 -0.0000 -0.4887
vn 0.0316 -0.9995 -0.0000
vn 0.0405 0.7609 0.6477
vn 0.9992 0.0316 -0.0253
vn -0.0233 -0.0634 -0.9977
vn -0.0316 0.9995 -0.0001
vn 0.0405 -0.7609 0.6477
vn 0.9992 -0.0316 -0.0253
vn -0.0316 -0.9995 -0.0001
vn 0.0316 0.9995 -0.0000
vn -0.0233 0.0634 -0.9977
vt 0.375000 0.000000
vt 0.625000 0.000000
vt 0.625000 0.250000
vt 0.375000 0.250000
vt 0.595855 0.554289
vt 0.404145 0.554289
vt 0.375000 0.500000
vt 0.625000 0.500000
vt 0.625000 0.750000
vt 0.375000 0.750000
vt 0.404145 0.695711
vt 0.595855 0.695711
vt 0.371063 0.496063
vt 0.628937 0.496063
vt 0.628937 0.753937
vt 0.371063 0.753937
vt 0.875000 0.500000
vt 0.875000 0.750000
vt 0.125000 0.500000
vt 0.125000 0.750000
vt 0.625000 1.000000
vt 0.375000 1.000000
s 0
usemtl Material
f 4/1/1 3/2/1 1/3/1 2/4/1
f 18/8/11 19/7/11 20/13/11 17/14/11
f 22/15/12 23/16/12 24/10/12 21/9/12
f 17/14/13 22/15/13 21/9/13 18/8/13
f 23/16/14 20/13/14 19/7/14 24/10/14
f 19/7/15 18/8/15 5/8/15 6/7/15
f 2/4/6 1/3/6 17/14/6 20/13/6
f 17/14/8 1/17/8 3/18/8 22/15/8
f 2/19/9 20/13/9 23/16/9 4/20/9
f 8/10/17 24/10/17 32/10/17 29/10/17
f 21/9/7 24/10/7 8/10/7 7/9/7
f 23/16/10 22/15/10 3/21/10 4/22/10
f 28/8/18 27/9/18 26/9/18 25/8/18
f 5/8/19 18/8/19 28/8/19 25/8/19
f 18/8/20 21/9/20 27/9/20 28/8/20
f 21/9/21 7/9/21 26/9/21 27/9/21
f 32/10/22 31/7/22 30/7/22 29/10/22
f 24/10/23 19/7/23 31/7/23 32/10/23
f 19/7/25 6/7/25 30/7/25 31/7/25
usemtl Material.001
f 10/5/2 11/6/2 12/7/2 9/8/2
f 14/9/3 15/10/3 16/11/3 13/12/3
f 9/8/4 14/9/4 13/12/4 10/5/4
f 15/10/5 12/7/5 11/6/5 16/11/5
f 6/7/6 5/8/6 9/8/6 12/7/6
f 11/6/7 10/5/7 13/12/7 16/11/7
f 5/8/8 7/9/8 14/9/8 9/8/8
f 8/10/9 6/7/9 12/7/9 15/10/9
f 7/9/10 8/10/10 15/10/10 14/9/10
f 7/9/16 5/8/16 25/8/16 26/9/16
f 6/7/24 8/10/24 29/10/24 30/7/24
o Cube.001
v -0.268162 2.106491 1.068448
v -0.268162 2.162360 1.068448
v -0.268162 2.106491 0.940103
v -0.268162 2.162360 0.940103
v 0.268162 2.106491 1.068448
v 0.268162 2.162360 1.068448
v 0.268162 2.106491 0.940103
v 0.268162 2.162360 0.940103
v -0.268161 2.106491 -1.068448
v -0.268161 2.162360 -1.068448
v -0.268161 2.106491 -0.940102
v -0.268161 2.162360 -0.940102
v 0.268161 2.106491 -1.068448
v 0.268161 2.162360 -1.068448
v 0.268161 2.106491 -0.940102
v 0.268161 2.162360 -0.940102
v -0.268161 -2.106492 1.068448
v -0.268161 -2.162361 1.068448
v -0.268161 -2.106492 0.940103
v -0.268161 -2.162361 0.940103
v 0.268161 -2.106492 1.068448
v 0.268161 -2.162361 1.068448
v 0.268161 -2.106492 0.940103
v 0.268161 -2.162361 0.940103
v -0.268161 -2.106492 -1.068447
v -0.268161 -2.162361 -1.068447
v -0.268161 -2.106492 -0.940102
v -0.268161 -2.162361 -0.940102
v 0.268161 -2.106492 -1.068447
v 0.268161 -2.162361 -1.068447
v 0.268161 -2.106492 -0.940102
v 0.268161 -2.162361 -0.940102
vn -1.0000 -0.0000 -0.0000
vn -0.0000 -0.0000 -1.0000
vn 1.0000 -0.0000 -0.0000
vn -0.0000 -0.0000 1.0000
vn -0.0000 -1.0000 -0.0000
vn -0.0000 1.0000 -0.0000
vt 0.375000 0.000000
vt 0.625000 0.000000
vt 0.625000 0.250000
vt 0.375000 0.250000
vt 0.625000 0.500000
vt 0.375000 0.500000
vt 0.625000 0.750000
vt 0.375000 0.750000
vt 0.625000 1.000000
vt 0.375000 1.000000
vt 0.125000 0.500000
vt 0.125000 0.750000
vt 0.875000 0.500000
vt 0.875000 0.750000
s 0
usemtl Material.001
f 33/23/26 34/24/26 36/25/26 35/26/26
f 35/26/27 36/25/27 40/27/27 39/28/27
f 39/28/28 40/27/28 38/29/28 37/30/28
f 37/30/29 38/29/29 34/31/29 33/32/29
f 35/33/30 39/28/30 37/30/30 33/34/30
f 40/27/31 36/35/31 34/36/31 38/29/31
f 41/23/26 43/26/26 44/25/26 42/24/26
f 43/26/29 47/28/29 48/27/29 44/25/29
f 47/28/28 45/30/28 46/29/28 48/27/28
f 45/30/27 41/32/27 42/31/27 46/29/27
f 43/33/30 41/34/30 45/30/30 47/28/30
f 48/27/31 46/29/31 42/36/31 44/35/31
f 49/23/26 51/26/26 52/25/26 50/24/26
f 51/26/27 55/28/27 56/27/27 52/25/27
f 55/28/28 53/30/28 54/29/28 56/27/28
f 53/30/29 49/32/29 50/31/29 54/29/29
f 51/33/31 49/34/31 53/30/31 55/28/31
f 56/27/30 54/29/30 50/36/30 52/35/30
f 57/23/26 58/24/26 60/25/26 59/26/26
f 59/26/29 60/25/29 64/27/29 63/28/29
f 63/28/28 64/27/28 62/29/28 61/30/28
f 61/30/27 62/29/27 58/31/27 57/32/27
f 59/33/31 63/28/31 61/30/31 57/34/31
f 64/27/30 60/35/30 58/36/30 62/29/30
