# Blender 5.0.1
# www.blender.org
mtllib resistor.mtl
o Cylinder
v -0.000000 0.000000 -1.144530
v 0.000000 1.982541 -0.837707
v 0.572265 0.000000 -0.991192
v 0.418854 1.982541 -0.725476
v 0.991192 0.000000 -0.572265
v 0.725476 1.982541 -0.418854
v 1.144530 0.000000 -0.000000
v 0.837707 1.982541 0.000000
v 0.991192 0.000000 0.572265
v 0.725476 1.982541 0.418854
v 0.572265 0.000000 0.991192
v 0.418854 1.982541 0.725476
v -0.000000 0.000000 1.144530
v 0.000000 1.982541 0.837707
v -0.572265 0.000000 0.991192
v -0.418854 1.982541 0.725476
v -0.991192 0.000000 0.572265
v -0.725476 1.982541 0.418854
v -1.144530 0.000000 -0.000000
v -0.837707 1.982541 0.000000
v -0.991192 0.000000 -0.572265
v -0.725476 1.982541 -0.418854
v -0.572265 0.000000 -0.991192
v -0.418854 1.982541 -0.725476
v -0.000000 0.700439 -1.097547
v 0.000000 1.328712 -1.000000
v 0.500000 1.328712 -0.866025
v 0.548774 0.700439 -0.950504
v 0.866025 1.328712 -0.500000
v 0.950504 0.700439 -0.548774
v 1.000000 1.328712 0.000000
v 1.097547 0.700439 -0.000000
v 0.866025 1.328712 0.500000
v 0.950504 0.700439 0.548774
v 0.500000 1.328712 0.866025
v 0.548774 0.700439 0.950504
v 0.000000 1.328712 1.000000
v -0.000000 0.700439 1.097547
v -0.500000 1.328712 0.866025
v -0.548774 0.700439 0.950504
v -0.866025 1.328712 0.500000
v -0.950504 0.700439 0.548774
v -1.000000 1.328712 0.000000
v -1.097547 0.700439 -0.000000
v -0.866025 1.328712 -0.500000
v -0.950504 0.700439 -0.548774
v -0.500000 1.328712 -0.866025
v -0.548774 0.700439 -0.950504
v 0.435259 2.238081 -0.753890
v 0.000000 2.238081 -0.870518
v 0.753890 2.238081 -0.435259
v 0.870518 2.238081 0.000000
v 0.753890 2.238081 0.435259
v 0.435259 2.238081 0.753890
v 0.000000 2.238081 0.870518
v -0.435259 2.238081 0.753890
v -0.753890 2.238081 0.435259
v -0.870518 2.238081 0.000000
v -0.753890 2.238081 -0.435259
v -0.435259 2.238081 -0.753890
v 0.468540 2.607481 -0.811535
v 0.000000 2.607481 -0.937080
v 0.811535 2.607481 -0.468540
v 0.937080 2.607481 0.000000
v 0.811535 2.607481 0.468540
v 0.468540 2.607481 0.811535
v 0.000000 2.607481 0.937080
v -0.468540 2.607481 0.811535
v -0.811535 2.607481 0.468540
v -0.937080 2.607481 0.000000
v -0.811535 2.607481 -0.468540
v -0.468540 2.607481 -0.811535
v 0.353827 3.191984 -0.612846
v -0.000000 3.191984 -0.707654
v 0.612846 3.191984 -0.353827
v 0.707654 3.191984 0.000000
v 0.612846 3.191984 0.353827
v 0.353827 3.191984 0.612846
v -0.000000 3.191984 0.707654
v -0.353827 3.191984 0.612846
v -0.612846 3.191984 0.353827
v -0.707654 3.191984 0.000000
v -0.612846 3.191984 -0.353827
v -0.353827 3.191984 -0.612846
v 0.263929 3.484674 -0.457139
v -0.000000 3.484674 -0.527859
v 0.457139 3.484674 -0.263929
v 0.527859 3.484674 0.000000
v 0.457139 3.484674 0.263929
v 0.263929 3.484674 0.457139
v -0.000000 3.484674 0.527859
v -0.263929 3.484674 0.457139
v -0.457139 3.484674 0.263929
v -0.527859 3.484674 0.000000
v -0.457139 3.484674 -0.263929
v -0.263929 3.484674 -0.457139
v 0.115329 3.484674 -0.199756
v -0.000000 3.484674 -0.230659
v 0.199756 3.484674 -0.115329
v 0.230658 3.484674 -0.000000
v 0.199756 3.484674 0.115329
v 0.115329 3.484674 0.199756
v -0.000000 3.484674 0.230659
v -0.115329 3.484674 0.199756
v -0.199756 3.484674 0.115329
v -0.230659 3.484674 -0.000000
v -0.199756 3.484674 -0.115329
v -0.115329 3.484674 -0.199756
v 0.419931 4.116981 -0.199756
v 0.423150 4.232265 -0.230659
v 0.417574 4.032587 -0.115329
v 0.416712 4.001697 -0.000000
v 0.417574 4.032587 0.115329
v 0.419931 4.116981 0.199756
v 0.423150 4.232265 0.230659
v 0.426369 4.347550 0.199756
v 0.428725 4.431944 0.115329
v 0.429588 4.462834 -0.000000
v 0.428725 4.431944 -0.115329
v 0.426369 4.347550 -0.199756
v 0.199756 3.733871 0.115329
v 0.247246 3.941413 0.115329
v 0.181895 3.994864 0.199756
v 0.115329 3.733871 0.199756
v -0.115329 3.733871 -0.199756
v 0.003349 4.140895 -0.199756
v 0.092622 4.067880 -0.230659
v -0.000000 3.733871 -0.230659
v 0.115329 3.733871 -0.199756
v 0.181894 3.994864 -0.199756
v 0.247247 3.941413 -0.115329
v 0.199756 3.733871 -0.115329
v -0.199756 3.733871 0.115329
v -0.062003 4.194346 0.115329
v -0.085923 4.213911 -0.000000
v -0.230659 3.733871 -0.000000
v 0.092622 4.067880 0.230659
v -0.000000 3.733871 0.230659
v 0.271167 3.921849 -0.000000
v 0.230658 3.733871 -0.000000
v -0.062003 4.194346 -0.115329
v -0.199756 3.733871 -0.115329
v 0.003349 4.140895 0.199756
v -0.115329 3.733871 0.199756
v 1.628353 4.083240 -0.199756
v 1.631572 4.198524 -0.230659
v 1.625996 3.998845 -0.115329
v 1.625134 3.967955 -0.000000
v 1.625996 3.998845 0.115329
v 1.628353 4.083240 0.199756
v 1.631572 4.198524 0.230659
v 1.634791 4.313808 0.199756
v 1.637147 4.398202 0.115329
v 1.638010 4.429093 -0.000000
v 1.637147 4.398202 -0.115329
v 1.634791 4.313808 -0.199756
v 0.000000 -1.982541 -0.837707
v 0.418854 -1.982541 -0.725476
v 0.725476 -1.982541 -0.418854
v 0.837707 -1.982541 0.000000
v 0.725476 -1.982541 0.418854
v 0.418854 -1.982541 0.725476
v 0.000000 -1.982541 0.837707
v -0.418854 -1.982541 0.725476
v -0.725476 -1.982541 0.418854
v -0.837707 -1.982541 0.000000
v -0.725476 -1.982541 -0.418854
v -0.418854 -1.982541 -0.725476
v -0.000000 -0.700439 -1.097547
v 0.000000 -1.328712 -1.000000
v 0.500000 -1.328712 -0.866025
v 0.548774 -0.700439 -0.950504
v 0.866025 -1.328712 -0.500000
v 0.950504 -0.700439 -0.548774
v 1.000000 -1.328712 0.000000
v 1.097547 -0.700439 -0.000000
v 0.866025 -1.328712 0.500000
v 0.950504 -0.700439 0.548774
v 0.500000 -1.328712 0.866025
v 0.548774 -0.700439 0.950504
v 0.000000 -1.328712 1.000000
v -0.000000 -0.700439 1.097547
v -0.500000 -1.328712 0.866025
v -0.548774 -0.700439 0.950504
v -0.866025 -1.328712 0.500000
v -0.950504 -0.700439 0.548774
v -1.000000 -1.328712 0.000000
v -1.097547 -0.700439 -0.000000
v -0.866025 -1.328712 -0.500000
v -0.950504 -0.700439 -0.548774
v -0.500000 -1.328712 -0.866025
v -0.548774 -0.700439 -0.950504
v 0.435259 -2.238081 -0.753890
v 0.000000 -2.238081 -0.870518
v 0.753890 -2.238081 -0.435259
v 0.870518 -2.238081 0.000000
v 0.753890 -2.238081 0.435259
v 0.435259 -2.238081 0.753890
v 0.000000 -2.238081 0.870518
v -0.435259 -2.238081 0.753890
v -0.753890 -2.238081 0.435259
v -0.870518 -2.238081 0.000000
v -0.753890 -2.238081 -0.435259
v -0.435259 -2.238081 -0.753890
v 0.468540 -2.607481 -0.811535
v 0.000000 -2.607481 -0.937080
v 0.811535 -2.607481 -0.468540
v 0.937080 -2.607481 0.000000
v 0.811535 -2.607481 0.468540
v 0.468540 -2.607481 0.811535
v 0.000000 -2.607481 0.937080
v -0.468540 -2.607481 0.811535
v -0.811535 -2.607481 0.468540
v -0.937080 -2.607481 0.000000
v -0.811535 -2.607481 -0.468540
v -0.468540 -2.607481 -0.811535
v 0.353827 -3.191984 -0.612846
v -0.000000 -3.191984 -0.707654
v 0.612846 -3.191984 -0.353827
v 0.707654 -3.191984 0.000000
v 0.612846 -3.191984 0.353827
v 0.353827 -3.191984 0.612846
v -0.000000 -3.191984 0.707654
v -0.353827 -3.191984 0.612846
v -0.612846 -3.191984 0.353827
v -0.707654 -3.191984 0.000000
v -0.612846 -3.191984 -0.353827
v -0.353827 -3.191984 -0.612846
v 0.263929 -3.484674 -0.457139
v -0.000000 -3.484674 -0.527859
v 0.457139 -3.484674 -0.263929
v 0.527859 -3.484674 0.000000
v 0.457139 -3.484674 0.263929
v 0.263929 -3.484674 0.457139
v -0.000000 -3.484674 0.527859
v -0.263929 -3.484674 0.457139
v -0.457139 -3.484674 0.263929
v -0.527859 -3.484674 0.000000
v -0.457139 -3.484674 -0.263929
v -0.263929 -3.484674 -0.457139
v 0.115329 -3.484674 -0.199756
v -0.000000 -3.484674 -0.230659
v 0.199756 -3.484674 -0.115329
v 0.230658 -3.484674 -0.000000
v 0.199756 -3.484674 0.115329
v 0.115329 -3.484674 0.199756
v -0.000000 -3.484674 0.230659
v -0.115329 -3.484674 0.199756
v -0.199756 -3.484674 0.115329
v -0.230659 -3.484674 -0.000000
v -0.199756 -3.484674 -0.115329
v -0.115329 -3.484674 -0.199756
v 0.419931 -4.116981 -0.199756
v 0.423150 -4.232265 -0.230659
v 0.417574 -4.032587 -0.115329
v 0.416712 -4.001697 -0.000000
v 0.417574 -4.032587 0.115329
v 0.419931 -4.116981 0.199756
v 0.423150 -4.232265 0.230659
v 0.426369 -4.347550 0.199756
v 0.428725 -4.431944 0.115329
v 0.429588 -4.462834 -0.000000
v 0.428725 -4.431944 -0.115329
v 0.426369 -4.347550 -0.199756
v 0.199756 -3.733871 0.115329
v 0.247246 -3.941413 0.115329
v 0.181895 -3.994864 0.199756
v 0.115329 -3.733871 0.199756
v -0.115329 -3.733871 -0.199756
v 0.003349 -4.140895 -0.199756
v 0.092622 -4.067880 -0.230659
v -0.000000 -3.733871 -0.230659
v 0.115329 -3.733871 -0.199756
v 0.181894 -3.994864 -0.199756
v 0.247247 -3.941413 -0.115329
v 0.199756 -3.733871 -0.115329
v -0.199756 -3.733871 0.115329
v -0.062003 -4.194346 0.115329
v -0.085923 -4.213911 -0.000000
v -0.230659 -3.733871 -0.000000
v 0.092622 -4.067880 0.230659
v -0.000000 -3.733871 0.230659
v 0.271167 -3.921849 -0.000000
v 0.230658 -3.733871 -0.000000
v -0.062003 -4.194346 -0.115329
v -0.199756 -3.733871 -0.115329
v 0.003349 -4.140895 0.199756
v -0.115329 -3.733871 0.199756
v 1.628353 -4.083240 -0.199756
v 1.631572 -4.198524 -0.230659
v 1.625996 -3.998845 -0.115329
v 1.625134 -3.967955 -0.000000
v 1.625996 -3.998845 0.115329
v 1.628353 -4.083240 0.199756
v 1.631572 -4.198524 0.230659
v 1.634791 -4.313808 0.199756
v 1.637147 -4.398202 0.115329
v 1.638010 -4.429093 -0.000000
v 1.637147 -4.398202 -0.115329
v 1.634791 -4.313808 -0.199756
v -0.000000 0.000000 -1.194530
v 0.000000 1.985521 -0.887618
v 0.597265 0.000000 -1.034493
v 0.443809 1.985521 -0.768700
v 1.034493 0.000000 -0.597265
v 0.768700 1.985521 -0.443809
v 1.194530 0.000000 -0.000000
v 0.887618 1.985521 0.000000
v 1.034493 -0.000000 0.597265
v 0.768700 1.985521 0.443809
v 0.597265 -0.000000 1.034493
v 0.443809 1.985521 0.768700
v -0.000000 0.000000 1.194530
v 0.000000 1.985521 0.887618
v -0.597265 0.000000 1.034493
v -0.443809 1.985521 0.768700
v -1.034493 0.000000 0.597265
v -0.768700 1.985521 0.443809
v -1.194530 0.000000 -0.000000
v -0.887618 1.985521 0.000000
v -1.034493 -0.000000 -0.597265
v -0.768700 1.985521 -0.443809
v -0.597265 -0.000000 -1.034493
v -0.443809 1.985521 -0.768700
v -0.000000 0.705914 -1.147246
v 0.000000 1.338510 -1.049031
v 0.524515 1.338510 -0.908487
v 0.573623 0.705914 -0.993544
v 0.908487 1.338510 -0.524515
v 0.993544 0.705914 -0.573623
v 1.049031 1.338510 0.000000
v 1.147246 0.705914 -0.000000
v 0.908487 1.338510 0.524515
v 0.993544 0.705914 0.573623
v 0.524515 1.338510 0.908487
v 0.573623 0.705914 0.993544
v 0.000000 1.338510 1.049031
v 0.000000 0.705914 1.147246
v -0.524515 1.338510 0.908487
v -0.573623 0.705914 0.993544
v -0.908487 1.338510 0.524515
v -0.993544 0.705914 0.573623
v -1.049031 1.338510 0.000000
v -1.147246 0.705914 -0.000000
v -0.908487 1.338510 -0.524515
v -0.993544 0.705914 -0.573623
v -0.524515 1.338510 -0.908487
v -0.573623 0.705914 -0.993544
v 0.459964 2.230430 -0.796682
v 0.000000 2.230430 -0.919929
v 0.796682 2.230430 -0.459964
v 0.919929 2.230430 0.000000
v 0.796682 2.230430 0.459964
v 0.459964 2.230430 0.796682
v 0.000000 2.230430 0.919929
v -0.459964 2.230430 0.796682
v -0.796682 2.230430 0.459964
v -0.919929 2.230430 0.000000
v -0.796682 2.230430 -0.459964
v -0.459964 2.230430 -0.796682
v 0.493430 2.612163 -0.854646
v 0.000000 2.612163 -0.986860
v 0.854646 2.612163 -0.493430
v 0.986860 2.612163 0.000000
v 0.854646 2.612163 0.493430
v 0.493430 2.612163 0.854646
v 0.000000 2.612163 0.986860
v -0.493430 2.612163 0.854646
v -0.854646 2.612163 0.493430
v -0.986860 2.612163 0.000000
v -0.854646 2.612163 -0.493430
v -0.493430 2.612163 -0.854646
v 0.376272 3.214005 -0.651722
v -0.000000 3.214005 -0.752543
v 0.651722 3.214005 -0.376272
v 0.752543 3.214005 0.000000
v 0.651722 3.214005 0.376272
v 0.376272 3.214005 0.651722
v -0.000000 3.214005 0.752543
v -0.376272 3.214005 0.651722
v -0.651722 3.214005 0.376272
v -0.752543 3.214005 0.000000
v -0.651722 3.214005 -0.376272
v -0.376272 3.214005 -0.651722
v 0.277559 3.526589 -0.480747
v -0.000000 3.526589 -0.555119
v 0.480747 3.526589 -0.277560
v 0.555119 3.526589 0.000000
v 0.480747 3.526589 0.277560
v 0.277559 3.526589 0.480747
v -0.000000 3.526589 0.555119
v -0.277560 3.526589 0.480747
v -0.480747 3.526589 0.277560
v -0.555119 3.526589 0.000000
v -0.480747 3.526589 -0.277560
v -0.277560 3.526589 -0.480747
v 0.131272 3.523187 -0.227370
v -0.000000 3.523187 -0.262545
v 0.227370 3.523187 -0.131272
v 0.262545 3.523187 -0.000000
v 0.227370 3.523187 0.131272
v 0.131272 3.523187 0.227370
v -0.000000 3.523187 0.262545
v -0.131272 3.523187 0.227370
v -0.227370 3.523187 0.131272
v -0.262545 3.523187 -0.000000
v -0.227370 3.523187 -0.131272
v -0.131272 3.523187 -0.227370
v 0.425167 4.093818 -0.243757
v 0.422187 4.234276 -0.280609
v 0.427816 3.990843 -0.140875
v 0.428879 3.953199 0.000000
v 0.427816 3.990843 0.140875
v 0.425167 4.093818 0.243757
v 0.422187 4.234276 0.280609
v 0.420268 4.373703 0.241932
v 0.419623 4.474930 0.139190
v 0.419537 4.511814 0.000000
v 0.419623 4.474930 -0.139190
v 0.420268 4.373703 -0.241932
v 0.242787 3.728847 0.140292
v 0.280727 3.915622 0.142048
v 0.199128 3.980978 0.244591
v 0.139749 3.730851 0.243282
v -0.141241 3.737746 -0.242342
v -0.017403 4.158658 -0.241635
v 0.090060 4.070163 -0.280541
v -0.001120 3.734241 -0.280645
v 0.139749 3.730851 -0.243282
v 0.199128 3.980978 -0.244591
v 0.280727 3.915622 -0.142048
v 0.242787 3.728847 -0.140292
v -0.243059 3.740150 0.139525
v -0.095494 4.222907 0.139049
v -0.123998 4.246319 0.000000
v -0.280151 3.740977 -0.000000
v 0.090060 4.070163 0.280541
v -0.001120 3.734241 0.280645
v 0.311140 3.891813 0.000000
v 0.280348 3.728304 0.000000
v -0.095494 4.222908 -0.139049
v -0.243059 3.740150 -0.139525
v -0.017403 4.158658 0.241635
v -0.141241 3.737747 0.242342
v 1.660473 4.063406 -0.232542
v 1.664220 4.197612 -0.268517
v 1.657730 3.965160 -0.134258
v 1.656726 3.929200 -0.000000
v 1.657730 3.965160 0.134258
v 1.660473 4.063406 0.232542
v 1.664220 4.197612 0.268517
v 1.667968 4.331819 0.232542
v 1.670711 4.430064 0.134258
v 1.671715 4.466025 -0.000000
v 1.670711 4.430064 -0.134258
v 1.667968 4.331819 -0.232542
v -0.000000 -1.985521 -0.887618
v 0.443809 -1.985521 -0.768700
v 0.768700 -1.985521 -0.443809
v 0.887618 -1.985521 -0.000000
v 0.768700 -1.985521 0.443809
v 0.443809 -1.985521 0.768700
v 0.000000 -1.985521 0.887618
v -0.443809 -1.985521 0.768700
v -0.768700 -1.985521 0.443809
v -0.887618 -1.985521 0.000000
v -0.768700 -1.985521 -0.443809
v -0.443809 -1.985521 -0.768700
v -0.000000 -0.705914 -1.147246
v 0.000000 -1.338510 -1.049031
v 0.524515 -1.338510 -0.908487
v 0.573623 -0.705914 -0.993544
v 0.908487 -1.338510 -0.524515
v 0.993544 -0.705914 -0.573623
v 1.049031 -1.338510 0.000000
v 1.147246 -0.705914 -0.000000
v 0.908487 -1.338510 0.524515
v 0.993544 -0.705914 0.573623
v 0.524515 -1.338510 0.908487
v 0.573623 -0.705914 0.993544
v 0.000000 -1.338510 1.049031
v -0.000000 -0.705914 1.147246
v -0.524515 -1.338510 0.908487
v -0.573623 -0.705914 0.993544
v -0.908487 -1.338510 0.524515
v -0.993544 -0.705914 0.573623
v -1.049031 -1.338510 0.000000
v -1.147246 -0.705914 -0.000000
v -0.908487 -1.338510 -0.524515
v -0.993544 -0.705914 -0.573623
v -0.524515 -1.338510 -0.908487
v -0.573623 -0.705914 -0.993544
v 0.459964 -2.230430 -0.796682
v -0.000000 -2.230430 -0.919929
v 0.796682 -2.230430 -0.459964
v 0.919929 -2.230430 -0.000000
v 0.796682 -2.230430 0.459964
v 0.459964 -2.230430 0.796682
v 0.000000 -2.230430 0.919929
v -0.459964 -2.230430 0.796682
v -0.796682 -2.230430 0.459964
v -0.919929 -2.230430 0.000000
v -0.796682 -2.230430 -0.459964
v -0.459964 -2.230430 -0.796682
v 0.493430 -2.612163 -0.854646
v -0.000000 -2.612163 -0.986860
v 0.854646 -2.612163 -0.493430
v 0.986860 -2.612163 -0.000000
v 0.854646 -2.612163 0.493430
v 0.493430 -2.612163 0.854646
v 0.000000 -2.612163 0.986860
v -0.493430 -2.612163 0.854646
v -0.854646 -2.612163 0.493430
v -0.986860 -2.612163 0.000000
v -0.854646 -2.612163 -0.493430
v -0.493430 -2.612163 -0.854646
v 0.376272 -3.214005 -0.651722
v -0.000000 -3.214005 -0.752543
v 0.651722 -3.214005 -0.376272
v 0.752543 -3.214005 0.000000
v 0.651722 -3.214005 0.376272
v 0.376272 -3.214005 0.651722
v -0.000000 -3.214005 0.752543
v -0.376272 -3.214005 0.651722
v -0.651722 -3.214005 0.376272
v -0.752543 -3.214005 0.000000
v -0.651722 -3.214005 -0.376272
v -0.376272 -3.214005 -0.651722
v 0.277559 -3.526589 -0.480747
v -0.000000 -3.526589 -0.555119
v 0.480747 -3.526589 -0.277560
v 0.555119 -3.526589 0.000000
v 0.480747 -3.526589 0.277560
v 0.277559 -3.526589 0.480747
v -0.000000 -3.526589 0.555119
v -0.277560 -3.526589 0.480747
v -0.480747 -3.526589 0.277560
v -0.555119 -3.526589 0.000000
v -0.480747 -3.526589 -0.277560
v -0.277560 -3.526589 -0.480747
v 0.131272 -3.523187 -0.227370
v -0.000000 -3.523187 -0.262545
v 0.227370 -3.523187 -0.131272
v 0.262545 -3.523187 -0.000000
v 0.227370 -3.523187 0.131272
v 0.131272 -3.523187 0.227370
v -0.000000 -3.523187 0.262545
v -0.131272 -3.523187 0.227370
v -0.227370 -3.523187 0.131272
v -0.262545 -3.523187 -0.000000
v -0.227370 -3.523187 -0.131272
v -0.131272 -3.523187 -0.227370
v 0.425167 -4.093818 -0.243757
v 0.422187 -4.234276 -0.280609
v 0.427816 -3.990843 -0.140875
v 0.428879 -3.953199 0.000000
v 0.427816 -3.990843 0.140875
v 0.425167 -4.093818 0.243757
v 0.422187 -4.234276 0.280609
v 0.420268 -4.373703 0.241932
v 0.419623 -4.474930 0.139190
v 0.419537 -4.511814 0.000000
v 0.419623 -4.474930 -0.139190
v 0.420268 -4.373703 -0.241932
v 0.242787 -3.728847 0.140292
v 0.280727 -3.915622 0.142048
v 0.199128 -3.980978 0.244591
v 0.139749 -3.730851 0.243282
v -0.141241 -3.737746 -0.242342
v -0.017403 -4.158658 -0.241635
v 0.090060 -4.070163 -0.280541
v -0.001120 -3.734241 -0.280645
v 0.139749 -3.730851 -0.243282
v 0.199128 -3.980978 -0.244591
v 0.280727 -3.915622 -0.142048
v 0.242787 -3.728847 -0.140292
v -0.243059 -3.740150 0.139525
v -0.095494 -4.222907 0.139049
v -0.123998 -4.246319 0.000000
v -0.280151 -3.740977 -0.000000
v 0.090060 -4.070163 0.280541
v -0.001120 -3.734241 0.280645
v 0.311140 -3.891813 0.000000
v 0.280348 -3.728304 0.000000
v -0.095494 -4.222908 -0.139049
v -0.243059 -3.740150 -0.139525
v -0.017403 -4.158658 0.241635
v -0.141241 -3.737747 0.242342
v 1.660473 -4.063406 -0.232542
v 1.664220 -4.197612 -0.268517
v 1.657730 -3.965160 -0.134258
v 1.656726 -3.929200 -0.000000
v 1.657730 -3.965160 0.134258
v 1.660473 -4.063406 0.232542
v 1.664220 -4.197612 0.268517
v 1.667968 -4.331819 0.232542
v 1.670711 -4.430064 0.134258
v 1.671715 -4.466025 -0.000000
v 1.670711 -4.430064 -0.134258
v 1.667968 -4.331819 -0.232542
vn 0.2517 0.2332 -0.9393
vn 0.6876 0.2332 -0.6876
vn 0.9393 0.2332 -0.2517
vn 0.9393 0.2332 0.2517
vn 0.6876 0.2332 0.6876
vn 0.2517 0.2332 0.9393
vn -0.2517 0.2332 0.9393
vn -0.6876 0.2332 0.6876
vn -0.9393 0.2332 0.2517
vn -0.9393 0.2332 -0.2517
vn 0.7017 -0.1231 0.7017
vn -0.6876 0.2332 -0.6876
vn -0.2517 0.2332 -0.9393
vn -0.2583 0.0647 -0.9639
vn -0.2560 0.1483 -0.9552
vn -0.7056 0.0647 -0.7056
vn -0.6993 0.1483 -0.6993
vn -0.9639 0.0647 -0.2583
vn -0.9552 0.1483 -0.2560
vn -0.9639 0.0647 0.2583
vn -0.9552 0.1483 0.2560
vn -0.7056 0.0647 0.7056
vn -0.6993 0.1483 0.6993
vn -0.2583 0.0647 0.9639
vn -0.2560 0.1483 0.9552
vn 0.2583 0.0647 0.9639
vn 0.2560 0.1483 0.9552
vn 0.7056 0.0647 0.7056
vn 0.6993 0.1483 0.6993
vn 0.9639 0.0647 0.2583
vn 0.9552 0.1483 0.2560
vn 0.9639 0.0647 -0.2583
vn 0.9552 0.1483 -0.2560
vn 0.7056 0.0647 -0.7056
vn 0.6993 0.1483 -0.6993
vn 0.2583 0.0647 -0.9639
vn 0.2560 0.1483 -0.9552
vn -0.9516 -0.1715 0.2550
vn 0.9586 -0.1231 0.2569
vn -0.2569 -0.1231 -0.9586
vn 0.2569 -0.1231 -0.9586
vn 0.9586 -0.1231 -0.2569
vn -0.7017 -0.1231 -0.7017
vn 0.7017 -0.1231 -0.7017
vn -0.9586 -0.1231 -0.2569
vn -0.9586 -0.1231 0.2569
vn -0.7017 -0.1231 0.7017
vn -0.2569 -0.1231 0.9586
vn 0.2569 -0.1231 0.9586
vn 0.6612 0.3545 -0.6612
vn 0.2550 -0.1715 0.9516
vn 0.9516 -0.1715 -0.2550
vn -0.9516 -0.1715 -0.2550
vn -0.2550 -0.1715 0.9516
vn 0.9516 -0.1715 0.2550
vn -0.6966 -0.1715 -0.6966
vn 0.2550 -0.1715 -0.9516
vn -0.6966 -0.1715 0.6966
vn 0.6966 -0.1715 0.6966
vn -0.2550 -0.1715 -0.9516
vn 0.6966 -0.1715 -0.6966
vn -0.2226 0.5103 -0.8307
vn -0.9032 0.3545 0.2420
vn 0.2420 0.3545 0.9032
vn 0.9032 0.3545 -0.2420
vn -0.9032 0.3545 -0.2420
vn -0.2420 0.3545 0.9032
vn 0.9032 0.3545 0.2420
vn -0.6612 0.3545 -0.6612
vn 0.2420 0.3545 -0.9032
vn -0.6612 0.3545 0.6612
vn 0.6612 0.3545 0.6612
vn -0.2420 0.3545 -0.9032
vn -0.0000 1.0000 -0.0000
vn 0.6081 0.5103 -0.6081
vn -0.8307 0.5103 0.2226
vn 0.2226 0.5103 0.8307
vn 0.8307 0.5103 -0.2226
vn -0.8307 0.5103 -0.2226
vn -0.2226 0.5103 0.8307
vn 0.8307 0.5103 0.2226
vn -0.6081 0.5103 -0.6081
vn 0.2226 0.5103 -0.8307
vn -0.6081 0.5103 0.6081
vn 0.6081 0.5103 0.6081
vn 0.3447 -0.6600 0.6675
vn 0.0197 0.7068 -0.7071
vn -0.1264 0.2567 -0.9582
vn 0.3447 -0.6600 -0.6674
vn -0.4232 0.8753 0.2338
vn 0.1288 -0.2556 0.9582
vn 0.4630 -0.8551 -0.2333
vn -0.4232 0.8753 -0.2338
vn -0.1264 0.2567 0.9582
vn 0.4630 -0.8551 0.2333
vn -0.3254 0.6694 -0.6679
vn 0.1288 -0.2556 -0.9582
vn -0.3254 0.6694 0.6679
vn -0.7071 -0.0000 0.7071
vn -0.6986 0.2065 0.6851
vn 0.2588 -0.0000 -0.9659
vn 0.2652 -0.0709 -0.9616
vn -0.7071 -0.0000 -0.7071
vn -0.6986 0.2065 -0.6851
vn 0.9659 -0.0000 0.2588
vn 0.9469 -0.2107 0.2429
vn -0.2588 -0.0000 0.9659
vn -0.2637 0.0752 0.9617
vn -0.9659 -0.0000 -0.2588
vn -0.9287 0.2789 -0.2444
vn 0.9659 -0.0000 -0.2588
vn 0.9469 -0.2107 -0.2429
vn 0.2588 -0.0000 0.9659
vn 0.2652 -0.0709 0.9616
vn -0.9659 -0.0000 0.2588
vn -0.9287 0.2789 0.2444
vn 0.7071 -0.0000 -0.7071
vn 0.7091 -0.1726 -0.6836
vn -0.2588 -0.0000 -0.9659
vn -0.2637 0.0752 -0.9617
vn 0.7071 -0.0000 0.7071
vn 0.7091 -0.1726 0.6836
vn 0.9996 -0.0279 -0.0000
vn -0.0072 -0.2587 -0.9659
vn 0.0197 0.7068 0.7071
vn -0.0197 -0.7068 0.7071
vn 0.0072 0.2587 -0.9659
vn -0.0197 -0.7068 -0.7071
vn 0.0270 0.9655 0.2588
vn -0.0072 -0.2587 0.9659
vn -0.0270 -0.9655 -0.2588
vn 0.0270 0.9655 -0.2588
vn 0.0072 0.2587 0.9659
vn -0.0270 -0.9655 0.2588
vn 0.2517 -0.2332 -0.9393
vn 0.6876 -0.2332 -0.6876
vn 0.9393 -0.2332 -0.2517
vn 0.9393 -0.2332 0.2517
vn 0.6876 -0.2332 0.6876
vn 0.2517 -0.2332 0.9393
vn -0.2517 -0.2332 0.9393
vn -0.6876 -0.2332 0.6876
vn -0.9393 -0.2332 0.2517
vn -0.9393 -0.2332 -0.2517
vn 0.7017 0.1231 0.7017
vn -0.6876 -0.2332 -0.6876
vn -0.2517 -0.2332 -0.9393
vn -0.2583 -0.0647 -0.9639
vn -0.2560 -0.1483 -0.9552
vn -0.7056 -0.0647 -0.7056
vn -0.6993 -0.1483 -0.6993
vn -0.9639 -0.0647 -0.2583
vn -0.9552 -0.1483 -0.2560
vn -0.9639 -0.0647 0.2583
vn -0.9552 -0.1483 0.2560
vn -0.7056 -0.0647 0.7056
vn -0.6993 -0.1483 0.6993
vn -0.2583 -0.0647 0.9639
vn -0.2560 -0.1483 0.9552
vn 0.2583 -0.0647 0.9639
vn 0.2560 -0.1483 0.9552
vn 0.7056 -0.0647 0.7056
vn 0.6993 -0.1483 0.6993
vn 0.9639 -0.0647 0.2583
vn 0.9552 -0.1483 0.2560
vn 0.9639 -0.0647 -0.2583
vn 0.9552 -0.1483 -0.2560
vn 0.7056 -0.0647 -0.7056
vn 0.6993 -0.1483 -0.6993
vn 0.2583 -0.0647 -0.9639
vn 0.2560 -0.1483 -0.9552
vn -0.9516 0.1715 0.2550
vn 0.9586 0.1231 0.2569
vn -0.2569 0.1231 -0.9586
vn 0.2569 0.1231 -0.9586
vn 0.9586 0.1231 -0.2569
vn -0.7017 0.1231 -0.7017
vn 0.7017 0.1231 -0.7017
vn -0.9586 0.1231 -0.2569
vn -0.9586 0.1231 0.2569
vn -0.7017 0.1231 0.7017
vn -0.2569 0.1231 0.9586
vn 0.2569 0.1231 0.9586
vn 0.6612 -0.3545 -0.6612
vn 0.2550 0.1715 0.9516
vn 0.9516 0.1715 -0.2550
vn -0.9516 0.1715 -0.2550
vn -0.2550 0.1715 0.9516
vn 0.9516 0.1715 0.2550
vn -0.6966 0.1715 -0.6966
vn 0.2550 0.1715 -0.9516
vn -0.6966 0.1715 0.6966
vn 0.6966 0.1715 0.6966
vn -0.2550 0.1715 -0.9516
vn 0.6966 0.1715 -0.6966
vn -0.2226 -0.5103 -0.8307
vn -0.9032 -0.3545 0.2420
vn 0.2420 -0.3545 0.9032
vn 0.9032 -0.3545 -0.2420
vn -0.9032 -0.3545 -0.2420
vn -0.2420 -0.3545 0.9032
vn 0.9032 -0.3545 0.2420
vn -0.6612 -0.3545 -0.6612
vn 0.2420 -0.3545 -0.9032
vn -0.6612 -0.3545 0.6612
vn 0.6612 -0.3545 0.6612
vn -0.2420 -0.3545 -0.9032
vn -0.0000 -1.0000 -0.0000
vn 0.6081 -0.5103 -0.6081
vn -0.8307 -0.5103 0.2226
vn 0.2226 -0.5103 0.8307
vn 0.8307 -0.5103 -0.2226
vn -0.8307 -0.5103 -0.2226
vn -0.2226 -0.5103 0.8307
vn 0.8307 -0.5103 0.2226
vn -0.6081 -0.5103 -0.6081
vn 0.2226 -0.5103 -0.8307
vn -0.6081 -0.5103 0.6081
vn 0.6081 -0.5103 0.6081
vn 0.3447 0.6600 0.6675
vn 0.0197 -0.7068 -0.7071
vn -0.1264 -0.2567 -0.9582
vn 0.3447 0.6600 -0.6674
vn -0.4232 -0.8753 0.2338
vn 0.1288 0.2556 0.9582
vn 0.4630 0.8551 -0.2333
vn -0.4232 -0.8753 -0.2338
vn -0.1264 -0.2567 0.9582
vn 0.4630 0.8551 0.2333
vn -0.3254 -0.6694 -0.6679
vn 0.1288 0.2556 -0.9582
vn -0.3254 -0.6694 0.6679
vn -0.6986 -0.2065 0.6851
vn 0.2652 0.0709 -0.9616
vn -0.6986 -0.2065 -0.6851
vn 0.9469 0.2107 0.2429
vn -0.2637 -0.0752 0.9617
vn -0.9287 -0.2789 -0.2444
vn 0.9469 0.2107 -0.2429
vn 0.2652 0.0709 0.9616
vn -0.9287 -0.2789 0.2444
vn 0.7091 0.1726 -0.6836
vn -0.2637 -0.0752 -0.9617
vn 0.7091 0.1726 0.6836
vn 0.9996 0.0279 -0.0000
vn -0.0072 0.2587 -0.9659
vn 0.0197 -0.7068 0.7071
vn -0.0197 0.7068 0.7071
vn 0.0072 -0.2587 -0.9659
vn -0.0197 0.7068 -0.7071
vn 0.0270 -0.9655 0.2588
vn -0.0072 0.2587 0.9659
vn -0.0270 0.9655 -0.2588
vn 0.0270 -0.9655 -0.2588
vn 0.0072 -0.2587 0.9659
vn -0.0270 0.9655 0.2588
vn -0.2516 -0.2343 0.9390
vn -0.6874 -0.2343 0.6874
vn -0.9390 -0.2343 0.2516
vn -0.9390 -0.2343 -0.2516
vn -0.6874 -0.2343 -0.6874
vn -0.2516 -0.2343 -0.9390
vn 0.2516 -0.2343 -0.9390
vn 0.6874 -0.2343 -0.6874
vn 0.9390 -0.2343 -0.2516
vn 0.9390 -0.2343 0.2516
vn -0.7014 0.1264 -0.7014
vn 0.6874 -0.2343 0.6874
vn 0.2516 -0.2343 0.9390
vn 0.2583 -0.0646 0.9639
vn 0.7056 -0.0646 0.7056
vn 0.9639 -0.0646 0.2583
vn 0.9639 -0.0646 -0.2583
vn 0.7056 -0.0646 -0.7056
vn 0.2583 -0.0646 -0.9639
vn -0.2583 -0.0646 -0.9639
vn -0.7056 -0.0646 -0.7056
vn -0.9639 -0.0646 -0.2583
vn -0.9639 -0.0646 0.2583
vn -0.7056 -0.0646 0.7056
vn -0.2583 -0.0646 0.9639
vn 0.9524 0.1670 -0.2552
vn -0.9582 0.1264 -0.2567
vn 0.2567 0.1264 0.9582
vn -0.2567 0.1264 0.9582
vn -0.9582 0.1264 0.2567
vn 0.7014 0.1264 0.7014
vn -0.7014 0.1264 0.7014
vn 0.9582 0.1264 0.2567
vn 0.9582 0.1264 -0.2567
vn 0.7014 0.1264 -0.7014
vn 0.2567 0.1264 -0.9582
vn -0.2567 0.1264 -0.9582
vn -0.6619 -0.3520 0.6619
vn -0.2552 0.1670 -0.9524
vn -0.9524 0.1670 0.2552
vn 0.9524 0.1670 0.2552
vn 0.2552 0.1670 -0.9524
vn -0.9524 0.1670 -0.2552
vn 0.6972 0.1670 0.6972
vn -0.2552 0.1670 0.9524
vn 0.6972 0.1670 -0.6972
vn -0.6972 0.1670 -0.6972
vn 0.2552 0.1670 0.9524
vn -0.6972 0.1670 0.6972
vn 0.2209 -0.5208 0.8246
vn 0.9041 -0.3520 -0.2423
vn -0.2423 -0.3520 -0.9041
vn -0.9041 -0.3520 0.2423
vn 0.9041 -0.3520 0.2423
vn 0.2423 -0.3520 -0.9041
vn -0.9041 -0.3520 -0.2423
vn 0.6619 -0.3520 0.6619
vn -0.2423 -0.3520 0.9041
vn 0.6619 -0.3520 -0.6619
vn -0.6619 -0.3520 -0.6619
vn 0.2423 -0.3520 0.9041
vn 0.0085 -0.9999 0.0085
vn -0.6036 -0.5208 0.6036
vn 0.8246 -0.5208 -0.2209
vn -0.2209 -0.5208 -0.8246
vn -0.8246 -0.5208 0.2209
vn 0.8246 -0.5208 0.2209
vn 0.2209 -0.5208 -0.8246
vn -0.8246 -0.5208 -0.2209
vn 0.6036 -0.5208 0.6036
vn -0.2209 -0.5208 0.8246
vn 0.6036 -0.5208 -0.6036
vn -0.6036 -0.5208 -0.6036
vn -0.3347 0.6569 -0.6756
vn -0.0031 -0.9999 -0.0116
vn 0.0085 -0.9999 -0.0085
vn -0.0116 -0.9999 0.0031
vn 0.0031 -0.9999 0.0116
vn 0.0116 -0.9999 -0.0031
vn -0.0116 -0.9999 -0.0031
vn -0.0031 -0.9999 0.0116
vn 0.0116 -0.9999 0.0031
vn -0.0085 -0.9999 -0.0085
vn 0.0031 -0.9999 -0.0116
vn -0.0085 -0.9999 0.0085
vn -0.0287 -0.7094 0.7042
vn 0.1300 -0.2630 0.9560
vn -0.3347 0.6569 0.6756
vn 0.4271 -0.8736 -0.2332
vn -0.1229 0.2449 -0.9617
vn -0.4462 0.8630 0.2371
vn 0.4271 -0.8736 0.2332
vn 0.1300 -0.2630 -0.9560
vn -0.4462 0.8630 -0.2371
vn 0.3287 -0.6698 0.6658
vn -0.1229 0.2449 0.9617
vn 0.3287 -0.6698 -0.6658
vn 0.7071 0.0799 -0.7026
vn 0.7003 -0.2112 -0.6819
vn -0.2557 0.0827 0.9632
vn -0.2575 0.0681 0.9639
vn 0.7071 0.0799 0.7026
vn 0.7003 -0.2112 0.6819
vn -0.9625 0.0835 -0.2580
vn -0.9511 0.1879 -0.2452
vn 0.2614 0.0815 -0.9618
vn 0.2703 -0.0778 -0.9596
vn 0.9633 0.0786 0.2568
vn 0.9272 -0.2851 0.2431
vn -0.9625 0.0835 0.2580
vn -0.9511 0.1879 0.2452
vn -0.2557 0.0827 -0.9632
vn -0.2575 0.0681 -0.9639
vn 0.9633 0.0786 -0.2568
vn 0.9272 -0.2851 -0.2431
vn -0.7042 0.0832 0.7052
vn -0.7070 0.1623 0.6883
vn 0.2614 0.0815 0.9618
vn 0.2703 -0.0778 0.9596
vn -0.7042 0.0832 -0.7052
vn -0.7070 0.1623 -0.6883
vn -0.9996 0.0279 -0.0000
vn -0.0022 0.2563 0.9666
vn -0.0287 -0.7094 -0.7042
vn 0.0110 0.7070 -0.7072
vn -0.0166 -0.2631 0.9646
vn 0.0110 0.7070 0.7072
vn -0.0355 -0.9657 -0.2574
vn -0.0022 0.2563 -0.9666
vn 0.0188 0.9659 0.2584
vn -0.0355 -0.9657 0.2574
vn -0.0166 -0.2631 -0.9646
vn 0.0188 0.9659 -0.2584
vn -0.2516 0.2343 0.9390
vn -0.6874 0.2343 0.6874
vn -0.9390 0.2343 0.2516
vn -0.9390 0.2343 -0.2516
vn -0.6874 0.2343 -0.6874
vn -0.2516 0.2343 -0.9390
vn 0.2516 0.2343 -0.9390
vn 0.6874 0.2343 -0.6874
vn 0.9390 0.2343 -0.2516
vn 0.9390 0.2343 0.2516
vn -0.7014 -0.1264 -0.7014
vn 0.6874 0.2343 0.6874
vn 0.2516 0.2343 0.9390
vn 0.2583 0.0646 0.9639
vn 0.7056 0.0646 0.7056
vn 0.9639 0.0646 0.2583
vn 0.9639 0.0646 -0.2583
vn 0.7056 0.0646 -0.7056
vn 0.2583 0.0646 -0.9639
vn -0.2583 0.0646 -0.9639
vn -0.7056 0.0646 -0.7056
vn -0.9639 0.0646 -0.2583
vn -0.9639 0.0646 0.2583
vn -0.7056 0.0646 0.7056
vn -0.2583 0.0646 0.9639
vn 0.9524 -0.1670 -0.2552
vn -0.9582 -0.1264 -0.2567
vn 0.2567 -0.1264 0.9582
vn -0.2567 -0.1264 0.9582
vn -0.9582 -0.1264 0.2567
vn 0.7014 -0.1264 0.7014
vn -0.7014 -0.1264 0.7014
vn 0.9582 -0.1264 0.2567
vn 0.9582 -0.1264 -0.2567
vn 0.7014 -0.1264 -0.7014
vn 0.2567 -0.1264 -0.9582
vn -0.2567 -0.1264 -0.9582
vn -0.6619 0.3520 0.6619
vn -0.2552 -0.1670 -0.9524
vn -0.9524 -0.1670 0.2552
vn 0.9524 -0.1670 0.2552
vn 0.2552 -0.1670 -0.9524
vn -0.9524 -0.1670 -0.2552
vn 0.6972 -0.1670 0.6972
vn -0.2552 -0.1670 0.9524
vn 0.6972 -0.1670 -0.6972
vn -0.6972 -0.1670 -0.6972
vn 0.2552 -0.1670 0.9524
vn -0.6972 -0.1670 0.6972
vn 0.2209 0.5208 0.8246
vn 0.9041 0.3520 -0.2423
vn -0.2423 0.3520 -0.9041
vn -0.9041 0.3520 0.2423
vn 0.9041 0.3520 0.2423
vn 0.2423 0.3520 -0.9041
vn -0.9041 0.3520 -0.2423
vn 0.6619 0.3520 0.6619
vn -0.2423 0.3520 0.9041
vn 0.6619 0.3520 -0.6619
vn -0.6619 0.3520 -0.6619
vn 0.2423 0.3520 0.9041
vn 0.0085 0.9999 0.0085
vn -0.6036 0.5208 0.6036
vn 0.8246 0.5208 -0.2209
vn -0.2209 0.5208 -0.8246
vn -0.8246 0.5208 0.2209
vn 0.8246 0.5208 0.2209
vn 0.2209 0.5208 -0.8246
vn -0.8246 0.5208 -0.2209
vn 0.6036 0.5208 0.6036
vn -0.2209 0.5208 0.8246
vn 0.6036 0.5208 -0.6036
vn -0.6036 0.5208 -0.6036
vn -0.3347 -0.6569 -0.6756
vn -0.0031 0.9999 -0.0116
vn 0.0085 0.9999 -0.0085
vn -0.0116 0.9999 0.0031
vn 0.0031 0.9999 0.0116
vn 0.0116 0.9999 -0.0031
vn -0.0116 0.9999 -0.0031
vn -0.0031 0.9999 0.0116
vn 0.0116 0.9999 0.0031
vn -0.0085 0.9999 -0.0085
vn 0.0031 0.9999 -0.0116
vn -0.0085 0.9999 0.0085
vn -0.0287 0.7094 0.7042
vn 0.1300 0.2630 0.9560
vn -0.3347 -0.6569 0.6756
vn 0.4271 0.8736 -0.2332
vn -0.1229 -0.2449 -0.9617
vn -0.4462 -0.8630 0.2371
vn 0.4271 0.8736 0.2332
vn 0.1300 0.2630 -0.9560
vn -0.4462 -0.8630 -0.2371
vn 0.3287 0.6698 0.6658
vn -0.1229 -0.2449 0.9617
vn 0.3287 0.6698 -0.6658
vn 0.7071 -0.0799 -0.7026
vn 0.7003 0.2112 -0.6819
vn -0.2557 -0.0827 0.9632
vn -0.2575 -0.0681 0.9639
vn 0.7071 -0.0799 0.7026
vn 0.7003 0.2112 0.6819
vn -0.9625 -0.0835 -0.2580
vn -0.9511 -0.1879 -0.2452
vn 0.2614 -0.0815 -0.9618
vn 0.2703 0.0778 -0.9596
vn 0.9633 -0.0786 0.2568
vn 0.9272 0.2851 0.2431
vn -0.9625 -0.0835 0.2580
vn -0.9511 -0.1879 0.2452
vn -0.2557 -0.0827 -0.9632
vn -0.2575 -0.0681 -0.9639
vn 0.9633 -0.0786 -0.2568
vn 0.9272 0.2851 -0.2431
vn -0.7042 -0.0832 0.7052
vn -0.7070 -0.1623 0.6883
vn 0.2614 -0.0815 0.9618
vn 0.2703 0.0778 0.9596
vn -0.7042 -0.0832 -0.7052
vn -0.7070 -0.1623 -0.6883
vn -0.9996 -0.0279 -0.0000
vn -0.0022 -0.2563 0.9666
vn -0.0287 0.7094 -0.7042
vn 0.0110 -0.7070 -0.7072
vn -0.0166 0.2631 0.9646
vn 0.0110 -0.7070 0.7072
vn -0.0355 0.9657 -0.2574
vn -0.0022 -0.2563 -0.9666
vn 0.0188 -0.9659 0.2584
vn -0.0355 0.9657 0.2574
vn -0.0166 0.2631 -0.9646
vn 0.0188 -0.9659 -0.2584
vt 1.000000 0.835103
vt 1.000000 1.000000
vt 0.916667 1.000000
vt 0.916667 0.835103
vt 0.833333 1.000000
vt 0.833333 0.835103
vt 0.750000 1.000000
vt 0.750000 0.835103
vt 0.666667 1.000000
vt 0.666667 0.835103
vt 0.583333 1.000000
vt 0.583333 0.835103
vt 0.500000 1.000000
vt 0.500000 0.835103
vt 0.416667 1.000000
vt 0.416667 0.835103
vt 0.333333 1.000000
vt 0.333333 0.835103
vt 0.250000 1.000000
vt 0.250000 0.835103
vt 0.166667 1.000000
vt 0.166667 0.835103
vt 0.083333 1.000000
vt 0.083333 0.835103
vt 0.000000 1.000000
vt 0.000000 0.835103
vt 0.083333 0.500000
vt 0.083333 0.668437
vt 0.000000 0.668436
vt 0.000000 0.500000
vt 0.166667 0.500000
vt 0.166667 0.668436
vt 0.250000 0.500000
vt 0.250000 0.668436
vt 0.333333 0.500000
vt 0.333333 0.668437
vt 0.416667 0.500000
vt 0.416667 0.668436
vt 0.500000 0.500000
vt 0.500000 0.668436
vt 0.583333 0.500000
vt 0.583333 0.668437
vt 0.666667 0.500000
vt 0.666667 0.668436
vt 0.750000 0.500000
vt 0.750000 0.668436
vt 0.833333 0.500000
vt 0.833333 0.668437
vt 0.916667 0.500000
vt 0.916667 0.668436
vt 1.000000 0.500000
vt 1.000000 0.668436
vt 0.583333 1.000000
vt 0.083333 1.000000
vt 0.833333 1.000000
vt 0.916667 1.000000
vt 0.250000 1.000000
vt 0.750000 1.000000
vt 0.166667 1.000000
vt 0.416667 1.000000
vt 0.333333 1.000000
vt 0.833333 1.000000
vt 0.370000 0.457846
vt 0.250000 0.490000
vt 0.130000 0.457846
vt 0.042154 0.370000
vt 0.010000 0.250000
vt 0.042154 0.130000
vt 0.130000 0.042154
vt 0.250000 0.010000
vt 0.370000 0.042154
vt 0.457846 0.130000
vt 0.490000 0.250000
vt 0.457846 0.370000
s 0
usemtl Material.003
f 26/1/1 2/2/1 4/3/1 27/4/1
f 27/4/2 4/3/2 6/5/2 29/6/2
f 29/6/3 6/5/3 8/7/3 31/8/3
f 31/8/4 8/7/4 10/9/4 33/10/4
f 33/10/5 10/9/5 12/11/5 35/12/5
f 35/12/6 12/11/6 14/13/6 37/14/6
f 37/14/7 14/13/7 16/15/7 39/16/7
f 39/16/8 16/15/8 18/17/8 41/18/8
f 41/18/9 18/17/9 20/19/9 43/20/9
f 43/20/10 20/19/10 22/21/10 45/22/10
f 12/11/11 10/9/11 53/9/11 54/11/11
f 45/22/12 22/21/12 24/23/12 47/24/12
f 47/24/13 24/23/13 2/25/13 26/26/13
f 23/27/14 48/28/14 25/29/14 1/30/14
f 48/28/15 47/24/15 26/26/15 25/29/15
f 21/31/16 46/32/16 48/28/16 23/27/16
f 46/32/17 45/22/17 47/24/17 48/28/17
f 19/33/18 44/34/18 46/32/18 21/31/18
f 44/34/19 43/20/19 45/22/19 46/32/19
f 17/35/20 42/36/20 44/34/20 19/33/20
f 42/36/21 41/18/21 43/20/21 44/34/21
f 15/37/22 40/38/22 42/36/22 17/35/22
f 40/38/23 39/16/23 41/18/23 42/36/23
f 13/39/24 38/40/24 40/38/24 15/37/24
f 38/40/25 37/14/25 39/16/25 40/38/25
f 11/41/26 36/42/26 38/40/26 13/39/26
f 36/42/27 35/12/27 37/14/27 38/40/27
f 9/43/28 34/44/28 36/42/28 11/41/28
f 34/44/29 33/10/29 35/12/29 36/42/29
f 7/45/30 32/46/30 34/44/30 9/43/30
f 32/46/31 31/8/31 33/10/31 34/44/31
f 5/47/32 30/48/32 32/46/32 7/45/32
f 30/48/33 29/6/33 31/8/33 32/46/33
f 3/49/34 28/50/34 30/48/34 5/47/34
f 28/50/35 27/4/35 29/6/35 30/48/35
f 1/51/36 25/52/36 28/50/36 3/49/36
f 25/52/37 26/1/37 27/4/37 28/50/37
f 58/19/38 57/17/38 69/17/38 70/19/38
f 10/9/39 8/7/39 52/7/39 53/9/39
f 2/25/40 24/23/40 60/23/40 50/25/40
f 4/3/41 2/2/41 50/2/41 49/3/41
f 8/7/42 6/5/42 51/5/42 52/7/42
f 24/23/43 22/21/43 59/21/43 60/23/43
f 6/5/44 4/3/44 49/3/44 51/5/44
f 22/21/45 20/19/45 58/19/45 59/21/45
f 20/19/46 18/17/46 57/17/46 58/19/46
f 18/17/47 16/15/47 56/15/47 57/17/47
f 16/15/48 14/13/48 55/13/48 56/15/48
f 14/13/49 12/11/49 54/11/49 55/13/49
f 63/5/50 61/3/50 73/3/50 75/5/50
f 55/13/51 54/11/51 66/11/51 67/13/51
f 52/7/52 51/5/52 63/5/52 64/7/52
f 59/21/53 58/19/53 70/19/53 71/21/53
f 56/15/54 55/13/54 67/13/54 68/15/54
f 53/9/55 52/7/55 64/7/55 65/9/55
f 60/23/56 59/21/56 71/21/56 72/23/56
f 49/3/57 50/2/57 62/2/57 61/3/57
f 57/17/58 56/15/58 68/15/58 69/17/58
f 54/11/59 53/9/59 65/9/59 66/11/59
f 50/25/60 60/23/60 72/23/60 62/25/60
f 51/5/61 49/3/61 61/3/61 63/5/61
f 74/25/62 84/23/62 96/23/62 86/25/62
f 70/19/63 69/17/63 81/17/63 82/19/63
f 67/13/64 66/11/64 78/11/64 79/13/64
f 64/7/65 63/5/65 75/5/65 76/7/65
f 71/21/66 70/19/66 82/19/66 83/21/66
f 68/15/67 67/13/67 79/13/67 80/15/67
f 65/9/68 64/7/68 76/7/68 77/9/68
f 72/23/69 71/21/69 83/21/69 84/23/69
f 61/3/70 62/2/70 74/2/70 73/3/70
f 69/17/71 68/15/71 80/15/71 81/17/71
f 66/11/72 65/9/72 77/9/72 78/11/72
f 62/25/73 72/23/73 84/23/73 74/25/73
f 90/11/74 89/9/74 101/9/74 102/11/74
f 75/5/75 73/3/75 85/3/75 87/5/75
f 82/19/76 81/17/76 93/17/76 94/19/76
f 79/13/77 78/11/77 90/11/77 91/13/77
f 76/7/78 75/5/78 87/5/78 88/7/78
f 83/21/79 82/19/79 94/19/79 95/21/79
f 80/15/80 79/13/80 91/13/80 92/15/80
f 77/9/81 76/7/81 88/7/81 89/9/81
f 84/23/82 83/21/82 95/21/82 96/23/82
f 73/3/83 74/2/83 86/2/83 85/3/83
f 81/17/84 80/15/84 92/15/84 93/17/84
f 78/11/85 77/9/85 89/9/85 90/11/85
f 86/25/74 96/23/74 108/23/74 98/25/74
f 87/5/74 85/3/74 97/3/74 99/5/74
f 94/19/74 93/17/74 105/17/74 106/19/74
f 91/13/74 90/11/74 102/11/74 103/13/74
f 88/7/74 87/5/74 99/5/74 100/7/74
f 95/21/74 94/19/74 106/19/74 107/21/74
f 92/15/74 91/13/74 103/13/74 104/15/74
f 89/9/74 88/7/74 100/7/74 101/9/74
f 96/23/74 95/21/74 107/21/74 108/23/74
f 85/3/74 86/2/74 98/2/74 97/3/74
f 93/17/74 92/15/74 104/15/74 105/17/74
f 170/1/135 171/4/135 158/3/135 157/2/135
f 171/4/136 173/6/136 159/5/136 158/3/136
f 173/6/137 175/8/137 160/7/137 159/5/137
f 175/8/138 177/10/138 161/9/138 160/7/138
f 177/10/139 179/12/139 162/11/139 161/9/139
f 179/12/140 181/14/140 163/13/140 162/11/140
f 181/14/141 183/16/141 164/15/141 163/13/141
f 183/16/142 185/18/142 165/17/142 164/15/142
f 185/18/143 187/20/143 166/19/143 165/17/143
f 187/20/144 189/22/144 167/21/144 166/19/144
f 162/11/145 198/11/145 197/9/145 161/9/145
f 189/22/146 191/24/146 168/23/146 167/21/146
f 191/24/147 170/26/147 157/25/147 168/23/147
f 23/27/148 1/30/148 169/29/148 192/28/148
f 192/28/149 169/29/149 170/26/149 191/24/149
f 21/31/150 23/27/150 192/28/150 190/32/150
f 190/32/151 192/28/151 191/24/151 189/22/151
f 19/33/152 21/31/152 190/32/152 188/34/152
f 188/34/153 190/32/153 189/22/153 187/20/153
f 17/35/154 19/33/154 188/34/154 186/36/154
f 186/36/155 188/34/155 187/20/155 185/18/155
f 15/37/156 17/35/156 186/36/156 184/38/156
f 184/38/157 186/36/157 185/18/157 183/16/157
f 13/39/158 15/37/158 184/38/158 182/40/158
f 182/40/159 184/38/159 183/16/159 181/14/159
f 11/41/160 13/39/160 182/40/160 180/42/160
f 180/42/161 182/40/161 181/14/161 179/12/161
f 9/43/162 11/41/162 180/42/162 178/44/162
f 178/44/163 180/42/163 179/12/163 177/10/163
f 7/45/164 9/43/164 178/44/164 176/46/164
f 176/46/165 178/44/165 177/10/165 175/8/165
f 5/47/166 7/45/166 176/46/166 174/48/166
f 174/48/167 176/46/167 175/8/167 173/6/167
f 3/49/168 5/47/168 174/48/168 172/50/168
f 172/50/169 174/48/169 173/6/169 171/4/169
f 1/51/170 3/49/170 172/50/170 169/52/170
f 169/52/171 172/50/171 171/4/171 170/1/171
f 202/19/172 214/19/172 213/17/172 201/17/172
f 161/9/173 197/9/173 196/7/173 160/7/173
f 157/25/174 194/25/174 204/23/174 168/23/174
f 158/3/175 193/3/175 194/2/175 157/2/175
f 160/7/176 196/7/176 195/5/176 159/5/176
f 168/23/177 204/23/177 203/21/177 167/21/177
f 159/5/178 195/5/178 193/3/178 158/3/178
f 167/21/179 203/21/179 202/19/179 166/19/179
f 166/19/180 202/19/180 201/17/180 165/17/180
f 165/17/181 201/17/181 200/15/181 164/15/181
f 164/15/182 200/15/182 199/13/182 163/13/182
f 163/13/183 199/13/183 198/11/183 162/11/183
f 207/5/184 219/5/184 217/3/184 205/3/184
f 199/13/185 211/13/185 210/11/185 198/11/185
f 196/7/186 208/7/186 207/5/186 195/5/186
f 203/21/187 215/21/187 214/19/187 202/19/187
f 200/15/188 212/15/188 211/13/188 199/13/188
f 197/9/189 209/9/189 208/7/189 196/7/189
f 204/23/190 216/23/190 215/21/190 203/21/190
f 193/3/191 205/3/191 206/2/191 194/2/191
f 201/17/192 213/17/192 212/15/192 200/15/192
f 198/11/193 210/11/193 209/9/193 197/9/193
f 194/25/194 206/25/194 216/23/194 204/23/194
f 195/5/195 207/5/195 205/3/195 193/3/195
f 218/25/196 230/25/196 240/23/196 228/23/196
f 214/19/197 226/19/197 225/17/197 213/17/197
f 211/13/198 223/13/198 222/11/198 210/11/198
f 208/7/199 220/7/199 219/5/199 207/5/199
f 215/21/200 227/21/200 226/19/200 214/19/200
f 212/15/201 224/15/201 223/13/201 211/13/201
f 209/9/202 221/9/202 220/7/202 208/7/202
f 216/23/203 228/23/203 227/21/203 215/21/203
f 205/3/204 217/3/204 218/2/204 206/2/204
f 213/17/205 225/17/205 224/15/205 212/15/205
f 210/11/206 222/11/206 221/9/206 209/9/206
f 206/25/207 218/25/207 228/23/207 216/23/207
f 234/11/208 246/11/208 245/9/208 233/9/208
f 219/5/209 231/5/209 229/3/209 217/3/209
f 226/19/210 238/19/210 237/17/210 225/17/210
f 223/13/211 235/13/211 234/11/211 222/11/211
f 220/7/212 232/7/212 231/5/212 219/5/212
f 227/21/213 239/21/213 238/19/213 226/19/213
f 224/15/214 236/15/214 235/13/214 223/13/214
f 221/9/215 233/9/215 232/7/215 220/7/215
f 228/23/216 240/23/216 239/21/216 227/21/216
f 217/3/217 229/3/217 230/2/217 218/2/217
f 225/17/218 237/17/218 236/15/218 224/15/218
f 222/11/219 234/11/219 233/9/219 221/9/219
f 230/25/208 242/25/208 252/23/208 240/23/208
f 231/5/208 243/5/208 241/3/208 229/3/208
f 238/19/208 250/19/208 249/17/208 237/17/208
f 235/13/208 247/13/208 246/11/208 234/11/208
f 232/7/208 244/7/208 243/5/208 231/5/208
f 239/21/208 251/21/208 250/19/208 238/19/208
f 236/15/208 248/15/208 247/13/208 235/13/208
f 233/9/208 245/9/208 244/7/208 232/7/208
f 240/23/208 252/23/208 251/21/208 239/21/208
f 229/3/208 241/3/208 242/2/208 230/2/208
f 237/17/208 249/17/208 248/15/208 236/15/208
usemtl Material.002
f 123/53/86 122/9/86 113/9/86 114/11/86
f 120/23/87 119/21/87 155/21/87 156/23/87
f 127/25/88 126/54/88 120/23/88 110/25/88
f 131/55/89 130/56/89 109/3/89 111/5/89
f 135/57/90 134/17/90 117/17/90 118/19/90
f 137/13/91 123/53/91 114/11/91 115/13/91
f 139/58/92 131/55/92 111/5/92 112/7/92
f 141/59/93 135/57/93 118/19/93 119/21/93
f 143/60/94 137/13/94 115/13/94 116/15/94
f 122/9/95 139/58/95 112/7/95 113/9/95
f 126/54/96 141/59/96 119/21/96 120/23/96
f 130/56/97 127/2/97 110/2/97 109/3/97
f 134/17/98 143/60/98 116/15/98 117/17/98
f 105/17/99 104/15/99 144/15/99 133/61/99
f 133/61/100 144/15/100 143/60/100 134/17/100
f 97/3/101 98/2/101 128/2/101 129/56/101
f 129/56/102 128/2/102 127/2/102 130/56/102
f 108/23/103 107/21/103 142/21/103 125/54/103
f 125/54/104 142/21/104 141/59/104 126/54/104
f 101/9/105 100/7/105 140/58/105 121/9/105
f 121/9/106 140/58/106 139/58/106 122/9/106
f 104/15/107 103/13/107 138/13/107 144/15/107
f 144/15/108 138/13/108 137/13/108 143/60/108
f 107/21/109 106/19/109 136/19/109 142/21/109
f 142/21/110 136/19/110 135/57/110 141/59/110
f 100/7/111 99/5/111 132/62/111 140/58/111
f 140/58/112 132/62/112 131/55/112 139/58/112
f 103/13/113 102/11/113 124/53/113 138/13/113
f 138/13/114 124/53/114 123/53/114 137/13/114
f 106/19/115 105/17/115 133/61/115 136/19/115
f 136/19/116 133/61/116 134/17/116 135/57/116
f 99/5/117 97/3/117 129/56/117 132/62/117
f 132/62/118 129/56/118 130/56/118 131/55/118
f 98/25/119 108/23/119 125/54/119 128/25/119
f 128/25/120 125/54/120 126/54/120 127/25/120
f 102/11/121 101/9/121 121/9/121 124/53/121
f 124/53/122 121/9/122 122/9/122 123/53/122
f 145/63/123 146/64/123 156/65/123 155/66/123 154/67/123 153/68/123 152/69/123 151/70/123 150/71/123 149/72/123 148/73/123 147/74/123
f 109/3/124 110/2/124 146/2/124 145/3/124
f 117/17/125 116/15/125 152/15/125 153/17/125
f 114/11/126 113/9/126 149/9/126 150/11/126
f 110/25/127 120/23/127 156/23/127 146/25/127
f 111/5/128 109/3/128 145/3/128 147/5/128
f 118/19/129 117/17/129 153/17/129 154/19/129
f 115/13/130 114/11/130 150/11/130 151/13/130
f 112/7/131 111/5/131 147/5/131 148/7/131
f 119/21/132 118/19/132 154/19/132 155/21/132
f 116/15/133 115/13/133 151/13/133 152/15/133
f 113/9/134 112/7/134 148/7/134 149/9/134
f 267/53/220 258/11/220 257/9/220 266/9/220
f 264/23/221 300/23/221 299/21/221 263/21/221
f 271/25/222 254/25/222 264/23/222 270/54/222
f 275/55/223 255/5/223 253/3/223 274/56/223
f 279/57/224 262/19/224 261/17/224 278/17/224
f 281/13/225 259/13/225 258/11/225 267/53/225
f 283/58/226 256/7/226 255/5/226 275/55/226
f 285/59/227 263/21/227 262/19/227 279/57/227
f 287/60/228 260/15/228 259/13/228 281/13/228
f 266/9/229 257/9/229 256/7/229 283/58/229
f 270/54/230 264/23/230 263/21/230 285/59/230
f 274/56/231 253/3/231 254/2/231 271/2/231
f 278/17/232 261/17/232 260/15/232 287/60/232
f 249/17/99 277/61/99 288/15/99 248/15/99
f 277/61/233 278/17/233 287/60/233 288/15/233
f 241/3/101 273/56/101 272/2/101 242/2/101
f 273/56/234 274/56/234 271/2/234 272/2/234
f 252/23/103 269/54/103 286/21/103 251/21/103
f 269/54/235 270/54/235 285/59/235 286/21/235
f 245/9/105 265/9/105 284/58/105 244/7/105
f 265/9/236 266/9/236 283/58/236 284/58/236
f 248/15/107 288/15/107 282/13/107 247/13/107
f 288/15/237 287/60/237 281/13/237 282/13/237
f 251/21/109 286/21/109 280/19/109 250/19/109
f 286/21/238 285/59/238 279/57/238 280/19/238
f 244/7/111 284/58/111 276/62/111 243/5/111
f 284/58/239 283/58/239 275/55/239 276/62/239
f 247/13/113 282/13/113 268/53/113 246/11/113
f 282/13/240 281/13/240 267/53/240 268/53/240
f 250/19/115 280/19/115 277/61/115 249/17/115
f 280/19/241 279/57/241 278/17/241 277/61/241
f 243/5/117 276/62/117 273/56/117 241/3/117
f 276/62/242 275/55/242 274/56/242 273/56/242
f 242/25/119 272/25/119 269/54/119 252/23/119
f 272/25/243 271/25/243 270/54/243 269/54/243
f 246/11/121 268/53/121 265/9/121 245/9/121
f 268/53/244 267/53/244 266/9/244 265/9/244
f 289/63/245 291/74/245 292/73/245 293/72/245 294/71/245 295/70/245 296/69/245 297/68/245 298/67/245 299/66/245 300/65/245 290/64/245
f 253/3/246 289/3/246 290/2/246 254/2/246
f 261/17/247 297/17/247 296/15/247 260/15/247
f 258/11/248 294/11/248 293/9/248 257/9/248
f 254/25/249 290/25/249 300/23/249 264/23/249
f 255/5/250 291/5/250 289/3/250 253/3/250
f 262/19/251 298/19/251 297/17/251 261/17/251
f 259/13/252 295/13/252 294/11/252 258/11/252
f 256/7/253 292/7/253 291/5/253 255/5/253
f 263/21/254 299/21/254 298/19/254 262/19/254
f 260/15/255 296/15/255 295/13/255 259/13/255
f 257/9/256 293/9/256 292/7/256 256/7/256
usemtl Material.001
f 326/1/257 327/4/257 304/3/257 302/2/257
f 327/4/258 329/6/258 306/5/258 304/3/258
f 329/6/259 331/8/259 308/7/259 306/5/259
f 331/8/260 333/10/260 310/9/260 308/7/260
f 333/10/261 335/12/261 312/11/261 310/9/261
f 335/12/262 337/14/262 314/13/262 312/11/262
f 337/14/263 339/16/263 316/15/263 314/13/263
f 339/16/264 341/18/264 318/17/264 316/15/264
f 341/18/265 343/20/265 320/19/265 318/17/265
f 343/20/266 345/22/266 322/21/266 320/19/266
f 312/11/267 354/11/267 353/9/267 310/9/267
f 345/22/268 347/24/268 324/23/268 322/21/268
f 347/24/269 326/26/269 302/25/269 324/23/269
f 323/27/270 301/30/270 325/29/270 348/28/270
f 348/28/161 325/29/161 326/26/161 347/24/161
f 321/31/271 323/27/271 348/28/271 346/32/271
f 346/32/163 348/28/163 347/24/163 345/22/163
f 319/33/272 321/31/272 346/32/272 344/34/272
f 344/34/165 346/32/165 345/22/165 343/20/165
f 317/35/273 319/33/273 344/34/273 342/36/273
f 342/36/167 344/34/167 343/20/167 341/18/167
f 315/37/274 317/35/274 342/36/274 340/38/274
f 340/38/169 342/36/169 341/18/169 339/16/169
f 313/39/275 315/37/275 340/38/275 338/40/275
f 338/40/171 340/38/171 339/16/171 337/14/171
f 311/41/276 313/39/276 338/40/276 336/42/276
f 336/42/149 338/40/149 337/14/149 335/12/149
f 309/43/277 311/41/277 336/42/277 334/44/277
f 334/44/151 336/42/151 335/12/151 333/10/151
f 307/45/278 309/43/278 334/44/278 332/46/278
f 332/46/153 334/44/153 333/10/153 331/8/153
f 305/47/279 307/45/279 332/46/279 330/48/279
f 330/48/155 332/46/155 331/8/155 329/6/155
f 303/49/280 305/47/280 330/48/280 328/50/280
f 328/50/157 330/48/157 329/6/157 327/4/157
f 301/51/281 303/49/281 328/50/281 325/52/281
f 325/52/159 328/50/159 327/4/159 326/1/159
f 358/19/282 370/19/282 369/17/282 357/17/282
f 310/9/283 353/9/283 352/7/283 308/7/283
f 302/25/284 350/25/284 360/23/284 324/23/284
f 304/3/285 349/3/285 350/2/285 302/2/285
f 308/7/286 352/7/286 351/5/286 306/5/286
f 324/23/287 360/23/287 359/21/287 322/21/287
f 306/5/288 351/5/288 349/3/288 304/3/288
f 322/21/289 359/21/289 358/19/289 320/19/289
f 320/19/290 358/19/290 357/17/290 318/17/290
f 318/17/291 357/17/291 356/15/291 316/15/291
f 316/15/292 356/15/292 355/13/292 314/13/292
f 314/13/293 355/13/293 354/11/293 312/11/293
f 363/5/294 375/5/294 373/3/294 361/3/294
f 355/13/295 367/13/295 366/11/295 354/11/295
f 352/7/296 364/7/296 363/5/296 351/5/296
f 359/21/297 371/21/297 370/19/297 358/19/297
f 356/15/298 368/15/298 367/13/298 355/13/298
f 353/9/299 365/9/299 364/7/299 352/7/299
f 360/23/300 372/23/300 371/21/300 359/21/300
f 349/3/301 361/3/301 362/2/301 350/2/301
f 357/17/302 369/17/302 368/15/302 356/15/302
f 354/11/303 366/11/303 365/9/303 353/9/303
f 350/25/304 362/25/304 372/23/304 360/23/304
f 351/5/305 363/5/305 361/3/305 349/3/305
f 374/25/306 386/25/306 396/23/306 384/23/306
f 370/19/307 382/19/307 381/17/307 369/17/307
f 367/13/308 379/13/308 378/11/308 366/11/308
f 364/7/309 376/7/309 375/5/309 363/5/309
f 371/21/310 383/21/310 382/19/310 370/19/310
f 368/15/311 380/15/311 379/13/311 367/13/311
f 365/9/312 377/9/312 376/7/312 364/7/312
f 372/23/313 384/23/313 383/21/313 371/21/313
f 361/3/314 373/3/314 374/2/314 362/2/314
f 369/17/315 381/17/315 380/15/315 368/15/315
f 366/11/316 378/11/316 377/9/316 365/9/316
f 362/25/317 374/25/317 384/23/317 372/23/317
f 390/11/318 402/11/318 401/9/318 389/9/318
f 375/5/319 387/5/319 385/3/319 373/3/319
f 382/19/320 394/19/320 393/17/320 381/17/320
f 379/13/321 391/13/321 390/11/321 378/11/321
f 376/7/322 388/7/322 387/5/322 375/5/322
f 383/21/323 395/21/323 394/19/323 382/19/323
f 380/15/324 392/15/324 391/13/324 379/13/324
f 377/9/325 389/9/325 388/7/325 376/7/325
f 384/23/326 396/23/326 395/21/326 383/21/326
f 373/3/327 385/3/327 386/2/327 374/2/327
f 381/17/328 393/17/328 392/15/328 380/15/328
f 378/11/329 390/11/329 389/9/329 377/9/329
f 423/53/330 414/11/330 413/9/330 422/9/330
f 386/25/331 398/25/331 408/23/331 396/23/331
f 387/5/332 399/5/332 397/3/332 385/3/332
f 394/19/333 406/19/333 405/17/333 393/17/333
f 391/13/334 403/13/334 402/11/334 390/11/334
f 388/7/335 400/7/335 399/5/335 387/5/335
f 395/21/336 407/21/336 406/19/336 394/19/336
f 392/15/337 404/15/337 403/13/337 391/13/337
f 389/9/338 401/9/338 400/7/338 388/7/338
f 396/23/339 408/23/339 407/21/339 395/21/339
f 385/3/340 397/3/340 398/2/340 386/2/340
f 393/17/341 405/17/341 404/15/341 392/15/341
f 420/23/342 456/23/342 455/21/342 419/21/342
f 427/25/343 410/25/343 420/23/343 426/54/343
f 431/55/344 411/5/344 409/3/344 430/56/344
f 435/57/345 418/19/345 417/17/345 434/17/345
f 437/13/346 415/13/346 414/11/346 423/53/346
f 439/58/347 412/7/347 411/5/347 431/55/347
f 441/59/348 419/21/348 418/19/348 435/57/348
f 443/60/349 416/15/349 415/13/349 437/13/349
f 422/9/350 413/9/350 412/7/350 439/58/350
f 426/54/351 420/23/351 419/21/351 441/59/351
f 430/56/352 409/3/352 410/2/352 427/2/352
f 434/17/353 417/17/353 416/15/353 443/60/353
f 405/17/354 433/61/354 444/15/354 404/15/354
f 433/61/355 434/17/355 443/60/355 444/15/355
f 397/3/356 429/56/356 428/2/356 398/2/356
f 429/56/357 430/56/357 427/2/357 428/2/357
f 408/23/358 425/54/358 442/21/358 407/21/358
f 425/54/359 426/54/359 441/59/359 442/21/359
f 401/9/360 421/9/360 440/58/360 400/7/360
f 421/9/361 422/9/361 439/58/361 440/58/361
f 404/15/362 444/15/362 438/13/362 403/13/362
f 444/15/363 443/60/363 437/13/363 438/13/363
f 407/21/364 442/21/364 436/19/364 406/19/364
f 442/21/365 441/59/365 435/57/365 436/19/365
f 400/7/366 440/58/366 432/62/366 399/5/366
f 440/58/367 439/58/367 431/55/367 432/62/367
f 403/13/368 438/13/368 424/53/368 402/11/368
f 438/13/369 437/13/369 423/53/369 424/53/369
f 406/19/370 436/19/370 433/61/370 405/17/370
f 436/19/371 435/57/371 434/17/371 433/61/371
f 399/5/372 432/62/372 429/56/372 397/3/372
f 432/62/373 431/55/373 430/56/373 429/56/373
f 398/25/374 428/25/374 425/54/374 408/23/374
f 428/25/375 427/25/375 426/54/375 425/54/375
f 402/11/376 424/53/376 421/9/376 401/9/376
f 424/53/377 423/53/377 422/9/377 421/9/377
f 445/63/378 447/74/378 448/73/378 449/72/378 450/71/378 451/70/378 452/69/378 453/68/378 454/67/378 455/66/378 456/65/378 446/64/378
f 409/3/379 445/3/379 446/2/379 410/2/379
f 417/17/380 453/17/380 452/15/380 416/15/380
f 414/11/381 450/11/381 449/9/381 413/9/381
f 410/25/382 446/25/382 456/23/382 420/23/382
f 411/5/383 447/5/383 445/3/383 409/3/383
f 418/19/384 454/19/384 453/17/384 417/17/384
f 415/13/385 451/13/385 450/11/385 414/11/385
f 412/7/386 448/7/386 447/5/386 411/5/386
f 419/21/387 455/21/387 454/19/387 418/19/387
f 416/15/388 452/15/388 451/13/388 415/13/388
f 413/9/389 449/9/389 448/7/389 412/7/389
f 470/1/390 457/2/390 458/3/390 471/4/390
f 471/4/391 458/3/391 459/5/391 473/6/391
f 473/6/392 459/5/392 460/7/392 475/8/392
f 475/8/393 460/7/393 461/9/393 477/10/393
f 477/10/394 461/9/394 462/11/394 479/12/394
f 479/12/395 462/11/395 463/13/395 481/14/395
f 481/14/396 463/13/396 464/15/396 483/16/396
f 483/16/397 464/15/397 465/17/397 485/18/397
f 485/18/398 465/17/398 466/19/398 487/20/398
f 487/20/399 466/19/399 467/21/399 489/22/399
f 462/11/400 461/9/400 497/9/400 498/11/400
f 489/22/401 467/21/401 468/23/401 491/24/401
f 491/24/402 468/23/402 457/25/402 470/26/402
f 323/27/403 492/28/403 469/29/403 301/30/403
f 492/28/27 491/24/27 470/26/27 469/29/27
f 321/31/404 490/32/404 492/28/404 323/27/404
f 490/32/29 489/22/29 491/24/29 492/28/29
f 319/33/405 488/34/405 490/32/405 321/31/405
f 488/34/31 487/20/31 489/22/31 490/32/31
f 317/35/406 486/36/406 488/34/406 319/33/406
f 486/36/33 485/18/33 487/20/33 488/34/33
f 315/37/407 484/38/407 486/36/407 317/35/407
f 484/38/35 483/16/35 485/18/35 486/36/35
f 313/39/408 482/40/408 484/38/408 315/37/408
f 482/40/37 481/14/37 483/16/37 484/38/37
f 311/41/409 480/42/409 482/40/409 313/39/409
f 480/42/15 479/12/15 481/14/15 482/40/15
f 309/43/410 478/44/410 480/42/410 311/41/410
f 478/44/17 477/10/17 479/12/17 480/42/17
f 307/45/411 476/46/411 478/44/411 309/43/411
f 476/46/19 475/8/19 477/10/19 478/44/19
f 305/47/412 474/48/412 476/46/412 307/45/412
f 474/48/21 473/6/21 475/8/21 476/46/21
f 303/49/413 472/50/413 474/48/413 305/47/413
f 472/50/23 471/4/23 473/6/23 474/48/23
f 301/51/414 469/52/414 472/50/414 303/49/414
f 469/52/25 470/1/25 471/4/25 472/50/25
f 502/19/415 501/17/415 513/17/415 514/19/415
f 461/9/416 460/7/416 496/7/416 497/9/416
f 457/25/417 468/23/417 504/23/417 494/25/417
f 458/3/418 457/2/418 494/2/418 493/3/418
f 460/7/419 459/5/419 495/5/419 496/7/419
f 468/23/420 467/21/420 503/21/420 504/23/420
f 459/5/421 458/3/421 493/3/421 495/5/421
f 467/21/422 466/19/422 502/19/422 503/21/422
f 466/19/423 465/17/423 501/17/423 502/19/423
f 465/17/424 464/15/424 500/15/424 501/17/424
f 464/15/425 463/13/425 499/13/425 500/15/425
f 463/13/426 462/11/426 498/11/426 499/13/426
f 507/5/427 505/3/427 517/3/427 519/5/427
f 499/13/428 498/11/428 510/11/428 511/13/428
f 496/7/429 495/5/429 507/5/429 508/7/429
f 503/21/430 502/19/430 514/19/430 515/21/430
f 500/15/431 499/13/431 511/13/431 512/15/431
f 497/9/432 496/7/432 508/7/432 509/9/432
f 504/23/433 503/21/433 515/21/433 516/23/433
f 493/3/434 494/2/434 506/2/434 505/3/434
f 501/17/435 500/15/435 512/15/435 513/17/435
f 498/11/436 497/9/436 509/9/436 510/11/436
f 494/25/437 504/23/437 516/23/437 506/25/437
f 495/5/438 493/3/438 505/3/438 507/5/438
f 518/25/439 528/23/439 540/23/439 530/25/439
f 514/19/440 513/17/440 525/17/440 526/19/440
f 511/13/441 510/11/441 522/11/441 523/13/441
f 508/7/442 507/5/442 519/5/442 520/7/442
f 515/21/443 514/19/443 526/19/443 527/21/443
f 512/15/444 511/13/444 523/13/444 524/15/444
f 509/9/445 508/7/445 520/7/445 521/9/445
f 516/23/446 515/21/446 527/21/446 528/23/446
f 505/3/447 506/2/447 518/2/447 517/3/447
f 513/17/448 512/15/448 524/15/448 525/17/448
f 510/11/449 509/9/449 521/9/449 522/11/449
f 506/25/450 516/23/450 528/23/450 518/25/450
f 534/11/451 533/9/451 545/9/451 546/11/451
f 519/5/452 517/3/452 529/3/452 531/5/452
f 526/19/453 525/17/453 537/17/453 538/19/453
f 523/13/454 522/11/454 534/11/454 535/13/454
f 520/7/455 519/5/455 531/5/455 532/7/455
f 527/21/456 526/19/456 538/19/456 539/21/456
f 524/15/457 523/13/457 535/13/457 536/15/457
f 521/9/458 520/7/458 532/7/458 533/9/458
f 528/23/459 527/21/459 539/21/459 540/23/459
f 517/3/460 518/2/460 530/2/460 529/3/460
f 525/17/461 524/15/461 536/15/461 537/17/461
f 522/11/462 521/9/462 533/9/462 534/11/462
f 567/53/463 566/9/463 557/9/463 558/11/463
f 530/25/464 540/23/464 552/23/464 542/25/464
f 531/5/465 529/3/465 541/3/465 543/5/465
f 538/19/466 537/17/466 549/17/466 550/19/466
f 535/13/467 534/11/467 546/11/467 547/13/467
f 532/7/468 531/5/468 543/5/468 544/7/468
f 539/21/469 538/19/469 550/19/469 551/21/469
f 536/15/470 535/13/470 547/13/470 548/15/470
f 533/9/471 532/7/471 544/7/471 545/9/471
f 540/23/472 539/21/472 551/21/472 552/23/472
f 529/3/473 530/2/473 542/2/473 541/3/473
f 537/17/474 536/15/474 548/15/474 549/17/474
f 564/23/475 563/21/475 599/21/475 600/23/475
f 571/25/476 570/54/476 564/23/476 554/25/476
f 575/55/477 574/56/477 553/3/477 555/5/477
f 579/57/478 578/17/478 561/17/478 562/19/478
f 581/13/479 567/53/479 558/11/479 559/13/479
f 583/58/480 575/55/480 555/5/480 556/7/480
f 585/59/481 579/57/481 562/19/481 563/21/481
f 587/60/482 581/13/482 559/13/482 560/15/482
f 566/9/483 583/58/483 556/7/483 557/9/483
f 570/54/484 585/59/484 563/21/484 564/23/484
f 574/56/485 571/2/485 554/2/485 553/3/485
f 578/17/486 587/60/486 560/15/486 561/17/486
f 549/17/487 548/15/487 588/15/487 577/61/487
f 577/61/488 588/15/488 587/60/488 578/17/488
f 541/3/489 542/2/489 572/2/489 573/56/489
f 573/56/490 572/2/490 571/2/490 574/56/490
f 552/23/491 551/21/491 586/21/491 569/54/491
f 569/54/492 586/21/492 585/59/492 570/54/492
f 545/9/493 544/7/493 584/58/493 565/9/493
f 565/9/494 584/58/494 583/58/494 566/9/494
f 548/15/495 547/13/495 582/13/495 588/15/495
f 588/15/496 582/13/496 581/13/496 587/60/496
f 551/21/497 550/19/497 580/19/497 586/21/497
f 586/21/498 580/19/498 579/57/498 585/59/498
f 544/7/499 543/5/499 576/62/499 584/58/499
f 584/58/500 576/62/500 575/55/500 583/58/500
f 547/13/501 546/11/501 568/53/501 582/13/501
f 582/13/502 568/53/502 567/53/502 581/13/502
f 550/19/503 549/17/503 577/61/503 580/19/503
f 580/19/504 577/61/504 578/17/504 579/57/504
f 543/5/505 541/3/505 573/56/505 576/62/505
f 576/62/506 573/56/506 574/56/506 575/55/506
f 542/25/507 552/23/507 569/54/507 572/25/507
f 572/25/508 569/54/508 570/54/508 571/25/508
f 546/11/509 545/9/509 565/9/509 568/53/509
f 568/53/510 565/9/510 566/9/510 567/53/510
f 589/63/511 590/64/511 600/65/511 599/66/511 598/67/511 597/68/511 596/69/511 595/70/511 594/71/511 593/72/511 592/73/511 591/74/511
f 553/3/512 554/2/512 590/2/512 589/3/512
f 561/17/513 560/15/513 596/15/513 597/17/513
f 558/11/514 557/9/514 593/9/514 594/11/514
f 554/25/515 564/23/515 600/23/515 590/25/515
f 555/5/516 553/3/516 589/3/516 591/5/516
f 562/19/517 561/17/517 597/17/517 598/19/517
f 559/13/518 558/11/518 594/11/518 595/13/518
f 556/7/519 555/5/519 591/5/519 592/7/519
f 563/21/520 562/19/520 598/19/520 599/21/520
f 560/15/521 559/13/521 595/13/521 596/15/521
f 557/9/522 556/7/522 592/7/522 593/9/522
