# Blender 5.0.1
# www.blender.org
mtllib xandText.mtl
o Cube
v 0.017928 0.273324 -1.008988
v 0.017928 -0.273324 -1.052003
v 0.017928 0.273324 1.000000
v 0.017928 -0.273324 1.000000
v -0.017928 0.273324 -1.008988
v -0.017928 -0.273324 -1.052003
v -0.017928 0.273324 1.000000
v -0.017928 -0.273324 1.000000
v 0.017928 0.182216 -1.000000
v 0.017928 0.091108 -1.038910
v 0.017928 -0.000000 -1.000000
v 0.017928 -0.091108 -1.029830
v 0.017928 -0.182216 -1.000000
v -0.017928 -0.182216 1.000000
v -0.017928 -0.091108 1.000000
v -0.017928 0.000000 1.000000
v -0.017928 0.091108 1.000000
v -0.017928 0.182216 1.000000
v 0.017928 0.182216 1.000000
v 0.017928 0.091108 1.000000
v 0.017928 -0.000000 1.000000
v 0.017928 -0.091108 1.000000
v 0.017928 -0.182216 1.000000
v -0.017928 0.182216 -1.000000
v -0.017928 0.091108 -1.038910
v -0.017928 -0.000000 -1.000000
v -0.017928 -0.091108 -1.029830
v -0.017928 -0.182216 -1.000000
v 0.018134 0.276441 -1.020704
v 0.018132 -0.276246 -1.064490
v 0.018135 0.276481 1.011547
v 0.018135 -0.276481 1.011547
v -0.018134 0.276441 -1.020704
v -0.018132 -0.276246 -1.064490
v -0.018135 0.276481 1.011547
v -0.018135 -0.276481 1.011547
v 0.018187 0.182385 -1.013792
v 0.018172 0.091108 -1.053538
v 0.018190 -0.000050 -1.013648
v 0.018174 -0.091108 -1.044352
v 0.018192 -0.182095 -1.013542
v -0.018181 -0.182216 1.014142
v -0.018181 -0.091108 1.014142
v -0.018181 0.000000 1.014142
v -0.018181 0.091108 1.014142
v -0.018181 0.182216 1.014142
v 0.018181 0.182216 1.014142
v 0.018181 0.091108 1.014142
v 0.018181 -0.000000 1.014142
v 0.018181 -0.091108 1.014142
v 0.018181 -0.182216 1.014142
v -0.018187 0.182385 -1.013792
v -0.018172 0.091108 -1.053538
v -0.018190 -0.000050 -1.013648
v -0.018174 -0.091108 -1.044352
v -0.018192 -0.182095 -1.013542
vn -0.0000 1.0000 -0.0000
vn -0.0000 -0.0000 1.0000
vn -1.0000 -0.0000 -0.0000
vn -0.0000 -1.0000 -0.0000
vn 1.0000 -0.0000 -0.0000
vn -0.0000 -0.0982 -0.9952
vn -0.0000 0.4957 -0.8685
vn -0.0000 -0.3112 -0.9504
vn -0.0000 0.3112 -0.9504
vn -0.0000 -0.3928 -0.9196
vn -0.0000 0.3928 -0.9196
vn -0.0000 -0.0275 -0.9996
vn 1.0000 -0.0005 -0.0000
vn -0.0000 1.0000 0.0001
vn -1.0000 -0.0005 -0.0000
vn -0.0000 0.0733 0.9973
vn -0.0000 -0.4759 0.8795
vn -0.0000 0.3207 0.9472
vn -0.0000 -0.3195 0.9476
vn -0.0000 0.4009 0.9161
vn -0.0000 -0.3992 0.9168
vn -1.0000 0.0006 -0.0000
vn -1.0000 -0.0001 -0.0000
vn -1.0000 0.0001 -0.0000
vn 1.0000 0.0006 -0.0000
vn 1.0000 -0.0001 -0.0000
vn 1.0000 0.0001 -0.0000
vn -0.0000 0.0275 -0.9996
vn -0.0000 -0.0000 -1.0000
vt 0.625000 0.500000
vt 0.875000 0.500000
vt 0.875000 0.750000
vt 0.625000 0.750000
vt 0.583333 0.750000
vt 0.625000 1.000000
vt 0.583333 1.000000
vt 0.583333 0.000000
vt 0.625000 0.000000
vt 0.625000 0.250000
vt 0.583333 0.250000
vt 0.125000 0.500000
vt 0.375000 0.500000
vt 0.375000 0.750000
vt 0.125000 0.750000
vt 0.583333 0.500000
vt 0.375000 0.250000
vt 0.416667 0.250000
vt 0.416667 0.500000
vt 0.458333 0.250000
vt 0.458333 0.500000
vt 0.500000 0.250000
vt 0.500000 0.500000
vt 0.541667 0.250000
vt 0.541667 0.500000
vt 0.416667 0.750000
vt 0.458333 0.750000
vt 0.500000 0.750000
vt 0.541667 0.750000
vt 0.375000 0.000000
vt 0.416667 0.000000
vt 0.458333 0.000000
vt 0.500000 0.000000
vt 0.541667 0.000000
vt 0.416667 1.000000
vt 0.375000 1.000000
vt 0.458333 1.000000
vt 0.500000 1.000000
vt 0.541667 1.000000
s 0
usemtl Material
f 1/1/1 5/2/1 7/3/1 3/4/1
f 19/5/2 3/4/2 7/6/2 18/7/2
f 18/8/3 7/9/3 5/10/3 24/11/3
f 6/12/4 2/13/4 4/14/4 8/15/4
f 9/16/5 1/1/5 3/4/5 19/5/5
f 24/11/6 5/10/6 1/1/6 9/16/6
f 6/17/7 28/18/7 13/19/7 2/13/7
f 28/18/8 27/20/8 12/21/8 13/19/8
f 27/20/9 26/22/9 11/23/9 12/21/9
f 26/22/10 25/24/10 10/25/10 11/23/10
f 25/24/11 24/11/11 9/16/11 10/25/11
f 2/13/5 13/19/5 23/26/5 4/14/5
f 13/19/5 12/21/5 22/27/5 23/26/5
f 12/21/5 11/23/5 21/28/5 22/27/5
f 11/23/5 10/25/5 20/29/5 21/28/5
f 10/25/5 9/16/5 19/5/5 20/29/5
f 8/30/3 14/31/3 28/18/3 6/17/3
f 14/31/3 15/32/3 27/20/3 28/18/3
f 15/32/3 16/33/3 26/22/3 27/20/3
f 16/33/3 17/34/3 25/24/3 26/22/3
f 17/34/3 18/8/3 24/11/3 25/24/3
f 4/14/2 23/26/2 14/35/2 8/36/2
f 23/26/2 22/27/2 15/37/2 14/35/2
f 22/27/2 21/28/2 16/38/2 15/37/2
f 21/28/2 20/29/2 17/39/2 16/38/2
f 20/29/2 19/5/2 18/7/2 17/39/2
usemtl Material.002
f 29/1/4 31/4/4 35/3/4 33/2/4
f 47/5/12 46/7/12 35/6/12 31/4/12
f 46/8/13 52/11/13 33/10/13 35/9/13
f 34/12/14 36/15/14 32/14/14 30/13/14
f 37/16/15 47/5/15 31/4/15 29/1/15
f 52/11/16 37/16/16 29/1/16 33/10/16
f 34/17/17 30/13/17 41/19/17 56/18/17
f 56/18/18 41/19/18 40/21/18 55/20/18
f 55/20/19 40/21/19 39/23/19 54/22/19
f 54/22/20 39/23/20 38/25/20 53/24/20
f 53/24/21 38/25/21 37/16/21 52/11/21
f 30/13/22 32/14/22 51/26/22 41/19/22
f 41/19/23 51/26/23 50/27/23 40/21/23
f 40/21/24 50/27/24 49/28/24 39/23/24
f 39/23/23 49/28/23 48/29/23 38/25/23
f 38/25/24 48/29/24 47/5/24 37/16/24
f 36/30/25 34/17/25 56/18/25 42/31/25
f 42/31/26 56/18/26 55/20/26 43/32/26
f 43/32/27 55/20/27 54/22/27 44/33/27
f 44/33/26 54/22/26 53/24/26 45/34/26
f 45/34/27 53/24/27 52/11/27 46/8/27
f 32/14/28 36/36/28 42/35/28 51/26/28
f 51/26/29 42/35/29 43/37/29 50/27/29
f 50/27/29 43/37/29 44/38/29 49/28/29
f 49/28/29 44/38/29 45/39/29 48/29/29
f 48/29/29 45/39/29 46/7/29 47/5/29
o Text
v 0.023897 -0.194036 -0.527634
v 0.023897 -0.194036 -0.701801
v 0.023897 -0.191831 -0.737412
v 0.023897 -0.185454 -0.770511
v 0.023897 -0.175263 -0.800987
v 0.023897 -0.161613 -0.828727
v 0.023897 -0.144863 -0.853622
v 0.023897 -0.125368 -0.875558
v 0.023897 -0.103486 -0.894425
v 0.023897 -0.079574 -0.910112
v 0.023897 -0.053989 -0.922506
v 0.023897 -0.027087 -0.931498
v 0.023897 0.000774 -0.936974
v 0.023897 0.029238 -0.938824
v 0.023897 0.055776 -0.937299
v 0.023897 0.082379 -0.932677
v 0.023897 0.108597 -0.924890
v 0.023897 0.133975 -0.913871
v 0.023897 0.158062 -0.899550
v 0.023897 0.180406 -0.881860
v 0.023897 0.200553 -0.860733
v 0.023897 0.218051 -0.836099
v 0.023897 0.232449 -0.807893
v 0.023897 0.243293 -0.776043
v 0.023897 0.250131 -0.740484
v 0.023897 0.252511 -0.701146
v 0.023897 0.252511 -0.527634
v 0.023897 0.194892 -0.591801
v 0.023897 0.194892 -0.690670
v 0.023897 0.193346 -0.720522
v 0.023897 0.188851 -0.747577
v 0.023897 0.181623 -0.771871
v 0.023897 0.171879 -0.793443
v 0.023897 0.159833 -0.812333
v 0.023897 0.145703 -0.828579
v 0.023897 0.129705 -0.842220
v 0.023897 0.112053 -0.853293
v 0.023897 0.092964 -0.861839
v 0.023897 0.072655 -0.867895
v 0.023897 0.051341 -0.871500
v 0.023897 0.029238 -0.872693
v 0.023897 0.014424 -0.871952
v 0.023897 -0.002130 -0.869547
v 0.023897 -0.019849 -0.865205
v 0.023897 -0.038154 -0.858653
v 0.023897 -0.056469 -0.849618
v 0.023897 -0.074215 -0.837828
v 0.023897 -0.090815 -0.823009
v 0.023897 -0.105692 -0.804889
v 0.023897 -0.118268 -0.783196
v 0.023897 -0.127966 -0.757655
v 0.023897 -0.134208 -0.727996
v 0.023897 -0.136417 -0.693944
v 0.023897 -0.136417 -0.591801
v 0.023897 0.252511 -0.428765
v 0.023897 0.252511 -0.368527
v 0.023897 -0.093203 -0.368527
v 0.023897 0.252511 -0.066027
v 0.023897 0.252511 -0.014956
v 0.023897 -0.194036 -0.014956
v 0.023897 -0.194036 -0.075194
v 0.023897 0.149714 -0.075194
v 0.023897 -0.194036 -0.373765
v 0.023897 -0.194036 -0.428765
v 0.023897 0.255130 0.233198
v 0.023897 0.255130 0.278377
v 0.023897 -0.194036 0.470222
v 0.023897 -0.194036 0.404746
v 0.023897 -0.062429 0.348437
v 0.023897 -0.062429 0.158556
v 0.023897 -0.194036 0.098972
v 0.023897 -0.194036 0.033496
v 0.023897 0.156916 0.256770
v 0.023897 -0.004810 0.184746
v 0.023897 -0.004810 0.323556
v 0.023897 0.252511 0.483972
v 0.023897 0.252511 0.561234
v 0.023897 0.082273 0.700698
v 0.023897 0.252511 0.840817
v 0.023897 0.252511 0.918734
v 0.023897 0.037095 0.739984
v 0.023897 -0.194036 0.932484
v 0.023897 -0.194036 0.854567
v 0.023897 -0.009393 0.700698
v 0.023897 -0.194036 0.548793
v 0.023897 -0.194036 0.471532
v 0.023897 0.037095 0.662067
v 0.033897 -0.194036 -0.527634
v 0.033897 -0.194036 -0.701801
v 0.033897 -0.191831 -0.737412
v 0.033897 -0.185454 -0.770511
v 0.033897 -0.175263 -0.800987
v 0.033897 -0.161613 -0.828727
v 0.033897 -0.144863 -0.853622
v 0.033897 -0.125368 -0.875558
v 0.033897 -0.103486 -0.894425
v 0.033897 -0.079574 -0.910112
v 0.033897 -0.053989 -0.922506
v 0.033897 -0.027087 -0.931498
v 0.033897 0.000774 -0.936974
v 0.033897 0.029238 -0.938824
v 0.033897 0.055776 -0.937299
v 0.033897 0.082379 -0.932677
v 0.033897 0.108597 -0.924890
v 0.033897 0.133975 -0.913871
v 0.033897 0.158062 -0.899550
v 0.033897 0.180406 -0.881860
v 0.033897 0.200553 -0.860733
v 0.033897 0.218051 -0.836099
v 0.033897 0.232449 -0.807893
v 0.033897 0.243293 -0.776043
v 0.033897 0.250131 -0.740484
v 0.033897 0.252511 -0.701146
v 0.033897 0.252511 -0.527634
v 0.033897 0.194892 -0.591801
v 0.033897 0.194892 -0.690670
v 0.033897 0.193346 -0.720522
v 0.033897 0.188851 -0.747577
v 0.033897 0.181623 -0.771871
v 0.033897 0.171879 -0.793443
v 0.033897 0.159833 -0.812333
v 0.033897 0.145703 -0.828579
v 0.033897 0.129705 -0.842220
v 0.033897 0.112053 -0.853293
v 0.033897 0.092964 -0.861839
v 0.033897 0.072655 -0.867895
v 0.033897 0.051341 -0.871500
v 0.033897 0.029238 -0.872693
v 0.033897 0.014424 -0.871952
v 0.033897 -0.002130 -0.869547
v 0.033897 -0.019849 -0.865205
v 0.033897 -0.038154 -0.858653
v 0.033897 -0.056469 -0.849618
v 0.033897 -0.074215 -0.837828
v 0.033897 -0.090815 -0.823009
v 0.033897 -0.105692 -0.804889
v 0.033897 -0.118268 -0.783196
v 0.033897 -0.127966 -0.757655
v 0.033897 -0.134208 -0.727996
v 0.033897 -0.136417 -0.693944
v 0.033897 -0.136417 -0.591801
v 0.033897 0.252511 -0.428765
v 0.033897 0.252511 -0.368527
v 0.033897 -0.093203 -0.368527
v 0.033897 0.252511 -0.066027
v 0.033897 0.252511 -0.014956
v 0.033897 -0.194036 -0.014956
v 0.033897 -0.194036 -0.075194
v 0.033897 0.149714 -0.075194
v 0.033897 -0.194036 -0.373765
v 0.033897 -0.194036 -0.428765
v 0.033897 0.255130 0.233198
v 0.033897 0.255130 0.278377
v 0.033897 -0.194036 0.470222
v 0.033897 -0.194036 0.404746
v 0.033897 -0.062429 0.348437
v 0.033897 -0.062429 0.158556
v 0.033897 -0.194036 0.098972
v 0.033897 -0.194036 0.033496
v 0.033897 0.156916 0.256770
v 0.033897 -0.004810 0.184746
v 0.033897 -0.004810 0.323556
v 0.033897 0.252511 0.483972
v 0.033897 0.252511 0.561234
v 0.033897 0.082273 0.700698
v 0.033897 0.252511 0.840817
v 0.033897 0.252511 0.918734
v 0.033897 0.037095 0.739984
v 0.033897 -0.194036 0.932484
v 0.033897 -0.194036 0.854567
v 0.033897 -0.009393 0.700698
v 0.033897 -0.194036 0.548793
v 0.033897 -0.194036 0.471532
v 0.033897 0.037095 0.662067
vn 1.0000 -0.0000 -0.0000
vn -1.0000 -0.0000 -0.0000
vn -0.0000 -0.0000 -1.0000
vn -0.0000 -1.0000 -0.0000
vn -0.0000 -0.9982 0.0604
vn -0.0000 -0.9820 0.1888
vn -0.0000 -0.9466 0.3223
vn -0.0000 -0.8907 0.4546
vn -0.0000 -0.8152 0.5791
vn -0.0000 1.0000 -0.0000
vn -0.0000 0.9987 -0.0517
vn -0.0000 -0.7237 0.6901
vn -0.0000 -0.0000 1.0000
vn -0.0000 0.9865 -0.1639
vn -0.0000 0.9585 -0.2852
vn -0.0000 0.9113 -0.4117
vn -0.0000 -0.6207 0.7840
vn -0.0000 0.8432 -0.5377
vn -0.0000 0.7545 -0.6563
vn -0.0000 -0.5110 0.8596
vn -0.0000 0.6488 -0.7610
vn -0.0000 -0.3983 0.9173
vn -0.0000 0.5314 -0.8471
vn -0.0000 0.4086 -0.9127
vn -0.0000 -0.2847 0.9586
vn -0.0000 0.2858 -0.9583
vn -0.0000 -0.1712 0.9852
vn -0.0000 0.1668 -0.9860
vn -0.0000 -0.0574 0.9984
vn -0.0000 0.0539 -0.9985
vn -0.0000 -0.0500 -0.9988
vn -0.0000 0.0649 0.9979
vn -0.0000 -0.1438 -0.9896
vn -0.0000 0.1929 0.9812
vn -0.0000 -0.2380 -0.9713
vn -0.0000 -0.3370 -0.9415
vn -0.0000 0.3170 0.9484
vn -0.0000 -0.4424 -0.8968
vn -0.0000 0.4360 0.9000
vn -0.0000 -0.5534 -0.8329
vn -0.0000 -0.6659 -0.7460
vn -0.0000 0.5485 0.8361
vn -0.0000 -0.7729 -0.6346
vn -0.0000 0.6530 0.7573
vn -0.0000 -0.8651 -0.5015
vn -0.0000 -0.9349 -0.3550
vn -0.0000 0.7475 0.6643
vn -0.0000 -0.9786 -0.2059
vn -0.0000 -0.9979 -0.0647
vn -0.0000 0.8297 0.5583
vn -0.0000 0.8973 0.4415
vn -0.0000 0.9484 0.3172
vn -0.0000 0.9819 0.1892
vn -0.0000 0.9981 0.0618
vn -0.0000 -0.6585 0.7526
vn -0.0000 0.6558 -0.7550
vn -0.0000 -0.3928 -0.9196
vn -0.0000 -0.4063 0.9138
vn -0.0000 0.3817 0.9243
vn -0.0000 0.4068 -0.9135
vn -0.0000 0.3934 0.9194
vn -0.0000 0.4124 -0.9110
vn -0.0000 0.6386 -0.7696
vn -0.0000 -0.6355 0.7721
vn -0.0000 -0.6337 -0.7736
vn -0.0000 0.6372 0.7707
vn -0.0000 -0.6400 -0.7684
vn -0.0000 -0.6361 0.7716
vn -0.0000 0.6402 0.7682
vn -0.0000 0.6353 -0.7722
vt 0.000000 0.000000
vt 0.509434 0.000000
vt 0.490566 0.000000
vt 0.471698 0.000000
vt 0.452830 0.000000
vt 0.433962 0.000000
vt 0.415094 0.000000
vt 0.396226 0.000000
vt 0.377358 0.000000
vt 0.528302 0.000000
vt 0.547170 0.000000
vt 0.358491 0.000000
vt 1.000000 0.000000
vt 0.566038 0.000000
vt 0.584906 0.000000
vt 0.603774 0.000000
vt 0.339623 0.000000
vt 0.622642 0.000000
vt 0.641509 0.000000
vt 0.320755 0.000000
vt 0.660377 0.000000
vt 0.301887 0.000000
vt 0.679245 0.000000
vt 0.698113 0.000000
vt 0.283019 0.000000
vt 0.716981 0.000000
vt 0.264151 0.000000
vt 0.735849 0.000000
vt 0.245283 0.000000
vt 0.754717 0.000000
vt 0.773585 0.000000
vt 0.226415 0.000000
vt 0.792453 0.000000
vt 0.207547 0.000000
vt 0.811321 0.000000
vt 0.830189 0.000000
vt 0.188679 0.000000
vt 0.849057 0.000000
vt 0.169811 0.000000
vt 0.867925 0.000000
vt 0.886792 0.000000
vt 0.150943 0.000000
vt 0.905660 0.000000
vt 0.132075 0.000000
vt 0.924528 0.000000
vt 0.943396 0.000000
vt 0.113208 0.000000
vt 0.962264 0.000000
vt 0.981132 0.000000
vt 0.094340 0.000000
vt 0.075472 0.000000
vt 0.056604 0.000000
vt 0.037736 0.000000
vt 0.018868 0.000000
vt 0.555556 0.000000
vt 0.333333 0.000000
vt 0.444444 0.000000
vt 0.777778 0.000000
vt 0.222222 0.000000
vt 0.111111 0.000000
vt 0.666667 0.000000
vt 0.888889 0.000000
vt 0.200000 0.000000
vt 0.100000 0.000000
vt 0.800000 0.000000
vt 0.700000 0.000000
vt 0.900000 0.000000
vt 0.400000 0.000000
vt 0.500000 0.000000
vt 0.300000 0.000000
vt 0.600000 0.000000
vt 0.454545 0.000000
vt 0.272727 0.000000
vt 0.363636 0.000000
vt 0.181818 0.000000
vt 0.090909 0.000000
vt 0.545455 0.000000
vt 0.727273 0.000000
vt 0.909091 0.000000
vt 0.636364 0.000000
vt 0.818182 0.000000
s 0
usemtl Material.001
f 57/40/30 84/41/30 83/42/30
f 84/41/30 82/43/30 83/42/30
f 84/41/30 81/44/30 82/43/30
f 84/41/30 80/45/30 81/44/30
f 84/41/30 79/46/30 80/45/30
f 84/41/30 78/47/30 79/46/30
f 84/41/30 77/48/30 78/47/30
f 84/41/30 85/49/30 77/48/30
f 85/49/30 86/50/30 77/48/30
f 86/50/30 76/51/30 77/48/30
f 57/40/30 110/52/30 84/41/30
f 87/53/30 76/51/30 86/50/30
f 88/54/30 76/51/30 87/53/30
f 89/55/30 76/51/30 88/54/30
f 89/55/30 75/56/30 76/51/30
f 90/57/30 75/56/30 89/55/30
f 91/58/30 75/56/30 90/57/30
f 91/58/30 74/59/30 75/56/30
f 92/60/30 74/59/30 91/58/30
f 92/60/30 73/61/30 74/59/30
f 93/62/30 73/61/30 92/60/30
f 94/63/30 73/61/30 93/62/30
f 94/63/30 72/64/30 73/61/30
f 95/65/30 72/64/30 94/63/30
f 95/65/30 71/66/30 72/64/30
f 96/67/30 71/66/30 95/65/30
f 96/67/30 70/68/30 71/66/30
f 97/69/30 70/68/30 96/67/30
f 98/70/30 70/68/30 97/69/30
f 98/70/30 69/71/30 70/68/30
f 99/72/30 69/71/30 98/70/30
f 99/72/30 68/73/30 69/71/30
f 100/74/30 68/73/30 99/72/30
f 101/75/30 68/73/30 100/74/30
f 101/75/30 67/76/30 68/73/30
f 102/77/30 67/76/30 101/75/30
f 102/77/30 66/78/30 67/76/30
f 103/79/30 66/78/30 102/77/30
f 104/80/30 66/78/30 103/79/30
f 104/80/30 65/81/30 66/78/30
f 105/82/30 65/81/30 104/80/30
f 105/82/30 64/83/30 65/81/30
f 106/84/30 64/83/30 105/82/30
f 107/85/30 64/83/30 106/84/30
f 107/85/30 63/86/30 64/83/30
f 108/87/30 63/86/30 107/85/30
f 109/88/30 63/86/30 108/87/30
f 57/40/30 109/88/30 110/52/30
f 57/40/30 63/86/30 109/88/30
f 57/40/30 62/89/30 63/86/30
f 57/40/30 61/90/30 62/89/30
f 57/40/30 60/91/30 61/90/30
f 57/40/30 59/92/30 60/91/30
f 57/40/30 58/93/30 59/92/30
f 116/94/30 114/95/30 115/96/30
f 116/94/30 118/97/30 114/95/30
f 118/97/30 113/98/30 114/95/30
f 113/98/30 111/40/30 112/99/30
f 113/98/30 120/52/30 111/40/30
f 116/94/30 117/100/30 118/97/30
f 119/101/30 113/98/30 118/97/30
f 119/101/30 120/52/30 113/98/30
f 123/102/30 121/40/30 122/103/30
f 123/102/30 129/104/30 121/40/30
f 129/104/30 128/105/30 121/40/30
f 123/102/30 131/52/30 129/104/30
f 130/106/30 128/105/30 129/104/30
f 123/102/30 125/107/30 131/52/30
f 125/107/30 130/106/30 131/52/30
f 125/107/30 126/108/30 130/106/30
f 126/108/30 128/105/30 130/106/30
f 123/102/30 124/109/30 125/107/30
f 127/110/30 128/105/30 126/108/30
f 137/111/30 135/112/30 136/113/30
f 137/111/30 134/114/30 135/112/30
f 134/114/30 132/40/30 133/115/30
f 134/114/30 143/52/30 132/40/30
f 137/111/30 143/52/30 134/114/30
f 138/116/30 143/52/30 137/111/30
f 138/116/30 140/117/30 143/52/30
f 140/117/30 142/118/30 143/52/30
f 138/116/30 139/119/30 140/117/30
f 141/120/30 142/118/30 140/117/30
f 57/40/32 83/42/32 170/42/32 144/40/32
f 83/42/33 82/43/33 169/43/33 170/42/33
f 82/43/34 81/44/34 168/44/34 169/43/34
f 81/44/35 80/45/35 167/45/35 168/44/35
f 80/45/36 79/46/36 166/46/36 167/45/36
f 79/46/37 78/47/37 165/47/37 166/46/37
f 78/47/38 77/48/38 164/48/38 165/47/38
f 85/49/39 84/41/39 171/41/39 172/49/39
f 86/50/40 85/49/40 172/49/40 173/50/40
f 77/48/41 76/51/41 163/51/41 164/48/41
f 84/41/42 110/52/42 197/52/42 171/41/42
f 87/53/43 86/50/43 173/50/43 174/53/43
f 88/54/44 87/53/44 174/53/44 175/54/44
f 89/55/45 88/54/45 175/54/45 176/55/45
f 76/51/46 75/56/46 162/56/46 163/51/46
f 90/57/47 89/55/47 176/55/47 177/57/47
f 91/58/48 90/57/48 177/57/48 178/58/48
f 75/56/49 74/59/49 161/59/49 162/56/49
f 92/60/50 91/58/50 178/58/50 179/60/50
f 74/59/51 73/61/51 160/61/51 161/59/51
f 93/62/52 92/60/52 179/60/52 180/62/52
f 94/63/53 93/62/53 180/62/53 181/63/53
f 73/61/54 72/64/54 159/64/54 160/61/54
f 95/65/55 94/63/55 181/63/55 182/65/55
f 72/64/56 71/66/56 158/66/56 159/64/56
f 96/67/57 95/65/57 182/65/57 183/67/57
f 71/66/58 70/68/58 157/68/58 158/66/58
f 97/69/59 96/67/59 183/67/59 184/69/59
f 98/70/60 97/69/60 184/69/60 185/70/60
f 70/68/61 69/71/61 156/71/61 157/68/61
f 99/72/62 98/70/62 185/70/62 186/72/62
f 69/71/63 68/73/63 155/73/63 156/71/63
f 100/74/64 99/72/64 186/72/64 187/74/64
f 101/75/65 100/74/65 187/74/65 188/75/65
f 68/73/66 67/76/66 154/76/66 155/73/66
f 102/77/67 101/75/67 188/75/67 189/77/67
f 67/76/68 66/78/68 153/78/68 154/76/68
f 103/79/69 102/77/69 189/77/69 190/79/69
f 104/80/70 103/79/70 190/79/70 191/80/70
f 66/78/71 65/81/71 152/81/71 153/78/71
f 105/82/72 104/80/72 191/80/72 192/82/72
f 65/81/73 64/83/73 151/83/73 152/81/73
f 106/84/74 105/82/74 192/82/74 193/84/74
f 107/85/75 106/84/75 193/84/75 194/85/75
f 64/83/76 63/86/76 150/86/76 151/83/76
f 108/87/77 107/85/77 194/85/77 195/87/77
f 109/88/78 108/87/78 195/87/78 196/88/78
f 110/52/33 109/88/33 196/88/33 197/52/33
f 63/86/79 62/89/79 149/89/79 150/86/79
f 62/89/80 61/90/80 148/90/80 149/89/80
f 61/90/81 60/91/81 147/91/81 148/90/81
f 60/91/82 59/92/82 146/92/82 147/91/82
f 58/93/39 57/40/39 144/40/39 145/93/39
f 59/92/83 58/93/83 145/93/83 146/92/83
f 116/94/32 115/96/32 202/96/32 203/94/32
f 115/96/33 114/95/33 201/95/33 202/96/33
f 114/95/84 113/98/84 200/98/84 201/95/84
f 113/98/32 112/99/32 199/99/32 200/98/32
f 112/99/33 111/40/33 198/40/33 199/99/33
f 111/40/42 120/52/42 207/52/42 198/40/42
f 117/100/39 116/94/39 203/94/39 204/100/39
f 118/97/42 117/100/42 204/100/42 205/97/42
f 119/101/85 118/97/85 205/97/85 206/101/85
f 120/52/39 119/101/39 206/101/39 207/52/39
f 123/102/86 122/103/86 209/103/86 210/102/86
f 122/103/33 121/40/33 208/40/33 209/103/33
f 121/40/87 128/105/87 215/105/87 208/40/87
f 129/104/88 131/52/88 218/52/88 216/104/88
f 130/106/89 129/104/89 216/104/89 217/106/89
f 131/52/33 130/106/33 217/106/33 218/52/33
f 126/108/39 125/107/39 212/107/39 213/108/39
f 124/109/39 123/102/39 210/102/39 211/109/39
f 125/107/90 124/109/90 211/109/90 212/107/90
f 127/110/91 126/108/91 213/108/91 214/110/91
f 128/105/39 127/110/39 214/110/39 215/105/39
f 137/111/92 136/113/92 223/113/92 224/111/92
f 136/113/33 135/112/33 222/112/33 223/113/33
f 135/112/93 134/114/93 221/114/93 222/112/93
f 134/114/94 133/115/94 220/115/94 221/114/94
f 133/115/33 132/40/33 219/40/33 220/115/33
f 132/40/95 143/52/95 230/52/95 219/40/95
f 138/116/96 137/111/96 224/111/96 225/116/96
f 143/52/97 142/118/97 229/118/97 230/52/97
f 139/119/39 138/116/39 225/116/39 226/119/39
f 140/117/98 139/119/98 226/119/98 227/117/98
f 141/120/99 140/117/99 227/117/99 228/120/99
f 142/118/39 141/120/39 228/120/39 229/118/39
usemtl Material.002
f 144/40/31 170/42/31 171/41/31
f 171/41/31 170/42/31 169/43/31
f 171/41/31 169/43/31 168/44/31
f 171/41/31 168/44/31 167/45/31
f 171/41/31 167/45/31 166/46/31
f 171/41/31 166/46/31 165/47/31
f 171/41/31 165/47/31 164/48/31
f 171/41/31 164/48/31 172/49/31
f 172/49/31 164/48/31 173/50/31
f 173/50/31 164/48/31 163/51/31
f 144/40/31 171/41/31 197/52/31
f 174/53/31 173/50/31 163/51/31
f 175/54/31 174/53/31 163/51/31
f 176/55/31 175/54/31 163/51/31
f 176/55/31 163/51/31 162/56/31
f 177/57/31 176/55/31 162/56/31
f 178/58/31 177/57/31 162/56/31
f 178/58/31 162/56/31 161/59/31
f 179/60/31 178/58/31 161/59/31
f 179/60/31 161/59/31 160/61/31
f 180/62/31 179/60/31 160/61/31
f 181/63/31 180/62/31 160/61/31
f 181/63/31 160/61/31 159/64/31
f 182/65/31 181/63/31 159/64/31
f 182/65/31 159/64/31 158/66/31
f 183/67/31 182/65/31 158/66/31
f 183/67/31 158/66/31 157/68/31
f 184/69/31 183/67/31 157/68/31
f 185/70/31 184/69/31 157/68/31
f 185/70/31 157/68/31 156/71/31
f 186/72/31 185/70/31 156/71/31
f 186/72/31 156/71/31 155/73/31
f 187/74/31 186/72/31 155/73/31
f 188/75/31 187/74/31 155/73/31
f 188/75/31 155/73/31 154/76/31
f 189/77/31 188/75/31 154/76/31
f 189/77/31 154/76/31 153/78/31
f 190/79/31 189/77/31 153/78/31
f 191/80/31 190/79/31 153/78/31
f 191/80/31 153/78/31 152/81/31
f 192/82/31 191/80/31 152/81/31
f 192/82/31 152/81/31 151/83/31
f 193/84/31 192/82/31 151/83/31
f 194/85/31 193/84/31 151/83/31
f 194/85/31 151/83/31 150/86/31
f 195/87/31 194/85/31 150/86/31
f 196/88/31 195/87/31 150/86/31
f 144/40/31 197/52/31 196/88/31
f 144/40/31 196/88/31 150/86/31
f 144/40/31 150/86/31 149/89/31
f 144/40/31 149/89/31 148/90/31
f 144/40/31 148/90/31 147/91/31
f 144/40/31 147/91/31 146/92/31
f 144/40/31 146/92/31 145/93/31
f 203/94/31 202/96/31 201/95/31
f 203/94/31 201/95/31 205/97/31
f 205/97/31 201/95/31 200/98/31
f 200/98/31 199/99/31 198/40/31
f 200/98/31 198/40/31 207/52/31
f 203/94/31 205/97/31 204/100/31
f 206/101/31 205/97/31 200/98/31
f 206/101/31 200/98/31 207/52/31
f 210/102/31 209/103/31 208/40/31
f 210/102/31 208/40/31 216/104/31
f 216/104/31 208/40/31 215/105/31
f 210/102/31 216/104/31 218/52/31
f 217/106/31 216/104/31 215/105/31
f 210/102/31 218/52/31 212/107/31
f 212/107/31 218/52/31 217/106/31
f 212/107/31 217/106/31 213/108/31
f 213/108/31 217/106/31 215/105/31
f 210/102/31 212/107/31 211/109/31
f 214/110/31 213/108/31 215/105/31
f 224/111/31 223/113/31 222/112/31
f 224/111/31 222/112/31 221/114/31
f 221/114/31 220/115/31 219/40/31
f 221/114/31 219/40/31 230/52/31
f 224/111/31 221/114/31 230/52/31
f 225/116/31 224/111/31 230/52/31
f 225/116/31 230/52/31 227/117/31
f 227/117/31 230/52/31 229/118/31
f 225/116/31 227/117/31 226/119/31
f 228/120/31 227/117/31 229/118/31
