# Blender 5.0.1
# www.blender.org
mtllib XAND.mtl
o Cube
v -0.111479 -0.951677 -0.951677
v -0.111479 -0.951677 0.951677
v -0.111479 0.951677 0.951677
v -0.111479 0.951677 -0.951677
v -0.078877 -0.951677 -0.951677
v -0.078877 -0.951677 0.951677
v -0.078877 0.951677 0.951677
v -0.078877 0.951677 -0.951677
v 0.111479 0.931578 -1.000000
v 0.111479 1.000000 -0.931578
v 0.111479 -1.000000 -0.931578
v 0.111479 -0.931578 -1.000000
v 0.111479 1.000000 0.931578
v 0.111479 0.931578 1.000000
v 0.111479 -0.931578 1.000000
v 0.111479 -1.000000 0.931578
v -0.111479 1.000000 -0.931578
v -0.111479 0.931578 -1.000000
v -0.111479 0.951713 -0.951713
v -0.111479 -0.931578 -1.000000
v -0.111479 -1.000000 -0.931578
v -0.111479 -0.951713 -0.951713
v -0.111479 0.931578 1.000000
v -0.111479 1.000000 0.931578
v -0.111479 0.951713 0.951713
v -0.111479 -1.000000 0.931578
v -0.111479 -0.931578 1.000000
v -0.111479 -0.951713 0.951713
v -0.129570 -0.945647 -0.945647
v -0.129570 -0.945647 0.945647
v -0.129570 0.945647 0.945647
v -0.129570 0.945647 -0.945647
v -0.090424 -0.940130 -0.940130
v -0.090424 -0.940130 0.940130
v -0.090424 0.940130 0.940130
v -0.090424 0.940130 -0.940130
v 0.124084 0.937521 -1.014346
v 0.124084 1.014346 -0.937521
v 0.124084 -1.014346 -0.937521
v 0.124084 -0.937521 -1.014346
v 0.124084 1.014346 0.937521
v 0.124084 0.937521 1.014346
v 0.124084 -0.937521 1.014346
v 0.124084 -1.014346 0.937521
v -0.124085 1.014346 -0.937521
v -0.124085 0.937521 -1.014346
v -0.131479 0.951713 -0.951713
v -0.124085 -0.937521 -1.014346
v -0.124085 -1.014346 -0.937521
v -0.131479 -0.951713 -0.951713
v -0.124085 0.937521 1.014346
v -0.124085 1.014346 0.937521
v -0.131479 0.951713 0.951713
v -0.124085 -1.014346 0.937521
v -0.124085 -0.937521 1.014346
v -0.131479 -0.951713 0.951713
vn -0.0000 -1.0000 -0.0000
vn -1.0000 -0.0000 -0.0000
vn -0.0000 -0.0000 -1.0000
vn -0.0000 -0.0000 1.0000
vn -0.0000 1.0000 -0.0000
vn -0.0000 -0.7071 -0.7071
vn -0.0000 0.7071 0.7071
vn -0.0000 -0.7071 0.7071
vn -0.0000 0.7071 -0.7071
vn 1.0000 -0.0000 -0.0000
vn 0.1395 0.9902 -0.0000
vn 0.1395 -0.0000 0.9902
vn 0.1395 -0.0000 -0.9902
vn 0.1395 -0.9902 -0.0000
vn 0.9775 -0.1492 0.1492
vn 0.9775 0.1492 0.1492
vn 0.9775 -0.1492 -0.1492
vn 0.9775 0.1492 -0.1492
vn 0.9968 -0.0000 0.0794
vn 0.9968 -0.0794 -0.0000
vn 0.9968 0.0794 -0.0000
vn 0.9968 -0.0000 -0.0794
vt 0.875000 0.750000
vt 0.875000 0.500000
vt 0.375000 0.000000
vt 0.625000 0.000000
vt 0.625000 0.250000
vt 0.375000 0.250000
vt 0.375000 1.000000
vt 0.625000 1.000000
vt 0.125000 0.500000
vt 0.125000 0.750000
vt 0.616447 0.250000
vt 0.125000 0.508553
vt 0.616447 1.000000
vt 0.125000 0.741447
vt 0.375000 0.508553
vt 0.380702 0.500000
vt 0.625000 0.744298
vt 0.616447 0.750000
vt 0.375000 0.741447
vt 0.380702 0.750000
vt 0.625000 0.505702
vt 0.616447 0.500000
vt 0.383553 0.250000
vt 0.875000 0.508553
vt 0.875000 0.741447
vt 0.383553 1.000000
s 0
usemtl Material
f 3/1/1 4/2/1 8/2/1 7/1/1
f 6/3/2 7/4/2 8/5/2 5/6/2
f 2/7/3 3/8/3 7/8/3 6/7/3
f 4/5/4 1/6/4 5/6/4 8/5/4
f 1/9/5 2/10/5 6/10/5 5/9/5
f 17/5/2 18/11/2 19/5/2
f 20/9/2 21/12/2 22/9/2
f 23/13/2 24/8/2 25/8/2
f 26/14/2 27/10/2 28/10/2
f 11/15/6 21/12/6 20/9/6 12/16/6
f 13/17/7 24/8/7 23/13/7 14/18/7
f 26/14/8 16/19/8 15/20/8 27/10/8
f 17/5/9 10/21/9 9/22/9 18/11/9
f 20/23/3 18/11/3 9/22/3 12/16/3
f 11/15/10 12/16/10 9/22/10 10/21/10 13/17/10 14/18/10 15/20/10 16/19/10
f 10/21/5 17/24/5 24/25/5 13/17/5
f 21/12/1 11/15/1 16/19/1 26/14/1
f 15/20/4 14/18/4 23/13/4 27/26/4
f 19/5/2 18/11/2 20/23/2 22/6/2 1/6/2 4/5/2
f 25/1/2 24/25/2 17/24/2 19/2/2 4/2/2 3/1/2
f 22/9/2 21/12/2 26/14/2 28/10/2 2/10/2 1/9/2
f 28/7/2 27/26/2 23/13/2 25/8/2 3/8/2 2/7/2
usemtl Material.001
f 31/1/11 35/1/11 36/2/11 32/2/11
f 34/3/10 33/6/10 36/5/10 35/4/10
f 30/7/12 34/7/12 35/8/12 31/8/12
f 32/5/13 36/5/13 33/6/13 29/6/13
f 29/9/14 33/9/14 34/10/14 30/10/14
f 45/5/15 47/5/15 46/11/15
f 48/9/16 50/9/16 49/12/16
f 51/13/17 53/8/17 52/8/17
f 54/14/18 56/10/18 55/10/18
f 39/15/7 40/16/7 48/9/7 49/12/7
f 41/17/6 42/18/6 51/13/6 52/8/6
f 54/14/9 55/10/9 43/20/9 44/19/9
f 45/5/8 46/11/8 37/22/8 38/21/8
f 48/23/4 40/16/4 37/22/4 46/11/4
f 39/15/2 44/19/2 43/20/2 42/18/2 41/17/2 38/21/2 37/22/2 40/16/2
f 38/21/1 41/17/1 52/25/1 45/24/1
f 49/12/5 54/14/5 44/19/5 39/15/5
f 43/20/3 55/26/3 51/13/3 42/18/3
f 47/5/19 32/5/19 29/6/19 50/6/19 48/23/19 46/11/19
f 53/1/20 31/1/20 32/2/20 47/2/20 45/24/20 52/25/20
f 50/9/21 29/9/21 30/10/21 56/10/21 54/14/21 49/12/21
f 56/7/22 30/7/22 31/8/22 53/8/22 51/13/22 55/26/22
o Cube.001
v -0.157274 -0.711611 0.000000
v -0.157274 -0.711611 -0.663616
v -0.078877 -0.711611 0.000000
v -0.078877 -0.711611 -0.663616
v -0.157274 0.097592 0.000000
v -0.157274 0.566383 0.000000
v -0.157274 0.331988 0.000000
v -0.157274 0.503577 0.000000
v -0.157274 0.566383 -0.194826
v -0.157274 0.097592 -0.663616
v -0.157274 0.503577 -0.429221
v -0.157274 0.331988 -0.600810
v -0.078877 0.566383 0.000000
v -0.078877 0.097592 0.000000
v -0.078877 0.503577 0.000000
v -0.078877 0.331988 0.000000
v -0.078877 0.097592 -0.663616
v -0.078877 0.566383 -0.194826
v -0.078877 0.331988 -0.600810
v -0.078877 0.503577 -0.429221
v -0.157274 0.566383 -0.097413
v -0.078877 0.566383 -0.097413
v -0.078877 0.807191 0.000000
v -0.157274 0.807191 0.000000
v -0.157274 0.807191 -0.060590
v -0.078877 0.807191 -0.060590
v -0.157274 -0.711611 -0.414248
v -0.157274 -0.711611 -0.249127
v -0.078877 -0.711611 -0.249127
v -0.078877 -0.711611 -0.414248
v -0.157274 -0.952635 -0.414248
v -0.157274 -0.952635 -0.249127
v -0.078877 -0.952635 -0.249127
v -0.078877 -0.952635 -0.414248
v -0.157274 0.597109 0.000000
v -0.157274 0.679154 0.000000
v -0.157274 0.761198 0.000000
v -0.157274 0.761198 -0.124851
v -0.157274 0.679154 -0.153087
v -0.157274 0.597109 -0.124851
v -0.078877 0.597109 -0.124851
v -0.078877 0.679154 -0.153087
v -0.078877 0.761198 -0.124851
v -0.078877 0.761198 0.000000
v -0.078877 0.679154 0.000000
v -0.078877 0.597109 0.000000
v -0.078877 0.915666 0.000000
v -0.157274 0.915666 0.000000
v -0.157274 0.915666 -0.060590
v -0.078877 0.915666 -0.060590
v -0.157274 -0.711611 0.663616
v -0.078877 -0.711611 0.663616
v -0.157274 0.566383 0.194826
v -0.157274 0.097592 0.663616
v -0.157274 0.503577 0.429221
v -0.157274 0.331988 0.600810
v -0.078877 0.097592 0.663616
v -0.078877 0.566383 0.194826
v -0.078877 0.331988 0.600810
v -0.078877 0.503577 0.429221
v -0.157274 0.566383 0.097413
v -0.078877 0.566383 0.097413
v -0.157274 0.807191 0.060590
v -0.078877 0.807191 0.060590
v -0.157274 -0.711611 0.414248
v -0.157274 -0.711611 0.249127
v -0.078877 -0.711611 0.249127
v -0.078877 -0.711611 0.414248
v -0.157274 -0.952635 0.414248
v -0.157274 -0.952635 0.249127
v -0.078877 -0.952635 0.249127
v -0.078877 -0.952635 0.414248
v -0.157274 0.761198 0.124851
v -0.157274 0.679154 0.153087
v -0.157274 0.597109 0.124851
v -0.078877 0.597109 0.124851
v -0.078877 0.679154 0.153087
v -0.078877 0.761198 0.124851
v -0.157274 0.915666 0.060590
v -0.078877 0.915666 0.060590
v -0.171416 -0.725753 0.000000
v -0.168821 -0.723158 -0.675163
v -0.064735 -0.725753 0.000000
v -0.067330 -0.723158 -0.675163
v -0.177274 0.097592 0.000000
v -0.177274 0.566383 0.000000
v -0.177274 0.331988 0.000000
v -0.177274 0.503577 0.000000
v -0.170851 0.580942 -0.196742
v -0.170851 0.099509 -0.678176
v -0.170338 0.516691 -0.436793
v -0.170338 0.339559 -0.613925
v -0.058877 0.566383 0.000000
v -0.058877 0.097592 0.000000
v -0.058877 0.503577 0.000000
v -0.058877 0.331988 0.000000
v -0.065299 0.099509 -0.678176
v -0.065299 0.580942 -0.196742
v -0.065812 0.339559 -0.613925
v -0.065812 0.516691 -0.436793
v -0.176739 0.568259 -0.101604
v -0.059411 0.568259 -0.101604
v -0.058877 0.807191 0.000000
v -0.177274 0.807191 0.000000
v -0.173789 0.812347 -0.070622
v -0.062361 0.812347 -0.070622
v -0.175364 -0.717641 -0.420279
v -0.175364 -0.717641 -0.243097
v -0.060786 -0.717641 -0.243097
v -0.060786 -0.717641 -0.420279
v -0.168821 -0.964182 -0.425795
v -0.168821 -0.964182 -0.237580
v -0.067330 -0.964182 -0.237580
v -0.067330 -0.964182 -0.425795
v -0.177274 0.597109 0.000000
v -0.177274 0.679154 0.000000
v -0.177274 0.761198 0.000000
v -0.170166 0.770336 -0.137111
v -0.170087 0.679154 -0.168443
v -0.170579 0.589558 -0.137734
v -0.065572 0.589558 -0.137734
v -0.066064 0.679154 -0.168443
v -0.065984 0.770336 -0.137111
v -0.058877 0.761198 0.000000
v -0.058877 0.679154 0.000000
v -0.058877 0.597109 0.000000
v -0.064735 0.929808 0.000000
v -0.171416 0.929808 0.000000
v -0.168821 0.927213 -0.072137
v -0.067330 0.927213 -0.072137
v -0.168821 -0.723158 0.675163
v -0.067330 -0.723158 0.675163
v -0.170851 0.580942 0.196742
v -0.170851 0.099509 0.678176
v -0.170338 0.516691 0.436793
v -0.170338 0.339559 0.613925
v -0.065299 0.099509 0.678176
v -0.065299 0.580942 0.196742
v -0.065812 0.339559 0.613925
v -0.065812 0.516691 0.436793
v -0.176739 0.568259 0.101604
v -0.059411 0.568259 0.101604
v -0.173789 0.812347 0.070622
v -0.062361 0.812347 0.070622
v -0.175364 -0.717641 0.420279
v -0.175364 -0.717641 0.243097
v -0.060786 -0.717641 0.243097
v -0.060786 -0.717641 0.420279
v -0.168821 -0.964182 0.425795
v -0.168821 -0.964182 0.237580
v -0.067330 -0.964182 0.237580
v -0.067330 -0.964182 0.425795
v -0.170166 0.770336 0.137111
v -0.170087 0.679154 0.168443
v -0.170579 0.589558 0.137734
v -0.065572 0.589558 0.137734
v -0.066064 0.679154 0.168443
v -0.065984 0.770336 0.137111
v -0.168821 0.927213 0.072137
v -0.067330 0.927213 0.072137
vn -0.0000 -1.0000 -0.0000
vn -0.0000 0.9659 -0.2588
vn -0.0000 0.7071 -0.7071
vn -0.0000 0.2588 -0.9659
vn -1.0000 -0.0000 -0.0000
vn -0.0000 -0.0000 -1.0000
vn 1.0000 -0.0000 -0.0000
vn -0.0000 1.0000 -0.0000
vn -0.0000 0.8132 -0.5820
vn -0.0000 -0.0000 1.0000
vn -0.0000 -0.6661 -0.7459
vn -0.0000 -0.3254 -0.9456
vn -0.0000 0.3254 -0.9456
vn -0.0000 0.9659 0.2588
vn -0.0000 0.7071 0.7071
vn -0.0000 0.2588 0.9659
vn -0.0000 0.8132 0.5820
vn -0.0000 -0.6661 0.7459
vn -0.0000 -0.3254 0.9456
vn -0.0000 0.3254 0.9456
vn -0.0000 0.9994 0.0334
vn -0.0000 -0.9660 0.2586
vn -0.0000 -0.7071 0.7071
vn -0.0000 -0.2586 0.9660
vn 1.0000 -0.0012 0.0084
vn 0.9987 0.0025 0.0511
vn -0.0000 0.0037 1.0000
vn -1.0000 -0.0012 0.0084
vn -0.0000 -0.9912 -0.1321
vn -0.9981 -0.0452 0.0417
vn -0.9987 0.0025 0.0511
vn -0.0000 -0.8454 0.5342
vn -0.0000 0.9998 -0.0216
vn -0.0000 -0.0224 -0.9997
vn -0.9996 0.0265 -0.0000
vn 0.9996 0.0265 -0.0000
vn -0.0000 -0.0224 0.9997
vn -0.0000 0.8615 0.5078
vn -0.0000 0.3242 0.9460
vn -0.0000 -0.3250 0.9457
vn -0.9949 -0.0954 0.0323
vn -0.9990 0.0052 0.0452
vn -0.9989 -0.0080 0.0465
vn 0.9949 -0.0954 0.0323
vn 0.9990 0.0052 0.0452
vn 0.9989 -0.0080 0.0465
vn -0.0000 -0.9994 0.0360
vn -0.0000 0.0132 0.9999
vn 0.9981 -0.0452 0.0417
vn -0.0000 0.9994 -0.0334
vn -0.0000 -0.9660 -0.2586
vn -0.0000 -0.7071 -0.7071
vn -0.0000 -0.2586 -0.9660
vn 1.0000 -0.0012 -0.0084
vn 0.9987 0.0025 -0.0511
vn -0.0000 0.0037 -1.0000
vn -1.0000 -0.0012 -0.0084
vn -0.0000 -0.9912 0.1321
vn -0.9981 -0.0452 -0.0417
vn -0.9987 0.0025 -0.0511
vn -0.0000 -0.8454 -0.5342
vn -0.0000 0.9998 0.0216
vn -0.0000 0.8615 -0.5078
vn -0.0000 0.3242 -0.9460
vn -0.0000 -0.3250 -0.9457
vn -0.9949 -0.0954 -0.0323
vn -0.9990 0.0052 -0.0452
vn -0.9989 -0.0080 -0.0465
vn 0.9949 -0.0954 -0.0323
vn 0.9990 0.0052 -0.0452
vn 0.9989 -0.0080 -0.0465
vn -0.0000 -0.9994 -0.0360
vn -0.0000 0.0132 -0.9999
vn 0.9981 -0.0452 -0.0417
vt 0.125000 0.666712
vt 0.375000 0.666712
vt 0.375000 0.750000
vt 0.125000 0.750000
vt 0.875000 0.591704
vt 0.625000 0.591704
vt 0.620905 0.515284
vt 0.875000 0.500000
vt 0.618857 0.227074
vt 0.579148 0.504095
vt 0.579148 0.245905
vt 0.533296 0.500000
vt 0.533296 0.250000
vt 0.375000 0.000000
vt 0.533296 0.000000
vt 0.579148 0.012286
vt 0.612714 0.045852
vt 0.625000 0.091704
vt 0.625000 0.125000
vt 0.625000 0.158296
vt 0.375000 0.250000
vt 0.375000 0.166621
vt 0.375000 0.083288
vt 0.625000 0.091704
vt 0.375000 0.500000
vt 0.625000 0.625000
vt 0.625000 0.658296
vt 0.620905 0.734716
vt 0.579148 0.745905
vt 0.533296 0.750000
vt 0.375000 0.583379
vt 0.875000 0.625000
vt 0.125000 0.500000
vt 0.125000 0.583379
vt 0.875000 0.658296
s 0
usemtl Material.002
f 84/27/23 85/28/23 59/29/23 57/30/23
f 65/31/24 74/32/24 76/33/24 67/34/24
f 67/35/25 76/33/25 75/36/25 68/37/25
f 68/37/26 75/36/26 73/38/26 66/39/26
f 57/40/27 61/41/27 63/42/27 64/43/27 62/44/27 77/45/27 65/46/27 67/35/27 68/37/27 66/39/27 58/47/27 83/48/27 84/49/27
f 58/47/28 66/39/28 73/38/28 60/51/28
f 60/51/29 73/38/29 75/36/29 76/33/29 74/32/29 78/52/29 69/53/29 71/54/29 72/55/29 70/56/29 59/29/29 85/28/29 86/57/29
f 74/32/30 65/31/30 77/58/30 78/52/30
f 79/53/29 82/52/29 106/52/29 103/53/29
f 100/53/29 99/52/29 82/52/29 79/53/29
f 58/59/23 60/51/23 86/57/23 83/60/23
f 85/28/32 84/27/32 88/27/32 89/28/32
f 87/60/23 90/57/23 89/28/23 88/27/23
f 86/57/29 85/28/29 89/28/29 90/57/29
f 84/49/27 83/48/27 87/48/27 88/49/27
f 83/60/28 86/57/28 90/57/28 87/60/28
f 69/53/29 78/52/29 97/52/29 102/53/29
f 102/53/29 97/52/29 98/52/29 101/53/29
f 101/53/29 98/52/29 99/52/29 100/53/29
f 106/52/30 105/58/30 104/61/30 103/53/30
f 82/52/28 81/58/28 105/58/28 106/52/28
f 81/45/27 80/44/27 104/44/27 105/45/27
f 122/27/23 57/30/23 59/29/23 123/28/23
f 109/31/36 111/34/36 116/33/36 114/32/36
f 111/35/37 112/37/37 115/36/37 116/33/37
f 112/37/38 110/39/38 113/38/38 115/36/38
f 57/40/27 122/49/27 121/48/27 107/47/27 110/39/27 112/37/27 111/35/27 109/46/27 117/45/27 62/44/27 64/43/27 63/42/27 61/41/27
f 107/47/32 108/51/32 113/38/32 110/39/32
f 108/51/29 124/57/29 123/28/29 59/29/29 70/56/29 72/55/29 71/54/29 69/53/29 118/52/29 114/32/29 116/33/29 115/36/29 113/38/29
f 114/32/30 118/52/30 117/58/30 109/31/30
f 79/53/29 103/53/29 136/52/29 120/52/29
f 100/53/29 79/53/29 120/52/29 134/52/29
f 107/59/23 121/60/23 124/57/23 108/51/23
f 123/28/28 127/28/28 126/27/28 122/27/28
f 125/60/23 126/27/23 127/28/23 128/57/23
f 124/57/29 128/57/29 127/28/29 123/28/29
f 122/49/27 126/49/27 125/48/27 121/48/27
f 121/60/32 125/60/32 128/57/32 124/57/32
f 69/53/29 102/53/29 132/52/29 118/52/29
f 102/53/29 101/53/29 133/52/29 132/52/29
f 101/53/29 100/53/29 134/52/29 133/52/29
f 136/52/30 103/53/30 104/61/30 135/58/30
f 120/52/32 136/52/32 135/58/32 119/58/32
f 119/45/27 135/45/27 104/44/27 80/44/27
usemtl Material.003
f 94/45/27 93/50/27 80/44/27 81/45/27
f 99/52/31 94/58/31 81/58/31 82/52/31
f 78/52/33 77/58/33 96/58/33 97/52/33
f 97/52/34 96/58/34 95/58/34 98/52/34
f 98/52/35 95/58/35 94/58/35 99/52/35
f 77/45/27 62/44/27 91/44/27 96/45/27
f 96/45/27 91/44/27 92/50/27 95/45/27
f 95/45/27 92/50/27 93/50/27 94/45/27
f 129/45/27 119/45/27 80/44/27 93/50/27
f 134/52/39 120/52/39 119/58/39 129/58/39
f 118/52/40 132/52/40 131/58/40 117/58/40
f 132/52/41 133/52/41 130/58/41 131/58/41
f 133/52/42 134/52/42 129/58/42 130/58/42
f 117/45/27 131/45/27 91/44/27 62/44/27
f 131/45/27 130/45/27 92/50/27 91/44/27
f 130/45/27 129/45/27 93/50/27 92/50/27
usemtl Material.001
f 164/27/43 137/30/43 139/29/43 165/28/43
f 145/31/44 147/34/44 156/33/44 154/32/44
f 147/35/45 148/37/45 155/36/45 156/33/45
f 148/37/46 146/39/46 153/38/46 155/36/46
f 137/40/47 164/49/47 163/48/47 138/47/47 146/39/47 148/37/47 147/35/47 145/46/47 157/45/47 142/44/47 144/43/47 143/42/47 141/41/47
f 174/45/48 161/45/48 160/44/48 173/50/48
f 138/47/49 140/51/49 153/38/49 146/39/49
f 140/51/50 166/57/50 165/28/50 139/29/50 150/56/50 152/55/50 151/54/50 149/53/50 158/52/50 154/32/50 156/33/50 155/36/50 153/38/50
f 154/32/51 158/52/51 157/58/51 145/31/51
f 159/53/52 183/53/52 186/52/52 162/52/52
f 180/53/53 159/53/53 162/52/53 179/52/53
f 179/52/54 162/52/54 161/58/54 174/58/54
f 138/59/55 163/60/55 166/57/55 140/51/55
f 165/28/56 169/28/56 168/27/56 164/27/56
f 167/60/30 168/27/30 169/28/30 170/57/30
f 166/57/57 170/57/57 169/28/57 165/28/57
f 164/49/58 168/49/58 167/48/58 163/48/58
f 163/60/59 167/60/59 170/57/59 166/57/59
f 158/52/60 177/52/60 176/58/60 157/58/60
f 177/52/61 178/52/61 175/58/61 176/58/61
f 178/52/62 179/52/62 174/58/62 175/58/62
f 149/53/63 182/53/63 177/52/63 158/52/63
f 182/53/64 181/53/64 178/52/64 177/52/64
f 181/53/65 180/53/65 179/52/65 178/52/65
f 157/45/66 176/45/66 171/44/66 142/44/66
f 176/45/67 175/45/67 172/50/67 171/44/67
f 175/45/68 174/45/68 173/50/68 172/50/68
f 186/52/69 183/53/69 184/61/69 185/58/69
f 162/52/70 186/52/70 185/58/70 161/58/70
f 161/45/71 185/45/71 184/44/71 160/44/71
f 202/27/72 203/28/72 139/29/72 137/30/72
f 189/31/73 194/32/73 196/33/73 191/34/73
f 191/35/74 196/33/74 195/36/74 192/37/74
f 192/37/75 195/36/75 193/38/75 190/39/75
f 137/40/76 141/41/76 143/42/76 144/43/76 142/44/76 197/45/76 189/46/76 191/35/76 192/37/76 190/39/76 187/47/76 201/48/76 202/49/76
f 209/45/77 173/50/77 160/44/77 199/45/77
f 187/47/78 190/39/78 193/38/78 188/51/78
f 188/51/79 193/38/79 195/36/79 196/33/79 194/32/79 198/52/79 149/53/79 151/54/79 152/55/79 150/56/79 139/29/79 203/28/79 204/57/79
f 194/32/80 189/31/80 197/58/80 198/52/80
f 159/53/81 200/52/81 216/52/81 183/53/81
f 180/53/82 214/52/82 200/52/82 159/53/82
f 214/52/83 209/58/83 199/58/83 200/52/83
f 187/59/84 188/51/84 204/57/84 201/60/84
f 203/28/59 202/27/59 206/27/59 207/28/59
f 205/60/30 208/57/30 207/28/30 206/27/30
f 204/57/57 203/28/57 207/28/57 208/57/57
f 202/49/58 201/48/58 205/48/58 206/49/58
f 201/60/56 204/57/56 208/57/56 205/60/56
f 198/52/85 197/58/85 211/58/85 212/52/85
f 212/52/86 211/58/86 210/58/86 213/52/86
f 213/52/87 210/58/87 209/58/87 214/52/87
f 149/53/88 198/52/88 212/52/88 182/53/88
f 182/53/89 212/52/89 213/52/89 181/53/89
f 181/53/90 213/52/90 214/52/90 180/53/90
f 197/45/91 142/44/91 171/44/91 211/45/91
f 211/45/92 171/44/92 172/50/92 210/45/92
f 210/45/93 172/50/93 173/50/93 209/45/93
f 216/52/94 215/58/94 184/61/94 183/53/94
f 200/52/95 199/58/95 215/58/95 216/52/95
f 199/45/96 160/44/96 184/44/96 215/45/96
