# Blender 5.0.1
# www.blender.org
mtllib XOR.mtl
o Cube
v -0.111479 -0.951677 -0.951677
v -0.111479 -0.951677 0.951677
v -0.111479 0.951677 0.951677
v -0.111479 0.951677 -0.951677
v -0.078877 -0.951677 -0.951677
v -0.078877 -0.951677 0.951677
v -0.078877 0.951677 0.951677
v -0.078877 0.951677 -0.951677
v 0.111479 0.931578 -1.000000
v 0.111479 1.000000 -0.931578
v 0.111479 -1.000000 -0.931578
v 0.111479 -0.931578 -1.000000
v 0.111479 1.000000 0.931578
v 0.111479 0.931578 1.000000
v 0.111479 -0.931578 1.000000
v 0.111479 -1.000000 0.931578
v -0.111479 1.000000 -0.931578
v -0.111479 0.931578 -1.000000
v -0.111479 0.951713 -0.951713
v -0.111479 -0.931578 -1.000000
v -0.111479 -1.000000 -0.931578
v -0.111479 -0.951713 -0.951713
v -0.111479 0.931578 1.000000
v -0.111479 1.000000 0.931578
v -0.111479 0.951713 0.951713
v -0.111479 -1.000000 0.931578
v -0.111479 -0.931578 1.000000
v -0.111479 -0.951713 0.951713
v -0.129570 -0.945647 -0.945647
v -0.129570 -0.945647 0.945647
v -0.129570 0.945647 0.945647
v -0.129570 0.945647 -0.945647
v -0.090424 -0.940130 -0.940130
v -0.090424 -0.940130 0.940130
v -0.090424 0.940130 0.940130
v -0.090424 0.940130 -0.940130
v 0.124084 0.937521 -1.014346
v 0.124084 1.014346 -0.937521
v 0.124084 -1.014346 -0.937521
v 0.124084 -0.937521 -1.014346
v 0.124084 1.014346 0.937521
v 0.124084 0.937521 1.014346
v 0.124084 -0.937521 1.014346
v 0.124084 -1.014346 0.937521
v -0.124085 1.014346 -0.937521
v -0.124085 0.937521 -1.014346
v -0.131479 0.951713 -0.951713
v -0.124085 -0.937521 -1.014346
v -0.124085 -1.014346 -0.937521
v -0.131479 -0.951713 -0.951713
v -0.124085 0.937521 1.014346
v -0.124085 1.014346 0.937521
v -0.131479 0.951713 0.951713
v -0.124085 -1.014346 0.937521
v -0.124085 -0.937521 1.014346
v -0.131479 -0.951713 0.951713
vn -0.0000 -1.0000 -0.0000
vn -1.0000 -0.0000 -0.0000
vn -0.0000 -0.0000 -1.0000
vn -0.0000 -0.0000 1.0000
vn -0.0000 1.0000 -0.0000
vn -0.0000 -0.7071 -0.7071
vn -0.0000 0.7071 0.7071
vn -0.0000 -0.7071 0.7071
vn -0.0000 0.7071 -0.7071
vn 1.0000 -0.0000 -0.0000
vn 0.1395 0.9902 -0.0000
vn 0.1395 -0.0000 0.9902
vn 0.1395 -0.0000 -0.9902
vn 0.1395 -0.9902 -0.0000
vn 0.9775 -0.1492 0.1492
vn 0.9775 0.1492 0.1492
vn 0.9775 -0.1492 -0.1492
vn 0.9775 0.1492 -0.1492
vn 0.9968 -0.0000 0.0794
vn 0.9968 -0.0794 -0.0000
vn 0.9968 0.0794 -0.0000
vn 0.9968 -0.0000 -0.0794
vt 0.875000 0.750000
vt 0.875000 0.500000
vt 0.375000 0.000000
vt 0.625000 0.000000
vt 0.625000 0.250000
vt 0.375000 0.250000
vt 0.375000 1.000000
vt 0.625000 1.000000
vt 0.125000 0.500000
vt 0.125000 0.750000
vt 0.616447 0.250000
vt 0.125000 0.508553
vt 0.616447 1.000000
vt 0.125000 0.741447
vt 0.375000 0.508553
vt 0.380702 0.500000
vt 0.625000 0.744298
vt 0.616447 0.750000
vt 0.375000 0.741447
vt 0.380702 0.750000
vt 0.625000 0.505702
vt 0.616447 0.500000
vt 0.383553 0.250000
vt 0.875000 0.508553
vt 0.875000 0.741447
vt 0.383553 1.000000
s 0
usemtl Material
f 3/1/1 4/2/1 8/2/1 7/1/1
f 6/3/2 7/4/2 8/5/2 5/6/2
f 2/7/3 3/8/3 7/8/3 6/7/3
f 4/5/4 1/6/4 5/6/4 8/5/4
f 1/9/5 2/10/5 6/10/5 5/9/5
f 17/5/2 18/11/2 19/5/2
f 20/9/2 21/12/2 22/9/2
f 23/13/2 24/8/2 25/8/2
f 26/14/2 27/10/2 28/10/2
f 11/15/6 21/12/6 20/9/6 12/16/6
f 13/17/7 24/8/7 23/13/7 14/18/7
f 26/14/8 16/19/8 15/20/8 27/10/8
f 17/5/9 10/21/9 9/22/9 18/11/9
f 20/23/3 18/11/3 9/22/3 12/16/3
f 11/15/10 12/16/10 9/22/10 10/21/10 13/17/10 14/18/10 15/20/10 16/19/10
f 10/21/5 17/24/5 24/25/5 13/17/5
f 21/12/1 11/15/1 16/19/1 26/14/1
f 15/20/4 14/18/4 23/13/4 27/26/4
f 19/5/2 18/11/2 20/23/2 22/6/2 1/6/2 4/5/2
f 25/1/2 24/25/2 17/24/2 19/2/2 4/2/2 3/1/2
f 22/9/2 21/12/2 26/14/2 28/10/2 2/10/2 1/9/2
f 28/7/2 27/26/2 23/13/2 25/8/2 3/8/2 2/7/2
usemtl Material.001
f 31/1/11 35/1/11 36/2/11 32/2/11
f 34/3/10 33/6/10 36/5/10 35/4/10
f 30/7/12 34/7/12 35/8/12 31/8/12
f 32/5/13 36/5/13 33/6/13 29/6/13
f 29/9/14 33/9/14 34/10/14 30/10/14
f 45/5/15 47/5/15 46/11/15
f 48/9/16 50/9/16 49/12/16
f 51/13/17 53/8/17 52/8/17
f 54/14/18 56/10/18 55/10/18
f 39/15/7 40/16/7 48/9/7 49/12/7
f 41/17/6 42/18/6 51/13/6 52/8/6
f 54/14/9 55/10/9 43/20/9 44/19/9
f 45/5/8 46/11/8 37/22/8 38/21/8
f 48/23/4 40/16/4 37/22/4 46/11/4
f 39/15/2 44/19/2 43/20/2 42/18/2 41/17/2 38/21/2 37/22/2 40/16/2
f 38/21/1 41/17/1 52/25/1 45/24/1
f 49/12/5 54/14/5 44/19/5 39/15/5
f 43/20/3 55/26/3 51/13/3 42/18/3
f 47/5/19 32/5/19 29/6/19 50/6/19 48/23/19 46/11/19
f 53/1/20 31/1/20 32/2/20 47/2/20 45/24/20 52/25/20
f 50/9/21 29/9/21 30/10/21 56/10/21 54/14/21 49/12/21
f 56/7/22 30/7/22 31/8/22 53/8/22 51/13/22 55/26/22
o Cube.001
v -0.223408 -0.503872 0.000000
v -0.223408 0.627441 0.000000
v -0.090424 -0.503872 0.000000
v -0.090424 0.627441 0.000000
v -0.223408 0.627441 -0.217817
v -0.223408 0.126927 -0.718331
v -0.223408 0.560385 -0.468074
v -0.223408 0.377184 -0.651274
v -0.090424 0.126927 -0.718331
v -0.090424 0.627441 -0.217817
v -0.090424 0.377184 -0.651274
v -0.090424 0.560385 -0.468074
v -0.223408 -0.587651 -0.538748
v -0.223408 -0.530865 -0.359165
v -0.223408 -0.519258 -0.179583
v -0.090424 -0.519258 -0.179583
v -0.090424 -0.530865 -0.359165
v -0.090424 -0.587651 -0.538748
v -0.223408 -0.646990 -0.718331
v -0.223408 -0.668944 -0.680423
v -0.090424 -0.668944 -0.680423
v -0.090424 -0.646990 -0.718331
v -0.090424 0.627441 -0.081622
v -0.223408 0.627441 -0.081622
v -0.090424 0.809363 0.000000
v -0.223408 0.809363 0.000000
v -0.223408 0.809363 -0.049745
v -0.090424 0.809363 -0.049745
v -0.223408 -0.786903 -0.342617
v -0.223408 -0.775297 -0.163035
v -0.090424 -0.775297 -0.163035
v -0.090424 -0.786903 -0.342617
v -0.090424 0.651058 0.000000
v -0.090424 0.711272 0.000000
v -0.090424 0.771486 0.000000
v -0.223408 0.771486 0.000000
v -0.223408 0.711272 0.000000
v -0.223408 0.651058 0.000000
v -0.223408 0.651058 -0.106956
v -0.223408 0.711272 -0.131323
v -0.223408 0.771486 -0.106956
v -0.090424 0.771486 -0.106956
v -0.090424 0.711272 -0.131323
v -0.090424 0.651058 -0.106956
v -0.090424 0.915559 0.000000
v -0.223408 0.915559 0.000000
v -0.223408 0.915559 -0.049745
v -0.090424 0.915559 -0.049745
v -0.223408 0.627441 0.217817
v -0.223408 0.126927 0.718331
v -0.223408 0.560385 0.468074
v -0.223408 0.377184 0.651274
v -0.090424 0.126927 0.718331
v -0.090424 0.627441 0.217817
v -0.090424 0.377184 0.651274
v -0.090424 0.560385 0.468074
v -0.223408 -0.587651 0.538748
v -0.223408 -0.530865 0.359165
v -0.223408 -0.519258 0.179583
v -0.090424 -0.519258 0.179583
v -0.090424 -0.530865 0.359165
v -0.090424 -0.587651 0.538748
v -0.223408 -0.646990 0.718331
v -0.223408 -0.668944 0.680423
v -0.090424 -0.668944 0.680423
v -0.090424 -0.646990 0.718331
v -0.090424 0.627441 0.081622
v -0.223408 0.627441 0.081622
v -0.223408 0.809363 0.049745
v -0.090424 0.809363 0.049745
v -0.223408 -0.786903 0.342617
v -0.223408 -0.775297 0.163035
v -0.090424 -0.775297 0.163035
v -0.090424 -0.786903 0.342617
v -0.223408 0.651058 0.106956
v -0.223408 0.711272 0.131323
v -0.223408 0.771486 0.106956
v -0.090424 0.771486 0.106956
v -0.090424 0.711272 0.131323
v -0.090424 0.651058 0.106956
v -0.223408 0.915559 0.049745
v -0.090424 0.915559 0.049745
v -0.224778 -0.518550 0.007366
v -0.225192 0.627441 0.010109
v -0.089053 -0.518550 0.007366
v -0.088640 0.627441 0.010109
v -0.224762 0.643896 -0.219983
v -0.224762 0.129094 -0.734786
v -0.224711 0.575207 -0.476631
v -0.224711 0.385742 -0.666097
v -0.089070 0.129094 -0.734786
v -0.089070 0.643896 -0.219983
v -0.089121 0.385742 -0.666097
v -0.089121 0.575207 -0.476631
v -0.224772 -0.602755 -0.532119
v -0.225238 -0.538283 -0.364240
v -0.225207 -0.525620 -0.172187
v -0.088625 -0.525620 -0.172187
v -0.088594 -0.538283 -0.364240
v -0.089060 -0.602755 -0.532119
v -0.224625 -0.655935 -0.733847
v -0.224625 -0.686854 -0.680459
v -0.089207 -0.686854 -0.680459
v -0.089207 -0.655935 -0.733847
v -0.088471 0.629128 -0.085906
v -0.225361 0.629128 -0.085906
v -0.088640 0.809363 0.010109
v -0.225192 0.809363 0.010109
v -0.225064 0.815320 -0.060834
v -0.088767 0.815320 -0.060834
v -0.224559 -0.800768 -0.354799
v -0.224559 -0.787478 -0.149170
v -0.089272 -0.787478 -0.149170
v -0.089272 -0.800768 -0.354799
v -0.088640 0.651058 0.010109
v -0.088640 0.711272 0.010109
v -0.088640 0.771486 0.010109
v -0.225192 0.771486 0.010109
v -0.225192 0.711272 0.010109
v -0.225192 0.651058 0.010109
v -0.224727 0.641451 -0.120922
v -0.224668 0.711272 -0.148848
v -0.224696 0.782404 -0.120314
v -0.089135 0.782404 -0.120314
v -0.089164 0.711272 -0.148848
v -0.089104 0.641451 -0.120922
v -0.089094 0.930628 0.007535
v -0.224737 0.930628 0.007535
v -0.224559 0.928609 -0.062796
v -0.089272 0.928609 -0.062796
v -0.224762 0.643896 0.219983
v -0.224762 0.129094 0.734786
v -0.224711 0.575207 0.476631
v -0.224711 0.385742 0.666097
v -0.089070 0.129094 0.734786
v -0.089070 0.643896 0.219983
v -0.089121 0.385742 0.666097
v -0.089121 0.575207 0.476631
v -0.224772 -0.602755 0.532119
v -0.225238 -0.538283 0.364240
v -0.225207 -0.525620 0.172187
v -0.088625 -0.525620 0.172187
v -0.088594 -0.538283 0.364240
v -0.089060 -0.602755 0.532119
v -0.224625 -0.655935 0.733847
v -0.224625 -0.686854 0.680459
v -0.089207 -0.686854 0.680459
v -0.089207 -0.655935 0.733847
v -0.088471 0.629128 0.085906
v -0.225361 0.629128 0.085906
v -0.225064 0.815320 0.060834
v -0.088767 0.815320 0.060834
v -0.224559 -0.800768 0.354799
v -0.224559 -0.787478 0.149170
v -0.089272 -0.787478 0.149170
v -0.089272 -0.800768 0.354799
v -0.224727 0.641451 0.120922
v -0.224668 0.711272 0.148848
v -0.224696 0.782404 0.120314
v -0.089135 0.782404 0.120314
v -0.089164 0.711272 0.148848
v -0.089104 0.641451 0.120922
v -0.224559 0.928609 0.062796
v -0.089272 0.928609 0.062796
vn -0.0000 -0.0000 1.0000
vn -0.0000 -0.9963 0.0854
vn -0.0000 0.9659 -0.2588
vn -0.0000 0.7071 -0.7071
vn -0.0000 0.2588 -0.9659
vn -0.0000 -0.9535 0.3015
vn -0.0000 -0.0645 -0.9979
vn -0.0000 -0.8654 -0.5012
vn -0.0000 -0.8674 0.4977
vn -0.0000 -0.0000 -1.0000
vn -1.0000 -0.0000 -0.0000
vn 1.0000 -0.0000 -0.0000
vn -0.0000 1.0000 -0.0000
vn -0.0000 0.8338 -0.5520
vn -0.0000 -0.9979 0.0645
vn -0.0000 0.0645 0.9979
vn -0.0000 -0.7315 -0.6819
vn -0.0000 -0.3751 -0.9270
vn -0.0000 0.3751 -0.9270
vn -0.0000 -0.9963 -0.0854
vn -0.0000 0.9659 0.2588
vn -0.0000 0.7071 0.7071
vn -0.0000 0.2588 0.9659
vn -0.0000 -0.9535 -0.3015
vn -0.0000 -0.0645 0.9979
vn -0.0000 -0.8654 0.5012
vn -0.0000 -0.8674 -0.4977
vn -0.0000 0.8338 0.5520
vn -0.0000 -0.9979 -0.0645
vn -0.0000 0.0645 -0.9979
vn -0.0000 -0.7315 0.6819
vn -0.0000 -0.3751 0.9270
vn -0.0000 0.3751 0.9270
vn -0.0000 0.0024 -1.0000
vn -0.0000 0.9992 -0.0393
vn -0.0000 -0.9660 0.2585
vn -0.0000 -0.7071 0.7071
vn -0.0000 -0.2585 0.9660
vn -0.0000 0.9335 -0.3585
vn -0.0000 0.0359 0.9994
vn -0.0000 0.8654 0.5012
vn -0.0000 0.8699 -0.4932
vn -0.0000 0.0012 1.0000
vn 1.0000 -0.0001 0.0004
vn -1.0000 -0.0001 0.0004
vn -0.0000 -0.9940 -0.1095
vn -1.0000 -0.0041 0.0020
vn -0.0000 -0.8750 0.4842
vn -1.0000 0.0024 0.0033
vn 1.0000 0.0024 0.0033
vn -0.0000 0.9979 -0.0645
vn -0.0000 -0.0876 -0.9962
vn -1.0000 0.0025 -0.0002
vn 1.0000 0.0025 -0.0002
vn 0.9999 -0.0158 0.0019
vn 1.0000 0.0003 0.0034
vn 1.0000 -0.0005 0.0035
vn -0.9999 -0.0158 0.0019
vn -1.0000 0.0003 0.0034
vn -1.0000 -0.0005 0.0035
vn -0.0000 0.9433 0.3320
vn -0.0000 0.3714 0.9285
vn -0.0000 -0.3723 0.9281
vn -0.0000 -0.9996 0.0287
vn -0.0000 -0.0212 -0.9998
vn -0.0000 0.0173 0.9999
vn 1.0000 -0.0041 0.0020
vn -0.0000 0.9991 0.0429
vn -0.0000 -0.9660 -0.2585
vn -0.0000 -0.7071 -0.7071
vn -0.0000 -0.2585 -0.9660
vn -0.0000 0.9335 0.3585
vn -0.0000 0.0359 -0.9994
vn -0.0000 0.8654 -0.5012
vn -0.0000 0.8699 0.4932
vn -0.0000 0.0012 -1.0000
vn 1.0000 -0.0001 -0.0004
vn -1.0000 -0.0001 -0.0004
vn -0.0000 -0.9940 0.1095
vn -1.0000 -0.0041 -0.0027
vn -0.0000 -0.8750 -0.4842
vn -1.0000 0.0018 -0.0041
vn 1.0000 0.0018 -0.0041
vn -0.0000 0.9979 0.0645
vn -0.0000 -0.0876 0.9962
vn -1.0000 0.0025 0.0002
vn 1.0000 0.0025 0.0002
vn 0.9999 -0.0154 -0.0022
vn 1.0000 0.0004 -0.0039
vn 1.0000 -0.0007 -0.0041
vn -0.9999 -0.0154 -0.0022
vn -1.0000 0.0004 -0.0039
vn -1.0000 -0.0007 -0.0041
vn -0.0000 0.9433 -0.3320
vn -0.0000 0.3714 -0.9285
vn -0.0000 -0.3723 -0.9281
vn -0.0000 -0.9993 -0.0365
vn -0.0000 0.0173 -0.9999
vn 1.0000 -0.0041 -0.0027
vt 0.375000 0.750000
vt 0.625000 0.750000
vt 0.625000 1.000000
vt 0.375000 1.000000
vt 0.125000 0.687500
vt 0.375000 0.687500
vt 0.125000 0.750000
vt 0.875000 0.674193
vt 0.625000 0.674193
vt 0.620547 0.529032
vt 0.875000 0.500000
vt 0.618320 0.206452
vt 0.575143 0.507779
vt 0.575143 0.242221
vt 0.525287 0.500000
vt 0.525287 0.250000
vt 0.125000 0.562500
vt 0.375000 0.562500
vt 0.375000 0.625000
vt 0.125000 0.625000
vt 0.375000 0.513193
vt 0.125000 0.513193
vt 0.125000 0.500000
vt 0.380356 0.500000
vt 0.383033 0.250000
vt 0.375000 0.000000
vt 0.625000 0.000000
vt 0.625000 0.028407
vt 0.625000 0.075807
vt 0.375000 0.236807
vt 0.375000 0.187500
vt 0.375000 0.125000
vt 0.375000 0.062500
vt 0.625000 0.721593
vt 0.875000 0.721593
vt 0.875000 0.750000
s 0
usemtl Material.002
f 59/27/23 60/28/23 58/29/23 57/30/23
f 71/31/24 72/32/24 59/27/24 57/33/24
f 61/34/25 66/35/25 68/36/25 63/37/25
f 63/38/26 68/36/26 67/39/26 64/40/26
f 64/40/27 67/39/27 65/41/27 62/42/27
f 92/29/23 91/28/23 81/28/23 82/29/23
f 69/43/28 74/44/28 73/45/28 70/46/28
f 70/46/29 73/45/29 88/45/29 85/46/29
f 77/47/30 76/48/30 75/49/30 78/50/30
f 76/48/31 77/47/31 74/44/31 69/43/31
f 75/51/32 62/42/32 65/41/32 78/50/32
f 57/52/33 58/53/33 80/54/33 61/55/33 63/38/33 64/40/33 62/42/33 75/51/33 76/56/33 69/57/33 70/58/33 71/59/33
f 77/47/34 78/50/34 65/41/34 67/39/34 68/36/34 66/35/34 79/60/34 60/28/34 59/27/34 72/32/34 73/45/34 74/44/34
f 66/35/35 61/34/35 80/61/35 79/60/35
f 81/28/34 84/60/34 104/60/34 101/28/34
f 91/28/34 98/60/34 84/60/34 81/28/34
f 85/46/37 88/45/37 87/32/37 86/31/37
f 72/32/38 71/31/38 86/31/38 87/32/38
f 73/45/34 72/32/34 87/32/34 88/45/34
f 71/59/33 70/58/33 85/58/33 86/59/33
f 60/28/34 79/60/34 100/60/34 89/28/34
f 89/28/34 100/60/34 99/60/34 90/28/34
f 90/28/34 99/60/34 98/60/34 91/28/34
f 58/29/23 60/28/23 89/28/23 94/29/23
f 94/29/23 89/28/23 90/28/23 93/29/23
f 93/29/23 90/28/23 91/28/23 92/29/23
f 104/60/35 103/61/35 102/62/35 101/28/35
f 82/29/23 81/28/23 101/28/23 102/29/23
f 84/60/32 83/61/32 103/61/32 104/60/32
f 83/54/33 82/53/33 102/53/33 103/54/33
f 115/31/42 57/33/42 59/27/42 116/32/42
f 105/34/43 107/37/43 112/36/43 110/35/43
f 107/38/44 108/40/44 111/39/44 112/36/44
f 108/40/45 106/42/45 109/41/45 111/39/45
f 113/43/46 114/46/46 117/45/46 118/44/46
f 114/46/47 127/46/47 130/45/47 117/45/47
f 121/47/48 122/50/48 119/49/48 120/48/48
f 120/48/49 113/43/49 118/44/49 121/47/49
f 119/51/23 122/50/23 109/41/23 106/42/23
f 57/52/33 115/59/33 114/58/33 113/57/33 120/56/33 119/51/33 106/42/33 108/40/33 107/38/33 105/55/33 124/54/33 58/53/33
f 121/47/34 118/44/34 117/45/34 116/32/34 59/27/34 60/28/34 123/60/34 110/35/34 112/36/34 111/39/34 109/41/34 122/50/34
f 110/35/35 123/60/35 124/61/35 105/34/35
f 81/28/34 101/28/34 138/60/34 126/60/34
f 91/28/34 81/28/34 126/60/34 134/60/34
f 127/46/51 128/31/51 129/32/51 130/45/51
f 116/32/52 129/32/52 128/31/52 115/31/52
f 117/45/34 130/45/34 129/32/34 116/32/34
f 115/59/33 128/59/33 127/58/33 114/58/33
f 60/28/34 89/28/34 136/60/34 123/60/34
f 89/28/34 90/28/34 135/60/34 136/60/34
f 90/28/34 91/28/34 134/60/34 135/60/34
f 138/60/35 101/28/35 102/62/35 137/61/35
f 126/60/23 138/60/23 137/61/23 125/61/23
f 125/54/33 137/54/33 102/53/33 82/53/33
usemtl Material.003
f 98/60/36 97/61/36 83/61/36 84/60/36
f 97/54/33 92/53/33 82/53/33 83/54/33
f 80/54/33 58/53/33 94/53/33 95/54/33
f 95/54/33 94/53/33 93/53/33 96/54/33
f 96/54/33 93/53/33 92/53/33 97/54/33
f 79/60/39 80/61/39 95/61/39 100/60/39
f 100/60/40 95/61/40 96/61/40 99/60/40
f 99/60/41 96/61/41 97/61/41 98/60/41
f 134/60/50 126/60/50 125/61/50 133/61/50
f 133/54/33 125/54/33 82/53/33 92/53/33
f 124/54/33 131/54/33 94/53/33 58/53/33
f 131/54/33 132/54/33 93/53/33 94/53/33
f 132/54/33 133/54/33 92/53/33 93/53/33
f 123/60/53 136/60/53 131/61/53 124/61/53
f 136/60/54 135/60/54 132/61/54 131/61/54
f 135/60/55 134/60/55 133/61/55 132/61/55
usemtl Material.001
f 141/27/56 139/30/56 140/29/56 142/28/56
f 153/31/57 139/33/57 141/27/57 154/32/57
f 143/34/58 145/37/58 150/36/58 148/35/58
f 145/38/59 146/40/59 149/39/59 150/36/59
f 146/40/60 144/42/60 147/41/60 149/39/60
f 174/29/32 164/29/32 163/28/32 173/28/32
f 151/43/61 152/46/61 155/45/61 156/44/61
f 152/46/62 167/46/62 170/45/62 155/45/62
f 159/47/63 160/50/63 157/49/63 158/48/63
f 158/48/64 151/43/64 156/44/64 159/47/64
f 157/51/65 160/50/65 147/41/65 144/42/65
f 139/52/66 153/59/66 152/58/66 151/57/66 158/56/66 157/51/66 144/42/66 146/40/66 145/38/66 143/55/66 162/54/66 140/53/66
f 159/47/67 156/44/67 155/45/67 154/32/67 141/27/67 142/28/67 161/60/67 148/35/67 150/36/67 149/39/67 147/41/67 160/50/67
f 148/35/68 161/60/68 162/61/68 143/34/68
f 163/28/69 183/28/69 186/60/69 166/60/69
f 180/60/70 166/60/70 165/61/70 179/61/70
f 173/28/71 163/28/71 166/60/71 180/60/71
f 179/54/72 165/54/72 164/53/72 174/53/72
f 167/46/73 168/31/73 169/32/73 170/45/73
f 154/32/74 169/32/74 168/31/74 153/31/74
f 155/45/75 170/45/75 169/32/75 154/32/75
f 153/59/76 168/59/76 167/58/76 152/58/76
f 162/54/77 177/54/77 176/53/77 140/53/77
f 177/54/78 178/54/78 175/53/78 176/53/78
f 178/54/79 179/54/79 174/53/79 175/53/79
f 142/28/80 171/28/80 182/60/80 161/60/80
f 171/28/81 172/28/81 181/60/81 182/60/81
f 172/28/82 173/28/82 180/60/82 181/60/82
f 161/60/83 182/60/83 177/61/83 162/61/83
f 182/60/84 181/60/84 178/61/84 177/61/84
f 181/60/85 180/60/85 179/61/85 178/61/85
f 140/29/32 176/29/32 171/28/32 142/28/32
f 176/29/32 175/29/32 172/28/32 171/28/32
f 175/29/32 174/29/32 173/28/32 172/28/32
f 186/60/86 183/28/86 184/62/86 185/61/86
f 164/29/87 184/29/87 183/28/87 163/28/87
f 166/60/88 186/60/88 185/61/88 165/61/88
f 165/54/89 185/54/89 184/53/89 164/53/89
f 197/31/90 198/32/90 141/27/90 139/33/90
f 187/34/91 192/35/91 194/36/91 189/37/91
f 189/38/92 194/36/92 193/39/92 190/40/92
f 190/40/93 193/39/93 191/41/93 188/42/93
f 195/43/94 200/44/94 199/45/94 196/46/94
f 196/46/95 199/45/95 212/45/95 209/46/95
f 203/47/96 202/48/96 201/49/96 204/50/96
f 202/48/97 203/47/97 200/44/97 195/43/97
f 201/51/98 188/42/98 191/41/98 204/50/98
f 139/52/99 140/53/99 206/54/99 187/55/99 189/38/99 190/40/99 188/42/99 201/51/99 202/56/99 195/57/99 196/58/99 197/59/99
f 203/47/100 204/50/100 191/41/100 193/39/100 194/36/100 192/35/100 205/60/100 142/28/100 141/27/100 198/32/100 199/45/100 200/44/100
f 192/35/101 187/34/101 206/61/101 205/60/101
f 163/28/102 208/60/102 220/60/102 183/28/102
f 216/60/103 215/61/103 207/61/103 208/60/103
f 173/28/104 216/60/104 208/60/104 163/28/104
f 215/54/105 174/53/105 164/53/105 207/54/105
f 209/46/106 212/45/106 211/32/106 210/31/106
f 198/32/107 197/31/107 210/31/107 211/32/107
f 199/45/108 198/32/108 211/32/108 212/45/108
f 197/59/109 196/58/109 209/58/109 210/59/109
f 206/54/110 140/53/110 176/53/110 213/54/110
f 213/54/111 176/53/111 175/53/111 214/54/111
f 214/54/112 175/53/112 174/53/112 215/54/112
f 142/28/113 205/60/113 218/60/113 171/28/113
f 171/28/114 218/60/114 217/60/114 172/28/114
f 172/28/115 217/60/115 216/60/115 173/28/115
f 205/60/116 206/61/116 213/61/116 218/60/116
f 218/60/117 213/61/117 214/61/117 217/60/117
f 217/60/118 214/61/118 215/61/118 216/60/118
f 220/60/119 219/61/119 184/62/119 183/28/119
f 208/60/120 207/61/120 219/61/120 220/60/120
f 207/54/121 164/53/121 184/53/121 219/54/121
