# Blender 5.0.1
# www.blender.org
mtllib xorText.mtl
o Cube
v 0.017928 0.273324 -1.008988
v 0.017928 -0.273324 -1.052003
v 0.017928 0.273324 1.000000
v 0.017928 -0.273324 1.000000
v -0.017928 0.273324 -1.008988
v -0.017928 -0.273324 -1.052003
v -0.017928 0.273324 1.000000
v -0.017928 -0.273324 1.000000
v 0.017928 0.182216 -1.000000
v 0.017928 0.091108 -1.038910
v 0.017928 -0.000000 -1.000000
v 0.017928 -0.091108 -1.029830
v 0.017928 -0.182216 -1.000000
v -0.017928 -0.182216 1.000000
v -0.017928 -0.091108 1.000000
v -0.017928 0.000000 1.000000
v -0.017928 0.091108 1.000000
v -0.017928 0.182216 1.000000
v 0.017928 0.182216 1.000000
v 0.017928 0.091108 1.000000
v 0.017928 -0.000000 1.000000
v 0.017928 -0.091108 1.000000
v 0.017928 -0.182216 1.000000
v -0.017928 0.182216 -1.000000
v -0.017928 0.091108 -1.038910
v -0.017928 -0.000000 -1.000000
v -0.017928 -0.091108 -1.029830
v -0.017928 -0.182216 -1.000000
v 0.018134 0.276441 -1.020704
v 0.018132 -0.276246 -1.064490
v 0.018135 0.276481 1.011547
v 0.018135 -0.276481 1.011547
v -0.018134 0.276441 -1.020704
v -0.018132 -0.276246 -1.064490
v -0.018135 0.276481 1.011547
v -0.018135 -0.276481 1.011547
v 0.018187 0.182385 -1.013792
v 0.018172 0.091108 -1.053538
v 0.018190 -0.000050 -1.013648
v 0.018174 -0.091108 -1.044352
v 0.018192 -0.182095 -1.013542
v -0.018181 -0.182216 1.014142
v -0.018181 -0.091108 1.014142
v -0.018181 0.000000 1.014142
v -0.018181 0.091108 1.014142
v -0.018181 0.182216 1.014142
v 0.018181 0.182216 1.014142
v 0.018181 0.091108 1.014142
v 0.018181 -0.000000 1.014142
v 0.018181 -0.091108 1.014142
v 0.018181 -0.182216 1.014142
v -0.018187 0.182385 -1.013792
v -0.018172 0.091108 -1.053538
v -0.018190 -0.000050 -1.013648
v -0.018174 -0.091108 -1.044352
v -0.018192 -0.182095 -1.013542
vn -0.0000 1.0000 -0.0000
vn -0.0000 -0.0000 1.0000
vn -1.0000 -0.0000 -0.0000
vn -0.0000 -1.0000 -0.0000
vn 1.0000 -0.0000 -0.0000
vn -0.0000 -0.0982 -0.9952
vn -0.0000 0.4957 -0.8685
vn -0.0000 -0.3112 -0.9504
vn -0.0000 0.3112 -0.9504
vn -0.0000 -0.3928 -0.9196
vn -0.0000 0.3928 -0.9196
vn -0.0000 -0.0275 -0.9996
vn 1.0000 -0.0005 -0.0000
vn -0.0000 1.0000 0.0001
vn -1.0000 -0.0005 -0.0000
vn -0.0000 0.0733 0.9973
vn -0.0000 -0.4759 0.8795
vn -0.0000 0.3207 0.9472
vn -0.0000 -0.3195 0.9476
vn -0.0000 0.4009 0.9161
vn -0.0000 -0.3992 0.9168
vn -1.0000 0.0006 -0.0000
vn -1.0000 -0.0001 -0.0000
vn -1.0000 0.0001 -0.0000
vn 1.0000 0.0006 -0.0000
vn 1.0000 -0.0001 -0.0000
vn 1.0000 0.0001 -0.0000
vn -0.0000 0.0275 -0.9996
vn -0.0000 -0.0000 -1.0000
vt 0.625000 0.500000
vt 0.875000 0.500000
vt 0.875000 0.750000
vt 0.625000 0.750000
vt 0.583333 0.750000
vt 0.625000 1.000000
vt 0.583333 1.000000
vt 0.583333 0.000000
vt 0.625000 0.000000
vt 0.625000 0.250000
vt 0.583333 0.250000
vt 0.125000 0.500000
vt 0.375000 0.500000
vt 0.375000 0.750000
vt 0.125000 0.750000
vt 0.583333 0.500000
vt 0.375000 0.250000
vt 0.416667 0.250000
vt 0.416667 0.500000
vt 0.458333 0.250000
vt 0.458333 0.500000
vt 0.500000 0.250000
vt 0.500000 0.500000
vt 0.541667 0.250000
vt 0.541667 0.500000
vt 0.416667 0.750000
vt 0.458333 0.750000
vt 0.500000 0.750000
vt 0.541667 0.750000
vt 0.375000 0.000000
vt 0.416667 0.000000
vt 0.458333 0.000000
vt 0.500000 0.000000
vt 0.541667 0.000000
vt 0.416667 1.000000
vt 0.375000 1.000000
vt 0.458333 1.000000
vt 0.500000 1.000000
vt 0.541667 1.000000
s 0
usemtl Material
f 1/1/1 5/2/1 7/3/1 3/4/1
f 19/5/2 3/4/2 7/6/2 18/7/2
f 18/8/3 7/9/3 5/10/3 24/11/3
f 6/12/4 2/13/4 4/14/4 8/15/4
f 9/16/5 1/1/5 3/4/5 19/5/5
f 24/11/6 5/10/6 1/1/6 9/16/6
f 6/17/7 28/18/7 13/19/7 2/13/7
f 28/18/8 27/20/8 12/21/8 13/19/8
f 27/20/9 26/22/9 11/23/9 12/21/9
f 26/22/10 25/24/10 10/25/10 11/23/10
f 25/24/11 24/11/11 9/16/11 10/25/11
f 2/13/5 13/19/5 23/26/5 4/14/5
f 13/19/5 12/21/5 22/27/5 23/26/5
f 12/21/5 11/23/5 21/28/5 22/27/5
f 11/23/5 10/25/5 20/29/5 21/28/5
f 10/25/5 9/16/5 19/5/5 20/29/5
f 8/30/3 14/31/3 28/18/3 6/17/3
f 14/31/3 15/32/3 27/20/3 28/18/3
f 15/32/3 16/33/3 26/22/3 27/20/3
f 16/33/3 17/34/3 25/24/3 26/22/3
f 17/34/3 18/8/3 24/11/3 25/24/3
f 4/14/2 23/26/2 14/35/2 8/36/2
f 23/26/2 22/27/2 15/37/2 14/35/2
f 22/27/2 21/28/2 16/38/2 15/37/2
f 21/28/2 20/29/2 17/39/2 16/38/2
f 20/29/2 19/5/2 18/7/2 17/39/2
usemtl Material.002
f 29/1/4 31/4/4 35/3/4 33/2/4
f 47/5/12 46/7/12 35/6/12 31/4/12
f 46/8/13 52/11/13 33/10/13 35/9/13
f 34/12/14 36/15/14 32/14/14 30/13/14
f 37/16/15 47/5/15 31/4/15 29/1/15
f 52/11/16 37/16/16 29/1/16 33/10/16
f 34/17/17 30/13/17 41/19/17 56/18/17
f 56/18/18 41/19/18 40/21/18 55/20/18
f 55/20/19 40/21/19 39/23/19 54/22/19
f 54/22/20 39/23/20 38/25/20 53/24/20
f 53/24/21 38/25/21 37/16/21 52/11/21
f 30/13/22 32/14/22 51/26/22 41/19/22
f 41/19/23 51/26/23 50/27/23 40/21/23
f 40/21/24 50/27/24 49/28/24 39/23/24
f 39/23/23 49/28/23 48/29/23 38/25/23
f 38/25/24 48/29/24 47/5/24 37/16/24
f 36/30/25 34/17/25 56/18/25 42/31/25
f 42/31/26 56/18/26 55/20/26 43/32/26
f 43/32/27 55/20/27 54/22/27 44/33/27
f 44/33/26 54/22/26 53/24/26 45/34/26
f 45/34/27 53/24/27 52/11/27 46/8/27
f 32/14/28 36/36/28 42/35/28 51/26/28
f 51/26/29 42/35/29 43/37/29 50/27/29
f 50/27/29 43/37/29 44/38/29 49/28/29
f 49/28/29 44/38/29 45/39/29 48/29/29
f 48/29/29 45/39/29 46/7/29 47/5/29
o Text
v 0.023897 0.252511 -0.377885
v 0.023897 -0.194036 -0.377885
v 0.023897 -0.194036 -0.442051
v 0.023897 -0.000227 -0.442051
v 0.023897 -0.000227 -0.468897
v 0.023897 -0.000486 -0.476980
v 0.023897 -0.001427 -0.484950
v 0.023897 -0.003296 -0.492939
v 0.023897 -0.006338 -0.501077
v 0.023897 -0.010798 -0.509497
v 0.023897 -0.016923 -0.518331
v 0.023897 -0.024957 -0.527711
v 0.023897 -0.035147 -0.537768
v 0.023897 -0.047738 -0.548634
v 0.023897 -0.062975 -0.560442
v 0.023897 -0.081103 -0.573323
v 0.023897 -0.102369 -0.587408
v 0.023897 -0.194036 -0.646337
v 0.023897 -0.194036 -0.722944
v 0.023897 -0.183944 -0.715644
v 0.023897 -0.174848 -0.709067
v 0.023897 -0.166597 -0.703117
v 0.023897 -0.159043 -0.697699
v 0.023897 -0.152033 -0.692718
v 0.023897 -0.145420 -0.688078
v 0.023897 -0.139052 -0.683683
v 0.023897 -0.132779 -0.679439
v 0.023897 -0.126452 -0.675249
v 0.023897 -0.119921 -0.671018
v 0.023897 -0.113034 -0.666650
v 0.023897 -0.105643 -0.662051
v 0.023897 -0.092030 -0.653716
v 0.023897 -0.079016 -0.645676
v 0.023897 -0.066603 -0.637845
v 0.023897 -0.054790 -0.630138
v 0.023897 -0.043577 -0.622466
v 0.023897 -0.032965 -0.614745
v 0.023897 -0.022952 -0.606887
v 0.023897 -0.013540 -0.598806
v 0.023897 -0.004728 -0.590416
v 0.023897 0.003484 -0.581631
v 0.023897 0.011095 -0.572363
v 0.023897 0.018107 -0.562528
v 0.023897 0.023259 -0.574037
v 0.023897 0.029207 -0.584653
v 0.023897 0.035929 -0.594355
v 0.023897 0.043400 -0.603123
v 0.023897 0.051599 -0.610936
v 0.023897 0.060503 -0.617773
v 0.023897 0.070088 -0.623615
v 0.023897 0.080333 -0.628440
v 0.023897 0.091215 -0.632229
v 0.023897 0.102710 -0.634961
v 0.023897 0.114797 -0.636615
v 0.023897 0.127452 -0.637170
v 0.023897 0.146143 -0.636010
v 0.023897 0.163543 -0.632581
v 0.023897 0.179587 -0.626960
v 0.023897 0.194213 -0.619225
v 0.023897 0.207357 -0.609453
v 0.023897 0.218955 -0.597721
v 0.023897 0.228943 -0.584107
v 0.023897 0.237258 -0.568687
v 0.023897 0.243836 -0.551540
v 0.023897 0.248613 -0.532742
v 0.023897 0.251526 -0.512371
v 0.023897 0.252511 -0.490504
v 0.023897 0.197511 -0.442051
v 0.023897 0.197511 -0.483301
v 0.023897 0.196985 -0.498082
v 0.023897 0.195426 -0.511353
v 0.023897 0.192867 -0.523160
v 0.023897 0.189339 -0.533548
v 0.023897 0.184875 -0.542563
v 0.023897 0.179505 -0.550251
v 0.023897 0.173263 -0.556656
v 0.023897 0.166180 -0.561824
v 0.023897 0.158287 -0.565801
v 0.023897 0.149617 -0.568633
v 0.023897 0.140201 -0.570363
v 0.023897 0.130071 -0.571039
v 0.023897 0.120801 -0.570764
v 0.023897 0.111729 -0.569542
v 0.023897 0.102970 -0.567275
v 0.023897 0.094641 -0.563861
v 0.023897 0.086858 -0.559202
v 0.023897 0.079736 -0.553197
v 0.023897 0.073392 -0.545746
v 0.023897 0.067941 -0.536749
v 0.023897 0.063500 -0.526107
v 0.023897 0.060184 -0.513718
v 0.023897 0.058110 -0.499483
v 0.023897 0.057392 -0.483301
v 0.023897 0.057392 -0.442051
v 0.023897 0.029238 0.181936
v 0.023897 -0.000717 0.180035
v 0.023897 -0.029797 0.174422
v 0.023897 -0.057672 0.165229
v 0.023897 -0.084012 0.152593
v 0.023897 -0.108488 0.136647
v 0.023897 -0.130770 0.117524
v 0.023897 -0.150528 0.095360
v 0.023897 -0.167433 0.070287
v 0.023897 -0.181156 0.042441
v 0.023897 -0.191365 0.011956
v 0.023897 -0.197733 -0.021035
v 0.023897 -0.199929 -0.056397
v 0.023897 -0.197720 -0.092924
v 0.023897 -0.191320 -0.126811
v 0.023897 -0.181063 -0.157957
v 0.023897 -0.167288 -0.186258
v 0.023897 -0.150329 -0.211613
v 0.023897 -0.130524 -0.233919
v 0.023897 -0.108209 -0.253074
v 0.023897 -0.083721 -0.268976
v 0.023897 -0.057395 -0.281522
v 0.023897 -0.029570 -0.290611
v 0.023897 -0.000580 -0.296139
v 0.023897 0.029238 -0.298004
v 0.023897 0.059880 -0.296089
v 0.023897 0.089409 -0.290435
v 0.023897 0.117528 -0.281174
v 0.023897 0.143942 -0.268443
v 0.023897 0.168355 -0.252373
v 0.023897 0.190473 -0.233101
v 0.023897 0.209998 -0.210759
v 0.023897 0.226636 -0.185482
v 0.023897 0.240091 -0.157404
v 0.023897 0.250068 -0.126660
v 0.023897 0.256271 -0.093382
v 0.023897 0.258404 -0.057706
v 0.023897 0.256258 -0.022594
v 0.023897 0.250023 0.010289
v 0.023897 0.239999 0.040784
v 0.023897 0.226491 0.068735
v 0.023897 0.209799 0.093986
v 0.023897 0.190227 0.116378
v 0.023897 0.168077 0.135756
v 0.023897 0.143651 0.151963
v 0.023897 0.117252 0.164841
v 0.023897 0.089182 0.174234
v 0.023897 0.059743 0.179984
v 0.023897 0.029238 0.115805
v 0.023897 0.053219 0.114292
v 0.023897 0.075950 0.109864
v 0.023897 0.097272 0.102690
v 0.023897 0.117024 0.092937
v 0.023897 0.135049 0.080775
v 0.023897 0.151187 0.066371
v 0.023897 0.165279 0.049893
v 0.023897 0.177165 0.031511
v 0.023897 0.186687 0.011391
v 0.023897 0.193686 -0.010297
v 0.023897 0.198002 -0.033386
v 0.023897 0.199476 -0.057706
v 0.023897 0.198002 -0.082178
v 0.023897 0.193686 -0.105392
v 0.023897 0.186687 -0.127183
v 0.023897 0.177165 -0.147385
v 0.023897 0.165279 -0.165831
v 0.023897 0.151187 -0.182357
v 0.023897 0.135049 -0.196795
v 0.023897 0.117024 -0.208981
v 0.023897 0.097272 -0.218747
v 0.023897 0.075950 -0.225929
v 0.023897 0.053219 -0.230359
v 0.023897 0.029238 -0.231873
v 0.023897 0.005394 -0.230359
v 0.023897 -0.017247 -0.225929
v 0.023897 -0.038520 -0.218747
v 0.023897 -0.058258 -0.208981
v 0.023897 -0.076295 -0.196795
v 0.023897 -0.092466 -0.182357
v 0.023897 -0.106604 -0.165831
v 0.023897 -0.118544 -0.147385
v 0.023897 -0.128120 -0.127183
v 0.023897 -0.135165 -0.105392
v 0.023897 -0.139514 -0.082178
v 0.023897 -0.141000 -0.057706
v 0.023897 -0.139514 -0.033386
v 0.023897 -0.135165 -0.010297
v 0.023897 -0.128120 0.011391
v 0.023897 -0.118544 0.031511
v 0.023897 -0.106604 0.049893
v 0.023897 -0.092466 0.066371
v 0.023897 -0.076295 0.080775
v 0.023897 -0.058258 0.092937
v 0.023897 -0.038520 0.102690
v 0.023897 -0.017247 0.109864
v 0.023897 0.005394 0.114292
v 0.023897 0.252511 0.225150
v 0.023897 0.252511 0.302412
v 0.023897 0.082273 0.441876
v 0.023897 0.252511 0.581995
v 0.023897 0.252511 0.659912
v 0.023897 0.037095 0.481162
v 0.023897 -0.194036 0.673662
v 0.023897 -0.194036 0.595745
v 0.023897 -0.009393 0.441876
v 0.023897 -0.194036 0.289972
v 0.023897 -0.194036 0.212710
v 0.023897 0.037095 0.403245
v 0.033897 0.252511 -0.377885
v 0.033897 -0.194036 -0.377885
v 0.033897 -0.194036 -0.442051
v 0.033897 -0.000227 -0.442051
v 0.033897 -0.000227 -0.468897
v 0.033897 -0.000486 -0.476980
v 0.033897 -0.001427 -0.484950
v 0.033897 -0.003296 -0.492939
v 0.033897 -0.006338 -0.501077
v 0.033897 -0.010798 -0.509497
v 0.033897 -0.016923 -0.518331
v 0.033897 -0.024957 -0.527711
v 0.033897 -0.035147 -0.537768
v 0.033897 -0.047738 -0.548634
v 0.033897 -0.062975 -0.560442
v 0.033897 -0.081103 -0.573323
v 0.033897 -0.102369 -0.587408
v 0.033897 -0.194036 -0.646337
v 0.033897 -0.194036 -0.722944
v 0.033897 -0.183944 -0.715644
v 0.033897 -0.174848 -0.709067
v 0.033897 -0.166597 -0.703117
v 0.033897 -0.159043 -0.697699
v 0.033897 -0.152033 -0.692718
v 0.033897 -0.145420 -0.688078
v 0.033897 -0.139052 -0.683683
v 0.033897 -0.132779 -0.679439
v 0.033897 -0.126452 -0.675249
v 0.033897 -0.119921 -0.671018
v 0.033897 -0.113034 -0.666650
v 0.033897 -0.105643 -0.662051
v 0.033897 -0.092030 -0.653716
v 0.033897 -0.079016 -0.645676
v 0.033897 -0.066603 -0.637845
v 0.033897 -0.054790 -0.630138
v 0.033897 -0.043577 -0.622466
v 0.033897 -0.032965 -0.614745
v 0.033897 -0.022952 -0.606887
v 0.033897 -0.013540 -0.598806
v 0.033897 -0.004728 -0.590416
v 0.033897 0.003484 -0.581631
v 0.033897 0.011095 -0.572363
v 0.033897 0.018107 -0.562528
v 0.033897 0.023259 -0.574037
v 0.033897 0.029207 -0.584653
v 0.033897 0.035929 -0.594355
v 0.033897 0.043400 -0.603123
v 0.033897 0.051599 -0.610936
v 0.033897 0.060503 -0.617773
v 0.033897 0.070088 -0.623615
v 0.033897 0.080333 -0.628440
v 0.033897 0.091215 -0.632229
v 0.033897 0.102710 -0.634961
v 0.033897 0.114797 -0.636615
v 0.033897 0.127452 -0.637170
v 0.033897 0.146143 -0.636010
v 0.033897 0.163543 -0.632581
v 0.033897 0.179587 -0.626960
v 0.033897 0.194213 -0.619225
v 0.033897 0.207357 -0.609453
v 0.033897 0.218955 -0.597721
v 0.033897 0.228943 -0.584107
v 0.033897 0.237258 -0.568687
v 0.033897 0.243836 -0.551540
v 0.033897 0.248613 -0.532742
v 0.033897 0.251526 -0.512371
v 0.033897 0.252511 -0.490504
v 0.033897 0.197511 -0.442051
v 0.033897 0.197511 -0.483301
v 0.033897 0.196985 -0.498082
v 0.033897 0.195426 -0.511353
v 0.033897 0.192867 -0.523160
v 0.033897 0.189339 -0.533548
v 0.033897 0.184875 -0.542563
v 0.033897 0.179505 -0.550251
v 0.033897 0.173263 -0.556656
v 0.033897 0.166180 -0.561824
v 0.033897 0.158287 -0.565801
v 0.033897 0.149617 -0.568633
v 0.033897 0.140201 -0.570363
v 0.033897 0.130071 -0.571039
v 0.033897 0.120801 -0.570764
v 0.033897 0.111729 -0.569542
v 0.033897 0.102970 -0.567275
v 0.033897 0.094641 -0.563861
v 0.033897 0.086858 -0.559202
v 0.033897 0.079736 -0.553197
v 0.033897 0.073392 -0.545746
v 0.033897 0.067941 -0.536749
v 0.033897 0.063500 -0.526107
v 0.033897 0.060184 -0.513718
v 0.033897 0.058110 -0.499483
v 0.033897 0.057392 -0.483301
v 0.033897 0.057392 -0.442051
v 0.033897 0.029238 0.181936
v 0.033897 -0.000717 0.180035
v 0.033897 -0.029797 0.174422
v 0.033897 -0.057672 0.165229
v 0.033897 -0.084012 0.152593
v 0.033897 -0.108488 0.136647
v 0.033897 -0.130770 0.117524
v 0.033897 -0.150528 0.095360
v 0.033897 -0.167433 0.070287
v 0.033897 -0.181156 0.042441
v 0.033897 -0.191365 0.011956
v 0.033897 -0.197733 -0.021035
v 0.033897 -0.199929 -0.056397
v 0.033897 -0.197720 -0.092924
v 0.033897 -0.191320 -0.126811
v 0.033897 -0.181063 -0.157957
v 0.033897 -0.167288 -0.186258
v 0.033897 -0.150329 -0.211613
v 0.033897 -0.130524 -0.233919
v 0.033897 -0.108209 -0.253074
v 0.033897 -0.083721 -0.268976
v 0.033897 -0.057395 -0.281522
v 0.033897 -0.029570 -0.290611
v 0.033897 -0.000580 -0.296139
v 0.033897 0.029238 -0.298004
v 0.033897 0.059880 -0.296089
v 0.033897 0.089409 -0.290435
v 0.033897 0.117528 -0.281174
v 0.033897 0.143942 -0.268443
v 0.033897 0.168355 -0.252373
v 0.033897 0.190473 -0.233101
v 0.033897 0.209998 -0.210759
v 0.033897 0.226636 -0.185482
v 0.033897 0.240091 -0.157404
v 0.033897 0.250068 -0.126660
v 0.033897 0.256271 -0.093382
v 0.033897 0.258404 -0.057706
v 0.033897 0.256258 -0.022594
v 0.033897 0.250023 0.010289
v 0.033897 0.239999 0.040784
v 0.033897 0.226491 0.068735
v 0.033897 0.209799 0.093986
v 0.033897 0.190227 0.116378
v 0.033897 0.168077 0.135756
v 0.033897 0.143651 0.151963
v 0.033897 0.117252 0.164841
v 0.033897 0.089182 0.174234
v 0.033897 0.059743 0.179984
v 0.033897 0.029238 0.115805
v 0.033897 0.053219 0.114292
v 0.033897 0.075950 0.109864
v 0.033897 0.097272 0.102690
v 0.033897 0.117024 0.092937
v 0.033897 0.135049 0.080775
v 0.033897 0.151187 0.066371
v 0.033897 0.165279 0.049893
v 0.033897 0.177165 0.031511
v 0.033897 0.186687 0.011391
v 0.033897 0.193686 -0.010297
v 0.033897 0.198002 -0.033386
v 0.033897 0.199476 -0.057706
v 0.033897 0.198002 -0.082178
v 0.033897 0.193686 -0.105392
v 0.033897 0.186687 -0.127183
v 0.033897 0.177165 -0.147385
v 0.033897 0.165279 -0.165831
v 0.033897 0.151187 -0.182357
v 0.033897 0.135049 -0.196795
v 0.033897 0.117024 -0.208981
v 0.033897 0.097272 -0.218747
v 0.033897 0.075950 -0.225929
v 0.033897 0.053219 -0.230359
v 0.033897 0.029238 -0.231873
v 0.033897 0.005394 -0.230359
v 0.033897 -0.017247 -0.225929
v 0.033897 -0.038520 -0.218747
v 0.033897 -0.058258 -0.208981
v 0.033897 -0.076295 -0.196795
v 0.033897 -0.092466 -0.182357
v 0.033897 -0.106604 -0.165831
v 0.033897 -0.118544 -0.147385
v 0.033897 -0.128120 -0.127183
v 0.033897 -0.135165 -0.105392
v 0.033897 -0.139514 -0.082178
v 0.033897 -0.141000 -0.057706
v 0.033897 -0.139514 -0.033386
v 0.033897 -0.135165 -0.010297
v 0.033897 -0.128120 0.011391
v 0.033897 -0.118544 0.031511
v 0.033897 -0.106604 0.049893
v 0.033897 -0.092466 0.066371
v 0.033897 -0.076295 0.080775
v 0.033897 -0.058258 0.092937
v 0.033897 -0.038520 0.102690
v 0.033897 -0.017247 0.109864
v 0.033897 0.005394 0.114292
v 0.033897 0.252511 0.225150
v 0.033897 0.252511 0.302412
v 0.033897 0.082273 0.441876
v 0.033897 0.252511 0.581995
v 0.033897 0.252511 0.659912
v 0.033897 0.037095 0.481162
v 0.033897 -0.194036 0.673662
v 0.033897 -0.194036 0.595745
v 0.033897 -0.009393 0.441876
v 0.033897 -0.194036 0.289972
v 0.033897 -0.194036 0.212710
v 0.033897 0.037095 0.403245
vn 1.0000 -0.0000 -0.0000
vn -1.0000 -0.0000 -0.0000
vn -0.0000 -0.0000 -1.0000
vn -0.0000 -1.0000 -0.0000
vn -0.0000 -0.9990 0.0450
vn -0.0000 -0.9899 0.1416
vn -0.0000 -0.9692 0.2463
vn -0.0000 -0.9337 0.3582
vn -0.0000 -0.8802 0.4746
vn -0.0000 -0.8063 0.5915
vn -0.0000 -0.7112 0.7030
vn -0.0000 1.0000 -0.0000
vn -0.0000 -0.5966 0.8025
vn -0.0000 -0.0000 1.0000
vn -0.0000 0.9994 -0.0356
vn -0.0000 0.9932 -0.1167
vn -0.0000 0.9773 -0.2118
vn -0.0000 -0.4675 0.8840
vn -0.0000 0.9469 -0.3215
vn -0.0000 0.8961 -0.4438
vn -0.0000 0.8198 -0.5726
vn -0.0000 -0.3306 0.9438
vn -0.0000 0.7162 -0.6979
vn -0.0000 0.5894 -0.8078
vn -0.0000 0.4500 -0.8930
vn -0.0000 -0.1934 0.9811
vn -0.0000 0.3104 -0.9506
vn -0.0000 0.1808 -0.9835
vn -0.0000 -0.0620 0.9981
vn -0.0000 0.0666 -0.9978
vn -0.0000 -0.0297 -0.9996
vn -0.0000 0.0439 0.9990
vn -0.0000 -0.1334 -0.9911
vn -0.0000 0.1356 0.9908
vn -0.0000 -0.2506 -0.9681
vn -0.0000 -0.3792 -0.9253
vn -0.0000 0.2312 0.9729
vn -0.0000 -0.5136 -0.8580
vn -0.0000 0.3288 0.9444
vn -0.0000 -0.6446 -0.7645
vn -0.0000 0.4261 0.9047
vn -0.0000 -0.7614 -0.6483
vn -0.0000 -0.8553 -0.5182
vn -0.0000 0.5204 0.8539
vn -0.0000 -0.9229 -0.3851
vn -0.0000 -0.9660 -0.2585
vn -0.0000 0.6091 0.7931
vn -0.0000 -0.9895 -0.1442
vn -0.0000 -0.9990 -0.0443
vn -0.0000 0.6899 0.7239
vn -0.0000 0.7611 0.6486
vn -0.0000 0.8220 0.5695
vn -0.0000 0.8724 0.4888
vn -0.0000 0.9127 0.4086
vn -0.0000 -0.8143 0.5805
vn -0.0000 -0.7728 0.6347
vn -0.0000 0.9995 -0.0320
vn -0.0000 -0.7306 0.6828
vn -0.0000 0.9931 -0.1173
vn -0.0000 0.9737 -0.2278
vn -0.0000 0.9367 -0.3501
vn -0.0000 -0.6895 0.7242
vn -0.0000 0.8837 -0.4681
vn -0.0000 0.8218 -0.5698
vn -0.0000 -0.6514 0.7587
vn -0.0000 0.7595 -0.6505
vn -0.0000 -0.6174 0.7867
vn -0.0000 0.7025 -0.7117
vn -0.0000 -0.5883 0.8086
vn -0.0000 0.6534 -0.7570
vn -0.0000 -0.5647 0.8253
vn -0.0000 0.6125 -0.7904
vn -0.0000 -0.5465 0.8375
vn -0.0000 0.5792 -0.8152
vn -0.0000 -0.5335 0.8458
vn -0.0000 -0.5256 0.8507
vn -0.0000 0.5522 -0.8337
vn -0.0000 -0.5222 0.8528
vn -0.0000 0.5408 -0.8412
vn -0.0000 -0.5283 0.8490
vn -0.0000 -0.5356 0.8445
vn -0.0000 -0.5437 0.8393
vn -0.0000 -0.5521 0.8338
vn -0.0000 -0.5604 0.8282
vn -0.0000 -0.5680 0.8230
vn -0.0000 -0.5743 0.8186
vn -0.0000 -0.5793 0.8151
vn -0.0000 -0.5828 0.8126
vn -0.0000 -0.5849 0.8111
vn -0.0000 -0.5859 0.8104
vn -0.0000 -0.5861 0.8102
vn -0.0000 -0.9981 -0.0610
vn -0.0000 -0.9982 0.0597
vn -0.0000 -0.9831 0.1832
vn -0.0000 -0.9825 -0.1863
vn -0.0000 -0.9512 0.3087
vn -0.0000 -0.9500 -0.3123
vn -0.0000 -0.9018 0.4322
vn -0.0000 -0.9004 -0.4351
vn -0.0000 -0.8353 0.5498
vn -0.0000 -0.8342 -0.5514
vn -0.0000 -0.7530 0.6581
vn -0.0000 -0.7529 -0.6581
vn -0.0000 0.9982 0.0605
vn -0.0000 0.9982 -0.0601
vn -0.0000 0.9832 -0.1828
vn -0.0000 0.9830 0.1837
vn -0.0000 0.9521 -0.3058
vn -0.0000 0.9517 0.3071
vn -0.0000 -0.6570 0.7539
vn -0.0000 -0.6584 -0.7526
vn -0.0000 0.9046 -0.4264
vn -0.0000 0.9039 0.4278
vn -0.0000 0.8406 -0.5417
vn -0.0000 0.8397 0.5430
vn -0.0000 -0.5498 0.8353
vn -0.0000 -0.5529 -0.8333
vn -0.0000 0.7609 -0.6489
vn -0.0000 0.7600 0.6499
vn -0.0000 0.6668 -0.7453
vn -0.0000 0.6659 0.7461
vn -0.0000 -0.4342 0.9008
vn -0.0000 -0.4384 -0.8988
vn -0.0000 0.5601 -0.8285
vn -0.0000 0.5593 0.8289
vn -0.0000 -0.3128 0.9498
vn -0.0000 -0.3173 -0.9483
vn -0.0000 0.4432 -0.8964
vn -0.0000 0.4427 0.8967
vn -0.0000 0.3192 -0.9477
vn -0.0000 0.3189 0.9478
vn -0.0000 -0.1881 0.9822
vn -0.0000 -0.1917 -0.9814
vn -0.0000 0.1913 -0.9815
vn -0.0000 0.1912 0.9815
vn -0.0000 -0.0624 0.9981
vn -0.0000 -0.0639 -0.9980
vn -0.0000 0.0630 -0.9980
vn -0.0000 0.0630 0.9980
vn -0.0000 0.0633 -0.9980
vn -0.0000 -0.0633 0.9980
vn -0.0000 -0.0634 -0.9980
vn -0.0000 0.0624 0.9980
vn -0.0000 -0.1919 0.9814
vn -0.0000 -0.1920 -0.9814
vn -0.0000 0.1873 0.9823
vn -0.0000 0.1895 -0.9819
vn -0.0000 -0.3196 0.9476
vn -0.0000 -0.3199 -0.9475
vn -0.0000 0.3105 0.9506
vn -0.0000 0.3132 -0.9497
vn -0.0000 -0.4435 -0.8963
vn -0.0000 -0.4430 0.8965
vn -0.0000 0.4302 0.9027
vn -0.0000 0.4325 -0.9016
vn -0.0000 -0.5598 -0.8286
vn -0.0000 -0.5591 0.8291
vn -0.0000 -0.6660 -0.7459
vn -0.0000 -0.6651 0.7467
vn -0.0000 0.5446 0.8387
vn -0.0000 0.5459 -0.8379
vn -0.0000 -0.7599 -0.6501
vn -0.0000 -0.7589 0.6512
vn -0.0000 -0.8395 -0.5434
vn -0.0000 -0.8386 0.5447
vn -0.0000 0.6513 0.7588
vn -0.0000 0.6513 -0.7589
vn -0.0000 -0.9036 -0.4283
vn -0.0000 -0.9030 0.4297
vn -0.0000 -0.9515 -0.3076
vn -0.0000 -0.9511 0.3089
vn -0.0000 0.7478 0.6639
vn -0.0000 0.7465 -0.6654
vn -0.0000 -0.9829 -0.1841
vn -0.0000 -0.9827 0.1851
vn -0.0000 -0.9982 -0.0606
vn -0.0000 -0.9981 0.0610
vn -0.0000 0.8312 0.5560
vn -0.0000 0.8291 -0.5591
vn -0.0000 0.8991 0.4377
vn -0.0000 0.8970 -0.4420
vn -0.0000 0.9498 0.3128
vn -0.0000 0.9482 -0.3176
vn -0.0000 0.9826 0.1856
vn -0.0000 0.9819 -0.1895
vn -0.0000 0.9981 -0.0620
vn -0.0000 0.9982 0.0603
vn -0.0000 0.6386 -0.7696
vn -0.0000 -0.6355 0.7721
vn -0.0000 -0.6337 -0.7736
vn -0.0000 0.6372 0.7707
vn -0.0000 -0.6400 -0.7684
vn -0.0000 -0.6361 0.7716
vn -0.0000 0.6402 0.7682
vn -0.0000 0.6353 -0.7722
vt 0.010753 0.000000
vt 0.720430 0.000000
vt 0.000000 0.000000
vt 0.709677 0.000000
vt 0.698925 0.000000
vt 0.688172 0.000000
vt 0.677419 0.000000
vt 0.666667 0.000000
vt 0.655914 0.000000
vt 0.645161 0.000000
vt 0.634409 0.000000
vt 0.731183 0.000000
vt 0.623656 0.000000
vt 1.000000 0.000000
vt 0.741935 0.000000
vt 0.752688 0.000000
vt 0.763441 0.000000
vt 0.612903 0.000000
vt 0.774194 0.000000
vt 0.784946 0.000000
vt 0.795699 0.000000
vt 0.602151 0.000000
vt 0.806452 0.000000
vt 0.817204 0.000000
vt 0.827957 0.000000
vt 0.591398 0.000000
vt 0.838710 0.000000
vt 0.849462 0.000000
vt 0.580645 0.000000
vt 0.860215 0.000000
vt 0.870968 0.000000
vt 0.569892 0.000000
vt 0.881720 0.000000
vt 0.559140 0.000000
vt 0.892473 0.000000
vt 0.903226 0.000000
vt 0.548387 0.000000
vt 0.913979 0.000000
vt 0.537634 0.000000
vt 0.924731 0.000000
vt 0.526882 0.000000
vt 0.935484 0.000000
vt 0.946237 0.000000
vt 0.516129 0.000000
vt 0.956989 0.000000
vt 0.967742 0.000000
vt 0.505376 0.000000
vt 0.978495 0.000000
vt 0.989247 0.000000
vt 0.032258 0.000000
vt 0.494624 0.000000
vt 0.483871 0.000000
vt 0.473118 0.000000
vt 0.462366 0.000000
vt 0.451613 0.000000
vt 0.440860 0.000000
vt 0.430108 0.000000
vt 0.043011 0.000000
vt 0.053763 0.000000
vt 0.419355 0.000000
vt 0.021505 0.000000
vt 0.064516 0.000000
vt 0.075269 0.000000
vt 0.086022 0.000000
vt 0.408602 0.000000
vt 0.096774 0.000000
vt 0.107527 0.000000
vt 0.397849 0.000000
vt 0.118280 0.000000
vt 0.387097 0.000000
vt 0.129032 0.000000
vt 0.376344 0.000000
vt 0.139785 0.000000
vt 0.365591 0.000000
vt 0.150538 0.000000
vt 0.354839 0.000000
vt 0.161290 0.000000
vt 0.344086 0.000000
vt 0.333333 0.000000
vt 0.172043 0.000000
vt 0.322581 0.000000
vt 0.182796 0.000000
vt 0.311828 0.000000
vt 0.301075 0.000000
vt 0.290323 0.000000
vt 0.279570 0.000000
vt 0.268817 0.000000
vt 0.258065 0.000000
vt 0.247312 0.000000
vt 0.236559 0.000000
vt 0.225806 0.000000
vt 0.215054 0.000000
vt 0.204301 0.000000
vt 0.193548 0.000000
vt 0.389474 0.000000
vt 0.368421 0.000000
vt 0.378947 0.000000
vt 0.357895 0.000000
vt 0.400000 0.000000
vt 0.347368 0.000000
vt 0.410526 0.000000
vt 0.336842 0.000000
vt 0.421053 0.000000
vt 0.326316 0.000000
vt 0.431579 0.000000
vt 0.315789 0.000000
vt 0.442105 0.000000
vt 0.631579 0.000000
vt 0.621053 0.000000
vt 0.642105 0.000000
vt 0.652632 0.000000
vt 0.610526 0.000000
vt 0.663158 0.000000
vt 0.600000 0.000000
vt 0.305263 0.000000
vt 0.452632 0.000000
vt 0.673684 0.000000
vt 0.589474 0.000000
vt 0.684211 0.000000
vt 0.578947 0.000000
vt 0.294737 0.000000
vt 0.463158 0.000000
vt 0.694737 0.000000
vt 0.568421 0.000000
vt 0.705263 0.000000
vt 0.557895 0.000000
vt 0.284211 0.000000
vt 0.473684 0.000000
vt 0.715789 0.000000
vt 0.547368 0.000000
vt 0.273684 0.000000
vt 0.484211 0.000000
vt 0.726316 0.000000
vt 0.536842 0.000000
vt 0.736842 0.000000
vt 0.526316 0.000000
vt 0.263158 0.000000
vt 0.494737 0.000000
vt 0.747368 0.000000
vt 0.515789 0.000000
vt 0.252632 0.000000
vt 0.757895 0.000000
vt 0.505263 0.000000
vt 0.010526 0.000000
vt 0.768421 0.000000
vt 0.242105 0.000000
vt 0.989474 0.000000
vt 0.778947 0.000000
vt 0.231579 0.000000
vt 0.021053 0.000000
vt 0.978947 0.000000
vt 0.789474 0.000000
vt 0.221053 0.000000
vt 0.031579 0.000000
vt 0.800000 0.000000
vt 0.968421 0.000000
vt 0.210526 0.000000
vt 0.042105 0.000000
vt 0.810526 0.000000
vt 0.957895 0.000000
vt 0.821053 0.000000
vt 0.947368 0.000000
vt 0.200000 0.000000
vt 0.052632 0.000000
vt 0.831579 0.000000
vt 0.936842 0.000000
vt 0.842105 0.000000
vt 0.926316 0.000000
vt 0.189474 0.000000
vt 0.063158 0.000000
vt 0.852632 0.000000
vt 0.915789 0.000000
vt 0.863158 0.000000
vt 0.905263 0.000000
vt 0.178947 0.000000
vt 0.073684 0.000000
vt 0.873684 0.000000
vt 0.894737 0.000000
vt 0.884211 0.000000
vt 0.168421 0.000000
vt 0.084211 0.000000
vt 0.157895 0.000000
vt 0.094737 0.000000
vt 0.147368 0.000000
vt 0.105263 0.000000
vt 0.136842 0.000000
vt 0.115789 0.000000
vt 0.126316 0.000000
vt 0.454545 0.000000
vt 0.272727 0.000000
vt 0.363636 0.000000
vt 0.181818 0.000000
vt 0.090909 0.000000
vt 0.545455 0.000000
vt 0.727273 0.000000
vt 0.909091 0.000000
vt 0.636364 0.000000
vt 0.818182 0.000000
s 0
usemtl Material.001
f 58/40/30 124/41/30 57/42/30
f 124/41/30 123/43/30 57/42/30
f 124/41/30 122/44/30 123/43/30
f 124/41/30 121/45/30 122/44/30
f 124/41/30 120/46/30 121/45/30
f 124/41/30 119/47/30 120/46/30
f 124/41/30 118/48/30 119/47/30
f 124/41/30 117/49/30 118/48/30
f 124/41/30 116/50/30 117/49/30
f 124/41/30 125/51/30 116/50/30
f 125/51/30 115/52/30 116/50/30
f 58/40/30 150/53/30 124/41/30
f 126/54/30 115/52/30 125/51/30
f 127/55/30 115/52/30 126/54/30
f 128/56/30 115/52/30 127/55/30
f 128/56/30 114/57/30 115/52/30
f 129/58/30 114/57/30 128/56/30
f 130/59/30 114/57/30 129/58/30
f 131/60/30 114/57/30 130/59/30
f 131/60/30 113/61/30 114/57/30
f 132/62/30 113/61/30 131/60/30
f 133/63/30 113/61/30 132/62/30
f 134/64/30 113/61/30 133/63/30
f 134/64/30 112/65/30 113/61/30
f 135/66/30 112/65/30 134/64/30
f 136/67/30 112/65/30 135/66/30
f 136/67/30 111/68/30 112/65/30
f 137/69/30 111/68/30 136/67/30
f 138/70/30 111/68/30 137/69/30
f 138/70/30 110/71/30 111/68/30
f 139/72/30 110/71/30 138/70/30
f 139/72/30 109/73/30 110/71/30
f 140/74/30 109/73/30 139/72/30
f 141/75/30 109/73/30 140/74/30
f 141/75/30 108/76/30 109/73/30
f 142/77/30 108/76/30 141/75/30
f 142/77/30 107/78/30 108/76/30
f 143/79/30 107/78/30 142/77/30
f 143/79/30 106/80/30 107/78/30
f 144/81/30 106/80/30 143/79/30
f 145/82/30 106/80/30 144/81/30
f 145/82/30 105/83/30 106/80/30
f 146/84/30 105/83/30 145/82/30
f 147/85/30 105/83/30 146/84/30
f 147/85/30 104/86/30 105/83/30
f 148/87/30 104/86/30 147/85/30
f 149/88/30 104/86/30 148/87/30
f 58/40/30 60/89/30 150/53/30
f 60/89/30 149/88/30 150/53/30
f 60/89/30 104/86/30 149/88/30
f 60/89/30 103/90/30 104/86/30
f 60/89/30 102/91/30 103/90/30
f 60/89/30 101/92/30 102/91/30
f 60/89/30 100/93/30 101/92/30
f 60/89/30 99/94/30 100/93/30
f 60/89/30 98/95/30 99/94/30
f 60/89/30 97/96/30 98/95/30
f 60/89/30 61/97/30 97/96/30
f 61/97/30 62/98/30 97/96/30
f 62/98/30 96/99/30 97/96/30
f 58/40/30 59/100/30 60/89/30
f 63/101/30 96/99/30 62/98/30
f 64/102/30 96/99/30 63/101/30
f 65/103/30 96/99/30 64/102/30
f 65/103/30 95/104/30 96/99/30
f 66/105/30 95/104/30 65/103/30
f 67/106/30 95/104/30 66/105/30
f 67/106/30 94/107/30 95/104/30
f 68/108/30 94/107/30 67/106/30
f 68/108/30 93/109/30 94/107/30
f 69/110/30 93/109/30 68/108/30
f 69/110/30 92/111/30 93/109/30
f 70/112/30 92/111/30 69/110/30
f 70/112/30 91/113/30 92/111/30
f 71/114/30 91/113/30 70/112/30
f 71/114/30 90/115/30 91/113/30
f 72/116/30 90/115/30 71/114/30
f 72/116/30 89/117/30 90/115/30
f 72/116/30 88/118/30 89/117/30
f 73/119/30 88/118/30 72/116/30
f 73/119/30 87/120/30 88/118/30
f 74/121/30 87/120/30 73/119/30
f 74/121/30 86/122/30 87/120/30
f 74/121/30 85/123/30 86/122/30
f 74/121/30 84/124/30 85/123/30
f 74/121/30 83/125/30 84/124/30
f 74/121/30 82/126/30 83/125/30
f 74/121/30 81/127/30 82/126/30
f 74/121/30 80/128/30 81/127/30
f 74/121/30 79/129/30 80/128/30
f 74/121/30 78/130/30 79/129/30
f 74/121/30 77/131/30 78/130/30
f 74/121/30 76/132/30 77/131/30
f 74/121/30 75/133/30 76/132/30
f 188/134/30 186/135/30 187/136/30
f 188/134/30 185/137/30 186/135/30
f 189/138/30 185/137/30 188/134/30
f 189/138/30 184/139/30 185/137/30
f 190/140/30 184/139/30 189/138/30
f 190/140/30 183/141/30 184/139/30
f 191/142/30 183/141/30 190/140/30
f 191/142/30 182/143/30 183/141/30
f 192/144/30 182/143/30 191/142/30
f 192/144/30 181/145/30 182/143/30
f 193/146/30 211/147/30 192/144/30
f 211/147/30 181/145/30 192/144/30
f 193/146/30 210/148/30 211/147/30
f 212/149/30 181/145/30 211/147/30
f 213/150/30 181/145/30 212/149/30
f 193/146/30 209/151/30 210/148/30
f 214/152/30 181/145/30 213/150/30
f 193/146/30 208/153/30 209/151/30
f 214/152/30 180/154/30 181/145/30
f 194/155/30 208/153/30 193/146/30
f 215/156/30 180/154/30 214/152/30
f 194/155/30 207/157/30 208/153/30
f 216/158/30 180/154/30 215/156/30
f 194/155/30 206/159/30 207/157/30
f 216/158/30 179/160/30 180/154/30
f 195/161/30 206/159/30 194/155/30
f 217/162/30 179/160/30 216/158/30
f 195/161/30 205/163/30 206/159/30
f 218/164/30 179/160/30 217/162/30
f 195/161/30 204/165/30 205/163/30
f 218/164/30 178/166/30 179/160/30
f 196/167/30 204/165/30 195/161/30
f 219/168/30 178/166/30 218/164/30
f 196/167/30 203/169/30 204/165/30
f 219/168/30 177/170/30 178/166/30
f 197/171/30 203/169/30 196/167/30
f 220/172/30 177/170/30 219/168/30
f 197/171/30 202/173/30 203/169/30
f 221/174/30 177/170/30 220/172/30
f 197/171/30 201/175/30 202/173/30
f 221/174/30 176/176/30 177/170/30
f 198/177/30 201/175/30 197/171/30
f 222/178/30 176/176/30 221/174/30
f 198/177/30 200/179/30 201/175/30
f 222/178/30 175/180/30 176/176/30
f 151/42/30 200/179/30 198/177/30
f 223/181/30 175/180/30 222/178/30
f 151/42/30 199/182/30 200/179/30
f 152/183/30 199/182/30 151/42/30
f 152/183/30 246/53/30 199/182/30
f 224/184/30 175/180/30 223/181/30
f 224/184/30 174/185/30 175/180/30
f 152/183/30 245/186/30 246/53/30
f 225/187/30 174/185/30 224/184/30
f 225/187/30 173/188/30 174/185/30
f 153/189/30 245/186/30 152/183/30
f 153/189/30 244/190/30 245/186/30
f 226/191/30 173/188/30 225/187/30
f 226/191/30 172/192/30 173/188/30
f 154/193/30 244/190/30 153/189/30
f 227/194/30 172/192/30 226/191/30
f 154/193/30 243/195/30 244/190/30
f 227/194/30 171/196/30 172/192/30
f 155/197/30 243/195/30 154/193/30
f 228/198/30 171/196/30 227/194/30
f 155/197/30 242/199/30 243/195/30
f 229/200/30 171/196/30 228/198/30
f 155/197/30 241/201/30 242/199/30
f 229/200/30 170/202/30 171/196/30
f 156/203/30 241/201/30 155/197/30
f 230/204/30 170/202/30 229/200/30
f 156/203/30 240/205/30 241/201/30
f 231/206/30 170/202/30 230/204/30
f 156/203/30 239/207/30 240/205/30
f 231/206/30 169/208/30 170/202/30
f 157/209/30 239/207/30 156/203/30
f 232/210/30 169/208/30 231/206/30
f 157/209/30 238/211/30 239/207/30
f 233/212/30 169/208/30 232/210/30
f 157/209/30 237/213/30 238/211/30
f 233/212/30 168/214/30 169/208/30
f 158/215/30 237/213/30 157/209/30
f 234/216/30 168/214/30 233/212/30
f 158/215/30 236/217/30 237/213/30
f 235/218/30 168/214/30 234/216/30
f 158/215/30 235/218/30 236/217/30
f 158/215/30 168/214/30 235/218/30
f 158/215/30 167/219/30 168/214/30
f 159/220/30 167/219/30 158/215/30
f 159/220/30 166/221/30 167/219/30
f 160/222/30 166/221/30 159/220/30
f 160/222/30 165/223/30 166/221/30
f 161/224/30 165/223/30 160/222/30
f 161/224/30 164/225/30 165/223/30
f 162/226/30 164/225/30 161/224/30
f 162/226/30 163/227/30 164/225/30
f 252/228/30 250/229/30 251/230/30
f 252/228/30 249/231/30 250/229/30
f 249/231/30 247/42/30 248/232/30
f 249/231/30 258/53/30 247/42/30
f 252/228/30 258/53/30 249/231/30
f 253/233/30 258/53/30 252/228/30
f 253/233/30 255/234/30 258/53/30
f 255/234/30 257/235/30 258/53/30
f 253/233/30 254/236/30 255/234/30
f 256/237/30 257/235/30 255/234/30
f 58/40/32 57/42/32 259/42/32 260/40/32
f 57/42/33 123/43/33 325/43/33 259/42/33
f 123/43/34 122/44/34 324/44/34 325/43/34
f 122/44/35 121/45/35 323/45/35 324/44/35
f 121/45/36 120/46/36 322/46/36 323/45/36
f 120/46/37 119/47/37 321/47/37 322/46/37
f 119/47/38 118/48/38 320/48/38 321/47/38
f 118/48/39 117/49/39 319/49/39 320/48/39
f 117/49/40 116/50/40 318/50/40 319/49/40
f 125/51/41 124/41/41 326/41/41 327/51/41
f 116/50/42 115/52/42 317/52/42 318/50/42
f 124/41/43 150/53/43 352/53/43 326/41/43
f 126/54/44 125/51/44 327/51/44 328/54/44
f 127/55/45 126/54/45 328/54/45 329/55/45
f 128/56/46 127/55/46 329/55/46 330/56/46
f 115/52/47 114/57/47 316/57/47 317/52/47
f 129/58/48 128/56/48 330/56/48 331/58/48
f 130/59/49 129/58/49 331/58/49 332/59/49
f 131/60/50 130/59/50 332/59/50 333/60/50
f 114/57/51 113/61/51 315/61/51 316/57/51
f 132/62/52 131/60/52 333/60/52 334/62/52
f 133/63/53 132/62/53 334/62/53 335/63/53
f 134/64/54 133/63/54 335/63/54 336/64/54
f 113/61/55 112/65/55 314/65/55 315/61/55
f 135/66/56 134/64/56 336/64/56 337/66/56
f 136/67/57 135/66/57 337/66/57 338/67/57
f 112/65/58 111/68/58 313/68/58 314/65/58
f 137/69/59 136/67/59 338/67/59 339/69/59
f 138/70/60 137/69/60 339/69/60 340/70/60
f 111/68/61 110/71/61 312/71/61 313/68/61
f 139/72/62 138/70/62 340/70/62 341/72/62
f 110/71/63 109/73/63 311/73/63 312/71/63
f 140/74/64 139/72/64 341/72/64 342/74/64
f 141/75/65 140/74/65 342/74/65 343/75/65
f 109/73/66 108/76/66 310/76/66 311/73/66
f 142/77/67 141/75/67 343/75/67 344/77/67
f 108/76/68 107/78/68 309/78/68 310/76/68
f 143/79/69 142/77/69 344/77/69 345/79/69
f 107/78/70 106/80/70 308/80/70 309/78/70
f 144/81/71 143/79/71 345/79/71 346/81/71
f 145/82/72 144/81/72 346/81/72 347/82/72
f 106/80/73 105/83/73 307/83/73 308/80/73
f 146/84/74 145/82/74 347/82/74 348/84/74
f 147/85/75 146/84/75 348/84/75 349/85/75
f 105/83/76 104/86/76 306/86/76 307/83/76
f 148/87/77 147/85/77 349/85/77 350/87/77
f 149/88/78 148/87/78 350/87/78 351/88/78
f 150/53/33 149/88/33 351/88/33 352/53/33
f 104/86/79 103/90/79 305/90/79 306/86/79
f 103/90/80 102/91/80 304/91/80 305/90/80
f 102/91/81 101/92/81 303/92/81 304/91/81
f 101/92/82 100/93/82 302/93/82 303/92/82
f 100/93/83 99/94/83 301/94/83 302/93/83
f 99/94/84 98/95/84 300/95/84 301/94/84
f 98/95/85 97/96/85 299/96/85 300/95/85
f 61/97/41 60/89/41 262/89/41 263/97/41
f 62/98/86 61/97/86 263/97/86 264/98/86
f 97/96/87 96/99/87 298/99/87 299/96/87
f 59/100/41 58/40/41 260/40/41 261/100/41
f 60/89/43 59/100/43 261/100/43 262/89/43
f 63/101/88 62/98/88 264/98/88 265/101/88
f 64/102/89 63/101/89 265/101/89 266/102/89
f 65/103/90 64/102/90 266/102/90 267/103/90
f 96/99/91 95/104/91 297/104/91 298/99/91
f 66/105/92 65/103/92 267/103/92 268/105/92
f 67/106/93 66/105/93 268/105/93 269/106/93
f 95/104/94 94/107/94 296/107/94 297/104/94
f 68/108/95 67/106/95 269/106/95 270/108/95
f 94/107/96 93/109/96 295/109/96 296/107/96
f 69/110/97 68/108/97 270/108/97 271/110/97
f 93/109/98 92/111/98 294/111/98 295/109/98
f 70/112/99 69/110/99 271/110/99 272/112/99
f 92/111/100 91/113/100 293/113/100 294/111/100
f 71/114/101 70/112/101 272/112/101 273/114/101
f 91/113/102 90/115/102 292/115/102 293/113/102
f 72/116/103 71/114/103 273/114/103 274/116/103
f 90/115/104 89/117/104 291/117/104 292/115/104
f 89/117/105 88/118/105 290/118/105 291/117/105
f 73/119/106 72/116/106 274/116/106 275/119/106
f 88/118/107 87/120/107 289/120/107 290/118/107
f 74/121/108 73/119/108 275/119/108 276/121/108
f 87/120/109 86/122/109 288/122/109 289/120/109
f 86/122/110 85/123/110 287/123/110 288/122/110
f 85/123/111 84/124/111 286/124/111 287/123/111
f 84/124/112 83/125/112 285/125/112 286/124/112
f 83/125/113 82/126/113 284/126/113 285/125/113
f 82/126/114 81/127/114 283/127/114 284/126/114
f 81/127/115 80/128/115 282/128/115 283/127/115
f 80/128/116 79/129/116 281/129/116 282/128/116
f 79/129/117 78/130/117 280/130/117 281/129/117
f 78/130/118 77/131/118 279/131/118 280/130/118
f 77/131/119 76/132/119 278/132/119 279/131/119
f 75/133/41 74/121/41 276/121/41 277/133/41
f 76/132/120 75/133/120 277/133/120 278/132/120
f 188/134/121 187/136/121 389/136/121 390/134/121
f 187/136/122 186/135/122 388/135/122 389/136/122
f 186/135/123 185/137/123 387/137/123 388/135/123
f 189/138/124 188/134/124 390/134/124 391/138/124
f 185/137/125 184/139/125 386/139/125 387/137/125
f 190/140/126 189/138/126 391/138/126 392/140/126
f 184/139/127 183/141/127 385/141/127 386/139/127
f 191/142/128 190/140/128 392/140/128 393/142/128
f 183/141/129 182/143/129 384/143/129 385/141/129
f 192/144/130 191/142/130 393/142/130 394/144/130
f 182/143/131 181/145/131 383/145/131 384/143/131
f 193/146/132 192/144/132 394/144/132 395/146/132
f 211/147/133 210/148/133 412/148/133 413/147/133
f 212/149/134 211/147/134 413/147/134 414/149/134
f 213/150/135 212/149/135 414/149/135 415/150/135
f 210/148/136 209/151/136 411/151/136 412/148/136
f 214/152/137 213/150/137 415/150/137 416/152/137
f 209/151/138 208/153/138 410/153/138 411/151/138
f 181/145/139 180/154/139 382/154/139 383/145/139
f 194/155/140 193/146/140 395/146/140 396/155/140
f 215/156/141 214/152/141 416/152/141 417/156/141
f 208/153/142 207/157/142 409/157/142 410/153/142
f 216/158/143 215/156/143 417/156/143 418/158/143
f 207/157/144 206/159/144 408/159/144 409/157/144
f 180/154/145 179/160/145 381/160/145 382/154/145
f 195/161/146 194/155/146 396/155/146 397/161/146
f 217/162/147 216/158/147 418/158/147 419/162/147
f 206/159/148 205/163/148 407/163/148 408/159/148
f 218/164/149 217/162/149 419/162/149 420/164/149
f 205/163/150 204/165/150 406/165/150 407/163/150
f 179/160/151 178/166/151 380/166/151 381/160/151
f 196/167/152 195/161/152 397/161/152 398/167/152
f 219/168/153 218/164/153 420/164/153 421/168/153
f 204/165/154 203/169/154 405/169/154 406/165/154
f 178/166/155 177/170/155 379/170/155 380/166/155
f 197/171/156 196/167/156 398/167/156 399/171/156
f 220/172/157 219/168/157 421/168/157 422/172/157
f 203/169/158 202/173/158 404/173/158 405/169/158
f 221/174/159 220/172/159 422/172/159 423/174/159
f 202/173/160 201/175/160 403/175/160 404/173/160
f 177/170/161 176/176/161 378/176/161 379/170/161
f 198/177/162 197/171/162 399/171/162 400/177/162
f 222/178/163 221/174/163 423/174/163 424/178/163
f 201/175/164 200/179/164 402/179/164 403/175/164
f 176/176/165 175/180/165 377/180/165 378/176/165
f 151/42/166 198/177/166 400/177/166 353/42/166
f 223/181/167 222/178/167 424/178/167 425/181/167
f 200/179/168 199/182/168 401/182/168 402/179/168
f 152/183/169 151/42/169 353/42/169 354/183/169
f 199/182/170 246/53/170 448/53/170 401/182/170
f 224/184/171 223/181/171 425/181/171 426/184/171
f 175/180/172 174/185/172 376/185/172 377/180/172
f 246/53/173 245/186/173 447/186/173 448/53/173
f 225/187/174 224/184/174 426/184/174 427/187/174
f 174/185/175 173/188/175 375/188/175 376/185/175
f 153/189/176 152/183/176 354/183/176 355/189/176
f 245/186/177 244/190/177 446/190/177 447/186/177
f 226/191/178 225/187/178 427/187/178 428/191/178
f 173/188/179 172/192/179 374/192/179 375/188/179
f 154/193/180 153/189/180 355/189/180 356/193/180
f 227/194/181 226/191/181 428/191/181 429/194/181
f 244/190/182 243/195/182 445/195/182 446/190/182
f 172/192/183 171/196/183 373/196/183 374/192/183
f 155/197/184 154/193/184 356/193/184 357/197/184
f 228/198/185 227/194/185 429/194/185 430/198/185
f 243/195/186 242/199/186 444/199/186 445/195/186
f 229/200/187 228/198/187 430/198/187 431/200/187
f 242/199/188 241/201/188 443/201/188 444/199/188
f 171/196/189 170/202/189 372/202/189 373/196/189
f 156/203/190 155/197/190 357/197/190 358/203/190
f 230/204/191 229/200/191 431/200/191 432/204/191
f 241/201/192 240/205/192 442/205/192 443/201/192
f 231/206/193 230/204/193 432/204/193 433/206/193
f 240/205/194 239/207/194 441/207/194 442/205/194
f 170/202/195 169/208/195 371/208/195 372/202/195
f 157/209/196 156/203/196 358/203/196 359/209/196
f 232/210/197 231/206/197 433/206/197 434/210/197
f 239/207/198 238/211/198 440/211/198 441/207/198
f 233/212/199 232/210/199 434/210/199 435/212/199
f 238/211/200 237/213/200 439/213/200 440/211/200
f 169/208/201 168/214/201 370/214/201 371/208/201
f 158/215/202 157/209/202 359/209/202 360/215/202
f 234/216/203 233/212/203 435/212/203 436/216/203
f 237/213/204 236/217/204 438/217/204 439/213/204
f 235/218/205 234/216/205 436/216/205 437/218/205
f 236/217/206 235/218/206 437/218/206 438/217/206
f 168/214/207 167/219/207 369/219/207 370/214/207
f 159/220/208 158/215/208 360/215/208 361/220/208
f 167/219/209 166/221/209 368/221/209 369/219/209
f 160/222/210 159/220/210 361/220/210 362/222/210
f 166/221/211 165/223/211 367/223/211 368/221/211
f 161/224/212 160/222/212 362/222/212 363/224/212
f 165/223/213 164/225/213 366/225/213 367/223/213
f 162/226/214 161/224/214 363/224/214 364/226/214
f 163/227/215 162/226/215 364/226/215 365/227/215
f 164/225/216 163/227/216 365/227/216 366/225/216
f 252/228/217 251/230/217 453/230/217 454/228/217
f 251/230/33 250/229/33 452/229/33 453/230/33
f 250/229/218 249/231/218 451/231/218 452/229/218
f 249/231/219 248/232/219 450/232/219 451/231/219
f 248/232/33 247/42/33 449/42/33 450/232/33
f 247/42/220 258/53/220 460/53/220 449/42/220
f 253/233/221 252/228/221 454/228/221 455/233/221
f 258/53/222 257/235/222 459/235/222 460/53/222
f 254/236/41 253/233/41 455/233/41 456/236/41
f 255/234/223 254/236/223 456/236/223 457/234/223
f 256/237/224 255/234/224 457/234/224 458/237/224
f 257/235/41 256/237/41 458/237/41 459/235/41
usemtl Material.002
f 260/40/31 259/42/31 326/41/31
f 326/41/31 259/42/31 325/43/31
f 326/41/31 325/43/31 324/44/31
f 326/41/31 324/44/31 323/45/31
f 326/41/31 323/45/31 322/46/31
f 326/41/31 322/46/31 321/47/31
f 326/41/31 321/47/31 320/48/31
f 326/41/31 320/48/31 319/49/31
f 326/41/31 319/49/31 318/50/31
f 326/41/31 318/50/31 327/51/31
f 327/51/31 318/50/31 317/52/31
f 260/40/31 326/41/31 352/53/31
f 328/54/31 327/51/31 317/52/31
f 329/55/31 328/54/31 317/52/31
f 330/56/31 329/55/31 317/52/31
f 330/56/31 317/52/31 316/57/31
f 331/58/31 330/56/31 316/57/31
f 332/59/31 331/58/31 316/57/31
f 333/60/31 332/59/31 316/57/31
f 333/60/31 316/57/31 315/61/31
f 334/62/31 333/60/31 315/61/31
f 335/63/31 334/62/31 315/61/31
f 336/64/31 335/63/31 315/61/31
f 336/64/31 315/61/31 314/65/31
f 337/66/31 336/64/31 314/65/31
f 338/67/31 337/66/31 314/65/31
f 338/67/31 314/65/31 313/68/31
f 339/69/31 338/67/31 313/68/31
f 340/70/31 339/69/31 313/68/31
f 340/70/31 313/68/31 312/71/31
f 341/72/31 340/70/31 312/71/31
f 341/72/31 312/71/31 311/73/31
f 342/74/31 341/72/31 311/73/31
f 343/75/31 342/74/31 311/73/31
f 343/75/31 311/73/31 310/76/31
f 344/77/31 343/75/31 310/76/31
f 344/77/31 310/76/31 309/78/31
f 345/79/31 344/77/31 309/78/31
f 345/79/31 309/78/31 308/80/31
f 346/81/31 345/79/31 308/80/31
f 347/82/31 346/81/31 308/80/31
f 347/82/31 308/80/31 307/83/31
f 348/84/31 347/82/31 307/83/31
f 349/85/31 348/84/31 307/83/31
f 349/85/31 307/83/31 306/86/31
f 350/87/31 349/85/31 306/86/31
f 351/88/31 350/87/31 306/86/31
f 260/40/31 352/53/31 262/89/31
f 262/89/31 352/53/31 351/88/31
f 262/89/31 351/88/31 306/86/31
f 262/89/31 306/86/31 305/90/31
f 262/89/31 305/90/31 304/91/31
f 262/89/31 304/91/31 303/92/31
f 262/89/31 303/92/31 302/93/31
f 262/89/31 302/93/31 301/94/31
f 262/89/31 301/94/31 300/95/31
f 262/89/31 300/95/31 299/96/31
f 262/89/31 299/96/31 263/97/31
f 263/97/31 299/96/31 264/98/31
f 264/98/31 299/96/31 298/99/31
f 260/40/31 262/89/31 261/100/31
f 265/101/31 264/98/31 298/99/31
f 266/102/31 265/101/31 298/99/31
f 267/103/31 266/102/31 298/99/31
f 267/103/31 298/99/31 297/104/31
f 268/105/31 267/103/31 297/104/31
f 269/106/31 268/105/31 297/104/31
f 269/106/31 297/104/31 296/107/31
f 270/108/31 269/106/31 296/107/31
f 270/108/31 296/107/31 295/109/31
f 271/110/31 270/108/31 295/109/31
f 271/110/31 295/109/31 294/111/31
f 272/112/31 271/110/31 294/111/31
f 272/112/31 294/111/31 293/113/31
f 273/114/31 272/112/31 293/113/31
f 273/114/31 293/113/31 292/115/31
f 274/116/31 273/114/31 292/115/31
f 274/116/31 292/115/31 291/117/31
f 274/116/31 291/117/31 290/118/31
f 275/119/31 274/116/31 290/118/31
f 275/119/31 290/118/31 289/120/31
f 276/121/31 275/119/31 289/120/31
f 276/121/31 289/120/31 288/122/31
f 276/121/31 288/122/31 287/123/31
f 276/121/31 287/123/31 286/124/31
f 276/121/31 286/124/31 285/125/31
f 276/121/31 285/125/31 284/126/31
f 276/121/31 284/126/31 283/127/31
f 276/121/31 283/127/31 282/128/31
f 276/121/31 282/128/31 281/129/31
f 276/121/31 281/129/31 280/130/31
f 276/121/31 280/130/31 279/131/31
f 276/121/31 279/131/31 278/132/31
f 276/121/31 278/132/31 277/133/31
f 390/134/31 389/136/31 388/135/31
f 390/134/31 388/135/31 387/137/31
f 391/138/31 390/134/31 387/137/31
f 391/138/31 387/137/31 386/139/31
f 392/140/31 391/138/31 386/139/31
f 392/140/31 386/139/31 385/141/31
f 393/142/31 392/140/31 385/141/31
f 393/142/31 385/141/31 384/143/31
f 394/144/31 393/142/31 384/143/31
f 394/144/31 384/143/31 383/145/31
f 395/146/31 394/144/31 413/147/31
f 413/147/31 394/144/31 383/145/31
f 395/146/31 413/147/31 412/148/31
f 414/149/31 413/147/31 383/145/31
f 415/150/31 414/149/31 383/145/31
f 395/146/31 412/148/31 411/151/31
f 416/152/31 415/150/31 383/145/31
f 395/146/31 411/151/31 410/153/31
f 416/152/31 383/145/31 382/154/31
f 396/155/31 395/146/31 410/153/31
f 417/156/31 416/152/31 382/154/31
f 396/155/31 410/153/31 409/157/31
f 418/158/31 417/156/31 382/154/31
f 396/155/31 409/157/31 408/159/31
f 418/158/31 382/154/31 381/160/31
f 397/161/31 396/155/31 408/159/31
f 419/162/31 418/158/31 381/160/31
f 397/161/31 408/159/31 407/163/31
f 420/164/31 419/162/31 381/160/31
f 397/161/31 407/163/31 406/165/31
f 420/164/31 381/160/31 380/166/31
f 398/167/31 397/161/31 406/165/31
f 421/168/31 420/164/31 380/166/31
f 398/167/31 406/165/31 405/169/31
f 421/168/31 380/166/31 379/170/31
f 399/171/31 398/167/31 405/169/31
f 422/172/31 421/168/31 379/170/31
f 399/171/31 405/169/31 404/173/31
f 423/174/31 422/172/31 379/170/31
f 399/171/31 404/173/31 403/175/31
f 423/174/31 379/170/31 378/176/31
f 400/177/31 399/171/31 403/175/31
f 424/178/31 423/174/31 378/176/31
f 400/177/31 403/175/31 402/179/31
f 424/178/31 378/176/31 377/180/31
f 353/42/31 400/177/31 402/179/31
f 425/181/31 424/178/31 377/180/31
f 353/42/31 402/179/31 401/182/31
f 354/183/31 353/42/31 401/182/31
f 354/183/31 401/182/31 448/53/31
f 426/184/31 425/181/31 377/180/31
f 426/184/31 377/180/31 376/185/31
f 354/183/31 448/53/31 447/186/31
f 427/187/31 426/184/31 376/185/31
f 427/187/31 376/185/31 375/188/31
f 355/189/31 354/183/31 447/186/31
f 355/189/31 447/186/31 446/190/31
f 428/191/31 427/187/31 375/188/31
f 428/191/31 375/188/31 374/192/31
f 356/193/31 355/189/31 446/190/31
f 429/194/31 428/191/31 374/192/31
f 356/193/31 446/190/31 445/195/31
f 429/194/31 374/192/31 373/196/31
f 357/197/31 356/193/31 445/195/31
f 430/198/31 429/194/31 373/196/31
f 357/197/31 445/195/31 444/199/31
f 431/200/31 430/198/31 373/196/31
f 357/197/31 444/199/31 443/201/31
f 431/200/31 373/196/31 372/202/31
f 358/203/31 357/197/31 443/201/31
f 432/204/31 431/200/31 372/202/31
f 358/203/31 443/201/31 442/205/31
f 433/206/31 432/204/31 372/202/31
f 358/203/31 442/205/31 441/207/31
f 433/206/31 372/202/31 371/208/31
f 359/209/31 358/203/31 441/207/31
f 434/210/31 433/206/31 371/208/31
f 359/209/31 441/207/31 440/211/31
f 435/212/31 434/210/31 371/208/31
f 359/209/31 440/211/31 439/213/31
f 435/212/31 371/208/31 370/214/31
f 360/215/31 359/209/31 439/213/31
f 436/216/31 435/212/31 370/214/31
f 360/215/31 439/213/31 438/217/31
f 437/218/31 436/216/31 370/214/31
f 360/215/31 438/217/31 437/218/31
f 360/215/31 437/218/31 370/214/31
f 360/215/31 370/214/31 369/219/31
f 361/220/31 360/215/31 369/219/31
f 361/220/31 369/219/31 368/221/31
f 362/222/31 361/220/31 368/221/31
f 362/222/31 368/221/31 367/223/31
f 363/224/31 362/222/31 367/223/31
f 363/224/31 367/223/31 366/225/31
f 364/226/31 363/224/31 366/225/31
f 364/226/31 366/225/31 365/227/31
f 454/228/31 453/230/31 452/229/31
f 454/228/31 452/229/31 451/231/31
f 451/231/31 450/232/31 449/42/31
f 451/231/31 449/42/31 460/53/31
f 454/228/31 451/231/31 460/53/31
f 455/233/31 454/228/31 460/53/31
f 455/233/31 460/53/31 457/234/31
f 457/234/31 460/53/31 459/235/31
f 455/233/31 457/234/31 456/236/31
f 458/237/31 457/234/31 459/235/31
